<svg xmlns="http://www.w3.org/2000/svg" width="88" height="88" fill="none" viewBox="0 0 88 88"><path fill="#00CCBC" d="M82 44c0 20.987-17.013 38-38 38S6 64.987 6 44 23.013 6 44 6s38 17.013 38 38z"/><path fill="#FABE00" d="M27.159 9.926a37.8 37.8 0 0 1 2.024-0.93h6.08v10.476c0.045 4.83 1.478 9.923 4.298 15.277l-8.342 8.35-8.35-8.35c2.816-5.36 4.245-10.451 4.29-15.277V9.927zM20.901 74.176a38.205 38.205 0 0 1-3.538-3.074h30.058v3.074h-26.52zM15.239 56.1a37.215 37.215 0 0 1 0.37-2.77h31.212a43.348 43.348 0 0 1 0.37 2.77H15.24z"/><path fill="#007E8A" d="M46.922 81.89A38.516 38.516 0 0 1 44 82 37.834 37.834 0 0 1 20.9 74.176h26.52v5.401c0.007 0.91-0.159 1.68-0.498 2.312zM39.561 34.749A54.102 54.102 0 0 0 41 37.305c2.968 5.196 4.909 10.537 5.822 16.024H15.61c0.909-5.487 2.847-10.828 5.815-16.024a58.9 58.9 0 0 0 1.445-2.556l8.35 8.35 8.341-8.35z"/><path fill="#450063" d="M17.364 71.102a38.201 38.201 0 0 1-2.362-2.542v-8.534a45.108 45.108 0 0 1 0.118-2.593A28.72 28.72 0 0 1 15.24 56.1h31.953l0.059 0.653 0.06 0.681a50.259 50.259 0 0 1 0.11 2.593v11.076H17.364z"/><path fill="#007E8A" fill-rule="evenodd" d="M25.796 11.612h10.831V4.048h-10.83v7.564z" clip-rule="evenodd"/><path fill="#FABE00" fill-rule="evenodd" d="M35.264 19.472V8.997H27.16v10.475c-0.044 4.826-1.474 9.918-4.29 15.277l8.35 8.349 8.342-8.35c-2.82-5.353-4.252-10.445-4.297-15.276zM15.61 53.33a37.218 37.218 0 0 0-0.37 2.77h31.952a43.21 43.21 0 0 0-0.37-2.77H15.61z" clip-rule="evenodd"/><path fill="#007E8A" fill-rule="evenodd" d="M25.797 11.612h10.831V4.048H25.797v7.564z" clip-rule="evenodd"/><path fill="#fff" fill-rule="evenodd" d="M58.824 79H53v-2h4V50h2v27h3.855a37.863 37.863 0 0 1-4.031 2zM51 34h14V15H51v19z" clip-rule="evenodd"/><path fill="#FABE00" fill-rule="evenodd" d="M65 34H51v11.991c0 1.934 0.682 3.584 2.046 4.95 1.37 1.373 3.02 2.059 4.95 2.059h0.008c1.93 0 3.577-0.686 4.941-2.059 1.37-1.367 2.055-3.017 2.055-4.95V34z" clip-rule="evenodd"/><path fill="#fff" fill-rule="evenodd" d="M58.858 35.666a0.754 0.754 0 0 0 0.241 0.562 0.76 0.76 0 0 0 0.56 0.233 0.77 0.77 0 0 0 0.567-0.233 0.768 0.768 0 0 0 0.232-0.562 0.778 0.778 0 0 0-0.232-0.571 0.77 0.77 0 0 0-0.568-0.233 0.76 0.76 0 0 0-0.559 0.233 0.764 0.764 0 0 0-0.24 0.57M61.477 47.337a1.105 1.105 0 0 0-1.125-1.121 1.077 1.077 0 0 0-0.794 0.324 1.09 1.09 0 0 0-0.331 0.797 1.1 1.1 0 0 0 0.331 0.806 1.077 1.077 0 0 0 0.794 0.324 1.105 1.105 0 0 0 1.125-1.13M56.926 38.804a1.105 1.105 0 0 0 1.125-1.13 1.105 1.105 0 0 0-1.125-1.122 1.076 1.076 0 0 0-0.793 0.325 1.09 1.09 0 0 0-0.332 0.797 1.1 1.1 0 0 0 0.332 0.806 1.076 1.076 0 0 0 0.793 0.324M56.45 49.168a0.768 0.768 0 0 0 0.232-0.562 0.779 0.779 0 0 0-0.232-0.571 0.77 0.77 0 0 0-0.568-0.233 0.76 0.76 0 0 0-0.559 0.233 0.765 0.765 0 0 0-0.24 0.57c0 0.22 0.08 0.407 0.24 0.563a0.76 0.76 0 0 0 0.56 0.233 0.77 0.77 0 0 0 0.567-0.233M56.401 43.237a0.76 0.76 0 0 0 0.56 0.233 0.77 0.77 0 0 0 0.567-0.233 0.769 0.769 0 0 0 0.232-0.563 0.779 0.779 0 0 0-0.232-0.57 0.77 0.77 0 0 0-0.568-0.234 0.76 0.76 0 0 0-0.559 0.234 0.765 0.765 0 0 0-0.24 0.57c0 0.22 0.08 0.407 0.24 0.563" clip-rule="evenodd"/></svg>