<svg xmlns="http://www.w3.org/2000/svg" width="88" height="88" fill="none" viewBox="0 0 88 88"><circle cx="44" cy="44" r="38" fill="#00AAE7"/><g fill="#fff" clip-path="url(#clip0)"><path d="M21.445 46.175a0.494 0.494 0 0 1-0.342-0.116 0.46 0.46 0 0 1-0.105-0.348V33.867a0.46 0.46 0 0 1 0.105-0.348 0.494 0.494 0 0 1 0.337-0.099h1.288a0.458 0.458 0 0 1 0.5 0.39l0.127 0.463a3.949 3.949 0 0 1 1.29-0.83 4.128 4.128 0 0 1 1.544-0.301 3.315 3.315 0 0 1 2.717 1.265 5.335 5.335 0 0 1 1.01 3.42 6.216 6.216 0 0 1-0.5 2.583 4.064 4.064 0 0 1-1.352 1.701 3.346 3.346 0 0 1-1.962 0.58 4.17 4.17 0 0 1-1.394-0.232 3.347 3.347 0 0 1-1.12-0.638v3.901a0.488 0.488 0 0 1-0.099 0.348 0.488 0.488 0 0 1-0.348 0.1l-1.696 0.005zm3.908-5.434a1.673 1.673 0 0 0 1.468-0.68 3.798 3.798 0 0 0 0.47-2.13 3.895 3.895 0 0 0-0.464-2.154 1.667 1.667 0 0 0-1.48-0.68 3.395 3.395 0 0 0-1.742 0.483v4.673a3.273 3.273 0 0 0 1.742 0.494l0.006-0.006zM32.122 42.506a0.383 0.383 0 0 1-0.447-0.447v-8.192a0.46 0.46 0 0 1 0.104-0.348 0.493 0.493 0 0 1 0.337-0.099H33.4a0.458 0.458 0 0 1 0.5 0.389l0.232 0.952a5.092 5.092 0 0 1 1.347-1.115 2.903 2.903 0 0 1 1.346-0.33h0.25a0.522 0.522 0 0 1 0.354 0.098 0.46 0.46 0 0 1 0.105 0.349v1.497a0.488 0.488 0 0 1-0.099 0.337 0.46 0.46 0 0 1-0.348 0.105h-0.819a5.294 5.294 0 0 0-0.998 0.116 4.944 4.944 0 0 0-0.999 0.296v5.95a0.494 0.494 0 0 1-0.099 0.337 0.46 0.46 0 0 1-0.348 0.105h-1.701zM40.104 32.004a1.55 1.55 0 0 1-1.085-0.372 1.307 1.307 0 0 1-0.413-1.016 1.305 1.305 0 0 1 0.413-1.022 1.742 1.742 0 0 1 2.177 0 1.307 1.307 0 0 1 0.412 1.016 1.307 1.307 0 0 1-0.412 1.016 1.549 1.549 0 0 1-1.092 0.378zm-0.853 10.508a0.383 0.383 0 0 1-0.447-0.447v-8.198a0.46 0.46 0 0 1 0.104-0.348 0.493 0.493 0 0 1 0.337-0.099h1.713a0.488 0.488 0 0 1 0.348 0.099 0.488 0.488 0 0 1 0.099 0.348v8.198a0.487 0.487 0 0 1-0.099 0.336 0.46 0.46 0 0 1-0.348 0.105l-1.707 0.006zM44.058 42.505a0.383 0.383 0 0 1-0.447-0.447v-8.191a0.46 0.46 0 0 1 0.105-0.348 0.493 0.493 0 0 1 0.336-0.1h1.283a0.458 0.458 0 0 1 0.5 0.39l0.145 0.482a7.707 7.707 0 0 1 1.7-0.883 4.807 4.807 0 0 1 1.545-0.267 2.398 2.398 0 0 1 2.264 1.161 7.297 7.297 0 0 1 1.713-0.87 5.225 5.225 0 0 1 1.66-0.268 2.6 2.6 0 0 1 1.933 0.697A2.642 2.642 0 0 1 57.48 35.8v6.264a0.494 0.494 0 0 1-0.098 0.337 0.46 0.46 0 0 1-0.349 0.104h-1.689a0.383 0.383 0 0 1-0.447-0.447v-5.712c0-0.809-0.362-1.214-1.086-1.214a4.522 4.522 0 0 0-1.944 0.465v6.467a0.487 0.487 0 0 1-0.1 0.337 0.46 0.46 0 0 1-0.348 0.104h-1.706a0.383 0.383 0 0 1-0.447-0.447v-5.712c0-0.809-0.362-1.214-1.086-1.214a4.348 4.348 0 0 0-1.962 0.482v6.444a0.493 0.493 0 0 1-0.099 0.337 0.46 0.46 0 0 1-0.348 0.105l-1.713 0.005zM63.693 42.772a4.54 4.54 0 0 1-3.397-1.213 4.755 4.755 0 0 1-1.16-3.484 5.16 5.16 0 0 1 1.183-3.628 4.354 4.354 0 0 1 3.373-1.318 3.867 3.867 0 0 1 2.596 0.801 2.67 2.67 0 0 1 0.934 2.148 2.289 2.289 0 0 1-1.01 2.02 5.288 5.288 0 0 1-2.967 0.686 7.037 7.037 0 0 1-1.741-0.198 2.414 2.414 0 0 0 0.72 1.707 2.847 2.847 0 0 0 1.863 0.517 7.42 7.42 0 0 0 0.97-0.064 12.173 12.173 0 0 0 1.312-0.279h0.191c0.202 0 0.302 0.138 0.302 0.412v0.819a0.736 0.736 0 0 1-0.081 0.4 0.653 0.653 0 0 1-0.314 0.204 7.651 7.651 0 0 1-2.774 0.47zm-0.581-5.59a2.428 2.428 0 0 0 1.318-0.28 0.951 0.951 0 0 0 0.412-0.847c0-0.747-0.445-1.12-1.335-1.12-1.142 0-1.802 0.7-1.98 2.101a8.136 8.136 0 0 0 1.573 0.145h0.012zM62.758 52.508c-5.086 3.75-12.46 5.741-18.805 5.741A34.055 34.055 0 0 1 20.981 49.5c-0.476-0.43-0.052-1.016 0.522-0.685a46.279 46.279 0 0 0 22.985 6.09 45.777 45.777 0 0 0 17.51-3.582c0.882-0.365 1.601 0.54 0.76 1.185z"/><path d="M64.9 50.122c-0.65-0.83-4.296-0.395-5.939-0.197-0.5 0.058-0.58-0.372-0.128-0.685 2.903-2.044 7.681-1.452 8.233-0.767 0.551 0.685-0.145 5.463-2.903 7.745-0.418 0.348-0.819 0.162-0.633-0.302 0.621-1.562 1.997-4.987 1.37-5.794z"/></g></svg>