<svg width="1556" height="229" viewBox="0 0 1556 229" xmlns="http://www.w3.org/2000/svg" xmlns:xlink="http://www.w3.org/1999/xlink"><defs><path id="a" d="M0 0h1556v229H0z"/></defs><g fill="none" fill-rule="evenodd"><mask id="b" fill="#fff"><use xlink:href="#a"/></mask><use fill="#EA3F72" xlink:href="#a"/><path d="M240.525 62.15l-57.523-3.56 3.866-8.045-7.586-10.167-13 1.392-6.06 7.118 4 8.74-45.355-1.98-2.6 74.552 35.376 18.703.337-68.35 92.52-11.028-.618-3.18-3.357-4.196zm-81.86 48.143l87.74-13.264-1.906-21.197-85.512 12.294-.324 22.166zm2.028 39.526l85.71-25.283v-18.484l-87.74 13.44 2.03 30.326zM676.772 40.406l-17.37-5.822 13.916-54.793 49.012-38.12h52.256l2.227 14.42-54.483 8.563L691.28-4.13 676.77 40.406zm85.115 10.685c-2.31 4-8.363 4.53-14.316 1.62-4.015-1.965-3.994-6.964-3.556-10.01.238-1.664.903-3.228 1.947-4.546 1.436-1.816 3.83-4.18 6.593-4.253 4.493-.117 8.362 1.897 10.547 5.54 2.19 3.637 1.096 7.643-1.213 11.65zm-14.015-67.14c1.145-4.397 6.532-5.053 9.23-5.1 1.02-.018 2.027.187 2.96.608 1.905.862 5.134 2.707 5.787 5.514.938 4.042.032 7.436-2.866 10.086-2.9 2.65-6.73 2.404-10.786 1.056-4.06-1.345-5.86-6.244-4.326-12.163zM720.236 23.5c-2.886 2.43-6.008 3.1-9.353 1.856-3.343-1.246-4.73-4.442-5.313-8.274-.59-3.835 2.633-7.314 8.064-8.522 4.034-.894 6.793 3.186 7.945 5.343.437.82.687 1.718.73 2.644.09 1.895-.068 5.263-2.074 6.953zm6.77-51.21L698.26 1.577l-13.178 40.92 110.335 36.98-17.853-115.564-50.562 8.377zM366.748 226.696l49.794-10.795 10.34-7.844-6.273-17.36-15.39-.57 11.398-9.676-1.994-14.8-17.097-.618-1.49-9.63-26.485-5.69v-11.1l-12.468 6.83-4.24 10.985 6.2 12.12h-7.696l-14.18 6.305v12.807l13.305 7.874-17.925 5.863.624 19.23 7.337 7.78-5.3.48 6.878 61.402h12.224v-50.642l8.414-1.552-2.118 52.193h13.79l4.132-51.526 7.06-.35-2.534 51.875h13.612l4.133-51.526 7.06-.35-2.534 51.875h12.464l11.207-67.543-62.25 3.95M748.463 245.603l7.15-35.432-.27-17-12.846-2.212.565-7.75 20.39 1.89 20.855 1.61-2.99 9.628-17.004-2.427-.484 12.846-10.313 40.21-5.054-1.363zm66.14-54.23L804.17 169.74l-67.487-1.707-15.61 19.336 8.996 37.448-1.47 48.888 21.317 11.632 34.577-26.933 31.737-45.796-1.628-21.237zm-17.78 81.955l-32.86 18.07-3.367-6.805L793 262.268l30.017-46.006-.6-19.034-5.91-18.22 5.31-3.353 11.812 24.436.325 22.81-37.132 50.428zM-29.063 245.603l7.152-35.432-.272-17-12.847-2.212.567-7.75 20.39 1.89 20.855 1.61-2.99 9.628-17.005-2.427-.484 12.846-10.312 40.21-5.053-1.363zm66.14-54.23L26.645 169.74l-67.488-1.707-15.61 19.336 8.996 37.448-1.47 48.888 21.318 11.632L6.97 258.405l31.737-45.796-1.628-21.237zm-17.78 81.955l-32.86 18.07-3.367-6.805 32.404-22.325 30.017-46.006-.6-19.034-5.908-18.22 5.31-3.353 11.812 24.436.325 22.81-37.133 50.428zM517.56-48.364L440.446 3.83l2.014 3.39 79.146-48.782-4.047-6.802zm26.507 30.154l-91.45 27.667.7 4.018 92.354-23.283-1.603-8.402zm-3.703 57.175l-119.105-.773 12.24 48.792 19.357 7.974-1.378 11.002 53.11 1.608.36-11.868 24.695-11.76 10.72-44.975zm-31.303-25.94L498.695 23.48l18.797 10.077s7.55-16.304 6.19-15.774c-1.362.533-14.62-4.76-14.62-4.76zm-19.664-2.21l-19.846 5.82 3.088 14.456s16.992 1.926 17.227.91c.234-1.015-.47-21.184-.47-21.184zM445.86 14.77l-8.382 14.3 13.656 2.74 4.298-5.508-9.572-11.532zM-100.28 40.406l-17.37-5.822 13.917-54.793 49.012-38.12h52.254L-.24-43.91l-54.48 8.563L-85.774-4.13l-14.506 44.536zm85.116 10.685c-2.31 4-8.363 4.53-14.316 1.62-4.016-1.965-3.995-6.964-3.557-10.01.238-1.664.903-3.228 1.947-4.546 1.434-1.816 3.83-4.18 6.59-4.253 4.495-.117 8.364 1.897 10.55 5.54 2.19 3.637 1.095 7.643-1.214 11.65zM-29.18-16.05c1.146-4.397 6.533-5.053 9.23-5.1 1.02-.018 2.027.187 2.96.608 1.906.862 5.135 2.707 5.788 5.514.94 4.042.032 7.436-2.865 10.086-2.9 2.65-6.73 2.404-10.786 1.056-4.06-1.345-5.862-6.244-4.326-12.163zM-56.814 23.5c-2.886 2.43-6.008 3.1-9.353 1.856-3.344-1.246-4.73-4.442-5.313-8.274-.592-3.835 2.63-7.314 8.062-8.522 4.035-.894 6.794 3.186 7.946 5.343.438.82.688 1.718.732 2.644.09 1.895-.07 5.263-2.075 6.953zm6.77-51.21L-78.79 1.577l-13.178 40.92 110.335 36.98L.517-36.086l-50.563 8.377zM1018.525 62.15l-57.523-3.56 3.866-8.045-7.586-10.167-13 1.392-6.06 7.118 4 8.74-45.355-1.98-2.6 74.552 35.376 18.703.337-68.35 92.52-11.028-.618-3.18-3.356-4.196zm-81.86 48.143l87.74-13.264-1.906-21.197-85.512 12.294-.324 22.166zm2.028 39.526l85.71-25.283v-18.484l-87.74 13.44 2.03 30.326zM1454.772 40.406l-17.37-5.822 13.916-54.793 49.012-38.12h52.256l2.227 14.42-54.483 8.563-31.05 31.217-14.508 44.536zm85.115 10.685c-2.31 4-8.363 4.53-14.316 1.62-4.015-1.965-3.994-6.964-3.556-10.01.238-1.664.903-3.228 1.947-4.546 1.436-1.816 3.83-4.18 6.593-4.253 4.493-.117 8.362 1.897 10.547 5.54 2.19 3.637 1.096 7.643-1.213 11.65zm-14.015-67.14c1.145-4.397 6.532-5.053 9.23-5.1 1.02-.018 2.027.187 2.96.608 1.905.862 5.134 2.707 5.787 5.514.938 4.042.032 7.436-2.866 10.086-2.9 2.65-6.73 2.404-10.786 1.056-4.06-1.345-5.86-6.244-4.326-12.163zm-27.636 39.55c-2.886 2.43-6.008 3.1-9.353 1.856-3.343-1.246-4.73-4.442-5.313-8.274-.59-3.835 2.633-7.314 8.064-8.522 4.034-.894 6.793 3.186 7.945 5.343.437.82.687 1.718.73 2.644.09 1.895-.068 5.263-2.074 6.953zm6.77-51.21L1476.26 1.577l-13.178 40.92 110.335 36.98-17.853-115.564-50.562 8.377zM1144.748 226.696l49.794-10.795 10.34-7.844-6.273-17.36-15.39-.57 11.398-9.676-1.994-14.8-17.097-.618-1.49-9.63-26.485-5.69v-11.1l-12.468 6.83-4.24 10.985 6.2 12.12h-7.696l-14.18 6.305v12.807l13.305 7.874-17.925 5.863.624 19.23 7.336 7.78-5.297.48 6.878 61.402h12.224v-50.642l8.414-1.552-2.118 52.193h13.79l4.132-51.526 7.06-.35-2.534 51.875h13.612l4.133-51.526 7.06-.35-2.534 51.875h12.464l11.207-67.543-62.25 3.95" fill="#E2004F" mask="url(#b)"/><path d="M748.937 245.603l7.152-35.432-.272-17-12.847-2.212.567-7.75 20.39 1.89 20.855 1.61-2.99 9.628-17.005-2.427-.484 12.846-10.312 40.21-5.053-1.363zm66.14-54.23l-10.432-21.634-67.488-1.707-15.61 19.336 8.996 37.448-1.47 48.888 21.318 11.632 34.578-26.933 31.737-45.796-1.628-21.237zm-17.78 81.955l-32.86 18.07-3.367-6.805 32.404-22.325 30.017-46.006-.6-19.034-5.908-18.22 5.31-3.353 11.812 24.436.325 22.81-37.133 50.428zM1295.56-48.364L1218.446 3.83l2.014 3.39 79.146-48.782-4.047-6.802zm26.507 30.154l-91.45 27.667.7 4.018 92.354-23.283-1.603-8.402zm-3.703 57.175l-119.105-.773 12.24 48.792 19.357 7.974-1.378 11.002 53.11 1.608.36-11.868 24.695-11.76 10.72-44.975zm-31.303-25.94l-10.366 10.456 18.797 10.077s7.55-16.304 6.19-15.774c-1.362.533-14.62-4.76-14.62-4.76zm-19.664-2.21l-19.846 5.82 3.088 14.456s16.992 1.926 17.227.91c.234-1.015-.47-21.184-.47-21.184zm-43.536 3.955l-8.382 14.3 13.656 2.74 4.298-5.508-9.572-11.532zM677.72 40.406l-17.37-5.822 13.917-54.793 49.012-38.12h52.254l2.227 14.42-54.48 8.563L692.226-4.13 677.72 40.406zm85.116 10.685c-2.31 4-8.363 4.53-14.316 1.62-4.016-1.965-3.995-6.964-3.557-10.01.238-1.664.903-3.228 1.947-4.546 1.434-1.816 3.83-4.18 6.59-4.253 4.495-.117 8.364 1.897 10.55 5.54 2.19 3.637 1.095 7.643-1.214 11.65zM748.82-16.05c1.146-4.397 6.533-5.053 9.23-5.1 1.02-.018 2.027.187 2.96.608 1.906.862 5.135 2.707 5.788 5.514.94 4.042.032 7.436-2.865 10.086-2.9 2.65-6.73 2.404-10.786 1.056-4.06-1.345-5.862-6.244-4.326-12.163zM721.186 23.5c-2.886 2.43-6.008 3.1-9.353 1.856-3.344-1.246-4.73-4.442-5.313-8.274-.592-3.835 2.63-7.314 8.062-8.522 4.035-.894 6.794 3.186 7.946 5.343.438.82.688 1.718.732 2.644.09 1.895-.07 5.263-2.075 6.953zm6.77-51.21L699.21 1.577l-13.178 40.92 110.335 36.98-17.85-115.564-50.563 8.377z" fill="#E2004F" mask="url(#b)"/></g></svg>