<svg width="550" height="500" xmlns="http://www.w3.org/2000/svg"><path opacity=".08" d="M444.074-24.198a4 4 0 0 0-5.575 1.005l-89.618 129.471c-2.598 3.753-8.445.925-7.116-3.442l38.054-125.004a4 4 0 0 0-2.683-4.998l-93.437-27.868a4 4 0 0 0-4.97 2.668L234.355 93.353a4 4 0 0 1-4.97 2.667L91.25 54.808a4 4 0 0 0-4.97 2.667L50.897 173.666a4 4 0 0 0 1.206 4.187l197.645 171.408a3.998 3.998 0 0 0 5.057.151l114.873-88.201c.329-.252.617-.555.853-.896L525.052 37.07a4 4 0 0 0-1.002-5.559l-79.976-55.71z" fill="#fff"/></svg>