<svg xmlns="http://www.w3.org/2000/svg" width="88" height="88" fill="none" viewBox="0 0 88 88"><path fill="#450064" fill-rule="evenodd" d="M17.123 17.116C9.707 24.56 6 33.513 6 43.975 6 54.303 9.574 63.12 16.72 70.43a2.266 2.266 0 0 0 0.403 0.403C24.54 78.278 33.498 82 44 82c4.195 0 8.154-0.604 11.878-1.81 5.537-1.777 10.537-4.897 14.999-9.356C78.293 63.457 82 54.504 82 43.974c0-10.461-3.707-19.414-11.123-26.858a74.985 74.985 0 0 0-2.97-2.716C61.097 8.8 53.127 6 44 6c-5.838 0-11.207 1.158-16.106 3.47-3.926 1.845-7.516 4.394-10.77 7.646z" clip-rule="evenodd"/><path fill="#007E8A" fill-rule="evenodd" d="M60.444 7.25L41.8 5 41 11.842 60.501 13l-0.056-5.75z" clip-rule="evenodd"/><path fill="#00CBBD" fill-rule="evenodd" d="M41.8 5l-5.6 4.298-1 6.995-11.3-2.55L15 66.206 65.3 75 74 24.337l-11.95-2.548 2.05-9.743-3.65-4.798L57.1 20.79l-16.5-3.447L41.8 5z" clip-rule="evenodd"/><path fill="#000" fill-opacity=".2" fill-rule="evenodd" d="M12.664 13.713C9.554 16.823 8 20.593 8 25.025c0 4.432 1.555 8.203 4.664 11.311C15.806 39.446 19.577 41 23.975 41c4.399 0 8.17-1.554 11.312-4.664C38.429 33.228 40 29.457 40 25.025s-1.57-8.202-4.713-11.312C32.144 10.571 28.374 9 23.975 9c-4.398 0-8.169 1.57-11.311 4.713z" clip-rule="evenodd"/><path fill="#fff" fill-rule="evenodd" d="M31.336 8.713C28.194 5.571 24.408 4 19.976 4c-4.4 0-8.153 1.57-11.263 4.713C5.572 11.822 4 15.593 4 20.025c0 4.432 1.572 8.203 4.713 11.311C11.823 34.446 15.577 36 19.975 36c4.433 0 8.219-1.554 11.361-4.664C34.446 28.228 36 24.457 36 20.025s-1.555-8.203-4.664-11.312z" clip-rule="evenodd"/><path fill="#FB5058" d="M20.003 30.905c3.86 0 6.21-2.241 6.21-6.75v-7.56c0-4.509-2.35-6.75-6.21-6.75-3.861 0-6.21 2.241-6.21 6.75v7.56c0 4.509 2.349 6.75 6.21 6.75zm0-4.05c-1.107 0-1.755-0.648-1.755-2.565v-7.83c0-1.944 0.675-2.565 1.755-2.565 1.08 0 1.755 0.621 1.755 2.565v7.83c0 1.917-0.648 2.565-1.755 2.565z"/><path fill="#fff" d="M50.75 30.504l-2.134 13.283-1.856-11.39-7.753 1.194 1.855 11.389-11.179 1.72 1.482 9.098 19.233 5.064 4.96-9.542 3.149-19.604-7.757-1.212zM43.59 49.56c-0.42 0.338-0.948 0.277-1.5 0.064-0.553-0.211-0.768-0.89-0.513-1.682 0.19-0.588 0.94-0.638 1.314-0.625a0.975 0.975 0 0 1 0.406 0.104c0.258 0.13 0.692 0.404 0.762 0.79 0.102 0.555-0.048 1.01-0.468 1.348zm5.597 0.915c-0.317 0.48-1.085 0.505-1.819 0.105-0.494-0.27-0.457-0.889-0.382-1.263a1.16 1.16 0 0 1 0.275-0.55c0.193-0.215 0.51-0.492 0.86-0.483 0.57 0.015 1.045 0.29 1.297 0.756 0.254 0.465 0.09 0.954-0.228 1.435h-0.003z"/></svg>