<svg xmlns="http://www.w3.org/2000/svg" width="88" height="88" fill="none" viewBox="0 0 88 88"><path fill="#EAEAEA" d="M82 44c0 20.987-17.013 38-38 38S6 64.987 6 44 23.013 6 44 6s38 17.013 38 38z"/><path fill="#440063" d="M52.44 33.57H35.573c-2.58 0-4.573-2.098-4.573-4.681v-9.207C31 17.102 32.993 15 35.573 15H52.44c2.58 0 4.56 2.102 4.56 4.681v9.208c0 2.584-1.98 4.681-4.56 4.681zM35.573 19a0.576 0.576 0 0 0-0.577 0.577v9.316a0.576 0.576 0 0 0 0.577 0.576H52.44a0.576 0.576 0 0 0 0.576-0.576v-9.316A0.576 0.576 0 0 0 52.44 19H35.573zM68.989 74H19.01C15.69 74 13 71.337 13 68.055V53h62v15.055C75 71.337 72.307 74 68.989 74z"/><path fill="#00CCBC" d="M74.507 54.238L44.97 62.862a3.46 3.46 0 0 1-1.93 0L13.5 54.238a3.487 3.487 0 0 1-2.5-3.35v-22.4C11 26.561 12.552 25 14.464 25h59.072C75.448 25 77 26.562 77 28.487v22.401a3.472 3.472 0 0 1-2.493 3.35z"/><path fill="#FABE05" d="M46.657 66h-5.198c-0.772 0-1.401-0.436-1.401-0.977v-4.046c0-0.538 0.626-0.977 1.4-0.977h5.199c0.772 0 1.4 0.437 1.4 0.977v4.046c-0.003 0.54-0.629 0.977-1.4 0.977z"/><path fill="#fff" d="M47.49 31l-1.042 9.7-1.776-8.178-5.57 1.16 1.775 8.177-8.03 1.67 1.418 6.534L48.387 53l3.23-7.099 1.537-14.318L47.49 31zm-4.463 14.073c-0.29 0.26-0.676 0.237-1.084 0.104-0.408-0.133-0.59-0.616-0.435-1.2 0.115-0.432 0.657-0.497 0.928-0.502a0.707 0.707 0 0 1 0.298 0.06c0.191 0.085 0.516 0.266 0.582 0.543 0.095 0.398 0.003 0.733-0.288 0.994zm4.089 0.45c-0.212 0.36-0.767 0.407-1.313 0.145-0.369-0.176-0.366-0.626-0.325-0.9a0.84 0.84 0 0 1 0.178-0.409c0.131-0.163 0.35-0.376 0.605-0.382 0.412-0.01 0.767 0.17 0.968 0.498 0.201 0.327 0.1 0.688-0.112 1.048h-0.001z"/></svg>