<svg xmlns="http://www.w3.org/2000/svg" width="88" height="88" fill="none" viewBox="0 0 88 88"><path fill="#00C7BB" d="M70.87 17.13a41.842 41.842 0 0 0-2.965-2.699C61.095 8.811 53.127 6 44 6c-5.845 0-11.215 1.152-16.114 3.457-3.88 1.832-7.466 4.39-10.756 7.673C9.71 24.55 6 33.506 6 44c0 10.303 3.575 19.124 10.726 26.466a13.033 13.033 0 0 1 0.404 0.404c2.561 2.56 5.303 4.678 8.225 6.353 5.226 3 11.041 4.59 17.443 4.767A81.596 81.596 0 0 0 44 82c4.202 0 8.161-0.595 11.879-1.783 5.541-1.779 10.539-4.895 14.99-9.347C78.292 63.45 82 54.494 82 44c0-0.335-0.004-0.666-0.01-0.995-0.144-6.363-1.678-12.148-4.6-17.355-1.7-3.034-3.874-5.874-6.52-8.52z"/><path fill="#450064" d="M25 56H15v7h10v-7zM40 41H30v22h10V41zM55 49H45v14h10V49zM70 35H60v28h10V35z"/><path fill="#007E8A" fill-rule="evenodd" d="M18 42l16-16 1.414 1.414-16 16L18 42z" clip-rule="evenodd"/><path fill="#007E8A" fill-rule="evenodd" d="M50 37L35 27l1.11-1.664 15 10L50 37z" clip-rule="evenodd"/><path fill="#007E8A" fill-rule="evenodd" d="M49 37l15.447-14.674 1.377 1.45L50.378 38.45 49 37z" clip-rule="evenodd"/><circle cx="65" cy="23" r="4" fill="#fff"/><circle cx="50" cy="36" r="4" fill="#fff"/><circle cx="35" cy="27" r="4" fill="#fff"/><circle cx="19" cy="42" r="4" fill="#fff"/></svg>