<svg xmlns="http://www.w3.org/2000/svg" width="88" height="88" fill="none" viewBox="0 0 88 88"><path fill="#00CCBC" fill-rule="evenodd" d="M6 43.95c0 7.382 1.81 13.975 5.435 19.78a2.603 2.603 0 0 0 0.251 0.402c1.51 2.349 3.322 4.599 5.436 6.746C24.538 78.294 33.497 82 44 82c10.468 0 19.427-3.706 26.876-11.122 2.114-2.147 3.926-4.397 5.436-6.746C80.103 58.228 82 51.5 82 43.951c0-10.47-3.708-19.428-11.124-26.878C63.426 9.69 54.468 6 44 6 33.497 6 24.538 9.691 17.122 17.073c-2.248 2.249-4.144 4.631-5.687 7.148C7.81 30.059 6 36.636 6 43.95z" clip-rule="evenodd"/><path fill="#BAC3C3" d="M24 23a1 1 0 0 1 1-1h44a1 1 0 0 1 1 1v48a1 1 0 0 1-1 1H25a1 1 0 0 1-1-1V23z"/><path fill="#fff" d="M22 20a1 1 0 0 1 1-1h44a1 1 0 0 1 1 1v49a1 1 0 0 1-1 1H23a1 1 0 0 1-1-1V20z"/><path fill="#FB5058" d="M33 17a3 3 0 0 1 3-3h18a3 3 0 0 1 3 3v4H33v-4z"/><path fill="#FB5058" d="M39.754 14.2a5.51 5.51 0 0 1 10.705 0l0.093 0.382a2.004 2.004 0 0 1-1.946 2.48h-6.999a2.004 2.004 0 0 1-1.946-2.48l0.093-0.382z"/><path fill="#BAC3C3" d="M27 43h6v6h-6zM39 44h23v4H39zM27 56h6v6h-6zM39 57h23v4H39z"/><path fill="#440063" fill-rule="evenodd" d="M30.006 32.908l-1.965-1.78L26 33.675l4.151 3.768L37 30.41 34.785 28l-4.779 4.908z" clip-rule="evenodd"/><path fill="#440063" d="M39 31h23v4H39z"/></svg>