<svg xmlns="http://www.w3.org/2000/svg" width="88" height="88" fill="none" viewBox="0 0 88 88"><path fill="#00CCBC" fill-rule="evenodd" d="M6 43.95c0 7.382 1.81 13.975 5.435 19.78a2.603 2.603 0 0 0 0.251 0.402c1.51 2.349 3.322 4.599 5.436 6.746C24.538 78.294 33.497 82 44 82c10.468 0 19.427-3.706 26.876-11.122 2.114-2.147 3.926-4.397 5.436-6.746C80.103 58.228 82 51.5 82 43.951c0-10.47-3.708-19.428-11.124-26.878C63.426 9.69 54.468 6 44 6 33.497 6 24.538 9.691 17.122 17.073c-2.248 2.249-4.144 4.631-5.687 7.148C7.81 30.059 6 36.636 6 43.95z" clip-rule="evenodd"/><rect width="70" height="48" x="9" y="16" fill="#440063" rx="3"/><path fill="#440063" d="M40 60h8v11h-8V60zM55.5 71a0.5 0.5 0 0 1 0.5 0.5v4a0.5 0.5 0 0 1-0.5 0.5h-22a0.5 0.5 0 0 1-0.5-0.5v-4a0.5 0.5 0 0 1 0.5-0.5h22z"/><path fill="#fff" fill-rule="evenodd" d="M13 60h62V20H13v40z" clip-rule="evenodd"/><path fill="#440063" fill-rule="evenodd" d="M35 35h22v-4H35v4zM21 35h9v-4h-9v4zM30 49h22v-4H30v4zM57 49h9v-4h-9v4z" clip-rule="evenodd"/><path fill="#00CCBC" fill-rule="evenodd" d="M26 42h22v-4H26v4zM54 42h18v-4H54v4z" clip-rule="evenodd"/><path fill="#FB5058" fill-rule="evenodd" d="M19 56h17v-4H19v4zm22 0h20v-4H41v4z" clip-rule="evenodd"/><path fill="#BAC3C3" fill-rule="evenodd" d="M16 28h27v-4H16v4z" clip-rule="evenodd"/></svg>