<svg xmlns="http://www.w3.org/2000/svg" width="88" height="88" fill="none" viewBox="0 0 88 88"><path fill="#EAEAEA" d="M82 43.974c0-10.493-3.712-19.436-11.136-26.83C63.475 9.714 54.52 6 44 6 33.515 6 24.56 9.715 17.136 17.144 9.712 24.538 6 33.48 6 43.974 6 54.5 9.712 63.462 17.136 70.856 24.56 78.286 33.515 82 44 82c10.52 0 19.475-3.715 26.864-11.144C78.288 63.462 82 54.501 82 43.974z"/><path fill="#00CCBE" d="M69.194 78.462v-40.21H18.812v40.21h50.382z"/><path fill="#F96" d="M37.096 20.298a1.851 1.851 0 0 0-0.56-1.356 1.852 1.852 0 0 0-1.357-0.56 1.852 1.852 0 0 0-1.356 0.56 1.851 1.851 0 0 0-0.56 1.356v5.896a1.852 1.852 0 0 0 0.56 1.356 1.852 1.852 0 0 0 1.356 0.56 1.852 1.852 0 0 0 1.356-0.56 1.852 1.852 0 0 0 0.56-1.356v-5.896z"/><path fill="#00CCBE" d="M56.582 23.07H31.43v31.72h25.152V23.07zm-20.117 5.453h15.047v20.813H36.465V28.523z"/><path fill="#F96" d="M46.47 6.383h-5.69a1.851 1.851 0 0 0-1.355 0.56 1.851 1.851 0 0 0-0.56 1.356v4.806l-5.13 5.955a1.788 1.788 0 0 0-0.472 1.385c0.041 0.513 0.266 0.944 0.678 1.297a1.788 1.788 0 0 0 1.386 0.472 1.869 1.869 0 0 0 1.15-0.501v11.969a1.851 1.851 0 0 0 0.56 1.356 1.852 1.852 0 0 0 1.356 0.56 1.852 1.852 0 0 0 1.356-0.56 1.8 1.8 0 0 0 0.53-1.002 1.8 1.8 0 0 0 0.531 1.002 1.851 1.851 0 0 0 1.356 0.56 1.852 1.852 0 0 0 1.356-0.56c0.277-0.277 0.454-0.578 0.531-0.914 0.059 0.336 0.224 0.637 0.501 0.914a1.852 1.852 0 0 0 1.356 0.56 1.852 1.852 0 0 0 1.356-0.56 2.043 2.043 0 0 0 0.502-0.796 1.738 1.738 0 0 0 0.471 0.796 1.852 1.852 0 0 0 1.356 0.56 1.851 1.851 0 0 0 1.356-0.56 1.852 1.852 0 0 0 0.56-1.356v-13a2.123 2.123 0 0 0-0.088-0.62l-2.977-8.667-0.06-3.125a1.759 1.759 0 0 0-0.56-1.327 1.86 1.86 0 0 0-1.356-0.56z"/><path fill="#FA5058" d="M50.801 6.557a40.73 40.73 0 0 0-6.798-0.555 40.145 40.145 0 0 0-8.177 0.815v5.288H50.8V6.557z"/><path fill="#fff" d="M47.596 46.398L46.87 56.46l-2.131-8.389-5.715 1.4 2.13 8.387-8.239 2.017 1.702 6.7 14.7 2.526L52.4 61.65l1.071-14.853-5.874-0.398zm-4.103 14.705c-0.292 0.28-0.69 0.27-1.118 0.146-0.426-0.122-0.63-0.614-0.492-1.223 0.103-0.452 0.66-0.539 0.94-0.553a0.73 0.73 0 0 1 0.31 0.051c0.202 0.081 0.544 0.257 0.622 0.54 0.112 0.408 0.03 0.758-0.262 1.038zm4.241 0.318c-0.206 0.379-0.778 0.448-1.352 0.197-0.387-0.169-0.4-0.634-0.368-0.918a0.87 0.87 0 0 1 0.17-0.43c0.13-0.173 0.349-0.4 0.61-0.416 0.427-0.026 0.8 0.148 1.02 0.48 0.22 0.33 0.128 0.706-0.078 1.086h-0.002z"/></svg>