<svg xmlns="http://www.w3.org/2000/svg" width="88" height="88" fill="none" viewBox="0 0 88 88"><path fill="#00CCBE" fill-rule="evenodd" d="M45 6c-6.262 0-11.56 1.156-16 3-4.268 2.315-7.812 4.863-11 8-7.341 7.559-11 16.513-11 27 0 10.303 3.527 19.121 11 26-0.288 0.6-0.155 0.733 0 1 7.295 7.278 16.135 11 27 11 3.64 0 7.546-0.605 11-2 5.685-1.59 10.62-4.707 15-9 7.34-7.544 11-16.496 11-27 0-10.487-3.66-19.441-11-27-0.937-0.824-1.914-1.728-3-3-6.63-5.2-14.494-8-23-8z" clip-rule="evenodd"/><path fill="#017C88" fill-rule="evenodd" d="M78.395 25c-1.267-5.776-5.41-7.801-11.642-6.762L14.266 26.9C8.5 27.84 6.934 30.72 7.2 35.847L78.395 25zm4.365 26.851L80.064 36 8.605 46l2.292 17.827c1.098 6.347 4.91 8.998 11.436 7.95l52.387-8.735c6.46-1.08 9.14-4.81 8.04-11.19z" clip-rule="evenodd"/><path fill="#450064" fill-rule="evenodd" d="M78.395 25C78.329 24.735 7.2 35.847 7.2 35.847 7.2 36.507 8.606 46 8.606 46l71.458-10-1.67-11z" clip-rule="evenodd"/><path fill="#fff" fill-rule="evenodd" d="M16 53.504L17.49 64 59 57.549 57.46 47 16 53.504z" clip-rule="evenodd"/></svg>