<svg xmlns="http://www.w3.org/2000/svg" width="88" height="88" fill="none" viewBox="0 0 88 88"><path fill="#00CCBC" d="M70.87 17.13a41.842 41.842 0 0 0-2.965-2.699C61.095 8.811 53.127 6 44 6c-5.845 0-11.215 1.152-16.114 3.457-3.88 1.832-7.466 4.39-10.756 7.673C9.71 24.55 6 33.506 6 44c0 10.303 3.575 19.124 10.726 26.466a13.033 13.033 0 0 1 0.404 0.404c2.561 2.56 5.303 4.678 8.225 6.353 5.226 3 11.041 4.59 17.443 4.767A81.596 81.596 0 0 0 44 82c4.202 0 8.161-0.595 11.879-1.783 5.541-1.779 10.539-4.895 14.99-9.347C78.292 63.45 82 54.494 82 44c0-0.335-0.004-0.666-0.01-0.995-0.144-6.363-1.678-12.148-4.6-17.355-1.7-3.034-3.874-5.874-6.52-8.52z"/><path fill="#0E5454" d="M53.603 22L65 24.395l-6.194 28.81L50.695 67l-28.202-9.018L21 44.382l16.762-1.675-1.88-17.015 11.603-1.187 1.88 17.015L53.602 22zM41.44 49.728c0.661-0.465 0.922-1.124 0.782-1.978-0.028-0.46-0.385-0.88-1.072-1.256a1.531 1.531 0 0 0-0.556-0.173c-1.101-0.077-1.78 0.195-2.037 0.816-0.215 0.588-0.27 1.116-0.167 1.585 0.141 0.472 0.414 0.787 0.819 0.943 0.948 0.443 1.691 0.464 2.231 0.063zm8.248 1.779c0.584-0.816 0.735-1.525 0.454-2.126-0.345-0.723-0.971-1.132-1.88-1.227-0.415-0.043-0.84 0.18-1.275 0.667a1.384 1.384 0 0 0-0.486 0.808c-0.251 0.927-0.107 1.552 0.433 1.875 0.578 0.328 1.114 0.498 1.61 0.512 0.5-0.023 0.882-0.193 1.144-0.509z"/></svg>