<svg xmlns="http://www.w3.org/2000/svg" width="88" height="88" fill="none" viewBox="0 0 88 88"><path fill="#EAEAEA" d="M6.5 43.974c0-10.493 3.712-19.436 11.136-26.83C25.025 9.714 33.98 6 44.5 6c10.485 0 19.44 3.715 26.864 11.144C78.788 24.538 82.5 33.48 82.5 43.974c0 10.527-3.712 19.488-11.136 26.882C63.94 78.286 54.985 82 44.5 82c-10.52 0-19.475-3.715-26.864-11.144C10.212 63.462 6.5 54.501 6.5 43.974z"/><path fill="#F96" d="M38.647 9.343c1.737 0 3.217 0.615 4.446 1.847 1.229 1.231 1.843 2.715 1.843 4.457 0 1.741-0.614 3.225-1.843 4.457-1.229 1.23-2.709 1.847-4.446 1.847-1.738 0-3.218-0.616-4.447-1.848-1.229-1.231-1.843-2.715-1.843-4.456 0-1.742 0.614-3.226 1.843-4.457 1.229-1.232 2.715-1.847 4.447-1.847z"/><path fill="#98006C" d="M36.745 6.323c2.241-0.51 4.33-0.147 6.26 1.084 1.855 1.173 3.06 2.827 3.628 4.956l-16.265 3.606c-0.41-2.17-0.03-4.175 1.14-6.01 1.253-1.936 2.996-3.144 5.237-3.636z"/><path fill="#440063" d="M67.403 52.68h0.029c4.02 0.023 7.465 1.46 10.326 4.31C80.584 59.844 82 63.28 82 67.31c0 4.07-1.422 7.518-4.271 10.35-2.843 2.874-6.29 4.31-10.326 4.31-4.037 0-7.472-1.43-10.298-4.28-2.866-2.856-4.3-6.304-4.3-10.35 0-4.047 1.428-7.507 4.271-10.38 2.844-2.827 6.29-4.252 10.327-4.28zm1.696 4.221a12.99 12.99 0 0 0-1.667-0.117h-0.03a11.283 11.283 0 0 0-2.076 0.205 9.86 9.86 0 0 0-3.715 1.525 10.31 10.31 0 0 0-1.668 1.349h0.03c-2.048 2.07-3.072 4.562-3.072 7.477 0 2.914 1.035 5.395 3.1 7.447 2.03 2.053 4.5 3.079 7.402 3.079 2.896 0 5.365-1.026 7.4-3.079l0.03 0.03c2.06-2.041 3.095-4.522 3.1-7.448 0.018-2.932-0.994-5.436-3.042-7.506a10.66 10.66 0 0 0-2.457-1.818 9.858 9.858 0 0 0-2.779-1.026c-0.187-0.036-0.368-0.077-0.556-0.118z"/><path fill="#999" d="M65.326 56.99a11.859 11.859 0 0 1 2.077-0.177 13.371 13.371 0 0 1 1.696 0.088 15.604 15.604 0 0 0 0.556 0.117 9.856 9.856 0 0 1 2.78 1.027 10.656 10.656 0 0 1 2.456 1.818c2.048 2.07 3.06 4.574 3.043 7.506-0.006 2.926-1.042 5.407-3.101 7.447l-0.03-0.029-2.837-2.903c1.252-1.237 1.872-2.744 1.872-4.515v-0.03c0.018-1.782-0.596-3.307-1.843-4.574-1.263-1.249-2.785-1.864-4.563-1.847h-0.03c-1.796 0-3.328 0.628-4.592 1.877l-2.838-2.932h-0.029a10.314 10.314 0 0 1 1.668-1.35 9.797 9.797 0 0 1 1.813-0.967 10.3 10.3 0 0 1 1.902-0.557z"/><path fill="#440063" d="M30.953 57.018c2.826 2.856 4.242 6.293 4.242 10.321 0 4.07-1.422 7.518-4.271 10.35C28.08 80.564 24.634 82 20.597 82s-7.47-1.43-10.297-4.28C7.433 74.863 6 71.415 6 67.37c0-4.047 1.428-7.506 4.271-10.38 2.843-2.826 6.284-4.257 10.326-4.28h0.03c4.025 0.023 7.465 1.46 10.326 4.31zm-8.103 0.03a15.65 15.65 0 0 1-0.556-0.117 12.971 12.971 0 0 0-1.667-0.118h-0.03a11.29 11.29 0 0 0-2.077 0.205 9.868 9.868 0 0 0-3.715 1.525 10.32 10.32 0 0 0-1.667 1.349h0.03c-2.049 2.07-3.072 4.562-3.072 7.477 0 2.914 1.035 5.395 3.1 7.447 2.03 2.053 4.5 3.079 7.401 3.079 2.896 0 5.365-1.026 7.401-3.079l0.03 0.03c2.06-2.041 3.095-4.522 3.1-7.448 0.018-2.932-0.994-5.436-3.042-7.506a10.66 10.66 0 0 0-2.457-1.818 9.968 9.968 0 0 0-2.78-1.026z"/><path fill="#999" d="M22.294 56.93a15.431 15.431 0 0 0 0.556 0.118 9.858 9.858 0 0 1 2.78 1.026 10.66 10.66 0 0 1 2.456 1.818c2.048 2.07 3.06 4.574 3.043 7.506-0.006 2.926-1.042 5.407-3.101 7.448l-0.03-0.03-2.837-2.902c1.252-1.238 1.872-2.745 1.872-4.516v-0.03c0.018-1.782-0.597-3.306-1.843-4.573-1.264-1.25-2.785-1.865-4.563-1.847h-0.03c-1.796 0-3.329 0.627-4.592 1.876l-2.838-2.932h-0.03a10.31 10.31 0 0 1 1.668-1.349 9.86 9.86 0 0 1 3.715-1.525 11.86 11.86 0 0 1 2.078-0.175c0.585 0 1.152 0.029 1.696 0.088z"/><path fill="#F96" d="M25.337 39.602l1.638 1.642a2.231 2.231 0 0 1 0.672 1.7 2.367 2.367 0 0 1-0.672 1.701l-1.639 1.642c-0.468 0.47-1.04 0.692-1.726 0.675-0.643 0.017-1.199-0.206-1.667-0.675l-1.638-1.642c-0.468-0.469-0.702-1.044-0.702-1.73 0-0.645 0.234-1.202 0.702-1.671l1.638-1.642c0.45-0.47 1.012-0.704 1.697-0.704a2.303 2.303 0 0 1 1.697 0.704z"/><path fill="#999" d="M45.17 30.571L27.267 42.798l-3.95-4.34 16.324-14.953 5.529 7.066z"/><path fill="#440063" d="M48.915 39.924c0.386-1.05 1.094-1.812 2.135-2.287 1.012-0.48 2.048-0.527 3.101-0.146 1.06 0.404 1.831 1.12 2.311 2.14 0.48 1.038 0.527 2.088 0.146 3.138L47.745 66.87c-0.404 1.068-1.118 1.842-2.136 2.317-1.035 0.48-2.077 0.516-3.13 0.117-1.059-0.387-1.831-1.097-2.311-2.14-0.48-1.02-0.515-2.065-0.117-3.138l8.864-24.102z"/><path fill="#FA5058" d="M30.076 40.892a1.74 1.74 0 0 1 1.023 0.322 1.764 1.764 0 0 1 0.585 0.88 1.592 1.592 0 0 1-0.058 1.056l-1.346 3.518h23.87a1.48 1.48 0 0 1 0.323 0 1.764 1.764 0 0 1 0.702 0.205l0.03 0.03c0.046 0.03 0.093 0.058 0.145 0.088 0.053 0.047 0.111 0.1 0.176 0.146 0.006 0.03 0.03 0.047 0.058 0.059a1.472 1.472 0 0 0 0.147 0.205v0.03l13.28 19.762a1.734 1.734 0 0 1 0.264 1.143 1.728 1.728 0 0 1-0.556 1.056 1.663 1.663 0 0 1-1.111 0.41H46.516a1.51 1.51 0 0 1-0.585-0.058 0.341 0.341 0 0 1-0.117-0.03 0.111 0.111 0 0 1-0.059-0.029h-0.029a1.374 1.374 0 0 1-0.556-0.381 0.831 0.831 0 0 1-0.175-0.176L28.67 51.037l-6.465 17.094A1.716 1.716 0 0 1 21.3 69.07a1.543 1.543 0 0 1-1.257 0.03 1.594 1.594 0 0 1-0.937-0.88 1.53 1.53 0 0 1-0.029-1.26l6.729-17.828c0.011-0.047 0.035-0.094 0.058-0.146l0.38-1.027V47.93a0.801 0.801 0 0 1 0.117-0.323l0.059-0.205a1.617 1.617 0 0 1 0.117-0.293l1.111-2.873h-2.866a1.547 1.547 0 0 1-1.17-0.499 1.553 1.553 0 0 1-0.498-1.173 1.655 1.655 0 0 1 0.497-1.202c0.317-0.317 0.709-0.469 1.17-0.469h5.296zM64.477 66.46l-9.77-14.573-5.88 14.573h15.65zm-18.693-1.437l6.056-15.012h-19.6l13.544 15.012z"/><path fill="#999" d="M50.582 68.483c0 1.642-0.573 3.038-1.726 4.193-1.17 1.173-2.574 1.76-4.212 1.76-1.621 0-3.014-0.587-4.184-1.76-1.17-1.155-1.755-2.551-1.755-4.193 0-1.642 0.585-3.05 1.755-4.222 1.17-1.155 2.563-1.73 4.184-1.73 1.638 0 3.042 0.575 4.212 1.73 1.153 1.173 1.726 2.58 1.726 4.222z"/><path fill="#007E89" d="M53.36 69.92l-5.206 0.645-9.712-17.74c-1.176-2.257-0.93-4.063 0.731-5.424l7.986-5.542-2.047-3.9h15.513c2.674 5.085 1.535 8.633-4.339 10.644l-10.238 3.9L53.36 69.92z"/><path fill="#999" d="M41.338 30.073l-8.952-6.305 14.803-5.981 0.175 0.293-0.41 3.959c1.727-0.423 3.289 0.316 4.681 2.228a0.758 0.758 0 0 0 0.059 0.088l9.39 13.605H45.112l-3.774-7.887z"/><path fill="#007E89" d="M53.156 71.65c-0.275 0.627-0.72 1.067-1.345 1.32l-6.085 2.374a2.313 2.313 0 0 1-1.872-0.03c-0.626-0.275-1.053-0.72-1.287-1.348l-0.03-0.03c-0.234-0.644-0.216-1.272 0.059-1.876 0.275-0.627 0.778-1.302 1.521-2.023l4.71-4.427c1.422 1.583 2.445 2.51 3.071 2.785 0.603 0.252 1.024 0.704 1.258 1.349l0.03 0.03a2.481 2.481 0 0 1-0.03 1.876zM61.727 39.191l-12.93-18.97L67.725 7.26l12.93 18.97-18.927 12.96z"/></svg>