<svg xmlns="http://www.w3.org/2000/svg" width="88" height="88" fill="none" viewBox="0 0 88 88"><path fill="#017C88" fill-rule="evenodd" d="M27.894 9.47c-3.926 1.845-7.515 4.394-10.77 7.646C9.707 24.56 6 33.513 6 43.975 6 54.302 9.574 63.12 16.72 70.43a2.3 2.3 0 0 0 0.403 0.403C24.54 78.278 33.498 82 44 82c4.195 0 8.154-0.604 11.878-1.81 5.537-1.778 10.537-4.897 14.999-9.356C78.293 63.457 82 54.504 82 43.974c0-10.461-3.707-19.414-11.123-26.858a75.695 75.695 0 0 0-2.97-2.716C61.096 8.8 53.127 6 44 6c-5.838 0-11.207 1.157-16.106 3.47z" clip-rule="evenodd"/><path fill="#91A7A7" fill-rule="evenodd" d="M51.172 51H36.829c-0.169 4.214-2.112 7.213-5.829 9l16.066-0.101h0.811L57 60c-3.717-1.787-5.66-4.786-5.828-9z" clip-rule="evenodd"/><path fill="#fff" fill-rule="evenodd" d="M31 62h26v-3H31v3zM18.266 16C16.756 16 16 16.757 16 18.27v30.46c0 1.513 0.755 2.27 2.266 2.27h51.418C71.227 51 72 50.243 72 48.73V18.27c0-1.513-0.772-2.27-2.317-2.27H18.266z" clip-rule="evenodd"/><path fill="#450064" fill-rule="evenodd" d="M69 19.445L19 19l0.454 27h49.142L69 19.445zM45.547 49.604A1.468 1.468 0 0 0 46 48.528a1.47 1.47 0 0 0-0.453-1.075A1.468 1.468 0 0 0 44.472 47a1.47 1.47 0 0 0-1.076 0.453A1.584 1.584 0 0 0 43 48.528a1.582 1.582 0 0 0 0.396 1.076A1.584 1.584 0 0 0 44.472 50a1.582 1.582 0 0 0 1.075-0.396z" clip-rule="evenodd"/><path fill="#fff" fill-rule="evenodd" d="M67 72l-3.722-6.73L25.913 65 21 72h46z" clip-rule="evenodd"/></svg>