<svg xmlns="http://www.w3.org/2000/svg" width="88" height="88" fill="none" viewBox="0 0 88 88"><path fill="#00CCBC" fill-rule="evenodd" d="M6 43.95c0 7.382 1.81 13.975 5.435 19.78a2.603 2.603 0 0 0 0.251 0.402c1.51 2.349 3.322 4.599 5.436 6.746C24.538 78.294 33.497 82 44 82c10.468 0 19.427-3.706 26.876-11.122 2.114-2.147 3.926-4.397 5.436-6.746C80.103 58.228 82 51.5 82 43.951c0-10.47-3.708-19.428-11.124-26.878C63.426 9.69 54.468 6 44 6 33.497 6 24.538 9.691 17.122 17.073c-2.248 2.249-4.144 4.631-5.687 7.148C7.81 30.059 6 36.636 6 43.95z" clip-rule="evenodd"/><path fill="#BAC3C3" fill-rule="evenodd" d="M66 9L17 22v51l48.898-11.851L66 9z" clip-rule="evenodd"/><path fill="#fff" fill-rule="evenodd" d="M68 15l-51 7v49.723a2 2 0 0 0 2.258 1.983l48.692-6.34L68 15z" clip-rule="evenodd"/><path fill="#440063" fill-rule="evenodd" d="M70 22.05L24 22v51.95L69.947 74 70 22.05z" clip-rule="evenodd"/><path fill="#FB5058" fill-rule="evenodd" d="M24 22.05L17 22v52h7V22.05z" clip-rule="evenodd"/><path fill="#fff" fill-rule="evenodd" d="M35.531 47.668l5.492-4.97-2.684-2.966-8.77 7.936 8.77 7.936 2.684-2.965-5.492-4.97zM57.028 47.668l-5.492-4.97 2.684-2.966 8.77 7.936-8.77 7.936-2.684-2.965 5.492-4.97zM51.47 38.225l-6.58 20.129-3.801-1.243 6.58-20.128 3.802 1.242z" clip-rule="evenodd"/></svg>