<svg xmlns="http://www.w3.org/2000/svg" width="88" height="88" fill="none" viewBox="0 0 88 88"><path fill="#00CCBC" fill-rule="evenodd" d="M7 43.95c0 7.382 1.81 13.975 5.435 19.78a2.603 2.603 0 0 0 0.251 0.402c1.51 2.349 3.322 4.599 5.436 6.746C25.538 78.294 34.497 82 45 82c10.468 0 19.427-3.706 26.876-11.122 2.114-2.147 3.926-4.397 5.436-6.746C81.103 58.228 83 51.5 83 43.951c0-10.47-3.708-19.428-11.124-26.878C64.426 9.69 55.468 6 45 6 34.497 6 25.538 9.691 18.122 17.073c-2.248 2.249-4.144 4.631-5.687 7.148C8.81 30.059 7 36.636 7 43.95z" clip-rule="evenodd"/><path fill="#450064" d="M41.644 14h8.281a2.478 2.478 0 0 1 2.485 2.484v17.391h9.078c1.842 0 2.764 2.226 1.46 3.53L47.202 53.16a2.006 2.006 0 0 1-2.826 0L28.61 37.405c-1.304-1.304-0.383-3.53 1.46-3.53h9.088v-17.39A2.478 2.478 0 0 1 41.645 14z"/><path fill="#fff" d="M68 52.55v11.9c0 1.413-0.94 2.55-2.11 2.55H25.11C23.94 67 23 65.863 23 64.45v-11.9c0-1.413 0.94-2.55 2.11-2.55h2.312a2.5 2.5 0 0 1 2.5 2.5v7.913h31.58V52.5a2.5 2.5 0 0 1 2.5-2.5h1.889C67.06 50 68 51.137 68 52.55z"/></svg>