<svg xmlns="http://www.w3.org/2000/svg" width="88" height="88" fill="none" viewBox="0 0 88 88"><path fill="#00CCBE" fill-rule="evenodd" d="M67.907 14.405C61.096 8.802 53.126 6 44 6c-5.838 0-11.207 1.159-16.106 3.474-3.926 1.845-7.516 4.395-10.77 7.65C9.706 24.573 6 33.53 6 44c0 10.335 3.574 19.143 10.72 26.424a2.311 2.311 0 0 0 0.403 0.403C24.54 78.275 33.497 82 44 82c4.195 0 8.154-0.603 11.878-1.81 5.537-1.78 10.537-4.901 14.999-9.362C78.292 63.477 82 54.535 82 44c0-10.469-3.708-19.427-11.123-26.877a76.38 76.38 0 0 0-2.97-2.718z" clip-rule="evenodd"/><path fill="#000" fill-opacity=".2" fill-rule="evenodd" d="M54.88 25.062c-4.562 0.367-8 1.987-10.314 4.86l-1.006 1.302-1.962-1.102c-4.158-2.338-8.536-3.34-13.13-3.006-4.596 0.368-8.033 1.97-10.314 4.81-2.281 2.872-2.75 6.145-1.409 9.82 1.341 3.707 4.092 6.73 8.251 9.067L57.144 69l17.659-22.044c2.314-2.839 2.8-6.113 1.459-9.82-1.308-3.674-4.06-6.68-8.251-9.018-4.193-2.37-8.57-3.39-13.131-3.056z" clip-rule="evenodd"/><path fill="#FB5058" fill-rule="evenodd" d="M76.91 16.87c-3.574-2.958-7.645-4.218-12.212-3.788-4.601 0.433-8.39 2.442-11.37 6.03l-1.29 1.645-1.688-1.345c-3.542-2.957-7.613-4.22-12.213-3.788-4.6 0.432-8.373 2.442-11.319 6.03-2.946 3.588-4.187 7.674-3.723 12.26 0.43 4.651 2.432 8.438 6.007 11.36L56.506 68l22.639-27.51c2.945-3.586 4.203-7.69 3.773-12.307-0.43-4.619-2.433-8.39-6.007-11.313zM34.754 56.402c-1.278-1.077-2.77-1.533-4.475-1.37-1.672 0.163-3.05 0.897-4.132 2.203l-0.491 0.586-0.59-0.49c-1.312-1.075-2.804-1.532-4.476-1.37-1.705 0.164-3.099 0.881-4.18 2.154-1.083 1.305-1.541 2.806-1.378 4.503 0.164 1.663 0.902 3.034 2.213 4.11L27.328 75l8.262-10.033c1.082-1.305 1.542-2.79 1.377-4.454-0.164-1.664-0.901-3.033-2.213-4.111z" clip-rule="evenodd"/></svg>