<svg xmlns="http://www.w3.org/2000/svg" width="88" height="88" fill="none" viewBox="0 0 88 88"><path fill="#067F8A" d="M82 44c0 20.987-17.013 38-38 38S6 64.987 6 44 23.013 6 44 6s38 17.013 38 38z"/><path fill="#000" fill-opacity=".2" d="M72.428 26.893c-6.096-6.096-15.98-6.096-22.076 0l-3.463 3.397-3.241-3.296c-6.096-6.096-15.98-6.096-22.076 0s-6.096 15.98 0 22.076l3.031 3.082 0.004 0.004 21.964 22.18 25.86-25.368c6.093-6.095 6.093-15.98-0.003-22.075z"/><path fill="#FB5058" d="M69.428 23.893c-6.096-6.096-15.98-6.096-22.076 0l-3.463 3.397-3.241-3.296c-6.096-6.096-15.98-6.096-22.076 0s-6.096 15.98 0 22.076l3.031 3.082 0.004 0.004 21.964 22.18 25.86-25.368c6.093-6.095 6.093-15.98-0.003-22.075z"/><path fill="#fff" fill-rule="evenodd" d="M31 70.617l5.4 0.05L39.6 75l0.05-5.391L44 66.384l-5.4-0.05L35.4 62l-0.05 5.392L31 70.617z" clip-rule="evenodd"/><path fill="#fff" d="M62.839 25.805l5.85 2.894-2.884-5.835 2.894-5.85-5.922 2.927L57.011 17l2.883 5.835L57 28.685l5.839-2.88zM35.784 40.348c1.627 1.543 3.905 3.847 7.002 6.868l-1.46 1.253c-3.111-2.804-5.567-4.955-7.403-6.625l-1.185 1.217 6.994 6.972-1.401 1.203-0.051-0.058a115.33 115.33 0 0 1-4.19-3.705c-0.102-0.116-1.062-1.12-2.779-2.887L30 46.013l6.578 6.722 0.199 0.232 0.101 0.116c1.746 1.442 3.48 1.576 5.364 0.467l19.519 20.048 3.111-3.579-20.221-18.736c1.26-2.195 1.242-4.104-0.102-5.791L44.35 45.26a206.372 206.372 0 0 1-0.101-0.116l-7.393-6.023-1.072 1.227zM48.56 35.064L44.655 31c-0.76 5.668 0.95 10.84 5.136 15.517 1.51 1.633 2.854 2.698 4.158 3.426 1.413 0.72 2.96 1.054 4.596 1.054l12.308 13.506 3.173-3.05-20.874-21.706v0.01l-4.592-4.693z"/></svg>