<svg xmlns="http://www.w3.org/2000/svg" width="88" height="88" fill="none" viewBox="0 0 88 88"><path fill="#00C7BB" fill-rule="evenodd" d="M82 43.975c0-10.482-3.704-19.44-11.109-26.874C63.486 9.7 54.522 6 44 6 33.512 6 24.564 9.7 17.159 17.101 9.719 24.534 6 33.493 6 43.975c0 10.481 3.72 19.44 11.159 26.874C24.564 78.282 33.512 82 44 82c10.522 0 19.486-3.718 26.891-11.151C78.296 63.414 82 54.456 82 43.975z" clip-rule="evenodd"/><path fill="#FF9C7C" fill-rule="evenodd" d="M22.092 58.939c-0.268 1.204-0.06 2.388 0.621 3.554 0.746 1.124 1.775 1.868 3.085 2.23 1.293 0.39 2.516 0.275 3.672-0.345 1.105-0.609 1.809-1.544 2.109-2.807l5.447-31.188c0.284-1.234 0.052-2.413-0.693-3.538-0.667-1.117-1.67-1.867-3.013-2.246-1.31-0.361-2.533-0.246-3.672 0.344-1.122 0.638-1.826 1.574-2.11 2.807L22.093 58.94z" clip-rule="evenodd"/><path fill="#450063" d="M17.384 21.6L6.996 15.882l0.874-1.6 9.89-2.886 7.99 4.398 2.715 9.303 38.354 21.112 9.272-2.705 7.99 4.398 3.077 10.544-1.055 0.98-10.388-5.718-3.09 0.902-1.75 3.203 0.906 3.1 10.387 5.718-0.256 1.421-10.507 3.066-7.99-4.398-2.715-9.303-37.737-21.293-9.89 2.886-7.99-4.398-2.895-9.924 0.874-1.6 10.388 5.717 3.09-0.901 1.748-3.203-0.904-3.1z"/><path fill="#FFAD93" fill-rule="evenodd" d="M24.267 49.35c-0.584 1.08-0.722 2.24-0.416 3.485 0.376 1.22 1.12 2.14 2.231 2.76 1.087 0.644 2.25 0.796 3.491 0.459 1.192-0.34 2.104-1.072 2.733-2.2l13.732-28.259c0.607-1.102 0.722-2.264 0.345-3.484-0.305-1.196-1.024-2.117-2.16-2.761-1.11-0.62-2.274-0.772-3.491-0.458-1.216 0.363-2.128 1.095-2.734 2.199L24.267 49.35z" clip-rule="evenodd"/><path fill="#FFAD93" fill-rule="evenodd" d="M29.8 54.033c-0.631 1.08-0.758 2.23-0.38 3.452 0.33 1.222 1.063 2.132 2.198 2.729 1.089 0.645 2.253 0.798 3.496 0.46 1.217-0.315 2.118-1.035 2.7-2.163l16.278-29.337c0.632-1.08 0.77-2.244 0.415-3.488-0.353-1.198-1.086-2.107-2.198-2.73-1.089-0.643-2.253-0.797-3.496-0.459-1.216 0.362-2.116 1.084-2.699 2.163L29.8 54.033z" clip-rule="evenodd"/><path fill="#FFAD93" fill-rule="evenodd" d="M35.97 60.083c-0.606 1.102-0.744 2.263-0.415 3.484 0.353 1.196 1.074 2.117 2.16 2.761 1.111 0.62 2.287 0.76 3.527 0.424 1.217-0.315 2.14-1.035 2.769-2.162l16.263-29.305c0.607-1.103 0.733-2.252 0.38-3.449-0.354-1.243-1.086-2.176-2.198-2.797-1.11-0.62-2.274-0.773-3.49-0.46-1.215 0.362-2.127 1.095-2.733 2.198L35.97 60.083z" clip-rule="evenodd"/><path fill="#FFAD93" fill-rule="evenodd" d="M63.84 35.743c-1.087-0.644-2.252-0.797-3.492-0.459-1.193 0.339-2.092 1.06-2.699 2.162L43.755 57.574c-0.654 1.103-0.793 2.265-0.416 3.486 0.377 1.22 1.098 2.14 2.16 2.76 1.111 0.621 0.284 3.952 1.501 3.638 1.24-0.339 3.02 2.22 4.796 0 1.776-2.221 13.86-25.54 13.86-25.54 0.606-1.055 0.734-2.205 0.38-3.45-0.33-1.22-1.061-2.129-2.196-2.725z" clip-rule="evenodd"/><path fill="#FB5058" d="M49.357 81.66l6.064-13.196L20.89 48.376l-8.344 17.013a40.215 40.215 0 0 0 3.754 4.586 46.137 46.137 0 0 0 0.695 0.697c0.712 0.7 1.407 1.368 2.09 2.003C26.098 78.89 34.401 82 43.992 82c1.836 0 3.624-0.113 5.365-0.34z"/></svg>