<svg xmlns="http://www.w3.org/2000/svg" width="88" height="88" fill="none" viewBox="0 0 88 88"><circle cx="44" cy="44" r="38" fill="#FB5058"/><g clip-path="url(#clip0)"><path fill="#B63336" fill-rule="evenodd" d="M20.615 69.513L54.222 82l19.643-44.502-10.498-19.92-22.845 6.842-19.907 45.093zm38.604-34.28c2.396-0.98 3.57-3.638 2.62-5.932-0.951-2.296-3.666-3.36-6.062-2.378-2.397 0.982-3.57 3.64-2.62 5.933 0.95 2.296 3.665 3.36 6.062 2.378z" clip-rule="evenodd"/><path fill="#FFBEA2" fill-rule="evenodd" d="M6 50.777l27.281 25.187L69.82 40.983V15.328H43.025L6 50.777zm50.667-17.724c2.69 0 4.87-2.088 4.87-4.664 0-2.575-2.18-4.664-4.87-4.664s-4.871 2.089-4.871 4.664c0 2.576 2.18 4.665 4.87 4.665z" clip-rule="evenodd"/><path stroke="#FA4F59" stroke-miterlimit="10" stroke-width="13.928" d="M46.052 48.531c1.888 0 3.418-1.52 3.418-3.398 0-1.876-1.53-3.398-3.418-3.398-1.888 0-3.418 1.522-3.418 3.398 0 1.877 1.53 3.398 3.418 3.398z"/><path fill="#FABE00" fill-rule="evenodd" d="M6 50.777l27.281 25.187L69.82 40.983V15.328H43.025L6 50.777zm50.667-17.724c2.69 0 4.87-2.088 4.87-4.664 0-2.575-2.18-4.664-4.87-4.664s-4.871 2.089-4.871 4.664c0 2.576 2.18 4.665 4.87 4.665z" clip-rule="evenodd"/><path fill="#B63336" fill-rule="evenodd" d="M69.82 32.926c6.882-0.91 12.18-6.562 12.18-13.4C82 12.057 75.674 6 67.87 6c-7.803 0-14.129 6.056-14.129 13.527 0 4.93 2.753 9.241 6.867 11.605v-0.005a4.518 4.518 0 0 0 0.927-2.737 4.398 4.398 0 0 0-0.2-1.32l-0.002-0.004c-2.258-1.797-3.696-4.508-3.696-7.54 0-5.409 4.58-9.795 10.231-9.795 5.652 0 10.232 4.384 10.232 9.796 0 4.772-3.564 8.747-8.284 9.617l0.005 3.782z" clip-rule="evenodd"/><path fill="#fff" d="M45.417 29.248l-21.23 15.249h8.823l-6.15 14.937 21.843-14.978h-9.426l6.14-15.208z"/></g></svg>