<svg xmlns="http://www.w3.org/2000/svg" width="88" height="88" fill="none" viewBox="0 0 88 88"><path fill="#00CCBE" d="M44 82c20.987 0 38-17.013 38-38S64.987 6 44 6 6 23.013 6 44s17.013 38 38 38z"/><path fill="#FF5863" d="M53.817 64.698c5.587 0 10.116-4.16 10.116-9.293 0-5.133-4.529-9.293-10.116-9.293-5.586 0-10.115 4.16-10.115 9.293 0 5.132 4.529 9.293 10.115 9.293z"/><path fill="#E8EBEB" d="M34.226 64.587c5.568 0 10.082-4.147 10.082-9.264 0-5.117-4.514-9.264-10.082-9.264-5.568 0-10.082 4.148-10.082 9.264 0 5.117 4.514 9.264 10.082 9.264z"/><path fill="#FABE00" d="M44.005 64.078c5.568 0 10.082-4.148 10.082-9.265 0-5.116-4.514-9.264-10.082-9.264-5.568 0-10.082 4.148-10.082 9.264 0 5.117 4.514 9.264 10.082 9.264z"/><path fill="#450064" d="M66.949 55c0 7.35-4.172 8.806-9.95 13H31c-5.776-4.19-9.89-5.65-9.89-13h45.84z"/><path fill="#fff" d="M64.457 46l0.385 5.748-4.358 3.786 5.748-0.41 3.786 4.359-0.409-5.748 4.382-3.786-5.772 0.409L64.458 46z"/><path fill="#fff" d="M45.092 31.142S34.764 19.396 45.26 14.548c0 0-0.457 4.093 0.933 6.84 1.39 2.746 4.685 5.906-1.101 9.754z" opacity=".9"/><path fill="#fff" d="M47.511 42.23s18.529-11.006 3.79-22.011c0 0 1.218 7.811-1.173 10.77-2.39 2.958-8.557 5.945-2.617 11.24z" opacity=".6"/><path fill="#fff" d="M40.898 38.882s-15.066-13.237-2.665-18.307c0 0-0.034 3.8 1.481 6.638 1.515 2.838 6.619 7.936 1.184 11.669z" opacity=".8"/></svg>