<svg xmlns="http://www.w3.org/2000/svg" width="88" height="88" fill="none" viewBox="0 0 88 88"><path fill="#00C7BB" d="M70.87 17.13a41.842 41.842 0 0 0-2.965-2.699C61.095 8.811 53.127 6 44 6c-5.845 0-11.215 1.152-16.114 3.457-3.88 1.832-7.466 4.39-10.756 7.673C9.71 24.55 6 33.506 6 44c0 10.303 3.575 19.124 10.726 26.466a13.033 13.033 0 0 1 0.404 0.404c2.561 2.56 5.303 4.678 8.225 6.353 5.226 3 11.041 4.59 17.443 4.767A81.596 81.596 0 0 0 44 82c4.202 0 8.161-0.595 11.879-1.783 5.541-1.779 10.539-4.895 14.99-9.347C78.292 63.45 82 54.494 82 44c0-0.335-0.004-0.666-0.01-0.995-0.144-6.363-1.678-12.148-4.6-17.355-1.7-3.034-3.874-5.874-6.52-8.52z"/><circle cx="62.881" cy="31.377" r="5.804" fill="#fff" transform="rotate(-19.758 62.881 31.377)"/><path fill="#450064" d="M60.017 22.384a9.18 9.18 0 0 1 2.478-0.328L63.577 20l3.71 0.987-0.09 2.314a9.593 9.593 0 0 1 1.989 1.519l2.21-0.687 1.928 3.314-1.704 1.577a9.385 9.385 0 0 1 0.329 2.476L74 32.58l-0.982 3.708-2.321-0.09a9.352 9.352 0 0 1-1.52 1.986l0.693 2.21-3.322 1.926-1.573-1.702a9.318 9.318 0 0 1-2.47 0.325L61.428 43l-3.708-0.987 0.084-2.321a9.225 9.225 0 0 1-1.982-1.518l-2.218 0.692-1.92-3.319 1.702-1.571a9.55 9.55 0 0 1-0.333-2.484L51 30.42l0.988-3.707 2.317 0.083a9.45 9.45 0 0 1 1.504-1.973l-0.692-2.216 3.32-1.92 1.579 1.704 0.001-0.006zm0.573 5.474a4.114 4.114 0 0 0-1.023 6.274 4.116 4.116 0 0 0 7.196-2.454 4.11 4.11 0 0 0-3.049-4.238 4.117 4.117 0 0 0-3.124 0.418z"/><circle cx="34.916" cy="48.532" r="9" fill="#fff"/><path fill="#450064" d="M35.816 31.797a16.802 16.802 0 0 1 4.338 0.937l3.03-2.781 5.597 3.868-1.532 3.814a16.707 16.707 0 0 1 2.413 3.723l4.113 0.163L55 48.21l-3.806 1.646a16.749 16.749 0 0 1-0.934 4.333l2.781 3.026-3.866 5.589-3.819-1.533a16.514 16.514 0 0 1-3.722 2.403l-0.162 4.114-6.692 1.214-1.614-3.778a16.366 16.366 0 0 1-4.337-0.937l-3.03 2.782-5.597-3.868 1.52-3.788a16.5 16.5 0 0 1-2.41-3.728l-4.113-0.162L14 48.768l3.78-1.61a16.745 16.745 0 0 1 0.934-4.332L15.932 39.8 19.8 34.21l3.796 1.517a16.751 16.751 0 0 1 3.726-2.4l0.162-4.114L34.175 28l1.614 3.778 0.027 0.02zm-2.336 9.474a7.296 7.296 0 0 0-5.824 5.636 7.29 7.29 0 0 0 2.988 7.538 7.31 7.31 0 0 0 8.11 0.13 7.287 7.287 0 0 0 3.22-7.436 7.309 7.309 0 0 0-8.49-5.873l-0.004 0.005z"/></svg>