<svg xmlns="http://www.w3.org/2000/svg" width="88" height="88" fill="none" viewBox="0 0 88 88"><path fill="#00CCBE" d="M44 82c20.987 0 38-17.013 38-38S64.987 6 44 6 6 23.013 6 44s17.013 38 38 38z"/><path fill="#007D8A" fill-rule="evenodd" d="M67 34v5.6H50.54l-0.25 1.19a4.31 4.31 0 0 1-8.44-1.73v-0.28L38.5 40.7a4.32 4.32 0 0 1-5.89-1.57 4.25 4.25 0 0 1 0.75-5.23h-1.63a4.29 4.29 0 1 1 0-8.57h1.61l-0.41-0.26a4.272 4.272 0 0 1-1.38-5.9 4.33 4.33 0 0 1 5.94-1.37l1.49 0.92-0.76-1.29a4.269 4.269 0 0 1 1.55-5.86 4.33 4.33 0 0 1 5.9 1.55l0.61 1v-2.23a4.32 4.32 0 0 1 8.63 0v1.6l0.26-0.41a4.32 4.32 0 0 1 5.93-1.39 4.25 4.25 0 0 1 1.4 5.89l-0.39 0.64 0.62-0.39a4.33 4.33 0 0 1 5.94 1.37 4.27 4.27 0 0 1-1.38 5.9l-0.41 0.26h1.61a4.3 4.3 0 0 1 4.31 4.28A4.77 4.77 0 0 1 68.08 34H67z" clip-rule="evenodd"/><path stroke="#F29167" stroke-width="2.09" d="M37.4 60.25l-2.58 4.12M36.05 49l-4.79 7.67M34.32 39.26l-5.52 8.85"/><path fill="#F96" d="M23 1.71c5.19-1 10.78 13.07 15.23 33.89 4.39 20.53 6.8 37.5 1 39.42-6.08 1.21-10.9-15.24-15.24-35.79C19.65 18.68 17.08 2.9 23 1.71z"/><path fill="#FBD3C2" d="M25.843 8.933l-3.3 5.04 2.52 1.65 3.3-5.04-2.52-1.65zM28.944 16.999l-5.348 8.2 2.513 1.639 5.347-8.2-2.512-1.64zM31.722 25.726l-5.894 9.038 2.513 1.638 5.894-9.038-2.513-1.638z"/><path fill="#964E2A" d="M55 75h12V34l-6 5-6-5v41z"/><path fill="#BE7F5F" d="M49.67 39l-5.34-5L39 39l-5.33-5-5.34 5L23 34v42h32V34l-5.33 5z"/><path fill="#fff" fill-rule="evenodd" d="M47.78 65c0-6.08 3.42-11 7.64-11h18.71v22H55.06c-4.06-0.27-7.28-5.08-7.28-11z" clip-rule="evenodd"/><path fill="#CCC" d="M74.13 76c4.22 0 7.65-4.92 7.65-11s-3.43-11-7.65-11c-4.22 0-7.65 4.92-7.65 11s3.43 11 7.65 11z"/><path fill="#440063" d="M74.13 69.79c1.84 0 3.33-2.14 3.33-4.78s-1.46-4.79-3.33-4.79-3.34 2.14-3.34 4.78 1.5 4.79 3.34 4.79z"/><path fill="#E1AB00" d="M19 67.83V76h9v-8.17"/><path fill="#FABE00" d="M14.124 51.64c-4.382-1.947-9.484 1.37-9.214 6.166 0 0.213 0 0.436 0.06 0.65l1.801 12.098c0.25 3.509 2.711 6.774 9.124 4.898 6.422 1.876 8.874-1.39 9.134-4.898l1.8-12.11c0-0.222 0.05-0.435 0.06-0.658 0.27-4.797-4.761-8.113-9.143-6.268l-1.351 0.558a4.6 4.6 0 0 1-1.18 0l-1.09-0.436z"/><path fill="#EA515B" fill-rule="evenodd" d="M35.06 58.94A9.62 9.62 0 0 0 28 56a10 10 0 0 0-7.06 17.11A9.36 9.36 0 0 0 28 76a9.459 9.459 0 0 0 7.06-2.89 9.999 9.999 0 0 0 0-14.17z" clip-rule="evenodd"/><path fill="#007D8A" fill-rule="evenodd" d="M14.347 53.86a11.5 11.5 0 0 0-2.247-6.83l2.414-1.78a14.5 14.5 0 0 1 2.833 8.61h-3zM30.63 54.72a1 1 0 0 0-0.71 0.11 1.31 1.31 0 0 0-0.48 0.51 1.88 1.88 0 0 0-0.09 0.73l0.3 1.53-1.46 0.5a0.91 0.91 0 0 0-0.53 0.4 1 1 0 0 0-0.2 0.7 1 1 0 0 0 0.21 0.65 1 1 0 0 0 0.56 0.42l1.44 0.49-0.33 1.53a1.44 1.44 0 0 0 0.11 0.66 0.93 0.93 0 0 0 0.52 0.53 1 1 0 0 0 0.63 0.15 0.76 0.76 0 0 0 0.65-0.27l1.15-1 1.23 1a1.54 1.54 0 0 0 0.6 0.3 1.3 1.3 0 0 0 0.71-0.16 1.06 1.06 0 0 0 0.42-0.51 1.08 1.08 0 0 0 0.14-0.68l-0.34-1.53 1.51-0.54a1 1 0 0 0 0.53-0.41 1 1 0 0 0 0.2-0.69 0.93 0.93 0 0 0-0.22-0.66 1 1 0 0 0-0.55-0.42l-1.45-0.49 0.28-1.52a1.07 1.07 0 0 0-0.06-0.67 1.42 1.42 0 0 0-0.46-0.53 1.2 1.2 0 0 0-0.69-0.15 1.1 1.1 0 0 0-0.65 0.27l-1.2 1-1.13-1a1.06 1.06 0 0 0-0.64-0.25z" clip-rule="evenodd"/></svg>