<svg xmlns="http://www.w3.org/2000/svg" width="88" height="88" fill="none" viewBox="0 0 88 88"><g clip-path="url(#clip0_25606_6956)"><circle cx="44" cy="44" r="38" fill="#00CCBC"/><path fill="#9C006D" d="M26.245 77.626c-11.882-6.428-20.01-19.1-20.165-33.719a42.53 42.53 0 0 1 0.144-2.98c1.049-0.578 2.38-0.862 4.022-0.862H28.28c4.515 0 6.777 2.174 6.777 6.512l-4.068 31.049h-4.743z"/><path fill="#9C006D" d="M8.165 56.201A38.941 38.941 0 0 1 6.08 43.587c0-0.873 0.029-1.74 0.085-2.598a15.868 15.868 0 0 1 0.765-0.276c1.352-0.384 2.658-0.247 3.91 0.402 1.25 0.65 2.082 1.619 2.484 2.917 0.402 1.298 0.265 2.551-0.411 3.749L8.165 56.2zM27.198 40.85c1.252-0.65 2.558-0.786 3.91-0.402 1.352 0.384 2.375 1.18 3.06 2.377l14.36 25.447c0.666 1.207 0.803 2.45 0.402 3.749-0.402 1.307-1.234 2.286-2.485 2.935-1.252 0.65-2.549 0.786-3.9 0.402-1.362-0.384-2.376-1.18-3.06-2.386L25.133 47.525c-0.676-1.198-0.813-2.45-0.411-3.749 0.402-1.298 1.224-2.277 2.475-2.926z"/><path fill="#E8EBEB" d="M23.072 75.48c-4.51-2.78-6.802-4.993-9.838-9.39V40.066h11.447l-1.61 35.415z"/><path fill="#CE7447" d="M18.958 47.577a5.727 5.727 0 0 0 5.724-5.732v-8.934H13.233v8.934a5.727 5.727 0 0 0 5.724 5.732z"/><path fill="#A56545" d="M24.681 37.56v5.009l-11.447-2.263v-2.745h11.447z"/><path fill="#CE7447" fill-rule="evenodd" d="M24.681 41.703v-2.627l-11.447-1.873v4.5c0 1.118 0.56 2.083 1.68 2.894 1.106 0.794 2.45 1.191 4.033 1.191h0.022c1.583 0 2.935-0.397 4.055-1.191 1.105-0.81 1.657-1.776 1.657-2.895z" clip-rule="evenodd"/><path fill="#A56545" fill-rule="evenodd" d="M24.681 39.35v-5.366H13.235v3.32l11.447 2.045z" clip-rule="evenodd"/><path fill="#CE7447" fill-rule="evenodd" d="M26.49 26.378c0.704 0 1.309-0.26 1.814-0.779 0.49-0.52 0.735-1.16 0.735-1.923 0-0.747-0.245-1.38-0.735-1.9a2.259 2.259 0 0 0-0.735-0.559h-1.103l0.139-0.024c-1.563-3.133-2.306-5.6-2.23-7.401-3 2.434-6.416 2.434-10.244 0 0.092 1.947-0.682 4.366-2.32 7.255v0.17h-1.493a1.487 1.487 0 0 0-0.161 0.097 2.11 2.11 0 0 0-0.551 0.463c-0.506 0.52-0.758 1.152-0.758 1.899 0 0.763 0.252 1.404 0.758 1.923 0.49 0.52 1.08 0.78 1.768 0.78v4.795c0 2.922 1.394 4.383 4.181 4.383h6.753c2.788 0 4.182-1.461 4.182-4.383v-4.796z" clip-rule="evenodd"/><path fill="#FABE00" fill-rule="evenodd" d="M27.363 15.983c0-3.263-1.539-4.894-4.617-4.894h-7.58c-3.094 0-4.64 1.631-4.64 4.894v5.161a1.6 1.6 0 0 0-0.208 0.073h1.494v-0.17c1.638-2.89 2.412-5.308 2.32-7.255 3.828 2.434 7.243 2.434 10.245 0-0.076 1.801 0.666 4.268 2.228 7.4l-0.138 0.025h1.103a1.575 1.575 0 0 0-0.207-0.073v-5.161z" clip-rule="evenodd"/><path fill="#00CCBC" fill-rule="evenodd" d="M10.525 19.83v-0.098 0.097z" clip-rule="evenodd"/><path stroke="#00CCBC" stroke-linecap="round" stroke-linejoin="round" stroke-width=".036" d="M10.525 19.83v-0.098"/><path fill="#7B1B1F" d="M80.794 44.917l-5.782 2.337 4.138 9.976a36.89 36.89 0 0 0 2.128-11.14l-0.484-1.173z"/><path fill="#FB5159" d="M78.38 60.206l-4.583-11.275c-0.494-1.172-0.494-2.345 0.009-3.526 0.502-1.182 1.343-2.012 2.54-2.5C77.532 42.42 79.34 42.42 80.498 43c1 0.5 1 0.5 1.482 1.331a84.408 84.408 0 0 1 0.01 0.438 37.828 37.828 0 0 1-3.61 15.437z"/><path fill="#FB5159" d="M70.928 70.812L39.7 70.066l12-22.524c0-4.284 4.298-6.061 9.49-6.061h12.651c1.06 0 2.01 0.288 2.86 0.875a5.509 5.509 0 0 1 1.023 0.902c1.087 1.19 1.626 2.616 1.626 4.284l0.907 7.864a37.989 37.989 0 0 1-9.33 15.406z"/><path fill="#FB5159" d="M71.719 70c-4.391 4.653-10.022 8.273-16.274 10.246V70H71.72z"/><path fill="#201F1D" fill-rule="evenodd" d="M77.999 29c-0.76-3-0.76-4.5-0.76-7.26-0.874-4.253-3.509-7.057-7.857-7.638-0.828-0.136-1.737-0.136-2.726 0-4.368 0.578-7.017 3.362-7.897 7.638 0 2.76-0.26 4.76-0.76 7.26-0.34 1.699-3.472 5.5-3.472 9.547 0 6.207 8.65 6.953 13.472 6.953 4.84 0 13.472-0.5 13.472-6.953 0-4.047-2.66-6.335-3.472-9.547z" clip-rule="evenodd"/><path fill="#D9A084" d="M64 37.873v3.707c0 2.3 1.792 4.167 4 4.167s4-1.867 4-4.167v-5.403"/><path fill="#CA7E58" d="M72 36.159v4.925L64 37.9v-1.741h8z"/><path fill="#D9A084" d="M61 23.278v8.785c0 1.317 0.248 2.463 1.083 3.446 0.122 0.136 0.253 0.27 0.385 0.415 1.098 1.056 2.43 1.576 4.007 1.576h2.693c1.557 0 2.88-0.52 3.987-1.576C74.272 34.86 75 33.58 75 32.072v-9.308L68 22l-7 1.278z"/><path fill="#201F1D" d="M73.5 18.5a5.8 5.8 0 0 0-0.923-0.785c-0.886-0.622-1.9-0.938-3.023-0.938h-2.668c-1.561 0-2.886 0.568-3.973 1.714C61.826 19.618 61 20.914 61 22.529v3.076c3.864-3.888 10.127-3.897 13.99-0.01l0.01 0.01v-3.076c0-1.615-0.404-2.902-1.5-4.03z"/><path fill="#7B1B1F" d="M70.5 32.25c0-0.487-0.24-0.89-0.73-1.226C69.278 30.678 68.691 30.5 68 30.5s-1.279 0.178-1.77 0.524c-0.49 0.337-0.73 0.74-0.73 1.226s0.24 0.898 0.73 1.235C66.712 33.822 67.299 34 68 34c0.683 0 1.279-0.169 1.77-0.515 0.49-0.337 0.73-0.749 0.73-1.235z"/><path fill="#007E8A" fill-rule="evenodd" d="M65.167 44.812a1.5 1.5 0 1 0-0.134 0.376 1.5 1.5 0 1 0 5.936 0.006 1.5 1.5 0 1 0-0.139-0.388A1.5 1.5 0 0 0 68 45.5a1.5 1.5 0 0 0-2.833-0.688z" clip-rule="evenodd"/><path fill="#007E8A" d="M42.825 81.982a37.831 37.831 0 0 1-13.747-3.023l-1.375-15.45c0-4.465 2.366-6.703 7.098-6.703h18.908c4.732 0 7.098 2.238 7.098 6.712L58.76 78.879a37.935 37.935 0 0 1-15.936 3.103z"/><path fill="#007E8A" d="M29.266 79.039a37.986 37.986 0 0 1-9.12-5.456l7.977-13.782c0.722-1.236 1.79-2.056 3.207-2.453 1.416-0.397 2.786-0.262 4.092 0.415 1.306 0.676 2.174 1.677 2.603 3.012 0.42 1.353 0.274 2.643-0.438 3.88l-8.32 14.384zM58.736 79.037l-8.35-14.645c-0.713-1.235-0.86-2.534-0.44-3.878 0.43-1.335 1.289-2.337 2.604-3.013 1.306-0.677 2.667-0.812 4.092-0.415 1.416 0.397 2.485 1.218 3.207 2.453l8.005 14.043a37.982 37.982 0 0 1-9.118 5.455z"/><path fill="#9C006D" d="M58 79.338A37.899 37.899 0 0 1 44 82a37.899 37.899 0 0 1-14-2.662V72h28v7.338z"/><path fill="#D9A084" d="M43.526 64.226c3.325 0 6.173-2.66 6.173-5.944V49h-12v9.273c0 3.283 2.502 5.953 5.827 5.953z"/><path fill="#CA7E58" d="M49.699 53v6l-12-2.207V53h12z"/><path fill="#D9A084" d="M50.65 43.646l-1.46 2.39a1.8 1.8 0 0 0-0.21 1.371 1.853 1.853 0 0 0 0.84 1.119h0.009a1.745 1.745 0 0 0 1.388 0.207 1.76 1.76 0 0 0 1.133-0.83l1.452-2.381a1.72 1.72 0 0 0 0.201-1.371 1.745 1.745 0 0 0-0.822-1.119l-0.018-0.009a1.78 1.78 0 0 0-1.389-0.198 1.708 1.708 0 0 0-1.123 0.82zM33.212 44.142a1.69 1.69 0 0 0 0.201 1.37l1.462 2.382c0.255 0.433 0.63 0.704 1.132 0.83a1.756 1.756 0 0 0 1.389-0.207h0.009a1.772 1.772 0 0 0 0.84-1.119 1.766 1.766 0 0 0-0.21-1.37l-1.461-2.391a1.708 1.708 0 0 0-1.124-0.821 1.769 1.769 0 0 0-1.398 0.198v0.01a1.742 1.742 0 0 0-0.84 1.118z"/><path fill="#D9A084" d="M51.81 40.94c-0.858-1.877-1.954-3.473-3.297-4.8-1.343-1.316-2.96-1.975-4.85-1.975-1.9 0-3.517 0.659-4.85 1.976-1.344 1.326-2.476 3.067-3.399 5.223l0.95 8.064c0.283 2.083 1.105 3.78 2.448 5.105 1.343 1.326 2.96 1.985 4.85 1.985 1.9 0 3.517-0.659 4.851-1.985 1.343-1.326 2.156-2.958 2.439-4.898l0.859-8.695z"/><path fill="#201F1D" d="M47.991 34.237c-0.128-0.144-0.256-0.288-0.402-0.433-1.096-1.082-2.43-1.632-3.983-1.632-1.552 0-2.886 0.541-3.991 1.633-0.147 0.144-0.274 0.288-0.402 0.432-1.014 0.217-1.919 0.722-2.704 1.498-1.096 1.082-1.654 2.4-1.654 3.933 0 1.1 0.284 2.092 0.86 2.967-0.01-0.09-0.02-0.171-0.02-0.252a3.005 3.005 0 0 1 0.942-2.237 3.151 3.151 0 0 1 1.544-0.848 3.646 3.646 0 0 1 0.703-0.072c0.85 0 1.553 0.252 2.11 0.757a0.526 0.526 0 0 1 0.119 0.136c0.073 0.063 0.383-0.911 0.493-0.803 0.676 0.667 1.297 0.108 2.247 0.108 0.85 0 1.224 0.496 1.845-0.036 0.156-0.135 0.658 0.92 0.822 0.758a3.082 3.082 0 0 1 2.247-0.92c0.083 0 0.174 0.009 0.265 0.018 0.768 0.045 1.435 0.352 2 0.902 0.485 0.478 0.777 1.028 0.887 1.65a4.923 4.923 0 0 0 0.274-0.901 5.435 5.435 0 0 0 0.137-1.227c0-1.3-0.393-2.427-1.17-3.41a6.342 6.342 0 0 0-0.474-0.523c-0.777-0.776-1.681-1.281-2.695-1.498z"/><path fill="#201F1D" d="M36.647 44.376a0.534 0.534 0 0 0 0.155-0.387l-0.045-4.926-1.773 1.47 0.713 3.456a0.522 0.522 0 0 0 0.164 0.387 0.527 0.527 0 0 0 0.393 0.154h0.01a0.558 0.558 0 0 0 0.383-0.154zM50.96 44.575a0.558 0.558 0 0 0 0.384-0.154 0.507 0.507 0 0 0 0.164-0.388l0.713-3.454-1.763-1.47-0.046 4.924a0.55 0.55 0 0 0 0.155 0.388 0.513 0.513 0 0 0 0.393 0.154z"/><path fill="#201F1D" d="M46.384 40.443l-6.778 3.04a2.336 2.336 0 0 1-3.069-1.136l-0.036-0.081c-0.53-1.146-0.01-2.508 1.15-3.031l6.778-3.04a2.336 2.336 0 0 1 3.07 1.136l0.036 0.082a2.277 2.277 0 0 1-1.15 3.03z"/><path fill="#007E8A" d="M43.772 30.783h-0.046c-2.42 0-4.512 0.875-6.257 2.616-1.754 1.677-2.969 3.734-2.969 6.151V41h18v-1.45c0-2.417-0.708-4.474-2.425-6.151-1.745-1.741-3.846-2.616-6.303-2.616z"/><path fill="#201F1D" d="M47.499 39h-8.003v-0.273c0-2.21 1.765-4.227 4.003-4.227 2.238 0 4 2.017 4 4.227V39z"/><path fill="#FB5159" d="M47.496 39h-8v2h8v-2z"/><path fill="#7D0057" d="M30 79.338a37.757 37.757 0 0 1-2.879-1.283L30 72v7.338zM60.756 78.115A37.779 37.779 0 0 1 58 79.338V72l2.757 6.115z"/></g></svg>