<svg width="344" height="110" fill="none" xmlns="http://www.w3.org/2000/svg"><path fill-rule="evenodd" clip-rule="evenodd" d="M129.585 109.679a2.075 2.075 0 0 1-2.026-2.578l6.497-25.811a2.087 2.087 0 0 1 2.531-1.51 2.072 2.072 0 0 1 1.517 2.516l-6.496 25.812a2.085 2.085 0 0 1-2.023 1.571zm28.294 0a2.085 2.085 0 0 1-2.023-1.571l-6.496-25.812a2.073 2.073 0 0 1 1.518-2.515 2.088 2.088 0 0 1 2.531 1.509l6.496 25.811a2.073 2.073 0 0 1-2.026 2.578z" fill="#D1D7D7"/><path fill-rule="evenodd" clip-rule="evenodd" d="M154.981 80.723c0-.633-.224-1.17-.674-1.61a2.195 2.195 0 0 0-1.619-.67h-19.489l-6.873-27.309a2.196 2.196 0 0 0-.823-1.244 2.211 2.211 0 0 0-1.401-.488h-20.916c-.479 0-.913.136-1.304.41-.397.272-.68.629-.85 1.07-.163.44-.186.893-.07 1.357l7.311 29.04c.128.505.4.92.814 1.245.42.32.89.479 1.41.479h42.191a2.21 2.21 0 0 0 1.619-.662c.45-.447.674-.986.674-1.618z" fill="#D1D7D7"/><path fill-rule="evenodd" clip-rule="evenodd" d="M106.629 109.679a2.073 2.073 0 0 1-2.026-2.578l6.496-25.811a2.087 2.087 0 0 1 2.531-1.51 2.073 2.073 0 0 1 1.518 2.516l-6.497 25.812a2.084 2.084 0 0 1-2.022 1.571zm28.293 0a2.086 2.086 0 0 1-2.023-1.571l-6.496-25.812a2.073 2.073 0 0 1 1.518-2.515 2.088 2.088 0 0 1 2.531 1.509l6.496 25.811a2.073 2.073 0 0 1-2.026 2.578z" fill="#E8EBEB"/><path fill-rule="evenodd" clip-rule="evenodd" d="M131.772 83.44h-21.275a2.73 2.73 0 0 1-2.652-2.058l-7.311-29.04a2.717 2.717 0 0 1 1.989-3.296 2.735 2.735 0 0 1 3.315 1.977l6.793 26.982h19.141a2.725 2.725 0 0 1 2.733 2.718c0 1.5-1.224 2.717-2.733 2.717z" fill="#BAC3C3"/><path opacity=".1" fill-rule="evenodd" clip-rule="evenodd" d="M344 110l-5.115-4.685H6.109L0 110h344z" fill="#000" fill-opacity=".1"/><path fill-rule="evenodd" clip-rule="evenodd" d="M131.36 104.811h5.796v-9.146h-5.796v9.146z" fill="#8C9B9B"/><path fill-rule="evenodd" clip-rule="evenodd" d="M137.156 104.397l-5.743.122c-4.082.128-6.209 1.897-6.382 5.308h12.134l-.009-5.43z" fill="#007E8A"/><path fill-rule="evenodd" clip-rule="evenodd" d="M125.627 97.083l-.184-22.766 12.99-.104.184 22.766-12.99.104z" fill="#440063"/><path fill-rule="evenodd" clip-rule="evenodd" d="M131.935 80.722c-3.509 0-6.399-2.782-6.49-6.29-.093-3.564 2.739-6.529 6.325-6.62l14.227-.366c3.583-.082 6.568 2.722 6.661 6.287.093 3.564-2.739 6.529-6.325 6.62l-14.227.366a6.964 6.964 0 0 1-.171.003z" fill="#440063"/><path fill-rule="evenodd" clip-rule="evenodd" d="M134.083 67.625l18.62 8.377 3.137-8.377h-21.757z" fill="#440063"/><path fill-rule="evenodd" clip-rule="evenodd" d="M155.84 67.625l14.559-33.435c-9.449-5.633-20.621-7.448-30.071-5.643l-11.612 36.99 5.367 2.088h21.757z" fill="#00CCBD"/><path fill-rule="evenodd" clip-rule="evenodd" d="M119.15 83.516a6.494 6.494 0 0 1-3.502-1.023 6.433 6.433 0 0 1-1.959-8.92l5.594-8.668a6.514 6.514 0 0 1 7.091-2.765l21.809 5.596c3.473.891 5.562 4.412 4.665 7.865-.896 3.452-4.439 5.529-7.912 4.637l-17.257-4.428-3.057 4.735a6.499 6.499 0 0 1-5.472 2.97z" fill="#693382"/><path fill-rule="evenodd" clip-rule="evenodd" d="M120.122 87.516l-10.933-6.973 4.5-6.97 10.933 6.973-4.5 6.97z" fill="#693382"/><path fill-rule="evenodd" clip-rule="evenodd" d="M115.443 82.089l-5.034 7.65 5.315 2.453 4.57-6.944-4.851-3.16z" fill="#8C9B9B"/><path fill-rule="evenodd" clip-rule="evenodd" d="M112.572 96.63l3.152-4.437-4.877-3.02c-3.63-2.205-6.4-1.868-8.308 1.01l10.033 6.448z" fill="#007E8A"/><path fill-rule="evenodd" clip-rule="evenodd" d="M180.897 59.503h-24.558c-1.913 0-3.464-1.542-3.464-3.443 0-1.902 1.551-3.444 3.464-3.444h17.793l-8.119-11.2a3.43 3.43 0 0 1 .786-4.807 3.477 3.477 0 0 1 4.835.781l12.073 16.657a3.423 3.423 0 0 1 .273 3.582 3.466 3.466 0 0 1-3.083 1.874z" fill="#FFAD93"/><path fill-rule="evenodd" clip-rule="evenodd" d="M180.897 61.691h-12.345c-3.129 0-5.666-2.521-5.666-5.631 0-3.11 2.537-5.632 5.666-5.632h1.28l-5.605-7.733a5.61 5.61 0 0 1 1.285-7.861c2.538-1.818 6.079-1.247 7.909 1.277l12.073 16.657a5.604 5.604 0 0 1 .446 5.858 5.67 5.67 0 0 1-5.043 3.065z" fill="#00CCBE"/><path fill-rule="evenodd" clip-rule="evenodd" d="M161.881 61.691h6.671V50.428h-6.671v11.263z" fill="#00CCBE"/><path opacity=".1" fill-rule="evenodd" clip-rule="evenodd" d="M140.241 60.612l-3.983-25.803 11.2-1.708 3.983 25.803-11.2 1.708z" fill="#000" fill-opacity=".1"/><path opacity=".1" fill-rule="evenodd" clip-rule="evenodd" d="M149.491 53.667l-12.187-16.36 9.107-6.703 12.187 16.36-9.107 6.703z" fill="#000" fill-opacity=".1"/><path fill-rule="evenodd" clip-rule="evenodd" d="M195.834 50.129h-.048a2.439 2.439 0 0 1-2.399-2.48l.306-15.768a2.438 2.438 0 0 1 2.269-2.379l4.57-.33c1.35-.096 2.52.909 2.618 2.248a2.437 2.437 0 0 1-2.263 2.603l-2.345.17-.263 13.55a2.44 2.44 0 0 1-2.445 2.386z" fill="#FFAD93"/><path fill-rule="evenodd" clip-rule="evenodd" d="M196.612 61.13a4.187 4.187 0 0 1-1.652-.339 4.15 4.15 0 0 1-2.518-3.636l-.586-13.941 8.34-.347.224 5.336 12.621-10.889 5.472 6.266-19.165 16.535a4.186 4.186 0 0 1-2.736 1.015z" fill="#FF5863"/><path fill-rule="evenodd" clip-rule="evenodd" d="M209.999 37.027v-.122h-12.187v.122c0 2.188 1.1 3.281 3.3 3.281h5.595c2.195 0 3.292-1.093 3.292-3.28zm-8.887-6.562c-2.042 0-3.137.946-3.283 2.838h12.161c-.146-1.892-1.24-2.838-3.283-2.838h-5.595z" fill="#FABE00"/><path fill-rule="evenodd" clip-rule="evenodd" d="M209.999 33.746c0-.15-.003-.298-.009-.443h-12.161a5.855 5.855 0 0 0-.017.443v3.16h12.187v-3.16z" fill="#E00050"/><path fill-rule="evenodd" clip-rule="evenodd" d="M230.206 48.706c-.42.32-.695.734-.823 1.245l-6.873 27.308h-19.489c-.636 0-1.176.223-1.62.67a2.172 2.172 0 0 0-.674 1.61 2.2 2.2 0 0 0 .674 1.619c.444.44.984.661 1.62.661h42.191c.519 0 .989-.16 1.41-.479.414-.324.686-.74.814-1.244l7.311-29.04a2.246 2.246 0 0 0-.071-1.358 2.25 2.25 0 0 0-.849-1.07 2.23 2.23 0 0 0-1.304-.41h-20.916c-.52 0-.987.163-1.401.488z" fill="#D1D7D7"/><path fill-rule="evenodd" clip-rule="evenodd" d="M228.523 108.496c-.943 0-1.798-.64-2.028-1.591l-6.239-25.846a2.074 2.074 0 0 1 1.543-2.5 2.088 2.088 0 0 1 2.516 1.532l6.239 25.846a2.074 2.074 0 0 1-1.542 2.501 2.113 2.113 0 0 1-.489.058zm-28.293 0c-.168 0-.338-.02-.508-.063a2.073 2.073 0 0 1-1.518-2.515l6.496-25.812a2.088 2.088 0 0 1 2.531-1.509 2.073 2.073 0 0 1 1.518 2.516l-6.496 25.811a2.085 2.085 0 0 1-2.023 1.572z" fill="#D1D7D7"/><path fill-rule="evenodd" clip-rule="evenodd" d="M275.464 104.563a1.037 1.037 0 0 0 1.016 1.276c.472 0 .901-.321 1.014-.798l.492-2.065h-2.144l-.378 1.587zM246.207 104.563a1.037 1.037 0 0 0 .774 1.248 1.045 1.045 0 0 0 1.256-.77l.493-2.065h-2.145l-.378 1.587z" fill="#CCC"/><path fill-rule="evenodd" clip-rule="evenodd" d="M220.787 108.496c-.168 0-.338-.02-.508-.063a2.073 2.073 0 0 1-1.518-2.515l6.496-25.812a2.089 2.089 0 0 1 2.531-1.509 2.073 2.073 0 0 1 1.518 2.516l-6.496 25.811a2.085 2.085 0 0 1-2.023 1.572zm28.293 0a2.084 2.084 0 0 1-2.022-1.572l-6.497-25.811a2.073 2.073 0 0 1 1.518-2.516 2.088 2.088 0 0 1 2.531 1.51l6.496 25.811a2.073 2.073 0 0 1-1.518 2.515c-.17.043-.34.063-.508.063z" fill="#E8EBEB"/><path fill-rule="evenodd" clip-rule="evenodd" d="M245.212 82.256h-21.275a2.726 2.726 0 0 1-2.734-2.717c0-1.5 1.224-2.717 2.734-2.717h19.141l6.793-26.983a2.734 2.734 0 0 1 3.315-1.976 2.717 2.717 0 0 1 1.989 3.295l-7.311 29.04a2.73 2.73 0 0 1-2.652 2.058z" fill="#BAC3C3"/><path fill-rule="evenodd" clip-rule="evenodd" d="M217.108 18.873l-2.075 7.032c-1.044 3.852.321 5.497 4.098 4.934l.061 3.882 7.494-.07.105-9.973-9.683-5.805z" fill="#FFAD93"/><path fill-rule="evenodd" clip-rule="evenodd" d="M228.936 37.192l-1.506-3.002-9.586.052-.237 3.429-5.839.287V70.34l26.124 2.305-2.696-34.878-6.26-.575z" fill="#FF5863"/><path opacity=".1" fill-rule="evenodd" clip-rule="evenodd" d="M220.707 61.165a4.173 4.173 0 0 1-3.709-2.246l-7.749-14.925 7.418-3.804 4.661 8.978 7.071-9.57 6.728 4.911-11.057 14.963a4.182 4.182 0 0 1-3.363 1.693z" fill="#000" fill-opacity=".1"/><path fill-rule="evenodd" clip-rule="evenodd" d="M287.009 47.87c-.519 0-.986.163-1.401.488-.42.319-.694.734-.823 1.244l-6.873 27.309h-19.488c-.637 0-1.176.223-1.62.67a2.172 2.172 0 0 0-.674 1.61 2.2 2.2 0 0 0 .674 1.619c.444.44.983.66 1.62.66h42.191c.519 0 .989-.159 1.409-.478a2.24 2.24 0 0 0 .814-1.244l7.311-29.04a2.246 2.246 0 0 0-.07-1.358 2.248 2.248 0 0 0-.849-1.07 2.228 2.228 0 0 0-1.305-.41h-20.916z" fill="#D1D7D7"/><path fill-rule="evenodd" clip-rule="evenodd" d="M255.632 108.148c-.168 0-.338-.021-.508-.063a2.073 2.073 0 0 1-1.518-2.515l6.496-25.812a2.089 2.089 0 0 1 2.531-1.509 2.073 2.073 0 0 1 1.518 2.516l-6.496 25.811a2.085 2.085 0 0 1-2.023 1.572zm28.294 0a2.085 2.085 0 0 1-2.023-1.572l-6.497-25.811a2.074 2.074 0 0 1 1.518-2.516 2.088 2.088 0 0 1 2.531 1.51l6.497 25.811a2.074 2.074 0 0 1-1.518 2.515c-.17.042-.341.063-.508.063z" fill="#D1D7D7"/><path fill-rule="evenodd" clip-rule="evenodd" d="M276.189 108.148c-.168 0-.338-.021-.508-.063a2.074 2.074 0 0 1-1.518-2.515l6.496-25.812a2.089 2.089 0 0 1 2.531-1.509 2.073 2.073 0 0 1 1.518 2.516l-6.496 25.811a2.085 2.085 0 0 1-2.023 1.572zm28.294 0a2.085 2.085 0 0 1-2.023-1.572l-6.497-25.811a2.074 2.074 0 0 1 1.519-2.516 2.087 2.087 0 0 1 2.53 1.51l6.497 25.811a2.074 2.074 0 0 1-1.518 2.515c-.17.042-.341.063-.508.063z" fill="#E8EBEB"/><path fill-rule="evenodd" clip-rule="evenodd" d="M300.614 82.354h-21.275a2.725 2.725 0 0 1-2.733-2.717c0-1.501 1.224-2.718 2.733-2.718h19.134l6.798-27.419a2.734 2.734 0 0 1 3.308-1.988 2.717 2.717 0 0 1 2 3.289l-7.31 29.486a2.731 2.731 0 0 1-2.655 2.067z" fill="#BAC3C3"/><path fill-rule="evenodd" clip-rule="evenodd" d="M61.792 51.195a2.192 2.192 0 0 0-.823-1.245 2.212 2.212 0 0 0-1.4-.487H38.651c-.478 0-.913.136-1.304.409-.397.273-.68.63-.85 1.07a2.244 2.244 0 0 0-.07 1.358l7.311 29.04c.128.505.4.92.814 1.245.42.319.89.479 1.41.479h42.19a2.21 2.21 0 0 0 1.62-.662c.45-.447.675-.986.675-1.619a2.17 2.17 0 0 0-.675-1.61 2.197 2.197 0 0 0-1.62-.67H68.666l-6.873-27.308z" fill="#D1D7D7"/><path fill-rule="evenodd" clip-rule="evenodd" d="M61.364 109.74a2.074 2.074 0 0 1-2.026-2.578l6.497-25.812a2.087 2.087 0 0 1 2.53-1.509 2.073 2.073 0 0 1 1.519 2.516l-6.497 25.811a2.085 2.085 0 0 1-2.023 1.572zm28.294 0a2.085 2.085 0 0 1-2.023-1.572L81.14 82.357a2.073 2.073 0 0 1 1.518-2.516 2.088 2.088 0 0 1 2.53 1.51l6.497 25.811a2.074 2.074 0 0 1-2.026 2.578z" fill="#D1D7D7"/><path fill-rule="evenodd" clip-rule="evenodd" d="M42.095 109.74a2.074 2.074 0 0 1-2.026-2.578l6.496-25.812a2.087 2.087 0 0 1 2.53-1.509 2.073 2.073 0 0 1 1.519 2.516l-6.496 25.811a2.085 2.085 0 0 1-2.023 1.572zm28.293 0a2.085 2.085 0 0 1-2.023-1.572L61.87 82.357a2.073 2.073 0 0 1 1.518-2.516 2.088 2.088 0 0 1 2.53 1.51l6.497 25.811a2.074 2.074 0 0 1-2.026 2.578z" fill="#E8EBEB"/><path fill-rule="evenodd" clip-rule="evenodd" d="M67.238 83.5H45.963a2.73 2.73 0 0 1-2.652-2.057L36 52.403a2.716 2.716 0 0 1 1.988-3.296 2.735 2.735 0 0 1 3.315 1.976l6.793 26.983h19.14a2.726 2.726 0 0 1 2.735 2.717c0 1.5-1.224 2.717-2.734 2.717z" fill="#BAC3C3"/><path fill-rule="evenodd" clip-rule="evenodd" d="M156.058 26.27l-3.02 1.08 1.795 6.762 5.586-1.776c3.788-.667 4.978-3.298 3.572-7.893l-2.303-6.98-5.349 1.28-.281 7.528z" fill="#FFAD93"/><path fill-rule="evenodd" clip-rule="evenodd" d="M161.688 17.464l-1.129-3.42-6.689 1.636c-3.059 1.033-3.94 3.078-2.644 6.135l1.812 5.535 3.02-1.079.281-7.528 5.349-1.279z" fill="#450063"/><path fill-rule="evenodd" clip-rule="evenodd" d="M157.538 24.513a1.9 1.9 0 0 0-.595-1.41 1.909 1.909 0 0 0-1.41-.583c-.56 0-1.036.194-1.427.583a1.914 1.914 0 0 0-.586 1.41c0 .557.195 1.027.586 1.41.391.394.867.591 1.427.591.555 0 1.025-.197 1.41-.591.397-.383.595-.853.595-1.41z" fill="#FFAD93"/><path fill-rule="evenodd" clip-rule="evenodd" d="M154.833 34.112l4.675 2.698 2.933-5.143-7.608 2.445zm0 0l-1.378-5.19-2.588 4.328 3.966.862zM173.92 45.769l-6.995-14.673.943-.444 6.995 14.673-.943.444zm-3.023.94l-8.037-13.367.896-.532 8.037 13.367-.896.532z" fill="#fff"/><path fill-rule="evenodd" clip-rule="evenodd" d="M161.585 48.015a3.131 3.131 0 0 1-2.546-1.3 3.1 3.1 0 0 1 .72-4.34l5.349-3.812a3.145 3.145 0 0 1 1.752-.582l4.194-.096a3.12 3.12 0 0 1 3.201 3.04 3.12 3.12 0 0 1-3.057 3.181l-3.228.074-4.563 3.252a3.133 3.133 0 0 1-1.822.583z" fill="#FFAD93"/><path fill-rule="evenodd" clip-rule="evenodd" d="M149.94 60.796c-2.288 0-4.442-1.386-5.3-3.638l-8.081-21.208c-1.108-2.909.366-6.16 3.292-7.261 2.926-1.102 6.197.363 7.305 3.272l8.081 21.208c1.108 2.908-.365 6.16-3.292 7.26a5.678 5.678 0 0 1-2.005.367z" fill="#00CCBE"/><path fill-rule="evenodd" clip-rule="evenodd" d="M153.623 59.442l-7.368-8.557 12.642-10.757 7.368 8.557-12.642 10.757z" fill="#00CCBE"/><path fill-rule="evenodd" clip-rule="evenodd" d="M281.31 42.075v2.48h7.573l-.122-2.48h-7.451z" fill="#007E8A"/><path fill-rule="evenodd" clip-rule="evenodd" d="M278.806 44.38v5.805h2.521v-8.171l-2.521 2.367z" fill="#00CCBE"/><path fill-rule="evenodd" clip-rule="evenodd" d="M281.327 41.959h-7.714l-2.775 2.306v5.683h2.775v-5.622h7.399v5.657h2.775V44.3l-2.46-2.341z" fill="#1FA098"/><path fill-rule="evenodd" clip-rule="evenodd" d="M266.075 76.908h8.755l-4.508-4.594-4.247 4.594z" fill="#1DE5D8"/><path fill-rule="evenodd" clip-rule="evenodd" d="M274.83 76.908h21.354v-28.37H274.83v28.37zm-4.508-4.595l-.027-23.775h-4.22v28.37l4.247-4.595z" fill="#00CCBE"/><path fill-rule="evenodd" clip-rule="evenodd" d="M274.831 48.538h-4.536l.027 23.775 4.509 4.595v-28.37z" fill="#1FA098"/><path fill-rule="evenodd" clip-rule="evenodd" d="M285.635 61.21c.023.156-.021.275-.132.356a.464.464 0 0 1-.368.156.47.47 0 0 1-.367-.156.559.559 0 0 1-.14-.4c0-.163.055-.293.166-.392a.45.45 0 0 1 .35-.14.476.476 0 0 1 .359.175c.111.11.155.243.132.4zm1.348.73a.622.622 0 0 1-.132-.4c0-.151.047-.285.141-.4a.59.59 0 0 1 .376-.14c.14.006.263.067.368.183a.557.557 0 0 1 .131.383.54.54 0 0 1-.149.4.517.517 0 0 1-.368.14.475.475 0 0 1-.367-.166zm4.211-8.372l-2.985-.644-.85 6.214-.928-5.352-2.994.731.911 5.047-4.431.784.797 4.16 7.599 2.036 1.918-4.221.963-8.755zM291.982 71.2l.114-2.785-13.273-.4-.087 2.784 13.246.4z" fill="#fff"/><path fill-rule="evenodd" clip-rule="evenodd" d="M291.5 44.474l-2.739-2.452-.027 8.152h2.766v-5.7z" fill="#00CCBE"/><path fill-rule="evenodd" clip-rule="evenodd" d="M78.348 52.535l2.093 6.954h12.764l1.62-6.954H78.348z" fill="#FABE00"/><path fill-rule="evenodd" clip-rule="evenodd" d="M163.439 77.833v30.581h19.646V68.931l-19.646 8.902z" fill="#FF5863"/><path fill-rule="evenodd" clip-rule="evenodd" d="M183.086 60.95h-19.647v16.883l19.647-8.902v-7.98z" fill="#450063"/><path fill-rule="evenodd" clip-rule="evenodd" d="M268.781 63.358v-5.236l-192.902 1.07.718 4.87 192.184-.704z" fill="#FF5863"/><path fill-rule="evenodd" clip-rule="evenodd" d="M215.834 98.169l-5.621-15.96 5.84-2.032 5.621 15.96-5.84 2.032z" fill="#FFAD93"/><path fill-rule="evenodd" clip-rule="evenodd" d="M219.866 90.28l-7.95 3.115 4.518 9.965-5.945 5.439 15.011-.116-5.634-18.403z" fill="#00717C"/><path fill-rule="evenodd" clip-rule="evenodd" d="M209.238 90.698l-4.317-15.726a6.788 6.788 0 0 1 1.156-5.92 6.876 6.876 0 0 1 5.43-2.694l19.697-.094.066 13.638-10.759.052 1.963 7.154-13.236 3.59z" fill="#00A297"/><path fill-rule="evenodd" clip-rule="evenodd" d="M194.925 97.71l-5.363-3.065 13.692-23.67a3.095 3.095 0 0 1 2.754-1.542l25.109.574-.142 6.149-23.273-.532-12.777 22.087z" fill="#FFAD93"/><path fill-rule="evenodd" clip-rule="evenodd" d="M189.486 94.56l-7.687 3.82 10.891 4.351 8.098-13.741-7.949-4.247-3.353 9.816z" fill="#00717C"/><path fill-rule="evenodd" clip-rule="evenodd" d="M205.901 86.252l-11.976-6.656 7.407-13.167a6.873 6.873 0 0 1 6.939-3.425l12.004 1.671-1.904 13.506-7.354-1.023-5.116 9.094z" fill="#00CCBE"/><path fill-rule="evenodd" clip-rule="evenodd" d="M231.055 79.902c-.321 0-.646-.023-.972-.069L218.36 78.18c-3.752-.53-6.362-3.98-5.829-7.71.532-3.728 4.003-6.322 7.756-5.793l11.723 1.653c3.751.53 6.361 3.981 5.829 7.71-.486 3.403-3.423 5.862-6.784 5.862z" fill="#00CCBE"/><path fill-rule="evenodd" clip-rule="evenodd" d="M167.116 51.978l2.093 6.953h12.765l1.619-6.953h-16.477z" fill="#fff"/><path fill-rule="evenodd" clip-rule="evenodd" d="M214.041 50.13a2.445 2.445 0 0 1-2.396-1.951l-2.868-14.102-2.168-.14a2.437 2.437 0 0 1-2.282-2.585 2.443 2.443 0 0 1 2.6-2.269l4.036.261a2.442 2.442 0 0 1 2.24 1.945l3.239 15.926a2.433 2.433 0 0 1-2.401 2.914z" fill="#FFAD93"/><path fill-rule="evenodd" clip-rule="evenodd" d="M215.427 60.582c-.465 0-.933-.077-1.385-.235a4.156 4.156 0 0 1-2.729-3.214l-2.469-14.341 8.228-1.4 1.204 6.992 11.484-10.11 5.534 6.212-17.1 15.053a4.186 4.186 0 0 1-2.767 1.043z" fill="#FF5863"/><path fill-rule="evenodd" clip-rule="evenodd" d="M196.761 58.931l2.661-11.435-18.753.4 3.327 11.035h12.765zM219.691 15.593c-2.942.592-4.016 2.396-3.222 5.413 1.623 2.843 3.543 5.03 5.761 6.562 2.393 1.653 3.601 3.4 3.624 5.239.018.58-.096 1.386-.341 2.419-.257 1.154-.403 1.999-.438 2.532-.052.853.286 1.677 1.016 2.472.706.754 1.625 1.326 2.758 1.714 1.173.4 2.337.52 3.493.357 1.29-.186 2.387-.71 3.292-1.575 1.78-1.717 2.396-3.292 1.847-4.726-.449-1.2-1.695-2.28-3.738-3.237-1.5-.696-2.603-2.086-3.31-4.168-.134-.418-.391-1.335-.77-2.75-.304-1.16-.747-2.742-1.331-4.743-.583-2.008-1.558-3.542-2.924-4.604-1.377-1.073-3.283-1.375-5.717-.905z" fill="#FABE00"/><path fill-rule="evenodd" clip-rule="evenodd" d="M196.761 58.931l2.661-11.435-18.753.4 3.327 11.035h12.765z" fill="#FABE00"/><path fill-rule="evenodd" clip-rule="evenodd" d="M122.036 46.748h-7.783v12.231l7.783-.042V46.748z" fill="#8C9B9B"/><path fill-rule="evenodd" clip-rule="evenodd" d="M162.887 19.51c-.128.47-.09.95.114 1.444.21.493.529.856.955 1.088.426.237.837.272 1.234.104.397-.162.663-.478.797-.948.134-.465.096-.943-.114-1.436-.204-.494-.522-.86-.954-1.097-.427-.232-.838-.267-1.235-.104-.397.168-.662.484-.797.948zm-1.637.26c-.426-.232-.837-.266-1.234-.104-.397.168-.663.484-.797.948-.128.47-.09.952.114 1.445.21.493.528.856.954 1.088.426.238.838.273 1.235.104.397-.162.662-.478.796-.948.135-.464.097-.943-.113-1.436-.205-.493-.523-.859-.955-1.097z" fill="#fff"/><path fill-rule="evenodd" clip-rule="evenodd" d="M87.956 93.497h-7.094l3.443 10.9h6.907l-3.256-10.9z" fill="#8C9B9B"/><path fill-rule="evenodd" clip-rule="evenodd" d="M83.982 103.391l2.045 6.472h14.451c-1.488-4.066-4.688-6.175-9.6-6.327l-6.896-.145z" fill="#007E8A"/><path fill-rule="evenodd" clip-rule="evenodd" d="M101.042 93.497h-6.908l3.443 10.9h6.908l-3.443-10.9z" fill="#8C9B9B"/><path fill-rule="evenodd" clip-rule="evenodd" d="M104.151 103.536l-6.897-.145 2.045 6.472h14.451c-1.488-4.066-4.688-6.175-9.599-6.327z" fill="#007E8A"/><path fill-rule="evenodd" clip-rule="evenodd" d="M173.464 44.43l-2.181 1.328.856 2.904 3.151-.975-1.826-3.256z" fill="#FABE00"/><path fill-rule="evenodd" clip-rule="evenodd" d="M94.485 101.794l-5.986-23.242H55.36V68.18h37.187a5.211 5.211 0 0 1 5.054 3.9l6.991 27.14-10.108 2.573z" fill="#6A7D7D"/><path fill-rule="evenodd" clip-rule="evenodd" d="M61.81 78.552h-6.835c-2.881 0-5.217-2.322-5.217-5.186s2.336-5.185 5.217-5.185h6.834c2.882 0 5.218 2.321 5.218 5.185 0 2.864-2.336 5.186-5.218 5.186z" fill="#8C9B9B"/><path fill-rule="evenodd" clip-rule="evenodd" d="M81.63 101.794l-5.986-23.242H61.81V68.18h17.883a5.211 5.211 0 0 1 5.055 3.9l6.99 27.14-10.108 2.573z" fill="#8C9B9B"/><path fill-rule="evenodd" clip-rule="evenodd" d="M24.442 44.49l-.66-8.271L48.124 34.3l.66 8.271-24.342 1.919z" fill="#FABE00"/><path fill-rule="evenodd" clip-rule="evenodd" d="M45.355 70.183c.933 2.807 2.78 3.816 5.54 3.028l16.768-5.03-7.252-21.324c-2.573-5.538-6.079-7.965-10.517-7.28L38.448 42.22l6.907 27.962z" fill="#FABE00"/><path fill-rule="evenodd" clip-rule="evenodd" d="M41.954 26.955l5.749-1.67-1.409-3.65-7.178 2.115c-3.27 1.28-4.122 3.544-2.557 6.793l2.265 5.922 3.213-1.327-.083-8.183z" fill="#450063"/><path fill-rule="evenodd" clip-rule="evenodd" d="M47.703 25.285l-5.75 1.67.084 8.183-3.213 1.327 2.285 7.24 5.978-2.2c4.083-.919 5.238-3.84 3.464-8.763l-2.848-7.457z" fill="#FFAD93"/><path fill-rule="evenodd" clip-rule="evenodd" d="M42.934 31.612a2.055 2.055 0 0 0-1.554-.56 2.135 2.135 0 0 0-1.524.705 2.081 2.081 0 0 0-.563 1.555c.035.609.271 1.11.71 1.504.445.408.97.599 1.575.57a2.05 2.05 0 0 0 1.502-.715c.418-.435.61-.957.574-1.566a2.052 2.052 0 0 0-.72-1.493z" fill="#FFAD93"/><path fill-rule="evenodd" clip-rule="evenodd" d="M68.268 29.122c-.174-2.254-1.478-3.38-3.912-3.38h-6.668c-2.435 0-3.739 1.126-3.913 3.38h14.493zm.01 4.439v-.145H53.754v.145c0 2.607 1.312 3.91 3.934 3.91h6.668c2.615 0 3.922-1.303 3.922-3.91z" fill="#FABE00"/><path fill-rule="evenodd" clip-rule="evenodd" d="M53.776 29.123c-.014.172-.021.349-.021.528v3.765h14.524v-3.764c0-.18-.004-.357-.01-.53H53.774z" fill="#FF5863"/><path fill-rule="evenodd" clip-rule="evenodd" d="M71.823 50.462c-1.194 0-2.239-.87-2.417-2.08l-2.718-18.404-1.63-.286a2.433 2.433 0 0 1-1.985-2.817 2.445 2.445 0 0 1 2.835-1.973l3.37.591a2.44 2.44 0 0 1 1.996 2.042l2.973 20.141a2.435 2.435 0 0 1-2.424 2.786z" fill="#FFAD93"/><path fill-rule="evenodd" clip-rule="evenodd" d="M72.848 56.897c-.57 0-1.144-.116-1.685-.354l-19.094-8.38 3.371-7.59 11.988 5.261-1.615-9.407 8.228-1.396 2.922 17.02a4.135 4.135 0 0 1-1.549 3.97 4.187 4.187 0 0 1-2.566.876z" fill="#FABE00"/><path fill-rule="evenodd" clip-rule="evenodd" d="M38.803 36.496l2.89 8.152 9.662 1.919-3.391-14.385-9.161 4.314z" fill="#FFAD93"/><path fill-rule="evenodd" clip-rule="evenodd" d="M48.569 53.05c-.46 0-.927-.075-1.384-.235l-24.458-8.547a4.142 4.142 0 0 1-2.553-5.29c.765-2.16 3.148-3.297 5.322-2.537l24.457 8.546a4.142 4.142 0 0 1 2.553 5.29 4.174 4.174 0 0 1-3.937 2.773z" fill="#FABE00"/></svg>