<svg xmlns="http://www.w3.org/2000/svg" width="88" height="88" fill="none" viewBox="0 0 88 88"><g clip-path="url(#clip0_12489_2425)"><path fill="#00C7BB" d="M70.88 17.13a41.843 41.843 0 0 0-2.965-2.699C61.105 8.811 53.135 6 44 6c-5.845 0-11.213 1.152-16.104 3.457-3.887 1.826-7.472 4.383-10.756 7.673C9.713 24.55 6 33.506 6 44c0 6.763 1.542 12.887 4.63 18.37h66.75C80.46 56.887 82 50.763 82 44c0-10.494-3.707-19.45-11.12-26.87z"/><path fill="#FABE00" d="M22.63 62.37a35.724 35.724 0 0 0 0.315 0.561h9.426v-9.258H20.738v4.806a33.902 33.902 0 0 0 1.891 3.89zm23.343 2.039V42.375H34.36v22.034h11.613zM73.08 14.106H61.447v51.406h11.632V14.106zM59.516 28.26H47.894v36.336h11.622V28.26z"/><path fill="#fff" fill-rule="evenodd" d="M9.78 60.766l42.044-41.715 4.412 4.413V10.057H42.831l4.481 4.492-19.246 19.226v0.01L18 43.852c0 0.028-4.327 4.382-8.48 8.56l-2.127 2.14a35.133 35.133 0 0 0 2.386 6.214z" clip-rule="evenodd"/><path fill="#017C88" d="M70.88 70.87a45.207 45.207 0 0 0 1.97-2.118 43.935 43.935 0 0 0 2.738-3.496 37.534 37.534 0 0 0 1.793-2.886H10.629a35.907 35.907 0 0 0 1.803 2.886 39.721 39.721 0 0 0 2.728 3.496 34.258 34.258 0 0 0 1.576 1.704 26.385 26.385 0 0 0 0.404 0.414C24.553 78.29 33.506 82 44 82c4.21 0 8.17-0.595 11.879-1.783 5.549-1.787 10.549-4.901 15-9.347z"/><path fill="#fff" d="M49.231 70.781c0.822-0.349 1.718-0.522 2.69-0.522a6.783 6.783 0 0 1 2.678 0.522 1.628 1.628 0 0 0 0.207 0.089l0.05-0.089a11.002 11.002 0 0 1 1.526-1.92c2.004-1.996 4.419-2.995 7.25-2.995 2.153 0 4.068 0.581 5.742 1.744a13.049 13.049 0 0 1 2.344-3.172c2.108-2.102 4.59-3.304 7.447-3.605a38.456 38.456 0 0 1-0.818 1.537 35.905 35.905 0 0 1-1.802 2.886 39.669 39.669 0 0 1-2.729 3.496 34.258 34.258 0 0 1-1.576 1.704 25.945 25.945 0 0 1-0.404 0.414 42.256 42.256 0 0 1-2.738 2.511H46.1a6.922 6.922 0 0 1 0.906-1.083c0.676-0.676 1.419-1.182 2.226-1.517z"/><path fill="#450064" d="M45.794 54.638l-0.04 2.511-12.991 6.028-2.108-8.825 15.139 0.286z"/><path fill="#440062" d="M42.632 71.973c-0.971-0.96-1.458-2.112-1.458-3.457 0-1.36 0.487-2.522 1.458-3.487 0.96-0.951 2.112-1.428 3.457-1.428 1.36 0 2.522 0.477 3.487 1.428 0.952 0.965 1.428 2.128 1.428 3.487 0 1.345-0.476 2.498-1.428 3.457-0.965 0.971-2.127 1.458-3.487 1.458-1.345 0-2.497-0.487-3.457-1.458z"/><path fill="#90A6A6" d="M47.38 67.698l-1.212 2.04-11.06-1.42 6.372-6.382 5.9 5.762z"/><path fill="#440062" d="M15.27 65.029c0.96-0.951 2.112-1.428 3.457-1.428 1.36 0 2.522 0.477 3.487 1.428 0.951 0.965 1.428 2.128 1.428 3.487 0 1.345-0.477 2.498-1.428 3.457-0.965 0.971-2.128 1.458-3.487 1.458-1.345 0-2.498-0.487-3.457-1.458-0.971-0.96-1.458-2.112-1.458-3.457 0-1.36 0.487-2.522 1.458-3.487z"/><path fill="#90A6A6" d="M21.2 58.637l1.782 0.896-3.112 9.594-1.793-0.897 3.123-9.593z"/><path fill="#450064" d="M18.284 59.641l5.102-5.22 2.502 11.682 0.098 0.59h-0.128l-7.574-7.052z"/><path fill="#FB5058" d="M38.712 58.597l1.842-1.034h7.141L34.851 69.796h-8.914L14.068 59.09l8.166-10.519 1.152 5.85-5.102 5.221 7.575 7.052h0.128l-0.099-0.59 0.099 0.492 12.725-7.998z"/><path fill="#fff" d="M48.06 57.218l-0.365 0.345h-7.14l5.22-2.985 2.285 2.64z"/><path fill="#450064" d="M19.15 48.137l2.926-0.168 0.827 3.458h-5.555l1.803-3.29z"/><path fill="#440063" d="M31.305 39.991l0.975 1.487-4.009 1.773-1.388-1.625 4.422-1.635z"/><path fill="#017C88" d="M33.492 39.144l13.316-4.255 4.255 13.317-13.316 4.255-4.255-13.317zM28.262 64.527l1.182-0.769h2.472l0.63 2.867-5.131 0.177c-0.394-0.971-0.113-1.73 0.847-2.275z"/><path fill="#9B006C" d="M34.95 52.077a1.87 1.87 0 0 1 1.447 0.207 1.892 1.892 0 0 1 0.877 1.172 1.842 1.842 0 0 1-0.207 1.438 1.839 1.839 0 0 1-1.172 0.876l-5.86 1.507 1.861 6.334-3.654 1.073-2.384-8.135a0.768 0.768 0 0 1-0.049-0.158 1.82 1.82 0 0 1 0.207-1.448 1.851 1.851 0 0 1 1.162-0.877l7.771-1.99z"/><path fill="#91A7A7" d="M34.26 40.996l4.245 13.543-8.687-5.83-0.522-2.404 4.964-5.309z"/><path fill="#017C88" d="M38.505 54.54l0.138 0.452-7.545-0.137-1.28-6.147 8.687 5.831zm-4.304-13.731l0.059 0.187-4.964 5.309-0.07-0.345-4.107-1.92 9.082-3.231z"/><path fill="#90A6A6" d="M33.167 43.103l2.01 3.99-12.933 5.417-1.222-3.605 12.145-5.802z"/><path fill="#440063" d="M23.327 39.981a12.138 12.138 0 0 1-0.286-0.935c-0.092-0.369-0.141-0.645-0.147-0.828l6.038-2.59-0.65 3.565-4.6 2-0.355-1.212z"/><path fill="#FB5058" d="M32.97 37.745a4.903 4.903 0 0 1-0.375 1.931l-8.204 3.615-0.71-2.098 4.6-2 0.65-3.565-6.038 2.59-0.01-0.473c0-1.392 0.493-2.58 1.478-3.565 0.985-0.985 2.173-1.478 3.566-1.478 0.985 0 1.865 0.247 2.64 0.74a5.085 5.085 0 0 1 0.925 0.738 5.297 5.297 0 0 1 0.64 0.768c0.558 0.814 0.838 1.747 0.838 2.797z"/></g></svg>