<svg xmlns="http://www.w3.org/2000/svg" width="88" height="88" fill="none" viewBox="0 0 88 88"><path fill="#067F8A" d="M82 45c0 20.987-17.013 38-38 38S6 65.987 6 45 23.013 7 44 7s38 17.013 38 38z"/><mask id="a" width="76" height="76" x="6" y="7" maskUnits="userSpaceOnUse" style="mask-type:alpha"><path fill="#067F8A" d="M82 45c0 20.987-17.013 38-38 38S6 65.987 6 45 23.013 7 44 7s38 17.013 38 38z"/></mask><g mask="url(#a)"><path fill="#CA7D58" d="M31.925 29.704c1.317 1.21 2.558 2.353 3.824 3.511 2.305 1.93 4.111 3.954 3.186 4.654-1.154 0.877-3.103 0.885-3.684 2.245-1.313 3.064-0.684 1.558 2.644 1.602 2.33 0.031-0.36-0.198 1.653-1.364 0.15-0.087-0.652-0.76-0.53-0.882 1.463-1.463 5.502 0.227 7.19 1.39 1.68 1.158 3.052 2.395 4.574 3.759 3.096 2.775 6.126 5.83 9.17 8.657a45.876 45.876 0 0 1 1.27 1.214c3.356 5.094-1.156 8.631-1.818 8.9 0 1.331 0.272 2.532-0.476 3.568-0.748 1.037-2.117 1.538-4.036 1.538 0 3.33-3.475 4.678-6.302 3.12-0.755 2.017-4.207 2.63-5.666 1.23-6.526-2.229-13.947-7.971-19.69-14.125-1.073-1.775 2.152-4.362 2.583-5.164-1.502-1.447-6.464-6.338-8.243-7.987-0.04-0.035-0.056-0.099-0.135-0.249 4.788-5.16 9.6-10.342 14.486-15.616z"/><path fill="#FE9866" d="M54.346 29.705c4.848 5.222 10.161 9.682 15.38 14.834-0.814 0.759-1.87 1.83-2.633 2.542-0.427 0.399-0.846 0.814-1.289 1.194-1.162 0.992-2.13 1.988-2.234 3.728-0.339 2.235-1.601 4.306-1.601 4.083-2.604-3.347-6.943-7.48-10.588-10.776-1.818-1.645-3.036-2.717-5.048-4.112-2.135-1.483-3.108-1.127-5.108 0.565-1.859 1.57-4.172 2.776-6.445 1.839-1.704-0.704-2.74-3.195-1.605-4.717 2.862-3.685 3.997-4.575 8.156-4.737 1.977-0.079 3.072-0.375 5.057-0.32a17.482 17.482 0 0 0 1.93-0.024c1.185-0.098 2.253-0.43 3.13-1.356 1.064-1.122 1.72-1.64 2.898-2.743zM24.963 63.48c-0.688-0.07-1.317-0.04-1.886-0.213-2.369-0.736-3.143-3.7-1.463-5.567 0.664-0.74 1.392-1.423 2.107-2.12 1.182-1.146 2.74-1.395 4.116-0.691 1.3 0.668 1.992 2.115 1.76 3.705-0.032 0.225-0.092 0.45-0.179 0.85 1.594-1.384 3.227-1.914 4.958-0.692 1.384 0.972 1.633 2.415 1.234 4.127 1.344-0.142 2.534 0.107 3.408 1.186 0.842 1.044 0.949 2.218 0.597 3.511 0.569 0 1.09-0.063 1.593 0.012 2.617 0.372 3.89 3.313 2.29 5.4-0.76 0.993-1.673 1.894-2.634 2.693-1.142 0.949-2.483 1-3.78 0.277-1.269-0.708-1.81-1.854-1.731-3.301 0.012-0.202 0.031-0.4 0.067-0.8-0.34 0.286-0.562 0.452-0.763 0.637-1.174 1.111-2.542 1.495-4.037 0.854-1.435-0.616-2.068-1.826-2.048-3.38 0-0.083-0.027-0.17-0.055-0.316-1.941 0.751-3.697 0.707-4.895-1.261-0.925-1.542-0.593-2.709 1.34-4.91z"/><path fill="#FABE00" d="M6.265 39.248l9.867 9.924 18.851-20.239-15.712-13.801a43.09 43.09 0 0 0-2.141 1.998C10.855 23.405 7.234 30.777 6.265 39.25z"/><path fill="#9B1A6F" d="M66.244 13.133a39.343 39.343 0 0 1 1.661 1.298c1.01 0.834 2 1.734 2.965 2.7 6.154 6.153 9.756 13.363 10.806 21.63l-9.396 8.6-21.069-19.795 15.033-14.433z"/></g></svg>