<svg xmlns="http://www.w3.org/2000/svg" width="88" height="88" fill="none" viewBox="0 0 88 88"><path fill="#00CCBC" d="M70.87 17.13a41.842 41.842 0 0 0-2.965-2.699c-6.81-5.62-14.778-8.43-23.905-8.43-5.845 0-11.215 1.151-16.114 3.456-3.88 1.832-7.466 4.39-10.756 7.673C9.71 24.55 6 33.506 6 44c0 10.303 3.575 19.124 10.726 26.466a13.03 13.03 0 0 1 0.404 0.404c2.561 2.56 5.303 4.678 8.225 6.353 5.226 3 11.041 4.59 17.443 4.767A81.596 81.596 0 0 0 44 82c4.202 0 8.161-0.595 11.879-1.783 5.541-1.779 10.539-4.895 14.99-9.347C78.292 63.45 82 54.494 82 44c0-0.335-0.004-0.666-0.01-0.995-0.144-6.363-1.678-12.148-4.6-17.355-1.7-3.034-3.874-5.874-6.52-8.52z"/><path fill="#963" fill-rule="evenodd" d="M24.571 37.133c0.116-2.5 2.223-4.456 4.735-4.34l26.608 1.182a4.522 4.522 0 0 1 3.479 1.88l6.782 9.396a4.54 4.54 0 0 1-1.024 6.336 4.513 4.513 0 0 1-6.319-1.027l-5.488-7.615L28.94 41.86a4.52 4.52 0 0 1-4.368-4.727z" clip-rule="evenodd"/><path fill="#963" d="M72.378 69.286V52.013c0-6.278-5.063-11.354-11.324-11.354-6.26 0-11.324 5.076-11.324 11.354V69.45c0 4.733 2.879 8.784 6.979 10.49 5.212-1.817 9.933-4.84 14.162-9.07a43.139 43.139 0 0 0 1.507-1.584z"/><path fill="#963" d="M72.819 68.79l-0.306-26.968a4.502 4.502 0 0 0-0.947-2.732L60.28 24.5a4.5 4.5 0 0 0-3.556-1.763l-27.594-0.174c-2.512-0.02-4.541 2.015-4.56 4.514a4.538 4.538 0 0 0 4.502 4.573l25.391 0.135L63.47 43.43l0.31 27.415a4.523 4.523 0 0 0 2.491 4.007 41.248 41.248 0 0 0 4.6-3.982 42.855 42.855 0 0 0 1.949-2.08z"/><path fill="#963" fill-rule="evenodd" d="M24.57 47.653c0.096-2.499 2.203-4.456 4.695-4.359l22.165 0.833a4.538 4.538 0 0 1-0.348 9.068L28.918 52.36a4.538 4.538 0 0 1-4.348-4.708zM24.899 57.477c0.077-2.5 2.183-4.476 4.676-4.38l21.74 0.756a4.525 4.525 0 0 1 4.366 4.69c-0.077 2.498-2.183 4.475-4.676 4.378l-21.74-0.756c-2.492-0.077-4.444-2.19-4.366-4.688z" clip-rule="evenodd"/><path fill="#90A6A6" fill-rule="evenodd" d="M59.93 7.3c0-2.812-1.405-4.3-4.3-4.3H33.3C30.49 3 29 4.406 29 7.3v47.132c0 2.812 1.406 4.3 4.3 4.3h22.33c2.812 0 4.3-1.406 4.3-4.3V7.3z" clip-rule="evenodd"/><path fill="#fff" fill-rule="evenodd" d="M32.059 49.14h24.48V22.845h-24.48V49.14z" clip-rule="evenodd"/><path fill="#0E5454" fill-rule="evenodd" d="M32.059 22.845h24.48V6.555h-24.48v16.29z" clip-rule="evenodd"/><path fill="#00CCBE" fill-rule="evenodd" d="M33.805 29.791a3.135 3.135 0 0 1 3.135-3.135h9.097a3.135 3.135 0 1 1 0 6.27H36.94a3.135 3.135 0 0 1-3.135-3.135z" clip-rule="evenodd"/><path fill="#007E8A" fill-rule="evenodd" d="M41.826 29.791a3.135 3.135 0 0 1 3.136-3.135h6.368a3.135 3.135 0 1 1 0 6.27h-6.368a3.135 3.135 0 0 1-3.136-3.135z" clip-rule="evenodd"/><path fill="#fff" d="M45.45 10.61a1.158 1.158 0 1 1-2.317 0 1.158 1.158 0 0 1 2.317 0zM40.834 10.77l3.902 1.792-0.497 1.082-3.902-1.792z"/><path fill="#fff" d="M47.836 10.753l-3.902 1.792 0.497 1.083 3.902-1.792zM42.531 19.112l1.733-3.929-1.09-0.48-1.732 3.928z"/><path fill="#fff" d="M45.662 19.251L44.239 15.2l1.124-0.395 1.423 4.052z"/><path fill="#fff" d="M45.504 15.302v-2.34h-2.341v2.34z"/><path fill="#000" fill-opacity=".1" d="M59.93 52.5L47 33.313 57.01 58.6s0.928-0.159 1.623-0.752c0.976-0.793 1.207-2.032 1.27-2.711 0.062-0.68 0.027-2.637 0.027-2.637z"/><path fill="#963" fill-rule="evenodd" d="M38.499 30a6.057 6.057 0 0 1 8.193 2.557c1.267 2.43 5.634 14.263 5.634 14.263l9.614 24.006c-0.019 3.371-2.744 6.084-6.087 6.064-3.362-0.02-3.75-0.206-5.434-3.553L35.948 38.215c-1.565-2.984-0.425-6.665 2.55-8.215z" clip-rule="evenodd"/><path fill="#963" d="M74.433 66.823l-5.38-5.394a11.304 11.304 0 0 0-16.02 0c-4.424 4.437-4.424 11.625 0 16.062l2.75 2.757 0.096-0.03c5.541-1.78 10.539-4.896 14.99-9.348a41.484 41.484 0 0 0 3.564-4.047z"/><path fill="#B6804A" fill-rule="evenodd" d="M39.771 31.265c-0.98 0.42-1.79 1.067-2.28 2.058-0.415 0.992-0.415 2.06-0.075 3.05 0.414 0.992 1.055 1.735 2.035 2.23 1.055 0.496 2.035 0.496 3.09 0.172 0.98-0.324 1.716-1.067 2.206-2.154 0.49-0.991 0.565-1.982 0.17-2.974-0.321-0.99-1.056-1.81-2.13-2.306-1.056-0.4-2.036-0.477-3.016-0.076z" clip-rule="evenodd"/></svg>