<svg xmlns="http://www.w3.org/2000/svg" width="88" height="88" fill="none" viewBox="0 0 88 88"><path fill="#00CCBC" fill-rule="evenodd" d="M44 6.864c-10.491 0-19.447 3.704-26.868 11.113C9.71 25.411 6 34.373 6 44.864c0 10.49 3.71 19.44 11.132 26.85 7.42 7.433 16.377 11.15 26.868 11.15 10.49 0 19.447-3.717 26.868-11.15C78.29 64.304 82 55.354 82 44.864c0-10.49-3.71-19.453-11.132-26.887C63.447 10.568 54.49 6.864 44 6.864" clip-rule="evenodd"/><path fill="#fff" fill-rule="evenodd" d="M67.685 31.919l6.829 4.178-4.066-6.99 4.066-6.95-6.81 4.178-6.848-4.178 4.086 6.99-4.086 6.91 6.829-4.138zM59.856 49.297l3.666 2.193-2.184-3.673 2.184-3.66-3.653 2.193-3.68-2.193 2.197 3.673-2.197 3.647 3.667-2.18zM17 49.882l5.113 8.5L17 66.845l8.51-5.07L34 66.864l-5.076-8.5 5.076-8.5-8.472 5.107L17 49.882z" clip-rule="evenodd"/><path fill="#450064" d="M22.193 12.457c1.19-2.717 3.184-4.588 5.983-5.612l0.023-0.022c2.806-1.016 5.591-0.877 8.355 0.416 1.948 0.898 3.497 2.186 4.648 3.864l0.747-0.278c2.822-1.016 5.61-0.873 8.367 0.428 2.801 1.287 4.773 3.365 5.913 6.232v0.023c1.126 2.85 1.102 5.643-0.072 8.377-1.175 2.733-3.17 4.612-5.983 5.635l-7.107 2.584 11.227 31.099 5.643-2.038-2.377-6.584 10.347-3.735 1.697 4.703-5.643 2.037 3.056 8.465 5.644-2.037 1.697 4.703-10.346 3.735-2.377-6.584-5.643 2.038 3.395 9.405-6.584 2.377-16.315-45.192-7.612 2.768c-2.806 1.016-5.603 0.88-8.389-0.407-2.764-1.308-4.716-3.389-5.857-6.24v-0.023c-1.14-2.867-1.128-5.664 0.039-8.39 1.19-2.733 3.183-4.611 5.982-5.636l0.781-0.287c-0.306-1.967-0.052-3.907 0.761-5.823z"/><path fill="#fff" fill-rule="evenodd" d="M31.724 27.972l1.585 2.137 1.654-0.52-5.834-7.723-1.674 0.526-0.368 9.672 1.618-0.509 0.078-2.659 2.94-0.924zm-2.953-0.648l0.116-3.22 1.936 2.576-2.052 0.645zM32.91 20.678l2.734 8.697 1.57-0.493-1.09-3.47 2.017-0.633c0.797-0.25 1.381-0.677 1.694-1.306 0.315-0.632 0.33-1.349 0.086-2.126-0.244-0.775-0.665-1.352-1.282-1.682-0.619-0.345-1.344-0.365-2.141-0.114l-3.587 1.127zm5.465 1.488c0.098 0.313 0.071 0.543-0.035 0.724l-0.003 0.005c-0.101 0.182-0.298 0.34-0.647 0.45l-2.017 0.634-0.742-2.36 2.018-0.635c0.348-0.11 0.6-0.092 0.788 0l0.005 0.002c0.19 0.088 0.345 0.261 0.443 0.574l0.19 0.606zM42.017 25.848l0.435 1.387 3.898-1.224-0.436-1.387-1.164 0.365-1.861-5.922 1.164-0.366-0.436-1.387-3.897 1.224 0.436 1.387 1.163-0.365 1.861 5.923-1.163 0.365z" clip-rule="evenodd"/></svg>