<svg xmlns="http://www.w3.org/2000/svg" width="88" height="88" fill="none" viewBox="0 0 88 88"><path fill="#00CCBC" d="M82 44c0 20.987-17.013 38-38 38S6 64.987 6 44 23.013 6 44 6s38 17.013 38 38z"/><path fill="#FABE00" d="M54.846 19.64a1.124 1.124 0 0 1-0.095-1.58l7.704-8.685a1.124 1.124 0 0 1 1.58-0.095 1.124 1.124 0 0 1 0.095 1.58l-7.704 8.685a1.118 1.118 0 0 1-1.58 0.095z"/><path fill="#A3B1B1" d="M61.217 47.865h-34.43v6.68h34.43v-6.68z"/><path fill="#007E8A" d="M64.586 14H44.414C43.632 14 43 14.67 43 15.5s0.632 1.5 1.414 1.5h20.172C65.368 17 66 16.33 66 15.5c-0.003-0.83-0.635-1.5-1.414-1.5z"/><path fill="#007E8A" d="M58.778 27h-8.61C47.73 27 46 25.019 46 22.577V16h17v6.577C63 25.019 61.214 27 58.778 27z"/><path fill="#BAC3C3" d="M69 28H19v51h50V28z"/><path fill="#40235E" d="M61 43H27v28h34V43z"/><path fill="#fff" d="M61.814 43H26.15C24.969 43 24 42.122 24 41.05v-0.1c0-1.072 0.969-1.95 2.15-1.95h35.66c1.182 0 2.151 0.878 2.151 1.95v0.1c0.004 1.072-0.965 1.95-2.147 1.95z"/><path fill="#007E8A" fill-rule="evenodd" d="M31.5 33.5a2.5 2.5 0 1 1-5 0 2.5 2.5 0 0 1 5 0zM39 36a2.5 2.5 0 1 0 0-5 2.5 2.5 0 0 0 0 5zm12.5-2.5a2.5 2.5 0 1 1-5 0 2.5 2.5 0 0 1 5 0zm10 0a2.5 2.5 0 1 1-5 0 2.5 2.5 0 0 1 5 0z" clip-rule="evenodd"/><path fill="#017E8B" d="M60.94 56h-34v4h34v-4z"/></svg>