<svg xmlns="http://www.w3.org/2000/svg" width="88" height="88" fill="none" viewBox="0 0 88 88"><circle cx="44" cy="44" r="38" fill="#00CCBC"/><path fill="#000" fill-opacity=".3" d="M17.106 70.852a38.429 38.429 0 0 0 5.43 4.504h42.922c1.877-1.303 3.576-2.616 5.469-4.546 2.07-2.02 3.424-4.097 4.908-6.181H12.066c1.397 1.997 2.835 3.993 4.735 5.906 0.094 0.094 0.218 0.23 0.305 0.317z"/><path fill="#CCC" d="M43.972 15.86l-18.986 2.475v52.59l19.03-2.431-0.044-52.635z"/><path fill="#90A6A6" d="M43.973 15.86l0.043 52.634L62.96 71.36V18.682L43.973 15.86z"/><path fill="#CCC" d="M81.989 15.946l-19.03 2.736V71.36l18.986-2.736 0.044-52.678z"/><path fill="#90A6A6" d="M6 15.512V68.06l18.986 2.866V18.335L6 15.512z"/><path fill="#00CCBC" d="M62.959 39.831v8.643l18.986-6.775v-8.773l-18.986 6.905zM24.986 27.325v9.554l7.77 7.166-7.77 3.43V55.9h0.131l18.855-8.078V39.05l-4.233 1.824-14.753-13.55z"/><path fill="#007E8A" d="M24.986 55.9v-8.425L6 51.253v8.425L24.986 55.9zM10.19 16.12l14.796 20.758v-9.554l-5.5-9.814-9.296-1.39zm33.782 22.93v8.772l18.987 0.695v-8.686L43.972 39.05z"/><path fill="#FB5058" d="M52.321 13.7a11.479 11.479 0 0 1 2.585-1.587c0.937-0.453 2.007-0.777 3.206-0.971a9.899 9.899 0 0 1 1.407-0.162h0.262l0.196-0.033h0.262a2.769 2.769 0 0 0 0.458 0.033h0.163c0.043 0.02 0.098 0.02 0.197 0 1.286 0.13 2.442 0.377 3.467 0.744a13.462 13.462 0 0 1 2.781 1.425 11.936 11.936 0 0 1 2.225 1.944 14.328 14.328 0 0 1 1.669 2.494c0.5 0.907 0.85 1.954 1.047 3.141a10.675 10.675 0 0 1 0.196 1.717c0 0.065 0.01 0.14 0.033 0.227l-0.033 0.518v0.291a8.927 8.927 0 0 1-0.164 1.328c-0.196 1.166-0.534 2.214-1.014 3.142a109.123 109.123 0 0 1-1.472 2.688 39.76 39.76 0 0 1-1.603 2.591l-1.636 2.527c-0.524 0.798-2.661 4.383-6.413 10.752-1.69-2.97-2.892-5.078-3.603-6.326l-0.584-1.026a48.517 48.517 0 0 0-1.93-3.174 252.007 252.007 0 0 0-1.637-2.494 136.782 136.782 0 0 1-1.635-2.59l-0.333-0.55-0.453-0.746a20.69 20.69 0 0 1-1.374-2.786c-0.392-0.993-0.621-2.16-0.687-3.53v-1.069a0.522 0.522 0 0 0 0.033-0.227V21.83c0.13-1.231 0.404-2.343 0.818-3.336a12.814 12.814 0 0 1 1.505-2.689A13.5 13.5 0 0 1 52.32 13.7z"/><path fill="#fff" fill-rule="evenodd" d="M60.112 26.842l4.162 1.824-0.24-4.53 3.005-3.364-4.38-1.171-2.34-3.92-2.41 3.817-4.47 0.978 2.889 3.551-0.463 4.506 4.247-1.69z" clip-rule="evenodd"/></svg>