<svg xmlns="http://www.w3.org/2000/svg" width="88" height="88" fill="none" viewBox="0 0 88 88"><circle cx="44" cy="44" r="38" fill="#00CCBC"/><path fill="#000" fill-opacity=".2" d="M17.106 70.852a38.429 38.429 0 0 0 5.43 4.504h42.922c1.877-1.303 3.576-2.616 5.469-4.546 2.07-2.02 3.424-4.097 4.908-6.181H12.066c1.397 1.997 2.835 3.993 4.735 5.906 0.094 0.094 0.218 0.23 0.305 0.317z"/><path fill="#CCC" d="M43.972 15.86l-18.986 2.475v52.59l19.03-2.431-0.044-52.635z"/><path fill="#90A6A6" d="M43.973 15.86l0.043 52.634L62.96 71.36V18.682L43.973 15.86z"/><path fill="#CCC" d="M81.989 15.946l-19.03 2.736V71.36l18.986-2.736 0.044-52.678z"/><path fill="#90A6A6" d="M6 15.512V68.06l18.986 2.866V18.335L6 15.512z"/><path fill="#00CCBC" d="M62.959 39.831v8.643l18.986-6.775v-8.773l-18.986 6.905zM24.986 27.325v9.554l7.77 7.166-7.77 3.43V55.9h0.131l18.855-8.078V39.05l-4.233 1.824-14.753-13.55z"/><path fill="#007E8A" d="M24.986 55.9v-8.425L6 51.253v8.425L24.986 55.9zM10.19 16.12l14.796 20.758v-9.554l-5.5-9.814-9.296-1.39zm33.782 22.93v8.772l18.987 0.695v-8.686L43.972 39.05z"/><path fill="#000" fill-opacity=".2" d="M71.862 42.046c-0.087 0.348-0.13 0.739-0.087 1.216v0.217c0.044 0.087 0.044 0.174 0.087 0.304 0.131 0.478 0.306 0.912 0.568 1.26 0.218 0.347 0.48 0.651 0.829 0.999a4.767 4.767 0 0 1 0.436 0.477 19.494 19.494 0 0 1 0.917 0.956l0.916 0.912a14.476 14.476 0 0 1 1.048 1.129c0.306 0.304 1.091 1.216 2.4 2.649 1.179-2.258 1.877-3.561 2.052-3.865 0.175-0.304 0.35-0.608 0.567-0.912 0.219-0.304 0.35-0.608 0.524-0.956 0.175-0.303 0.306-0.65 0.48-0.955a2.89 2.89 0 0 0 0.218-1.129c0-0.13 0-0.304-0.043-0.478v-0.13c0-0.043-0.044-0.13-0.044-0.174 0-0.043-0.044-0.043-0.044-0.087-0.087-0.217-0.13-0.39-0.218-0.608a3.772 3.772 0 0 0-0.698-1.129c-0.262-0.304-0.611-0.608-0.917-0.868a10.153 10.153 0 0 0-1.134-0.739c-0.393-0.217-0.873-0.347-1.31-0.477a8.464 8.464 0 0 0-1.571-0.26c-0.044 0-0.087 0-0.087-0.044h-0.393-0.175c-0.218 0-0.436 0.043-0.61 0.043a4.117 4.117 0 0 0-1.354 0.348 3.18 3.18 0 0 0-1.004 0.564 2.98 2.98 0 0 0-0.742 0.739c-0.174 0.26-0.523 0.608-0.61 0.998zm7.246 1.477c0-0.044-0.044-0.044-0.044-0.087 0.044 0 0.044 0.043 0.044 0.087zm0.043 0.13v-0.087 0.087zm-3.84-0.217c0 0.043 0.043 0.087 0.043 0.13-0.044 0-0.044-0.043-0.044-0.13zm2.138 1.607h0zm-0.786-2.997H76.664zM45.806 57.55c-0.088 0.348-0.131 0.738-0.088 1.216v0.217c0.044 0.087 0.044 0.174 0.088 0.304 0.13 0.478 0.305 0.912 0.567 1.26 0.218 0.347 0.48 0.651 0.83 0.998 0.13 0.13 0.305 0.304 0.436 0.478a19.312 19.312 0 0 1 0.916 0.956l0.917 0.912c0.305 0.304 0.655 0.651 1.047 1.129 0.306 0.304 1.092 1.216 2.401 2.649 1.178-2.258 1.877-3.561 2.051-3.865a10.392 10.392 0 0 1 0.568-0.912c0.218-0.304 0.349-0.608 0.523-0.956 0.175-0.304 0.306-0.651 0.48-0.955a2.893 2.893 0 0 0 0.219-1.13c0-0.13 0-0.303-0.044-0.477v-0.13c0-0.044-0.044-0.13-0.044-0.174 0-0.043-0.043-0.043-0.043-0.087-0.087-0.217-0.131-0.39-0.218-0.608a3.77 3.77 0 0 0-0.699-1.129c-0.262-0.304-0.61-0.608-0.916-0.869a10.163 10.163 0 0 0-1.135-0.738c-0.393-0.217-0.873-0.347-1.31-0.478a8.472 8.472 0 0 0-1.57-0.26c-0.044 0-0.088 0-0.088-0.044h-0.393-0.174c-0.219 0-0.437 0.044-0.611 0.044a4.116 4.116 0 0 0-1.353 0.347 3.18 3.18 0 0 0-1.004 0.565 2.984 2.984 0 0 0-0.742 0.738c-0.219 0.348-0.524 0.652-0.611 1zm7.245 1.477c0-0.044-0.044-0.044-0.044-0.087 0.044 0.043 0.044 0.043 0.044 0.087zm0.043 0.13V59.07v0.087zm-3.84-0.174c0 0.044 0.043 0.087 0.043 0.13-0.043-0.043-0.043-0.086-0.043-0.13zm2.138 1.607h0zm-0.785-3.04h0zM52.571 27.715c-0.087 0.348-0.13 0.738-0.087 1.216v0.217c0.044 0.087 0.044 0.174 0.087 0.304 0.131 0.478 0.306 0.912 0.568 1.26 0.218 0.347 0.48 0.651 0.829 0.998 0.13 0.13 0.305 0.304 0.436 0.478a19.446 19.446 0 0 1 0.917 0.956l0.916 0.912c0.306 0.304 0.655 0.651 1.048 1.129 0.306 0.304 1.091 1.216 2.4 2.649 1.179-2.258 1.877-3.561 2.052-3.865a10.345 10.345 0 0 1 0.567-0.912c0.219-0.304 0.35-0.608 0.524-0.956 0.175-0.304 0.306-0.651 0.48-0.955a2.89 2.89 0 0 0 0.218-1.13c0-0.13 0-0.303-0.043-0.477v-0.13c0-0.044-0.044-0.13-0.044-0.174 0-0.043-0.044-0.043-0.044-0.087-0.087-0.217-0.13-0.39-0.218-0.608a3.77 3.77 0 0 0-0.698-1.129c-0.262-0.304-0.611-0.608-0.917-0.868a10.153 10.153 0 0 0-1.134-0.739c-0.393-0.217-0.873-0.347-1.31-0.477a8.464 8.464 0 0 0-1.571-0.261c-0.044 0-0.087 0-0.087-0.043h-0.393-0.175c-0.218 0-0.436 0.043-0.61 0.043a4.116 4.116 0 0 0-1.354 0.347 3.18 3.18 0 0 0-1.004 0.565 2.98 2.98 0 0 0-0.742 0.738c-0.218 0.348-0.48 0.652-0.61 1zm7.245 1.477c0-0.044-0.043-0.044-0.043-0.087 0.043 0.043 0.043 0.043 0.043 0.087zm0.044 0.13v-0.087 0.087zm-3.84-0.174c0 0.044 0.043 0.087 0.043 0.13-0.044-0.043-0.044-0.086-0.044-0.13zm2.182 1.607h0.087-0.087zm-0.786-3.04h0.131-0.131zM29 38.485a3.548 3.548 0 0 0-0.086 1.216v0.217c0.043 0.087 0.043 0.174 0.087 0.304 0.13 0.478 0.305 0.912 0.567 1.26 0.218 0.347 0.48 0.651 0.83 0.999 0.13 0.13 0.305 0.304 0.436 0.477a19.4 19.4 0 0 1 0.917 0.956l0.916 0.912c0.306 0.304 0.655 0.651 1.048 1.129 0.305 0.304 1.09 1.216 2.4 2.649 1.179-2.258 1.877-3.561 2.052-3.865a10.37 10.37 0 0 1 0.567-0.912c0.218-0.304 0.35-0.608 0.524-0.956 0.174-0.303 0.305-0.65 0.48-0.955a2.891 2.891 0 0 0 0.218-1.13c0-0.13 0-0.303-0.044-0.477v-0.13c0-0.044-0.043-0.13-0.043-0.174 0-0.043-0.044-0.043-0.044-0.087-0.087-0.217-0.13-0.39-0.218-0.608a3.769 3.769 0 0 0-0.698-1.129c-0.262-0.304-0.611-0.608-0.917-0.868a10.167 10.167 0 0 0-1.135-0.739c-0.393-0.217-0.873-0.347-1.31-0.477a8.465 8.465 0 0 0-1.57-0.26c-0.044 0-0.088 0-0.088-0.044h-0.393-0.174c-0.218 0-0.437 0.043-0.611 0.043a4.116 4.116 0 0 0-1.353 0.348 3.182 3.182 0 0 0-1.004 0.564 2.984 2.984 0 0 0-0.742 0.738c-0.218 0.348-0.524 0.652-0.611 1zm7.246 1.477c0-0.044-0.043-0.044-0.043-0.087 0.043 0.043 0.043 0.043 0.043 0.087zm0 0.13v-0.087 0.087zm-3.797-0.174c0 0.044 0.044 0.087 0.044 0.13-0.044-0.043-0.044-0.086-0.044-0.13zm2.139 1.607h0zm-0.786-3.04h0.131-0.131zM7.571 29.626a3.548 3.548 0 0 0-0.087 1.216v0.217c0.044 0.087 0.044 0.174 0.087 0.304 0.131 0.478 0.306 0.912 0.568 1.26 0.218 0.347 0.48 0.65 0.829 0.998 0.13 0.13 0.305 0.304 0.436 0.478a19.432 19.432 0 0 1 0.917 0.955l0.917 0.912c0.305 0.304 0.654 0.652 1.047 1.13 0.306 0.304 1.091 1.216 2.4 2.649 1.179-2.259 1.877-3.561 2.052-3.865a10.345 10.345 0 0 1 0.567-0.912c0.219-0.304 0.35-0.608 0.524-0.956 0.175-0.304 0.306-0.651 0.48-0.955a2.89 2.89 0 0 0 0.218-1.13c0-0.13 0-0.303-0.043-0.477v-0.13c0-0.044-0.044-0.13-0.044-0.174 0-0.044-0.044-0.044-0.044-0.087-0.087-0.217-0.13-0.39-0.218-0.608a3.77 3.77 0 0 0-0.698-1.13c-0.262-0.303-0.611-0.607-0.917-0.868a10.167 10.167 0 0 0-1.134-0.738c-0.393-0.217-0.873-0.347-1.31-0.478a8.473 8.473 0 0 0-1.571-0.26c-0.044 0-0.087 0-0.087-0.044h-0.568c-0.218 0-0.436 0.044-0.61 0.044a4.116 4.116 0 0 0-1.354 0.347 3.18 3.18 0 0 0-1.004 0.565 2.984 2.984 0 0 0-0.742 0.738c-0.218 0.348-0.523 0.652-0.61 0.999zm7.202 1.476c0-0.043-0.044-0.043-0.044-0.086a0.134 0.134 0 0 1 0.044 0.087zm0.043 0.174V31.19v0.087zm-3.84-0.217c0 0.043 0.043 0.087 0.043 0.13-0.043 0-0.043-0.087-0.043-0.13zm2.182 1.607h0.087-0.087zm-0.786-3.04h0.131-0.13zM13.333 54.684c-0.087 0.347-0.131 0.738-0.087 1.216v0.217c0.043 0.087 0.043 0.174 0.087 0.304 0.13 0.478 0.306 0.912 0.567 1.26 0.219 0.347 0.48 0.65 0.83 0.998a4.767 4.767 0 0 1 0.436 0.478c0.306 0.304 0.611 0.608 0.917 0.955l0.916 0.912a14.461 14.461 0 0 1 1.048 1.13c0.305 0.303 1.09 1.215 2.4 2.649 1.179-2.259 1.877-3.561 2.052-3.865 0.174-0.305 0.349-0.608 0.567-0.913 0.218-0.303 0.35-0.608 0.524-0.955 0.174-0.304 0.305-0.651 0.48-0.955a2.891 2.891 0 0 0 0.218-1.13c0-0.13 0-0.303-0.044-0.477v-0.13c0-0.044-0.043-0.13-0.043-0.174 0-0.044-0.044-0.044-0.044-0.087-0.087-0.217-0.13-0.39-0.218-0.608a3.77 3.77 0 0 0-0.698-1.13c-0.262-0.303-0.611-0.607-0.917-0.868a10.167 10.167 0 0 0-1.135-0.738c-0.392-0.217-0.873-0.347-1.31-0.478a8.465 8.465 0 0 0-1.57-0.26c-0.044 0-0.088 0-0.088-0.044h-0.567c-0.218 0-0.436 0.044-0.611 0.044a4.117 4.117 0 0 0-1.353 0.347 3.18 3.18 0 0 0-1.004 0.565 2.984 2.984 0 0 0-0.742 0.738c-0.218 0.347-0.524 0.651-0.611 0.999zm7.245 1.476c0-0.043-0.043-0.043-0.043-0.086a0.134 0.134 0 0 1 0.043 0.086zm0 0.174v-0.087 0.087zm-3.84-0.217c0 0.043 0.043 0.087 0.043 0.13-0.044 0-0.044-0.087-0.044-0.13zm2.182 1.607h0.087-0.087zm-0.786-3.04h0.131-0.131z"/><path fill="#FB5058" d="M10.627 25.023c0.393-0.304 0.83-0.521 1.31-0.739 0.48-0.217 1.003-0.39 1.614-0.434 0.11 0 0.23-0.01 0.35-0.022 0.12-0.01 0.24-0.021 0.349-0.021h0.785a5.435 5.435 0 0 1 1.746 0.304 6.87 6.87 0 0 1 1.397 0.651c0.436 0.26 0.785 0.565 1.135 0.869a5.24 5.24 0 0 1 0.873 1.129c0.261 0.347 0.436 0.868 0.523 1.39 0.044 0.26 0.088 0.52 0.088 0.781v0.434c0 0.144-0.03 0.288-0.066 0.457L20.71 29.93a4.265 4.265 0 0 1-0.48 1.433c-0.13 0.195-0.25 0.402-0.37 0.608-0.12 0.206-0.24 0.413-0.372 0.608a11.345 11.345 0 0 1-0.83 1.173c-0.13 0.195-0.272 0.38-0.414 0.564a10.736 10.736 0 0 0-0.414 0.565c-0.262 0.347-1.353 1.997-3.23 4.864-0.606-0.973-1.099-1.736-1.46-2.295-0.317-0.49-0.533-0.824-0.635-1.006-0.35-0.564-0.655-1.042-0.96-1.433-0.131-0.195-0.273-0.38-0.415-0.565a10.736 10.736 0 0 1-0.415-0.564 19.138 19.138 0 0 0-0.414-0.586c-0.142-0.196-0.284-0.391-0.415-0.587-0.131-0.173-0.262-0.347-0.393-0.564-0.262-0.391-0.48-0.825-0.698-1.26a4.155 4.155 0 0 1-0.306-1.563v-0.608c0.044-0.565 0.175-1.086 0.393-1.52a3.797 3.797 0 0 1 0.742-1.216c0.25-0.373 0.579-0.627 0.95-0.913l0.054-0.042zM32.139 34.216c0.392-0.304 0.829-0.521 1.31-0.738 0.48-0.217 1.003-0.391 1.614-0.435 0.11 0 0.23-0.01 0.35-0.021C35.532 33.01 35.652 33 35.76 33h0.786a5.434 5.434 0 0 1 1.746 0.304 6.864 6.864 0 0 1 1.397 0.651c0.436 0.261 0.785 0.565 1.134 0.869a5.234 5.234 0 0 1 0.873 1.13c0.262 0.346 0.437 0.868 0.524 1.389 0.044 0.26 0.087 0.52 0.087 0.781v0.435c0 0.144-0.03 0.288-0.065 0.456l-0.022 0.108a4.265 4.265 0 0 1-0.48 1.434 11.226 11.226 0 0 0-0.371 0.607 11.326 11.326 0 0 1-0.371 0.608 11.347 11.347 0 0 1-0.83 1.173c-0.13 0.195-0.272 0.38-0.414 0.565a10.736 10.736 0 0 0-0.415 0.564c-0.262 0.348-1.353 1.998-3.23 4.864-0.605-0.973-1.098-1.736-1.46-2.295-0.317-0.49-0.533-0.823-0.634-1.005-0.35-0.565-0.655-1.043-0.96-1.434a10.722 10.722 0 0 0-0.415-0.564c-0.142-0.185-0.284-0.37-0.415-0.565a19.319 19.319 0 0 0-0.415-0.586c-0.142-0.195-0.283-0.39-0.414-0.586-0.131-0.174-0.262-0.348-0.393-0.565-0.262-0.39-0.48-0.825-0.699-1.26A4.157 4.157 0 0 1 30 38.516v-0.608c0.044-0.564 0.175-1.085 0.393-1.52a3.798 3.798 0 0 1 0.742-1.216c0.25-0.372 0.578-0.626 0.949-0.913l0.055-0.042zM16.482 50.08c0.393-0.303 0.83-0.52 1.31-0.738 0.48-0.217 1.004-0.39 1.615-0.434 0.109 0 0.229-0.01 0.349-0.022 0.12-0.01 0.24-0.022 0.35-0.022h0.785a5.435 5.435 0 0 1 1.746 0.305 6.867 6.867 0 0 1 1.396 0.65c0.437 0.261 0.786 0.566 1.135 0.87a5.235 5.235 0 0 1 0.873 1.129c0.262 0.347 0.436 0.868 0.524 1.39a4.756 4.756 0 0 1 0.087 0.781v0.434a2.266 2.266 0 0 1-0.065 0.457 15.104 15.104 0 0 0-0.022 0.108 4.26 4.26 0 0 1-0.48 1.433c-0.131 0.195-0.251 0.402-0.371 0.608-0.12 0.206-0.24 0.412-0.371 0.608a11.33 11.33 0 0 1-0.83 1.172 10.78 10.78 0 0 1-0.414 0.565c-0.142 0.185-0.284 0.37-0.415 0.565-0.262 0.347-1.353 1.997-3.23 4.864-0.605-0.973-1.099-1.736-1.46-2.295-0.317-0.49-0.533-0.824-0.635-1.006-0.349-0.565-0.655-1.042-0.96-1.433-0.13-0.196-0.273-0.38-0.415-0.565a10.736 10.736 0 0 1-0.414-0.564c-0.131-0.196-0.273-0.391-0.415-0.587a19.194 19.194 0 0 1-0.415-0.586c-0.13-0.174-0.261-0.347-0.392-0.564-0.262-0.391-0.48-0.826-0.699-1.26a4.155 4.155 0 0 1-0.305-1.563v-0.608c0.043-0.565 0.174-1.086 0.393-1.52a3.796 3.796 0 0 1 0.742-1.216c0.25-0.373 0.578-0.627 0.949-0.913a36.96 36.96 0 0 1 0.054-0.042zM48.947 52.947c0.393-0.304 0.83-0.521 1.31-0.739 0.48-0.217 1.004-0.39 1.615-0.434 0.109 0 0.229-0.01 0.349-0.022 0.12-0.01 0.24-0.021 0.349-0.021h0.786a5.434 5.434 0 0 1 1.745 0.304 6.87 6.87 0 0 1 1.397 0.651c0.437 0.26 0.786 0.565 1.135 0.869a5.237 5.237 0 0 1 0.873 1.129c0.262 0.347 0.436 0.868 0.524 1.39 0.043 0.26 0.087 0.52 0.087 0.781v0.434c0 0.144-0.03 0.288-0.065 0.457l-0.022 0.108a4.265 4.265 0 0 1-0.48 1.433 11.226 11.226 0 0 0-0.371 0.608 11.369 11.369 0 0 1-0.372 0.608 11.345 11.345 0 0 1-0.829 1.173c-0.13 0.195-0.273 0.38-0.414 0.564a10.736 10.736 0 0 0-0.415 0.565c-0.262 0.347-1.353 1.997-3.23 4.864-0.605-0.973-1.099-1.736-1.46-2.295-0.317-0.49-0.533-0.823-0.635-1.006-0.35-0.564-0.655-1.042-0.96-1.433-0.131-0.195-0.273-0.38-0.415-0.565a10.678 10.678 0 0 1-0.414-0.564 19.319 19.319 0 0 0-0.415-0.586c-0.142-0.196-0.284-0.391-0.415-0.587a6.334 6.334 0 0 1-0.392-0.564c-0.262-0.391-0.48-0.825-0.699-1.26a4.155 4.155 0 0 1-0.305-1.563v-0.608c0.043-0.564 0.174-1.086 0.392-1.52a3.798 3.798 0 0 1 0.742-1.216c0.25-0.373 0.579-0.627 0.95-0.913l0.054-0.042zM74.96 37.4c0.394-0.304 0.83-0.522 1.31-0.739 0.48-0.217 1.004-0.39 1.615-0.434 0.11 0 0.23-0.01 0.35-0.022 0.12-0.01 0.24-0.021 0.349-0.021h0.785a5.435 5.435 0 0 1 1.746 0.303 6.872 6.872 0 0 1 1.397 0.652c0.436 0.26 0.785 0.564 1.135 0.868a5.24 5.24 0 0 1 0.872 1.13c0.262 0.347 0.437 0.868 0.524 1.39 0.044 0.26 0.088 0.52 0.088 0.781v0.434c0 0.144-0.03 0.288-0.066 0.457a10.576 10.576 0 0 0-0.022 0.108 4.263 4.263 0 0 1-0.48 1.433c-0.13 0.195-0.25 0.402-0.37 0.608-0.12 0.206-0.24 0.413-0.372 0.608a11.334 11.334 0 0 1-0.83 1.172 10.738 10.738 0 0 1-0.414 0.565c-0.142 0.185-0.284 0.37-0.414 0.565-0.262 0.347-1.353 1.997-3.23 4.864-0.606-0.973-1.099-1.736-1.46-2.295-0.317-0.49-0.533-0.823-0.635-1.006-0.35-0.564-0.655-1.042-0.96-1.433-0.131-0.195-0.273-0.38-0.415-0.565a10.78 10.78 0 0 1-0.415-0.564c-0.13-0.196-0.273-0.391-0.414-0.587a19.135 19.135 0 0 1-0.415-0.586 6.372 6.372 0 0 1-0.393-0.564c-0.262-0.391-0.48-0.825-0.698-1.26a4.154 4.154 0 0 1-0.306-1.563V41.09c0.044-0.565 0.175-1.086 0.393-1.52a3.797 3.797 0 0 1 0.742-1.216c0.25-0.373 0.579-0.627 0.95-0.913L74.96 37.4zM55.764 23.112c0.392-0.304 0.829-0.521 1.31-0.738 0.48-0.218 1.003-0.391 1.614-0.435 0.11 0 0.23-0.01 0.35-0.021a3.996 3.996 0 0 1 0.348-0.022h0.786a5.434 5.434 0 0 1 1.746 0.304 6.87 6.87 0 0 1 1.397 0.651c0.436 0.26 0.785 0.565 1.134 0.869a5.235 5.235 0 0 1 0.873 1.129c0.262 0.347 0.437 0.868 0.524 1.39 0.044 0.26 0.087 0.52 0.087 0.781v0.434c0 0.144-0.03 0.288-0.065 0.457l-0.022 0.108a4.264 4.264 0 0 1-0.48 1.433c-0.131 0.196-0.251 0.402-0.371 0.608a11.29 11.29 0 0 1-0.371 0.608 11.334 11.334 0 0 1-0.83 1.173c-0.13 0.195-0.272 0.38-0.414 0.564a10.738 10.738 0 0 0-0.415 0.565c-0.262 0.347-1.353 1.998-3.23 4.864-0.605-0.973-1.098-1.736-1.46-2.295a24.812 24.812 0 0 1-0.634-1.006c-0.35-0.564-0.655-1.042-0.96-1.433a10.68 10.68 0 0 0-0.415-0.564c-0.142-0.185-0.284-0.37-0.415-0.565a19.315 19.315 0 0 0-0.415-0.586c-0.142-0.196-0.283-0.391-0.414-0.587-0.131-0.173-0.262-0.347-0.393-0.564-0.262-0.39-0.48-0.825-0.698-1.26a4.156 4.156 0 0 1-0.306-1.563v-0.608c0.044-0.565 0.175-1.086 0.393-1.52a3.799 3.799 0 0 1 0.742-1.216c0.25-0.372 0.578-0.627 0.949-0.913a13.925 13.925 0 0 0 0.055-0.042z"/></svg>