<svg width="432" height="66" fill="none" xmlns="http://www.w3.org/2000/svg"><path fill-rule="evenodd" clip-rule="evenodd" d="M88.434 48.916h5.51l-.913-4.276V19.134h-5.273v11.631c-1.584-1.838-3.766-2.919-6.347-2.919-5.273 0-9.36 4.36-9.36 10.751 0 6.397 4.081 10.75 9.36 10.75 2.62 0 4.88-1.118 6.463-3.035l.56 2.604zm104.259-15.348c1.069 0 2.061.277 2.974.92l2.498-5.639c-1.152-.72-2.498-1.041-3.805-1.041-2.381 0-4.364 1.08-5.633 3.08l-.553-2.598h-5.434l.875 4.037v16.589h5.273v-13.15c.709-1.362 2.06-2.198 3.805-2.198zm15.464 10.23c-3.052 0-5.312-2.038-5.312-5.195 0-3.196 2.26-5.196 5.312-5.196 3.091 0 5.317 2 5.317 5.196 0 3.157-2.221 5.195-5.317 5.195zM77.174 38.603c0-3.196 2.26-5.196 5.311-5.196 3.096 0 5.317 2 5.317 5.196 0 3.157-2.22 5.195-5.317 5.195-3.052 0-5.311-2.038-5.311-5.195zm154.34 5.195c-3.052 0-5.312-2.038-5.312-5.195 0-3.196 2.26-5.196 5.312-5.196 3.09 0 5.317 2 5.317 5.196 0 3.157-2.221 5.195-5.317 5.195zM106.755 33.086c2.737 0 4.52 1.28 5.079 3.639h-10.152c.593-2.36 2.376-3.639 5.073-3.639zm63.091 0c2.736 0 4.52 1.28 5.079 3.639h-10.152c.598-2.36 2.381-3.639 5.073-3.639zm-25.732 15.83h8.485l5.511-20.626h-5.749l-4.044 16.704-4.043-16.704h-5.671l5.511 20.626zm-13.603 0h5.273V28.29h-5.273v20.626zm-22.947.382c2.936 0 5.827-.798 8.247-2.36l-2.021-4.558c-1.906.997-4.005 1.6-6.148 1.6-2.775 0-4.719-1.08-5.55-3.079h14.832c.161-.759.239-1.517.239-2.437 0-6.397-4.404-10.673-10.313-10.673-5.949 0-10.308 4.315-10.308 10.75 0 6.559 4.32 10.757 11.022 10.757zm134.379-10.695c0-6.398-4.442-10.75-10.429-10.75-5.988 0-10.43 4.358-10.43 10.75 0 6.397 4.442 10.75 10.43 10.75 5.987 0 10.429-4.359 10.429-10.75zm-71.382 10.75c2.935 0 5.826-.797 8.247-2.36l-2.022-4.558c-1.905.997-4.004 1.601-6.148 1.601-2.775 0-4.719-1.08-5.549-3.08h14.832c.161-.758.238-1.517.238-2.437 0-6.397-4.403-10.672-10.313-10.672-5.948 0-10.313 4.314-10.313 10.75.006 6.558 4.326 10.756 11.028 10.756zm37.596 0c5.987 0 10.429-4.359 10.429-10.75 0-6.398-4.442-10.75-10.429-10.75s-10.429 4.358-10.429 10.75c0 6.391 4.442 10.75 10.429 10.75zm-87.644-.437h5.273V19.134h-5.273v29.782zm12.656-23.462c1.861 0 3.29-1.44 3.29-3.357 0-1.916-1.429-3.356-3.29-3.356-1.905 0-3.334 1.44-3.334 3.356 0 1.917 1.429 3.357 3.334 3.357z" fill="#fff"/><path fill-rule="evenodd" clip-rule="evenodd" d="M383.055 17.661v31.271h3.334v-31.27h-3.334zm-21.889 41.69V45.176c1.667 2.587 4.292 4.17 7.422 4.17 5.716 0 10.008-4.463 10.008-10.838 0-6.375-4.298-10.84-10.008-10.84-3.13 0-5.755 1.584-7.422 4.171v-3.755h-3.334V59.35h3.334zm7.045-28.64c4.004 0 7.045 3.129 7.045 7.798 0 4.669-3.041 7.792-7.045 7.798-4.004 0-7.045-3.13-7.045-7.798 0-4.67 3.041-7.799 7.045-7.799zm38.61 14.466c-1.291 2.792-3.711 4.17-6.586 4.17-4.547 0-7.964-2.918-7.964-9.465V28.085h3.334v11.088c0 4.88 2.127 7.256 5.627 7.256 3.462 0 5.589-2.376 5.589-7.256V28.085h3.334v20.847h-3.334v-3.755zm8.17-2.791c0 4.458 3.794 6.962 8.84 6.962 4.796 0 8.175-2.249 8.169-6.17 0-4.726-4.12-5.552-7.759-6.282-2.879-.578-5.456-1.095-5.456-3.433 0-1.96 1.794-3.13 4.42-3.13 2.797 0 4.879 1.668 4.879 3.878h3.462c0-3.711-3.545-6.547-8.341-6.547-4.42 0-7.754 2.254-7.754 5.92 0 4.572 3.944 5.347 7.51 6.048 2.94.577 5.622 1.104 5.622 3.668 0 2.254-1.795 3.378-4.752 3.378-3.041 0-5.379-1.418-5.379-4.292h-3.461z" fill="#450063"/><path d="M282.795 23.166l-1.853-5.187c-7.04 1.621-16.697 2.061-25.335 2.061l.603 4.47v14.82c-1.135 3.382-2.64 6.925-4.03 9.982h5.558c.996-2.409 2.223-5.581 3.15-8.36h20.795V26.849h-20.518v-2.177c6.902-.14 15.007-.37 21.63-1.506zm-6.044 8.615v4.1h-15.586v-4.1h15.586zM314.221 23.166l-1.853-5.187c-7.04 1.621-16.697 2.061-25.335 2.061l.602 4.47v14.82c-1.134 3.382-2.64 6.925-4.029 9.982h5.558c.996-2.409 2.223-5.581 3.149-8.36h20.796V26.849h-20.518v-2.177c6.901-.14 15.007-.37 21.63-1.506zm-6.044 8.615v4.1h-15.586v-4.1h15.586zM341.269 18.187c-.671 1.621-1.366 3.22-2.153 4.563h-2.061c-.672-1.46-1.413-3.15-2.177-4.563h-4.84c.718 1.529 1.459 3.104 2.153 4.563h-3.149v4.469h7.109v1.876c0 .37 0 .671-.023 1.019h-7.387v4.562h6.623c-1.065 2.316-3.752 3.288-6.762 3.867l2.431 4.632c2.432-.695 5.118-2.038 6.809-4.354 2.293 1.066 4.909 2.756 6.623 4.586l3.312-4.007c-2.478-1.922-5.327-3.057-8.106-4.053.093-.231.163-.44.232-.671h8.082v-4.562h-7.41c.023-.325.069-.718.069-1.089V27.22h6.855v-4.47h-3.381c.787-1.366 1.69-2.94 2.408-4.562h-5.257z" fill="#fff"/><path d="M326.17 42.225c.556-1.18 1.135-2.339 1.598-3.543v-4.84h-3.08c.857-2.339 1.83-5.257 2.547-7.804h-9.795v4.608h4.029c-.787 2.34-1.992 5.257-3.149 7.805h4.654v.3c-1.598 3.613-3.798 7.319-5.928 10.584h5.303c.556-.996 1.135-2.015 1.691-3.034 5.002 2.548 9.703 2.872 15.678 2.872 2.176 0 5.534-.14 7.665-.463l1.644-5.303c-3.404.694-7.248.995-11.44.995-4.354.023-8.684-.486-11.417-2.177zM323.16 24.625c1.922 0 3.635-1.459 3.635-3.45 0-1.992-1.713-3.474-3.635-3.474-1.992 0-3.474 1.482-3.474 3.474 0 1.991 1.482 3.45 3.474 3.45z" fill="#fff"/><path fill-rule="evenodd" clip-rule="evenodd" d="M42.557.364l-3.019 28.58-5.15-24.094-16.152 3.412 5.151 24.093L.108 37.279l4.116 19.247 40.941 8.651 9.36-20.914 4.46-42.182L42.556.364zM29.624 41.826c-.848.77-1.96.698-3.146.305-1.185-.388-1.712-1.811-1.263-3.534.332-1.28 1.905-1.468 2.692-1.479.299-.005.593.056.864.177.554.25 1.495.787 1.69 1.601.27 1.174.005 2.16-.837 2.93zm11.853 1.324c-.615 1.058-2.227 1.202-3.811.426-1.069-.52-1.063-1.844-.947-2.653.06-.443.238-.853.515-1.202.382-.481 1.02-1.107 1.756-1.124 1.196-.033 2.226.504 2.808 1.468.581.964.293 2.021-.321 3.085z" fill="#fff"/></svg>