<svg viewBox="0 0 994 194" xmlns="http://www.w3.org/2000/svg"><path d="M832.3 82.18l-4.51-12.63c-17.14 3.94-40.64 5-61.64 5l1.44 10.86v36.06a261.552 261.552 0 0 1-9.81 24.3h13.52c2.41-5.87 5.39-13.6 7.64-20.36h50.62V91.12h-49.89v-5.31c16.83-.33 36.53-.89 52.63-3.63zm-14.73 20.93v10h-37.9v-10h37.9zm91.19-20.93l-4.51-12.63c-17.14 3.94-40.64 5-61.65 5l1.45 10.86v36.06c-2.74 8.21-6.44 16.82-9.82 24.3h13.52c2.42-5.87 5.39-13.6 7.65-20.36h50.62V91.12h-49.9v-5.31c16.82-.33 36.54-.89 52.64-3.63zm-14.73 20.93v10h-37.91v-10h37.91zM974.59 70a89.42 89.42 0 0 1-5.23 11.11h-5c-1.61-3.54-3.46-7.65-5.31-11.11H947.3c1.78 3.7 3.55 7.57 5.24 11.11h-7.65V92h17.3v4.59c0 .89 0 1.61-.08 2.49h-17.94v11.11h16.09c-2.57 5.63-9.13 8-16.43 9.39l5.91 11.28c5.93-1.68 12.45-5 16.56-10.61a56.182 56.182 0 0 1 16.11 11.13l8.05-9.74c-6-4.66-13-7.43-19.74-9.84.23-.522.42-1.06.57-1.61h19.63V99.08h-18c.08-.8.16-1.77.16-2.65V92h16.66V81.14h-8.24A119.396 119.396 0 0 0 987.38 70h-12.79z" fill="#00CCBC"/><path d="M937.81 128.54c1.37-2.9 2.73-5.71 3.86-8.61v-11.75h-7.48c2.09-5.72 4.42-12.8 6.19-19h-23.82v11.18h9.82c-1.93 5.72-4.83 12.8-7.65 19h11.35v.72a190.952 190.952 0 0 1-14.4 25.75h12.87c1.37-2.41 2.74-4.91 4.11-7.4 12.15 6.2 23.58 7 38.15 7 6.241.029 12.478-.348 18.67-1.13l4-12.87a140.773 140.773 0 0 1-27.85 2.41c-10.6.01-21.13-1.2-27.82-5.3zm-7.31-42.81c4.67 0 8.86-3.55 8.86-8.38-.135-4.739-4.12-8.539-8.86-8.45a9.35 9.35 0 0 0-.29-.005c-4.619 0-8.42 3.801-8.42 8.42s3.801 8.42 8.42 8.42c.097 0 .193-.002.29-.005zM12.24 168l121.8 25.9 27.86-62.57 13.27-126.2L126.31 0l-9 85.5L102 13.42 54 23.64l15.32 72.08L0 110.44 12.24 168zm96.7-46.66a7.448 7.448 0 0 1 1.54-3.6c1.13-1.44 3-3.32 5.21-3.37a9.143 9.143 0 0 1 8.35 4.39c1.74 2.88.87 6.06-1 9.23-1.87 3.17-6.62 3.59-11.33 1.29-3.14-1.55-3.12-5.51-2.77-7.93v-.01zm-34.23-7c1-3.82 5.66-4.39 8-4.43a6.129 6.129 0 0 1 2.57.53c1.66.75 4.46 2.35 5 4.79a8.492 8.492 0 0 1-2.48 8.76c-2.52 2.31-5.84 2.09-9.36.92-3.52-1.17-5.06-5.38-3.73-10.53v-.04zm321.14-58.58l-.11-.001c-5.453 0-9.94 4.487-9.94 9.94 0 5.453 4.487 9.94 9.94 9.94 5.453 0 9.94-4.486 9.94-9.939l.003-.231c0-5.327-4.384-9.71-9.71-9.71l-.123.001zM578.5 82.62a19.25 19.25 0 0 0-16.8 9.12l-1.66-7.7H543.8l2.6 12v49.11h15.74v-38.97a12.317 12.317 0 0 1 11.36-6.51 15.13 15.13 0 0 1 8.88 2.72l7.46-16.69a21.64 21.64 0 0 0-11.34-3.08zm41.16.12c-17.87 0-31.13 12.9-31.13 31.84 0 18.94 13.26 31.84 31.13 31.84 17.87 0 31.13-12.9 31.13-31.84 0-18.94-13.29-31.84-31.13-31.84zm0 47.23c-9.11 0-15.86-6-15.86-15.39s6.75-15.39 15.86-15.39 15.84 5.92 15.84 15.39S628.89 130 619.66 130v-.03zm69.71-47.23c-17.87 0-31.13 12.9-31.13 31.84 0 18.94 13.26 31.84 31.13 31.84 17.87 0 31.13-12.9 31.13-31.84 0-18.94-13.26-31.84-31.13-31.84zm0 47.23c-9.11 0-15.86-6-15.86-15.39s6.75-15.39 15.86-15.39 15.86 5.92 15.86 15.39S698.6 130 689.37 130v-.03zM358.1 56.94h15.74v88.17H358.1V56.94zm-82.02 0h-15.74v34.44a24.563 24.563 0 0 0-18.94-8.64c-15.74 0-27.93 12.9-27.93 31.84 0 18.94 12.19 31.84 27.93 31.84a24.634 24.634 0 0 0 19.29-9l1.66 7.69h16.45l-2.72-12.66V56.94zm-31.49 73c-9.11 0-15.86-6-15.86-15.39s6.75-15.39 15.86-15.39 15.91 5.95 15.91 15.42c0 9.47-6.67 15.42-15.91 15.42v-.06zm291.51-15.6c0-18.93-13.14-31.6-30.77-31.6s-30.77 12.78-30.77 31.84c0 19.41 12.9 31.84 32.9 31.84a45.798 45.798 0 0 0 24.62-7l-6-13.49a39.877 39.877 0 0 1-18.34 4.74c-8.29 0-14.09-3.2-16.57-9.12h44.26c.483-2.372.708-4.79.67-7.21zM490.18 109c1.78-7 7.1-10.77 15.15-10.77S518.82 102 520.5 109h-30.32zM387.92 84.04h15.74v61.07h-15.74V84.04zm-44.14 55.39l-6-13.49a39.896 39.896 0 0 1-18.35 4.74c-8.28 0-14.08-3.2-16.56-9.12h44.26a34.2 34.2 0 0 0 .71-7.22c0-18.93-13.14-31.6-30.77-31.6s-30.77 12.78-30.77 31.84c0 19.41 12.9 31.84 32.9 31.84a45.791 45.791 0 0 0 24.58-6.99zm-26.75-41.18c8.16 0 13.49 3.78 15.15 10.77h-30.3c1.77-7.02 7.1-10.77 15.15-10.77zm111.96-14.21h-16.92l16.45 61.07h25.33l16.45-61.07h-17.16l-12.08 49.48-12.07-49.48z" fill="#00CCBC"/></svg>
