<svg height="40" viewBox="0 0 1462 705" width="84" xmlns="http://www.w3.org/2000/svg"><g fill="#2E3333"><path d="m803.9 464.5c11.2 0 19.9-8.7 19.9-20.3s-8.7-20.2-20-20.2a19.7 19.7 0 0 0 -20 20.2c0 11.6 8.6 20.3 20 20.3zm-76.4 141.8h31.8v-180h-31.8zm529.4 2.6c36.2 0 63-26.3 63-65 0-38.6-26.8-64.9-63-64.9-36.1 0-63 26.3-63 65 0 38.6 26.9 65 63 65zm-227 0c17.6 0 35.1-4.8 49.7-14.2l-12.2-27.6a80.2 80.2 0 0 1 -37.1 9.7c-16.8 0-28.5-6.5-33.5-18.6h89.6c1-4.6 1.4-9.2 1.4-14.7 0-38.7-26.6-64.5-62.3-64.5-36 0-62.3 26-62.3 65 0 39.6 26.1 65 66.6 65zm431.2-65c0-38.6-26.9-64.9-63-64.9-36.2 0-63 26.3-63 65 0 38.6 26.8 65 63 65 36.1 0 63-26.4 63-65zm-811.9 64.7c17.7 0 35.2-4.9 49.8-14.3l-12.2-27.5a80.2 80.2 0 0 1 -37.1 9.7c-16.8 0-28.5-6.6-33.6-18.6h89.7a70 70 0 0 0 1.4-14.8c0-38.6-26.6-64.4-62.3-64.4-36 0-62.3 26-62.3 65 0 39.5 26.1 64.9 66.6 64.9zm138.6-2.3h31.9v-124.6h-31.9zm82.2 0h51.3l33.3-124.6h-34.8l-24.4 100.9-24.4-101h-34.3l33.3 124.8zm155.5-95.7c16.5 0 27.3 7.8 30.7 22h-61.4c3.6-14.2 14.4-22 30.7-22zm-381.2 0c16.6 0 27.3 7.8 30.7 22h-61.3c3.5-14.2 14.3-22 30.6-22zm753.8 64.8c-18.5 0-32.2-12.4-32.2-31.4 0-19.4 13.7-31.4 32.2-31.4 18.6 0 32 12 32 31.4 0 19-13.4 31.4-32 31.4zm-932.5-31.4c0-19.4 13.6-31.4 32-31.4 18.8 0 32.2 12 32.2 31.4 0 19-13.4 31.4-32.1 31.4-18.5 0-32.1-12.4-32.1-31.4zm791.3 31.4c-18.4 0-32-12.4-32-31.4 0-19.4 13.6-31.4 32-31.4 18.7 0 32.1 12 32.1 31.4 0 19-13.4 31.4-32 31.4zm-93.4-61.9c6.5 0 12.5 1.7 18 5.6l15-34c-6.9-4.4-15-6.3-23-6.3a38.9 38.9 0 0 0 -34 18.6l-3.3-15.7h-32.8l5.2 24.4v100.2h31.9v-79.5a24.9 24.9 0 0 1 23-13.3zm-629.9 92.8h33.4l-5.5-25.9v-154h-31.8v70.2a49.5 49.5 0 0 0 -38.4-17.6c-31.8 0-56.5 26.3-56.5 65 0 38.6 24.7 65 56.5 65 15.8 0 29.5-6.8 39-18.4l3.4 15.7zm-283.6-34.8c-3.8 6.4-13.5 7.2-23 2.5-6.5-3.1-6.5-11.1-5.8-16 .4-2.6 1.5-5.1 3.1-7.3 2.3-2.9 6.2-6.6 10.6-6.8 7.3-.2 13.5 3 17 8.9 3.5 5.8 1.7 12.2-2 18.7zm-71.7-8c-5 4.6-11.8 4.2-19 1.8-7.1-2.4-10.3-11-7.6-21.4 2-7.7 11.5-8.8 16.3-8.9 1.8 0 3.5.3 5.2 1 3.3 1.6 9 4.8 10.2 9.7 1.6 7.1 0 13-5 17.7zm78.2-250.5-18.3 172.6-31-145.5-97.7 20.6 31.2 145.6-140.7 29.7 24.9 116.2 247.3 52.3 56.6-126.3 26.9-254.9z"/><path d="m104 138.5c1.4 13 10.7 20.8 22 19.5 11.2-1.2 18.7-10.7 17.3-23.8-1.5-13-10.8-20.7-22-19.5-11.3 1.3-18.8 10.8-17.4 23.8zm3 31 1.1 10.4-23.6 2.6-13.6-124 24.1-2.5 5.6 51.2c5.3-8 13.3-13.1 23.2-14.2 22.3-2.4 40.2 13 43 38.8 2.8 25.6-11.3 44.7-33.6 47.1a31.4 31.4 0 0 1 -26.1-9.3zm103.1-.8-24 2.7-9-82.7 23.1-2.5 1.6 14.4a29.2 29.2 0 0 1 29-19l2.7 24.4c-2.4-.6-5.4-.8-8.7-.4-13.6 1.5-20.6 9.1-19.3 21.3zm95.9-52.2c-1.5-13-10.7-20.8-22.1-19.5-11.3 1.2-18.8 10.7-17.3 23.8 1.4 12.9 10.8 20.7 22 19.5 11.4-1.3 18.7-11 17.3-23.8zm-62.7 6.8a41.7 41.7 0 0 1 38.2-47.7 41.7 41.7 0 0 1 47.7 38.3 41.6 41.6 0 0 1 -38.3 47.7 41.6 41.6 0 0 1 -47.6-38.3zm156.6 12.8c-4 9.2-12 14.9-22.2 16-17 1.9-31-7.8-33.4-30l-5.6-51 24-2.7 5 45.7c1.4 12.4 7.5 18.2 16.6 17.2 9-1 13.7-8 12.3-20.4l-5-45.6 24-2.6 9 82.6-23.4 2.6zm97.9-40.6c-1.4-13-10.6-20.8-22-19.5-11.3 1.2-18.6 10.7-17.2 23.8 1.5 13 10.7 20.7 21.9 19.5 11.4-1.2 18.7-10.7 17.3-23.8zm-56 54.6 23.4-2.5a18.5 18.5 0 0 0 20.6 14.4c12.1-1.3 18-11 16.6-24l-1.2-11.1a31.4 31.4 0 0 1 -23 14.2c-22.5 2.5-40.4-13.1-43.2-38.7-2.8-25.8 11.3-44.8 33.8-47.2a31 31 0 0 1 26.1 9.5l-1.1-10.6 23.4-2.5 9.2 83.4a41.2 41.2 0 0 1 -38 46.8c-23 2.5-41.1-10-46.5-31.7zm128.2-20.7-23.9 2.6-13.5-124 24-2.5 5.7 52.3a27.3 27.3 0 0 1 22.2-15.3c17.2-1.8 31.3 7.8 33.7 30l5.6 51-24 2.7-5-45.7c-1.3-12.4-7.5-18.2-16.9-17.2s-14.2 8.1-12.8 20.5l5 45.6zm111-31c2.7-.3 6.1-1.2 8.8-2.5l2.2 19.9c-3.2 1.3-8.7 3-13.6 3.5-17.6 1.9-31.2-3.5-33.7-26.6l-3.9-35-11.9 1.2-2-19.3 11.8-1.3-2.6-24.5 24-2.6 2.6 24.5 20.3-2.3 2.1 19.4-20.3 2.2 3.7 33.7c.8 7.6 4.7 10.6 12.4 9.7zm102.4-11.2c2.8-.3 6.2-1.2 9-2.5l2 19.9c-3.1 1.3-8.6 3-13.6 3.5-17.5 1.9-31.1-3.5-33.7-26.6l-3.8-35-11.9 1.2-2-19.3 11.8-1.3-2.7-24.5 24-2.6 2.7 24.5 20.3-2.3 2.1 19.4-20.3 2.2 3.7 33.7c.8 7.6 4.6 10.6 12.4 9.7zm78.6-31.5c-1.3-13-10.6-20.8-22-19.5-11.2 1.2-18.7 10.7-17.3 23.8 1.5 12.9 10.8 20.7 22 19.5 11.5-1.3 18.8-11 17.4-23.8zm-62.6 6.8a41.7 41.7 0 0 1 38.3-47.5 41.6 41.6 0 0 1 47.7 38 41.6 41.6 0 0 1 -38.3 47.7 41.6 41.6 0 0 1 -47.7-38.3zm-169.2 241.6-2.2-19.1c3.6.4 7.8.8 11.7.3a20 20 0 0 0 17-12.2l-40.6-92.7 23.6-2.6 24 62.8 10.4-66.5 23.4-2.6-17.3 89.2c-4.3 24.9-12.9 41.2-35.9 43.7-5.4.6-10.6.3-14.2-.3zm140.2-98.7c-1.4-13.1-10.6-20.8-22-19.6-11.2 1.3-18.7 10.8-17.3 23.9 1.4 12.8 10.8 20.7 22 19.5 11.4-1.3 18.7-11 17.3-23.8zm-62.6 6.8a41.6 41.6 0 0 1 38.3-47.7 41.6 41.6 0 0 1 47.6 38.3 41.6 41.6 0 0 1 -38.2 47.7 41.6 41.6 0 0 1 -47.7-38.3zm156.6 12.8c-4 9.2-12 14.9-22.2 16-17 1.8-31-7.8-33.4-30l-5.5-51 24-2.7 5 45.6c1.3 12.4 7.4 18.3 16.5 17.3s13.7-8 12.3-20.4l-5-45.6 24-2.6 9 82.6-23.4 2.6zm102-41c1.5 13 10.8 20.7 22 19.4 11.3-1.2 18.8-10.7 17.4-23.8-1.5-13-10.8-20.7-22-19.5-11.3 1.3-18.8 10.8-17.4 23.8zm3 30.9 1.2 10.4-23.6 2.6-13.6-124 24-2.6 5.6 51.2c5.3-8 13.3-13.1 23.2-14.2 22.3-2.5 40.2 13 43 38.8 2.8 25.6-11.3 44.7-33.6 47.1a31.4 31.4 0 0 1 -26.1-9.3zm75 44-2.1-19.2c3.5.4 7.8.8 11.7.4a20 20 0 0 0 17-12.2l-40.6-92.8 23.6-2.5 24 62.7 10.4-66.5 23.4-2.6-17.3 89.2c-4.3 25-13 41.2-35.9 43.8a54 54 0 0 1 -14.2-.3z"/></g></svg>