<svg width="432" height="66" fill="none" xmlns="http://www.w3.org/2000/svg"><path fill-rule="evenodd" clip-rule="evenodd" d="M88.434 48.764h5.51l-.913-4.275V18.983h-5.273v11.631c-1.584-1.839-3.766-2.919-6.347-2.919-5.273 0-9.36 4.36-9.36 10.75 0 6.398 4.081 10.751 9.36 10.751 2.62 0 4.88-1.118 6.463-3.035l.56 2.603zm104.259-15.347c1.069 0 2.061.277 2.974.92l2.498-5.64c-1.152-.72-2.498-1.04-3.805-1.04-2.381 0-4.364 1.08-5.633 3.08l-.553-2.599h-5.434l.875 4.038v16.588h5.273V35.616c.709-1.363 2.06-2.2 3.805-2.2zm15.464 10.23c-3.052 0-5.312-2.038-5.312-5.196 0-3.195 2.26-5.195 5.312-5.195 3.091 0 5.317 2 5.317 5.195 0 3.157-2.221 5.196-5.317 5.196zM77.174 38.45c0-3.195 2.26-5.195 5.311-5.195 3.096 0 5.317 2 5.317 5.195 0 3.157-2.22 5.196-5.317 5.196-3.052 0-5.311-2.038-5.311-5.196zm154.34 5.196c-3.052 0-5.312-2.038-5.312-5.196 0-3.195 2.26-5.195 5.312-5.195 3.09 0 5.317 2 5.317 5.195 0 3.157-2.221 5.196-5.317 5.196zM106.755 32.935c2.737 0 4.52 1.28 5.079 3.639h-10.152c.593-2.36 2.376-3.64 5.073-3.64zm63.091 0c2.736 0 4.52 1.28 5.079 3.639h-10.152c.598-2.36 2.381-3.64 5.073-3.64zm-25.732 15.83h8.485l5.511-20.627h-5.749l-4.044 16.705-4.043-16.705h-5.671l5.511 20.626zm-13.603 0h5.273V28.137h-5.273v20.626zm-22.947.382c2.936 0 5.827-.798 8.247-2.36l-2.021-4.558c-1.906.997-4.005 1.6-6.148 1.6-2.775 0-4.719-1.08-5.55-3.079h14.832c.161-.759.239-1.518.239-2.437 0-6.397-4.404-10.673-10.313-10.673-5.949 0-10.308 4.315-10.308 10.75 0 6.558 4.32 10.757 11.022 10.757zM241.943 38.45c0-6.397-4.442-10.75-10.429-10.75-5.988 0-10.43 4.359-10.43 10.75 0 6.398 4.442 10.751 10.43 10.751 5.987 0 10.429-4.359 10.429-10.75zm-71.382 10.751c2.935 0 5.826-.798 8.247-2.36l-2.022-4.558c-1.905.997-4.004 1.6-6.148 1.6-2.775 0-4.719-1.08-5.549-3.079h14.832c.161-.758.238-1.517.238-2.437 0-6.397-4.403-10.673-10.313-10.673-5.948 0-10.313 4.315-10.313 10.75.006 6.559 4.326 10.757 11.028 10.757zm37.596 0c5.987 0 10.429-4.359 10.429-10.75 0-6.398-4.442-10.751-10.429-10.751s-10.429 4.359-10.429 10.75c0 6.392 4.442 10.751 10.429 10.751zm-87.644-.438h5.273V18.983h-5.273v29.781zm12.656-23.461c1.861 0 3.29-1.44 3.29-3.357 0-1.916-1.429-3.356-3.29-3.356-1.905 0-3.334 1.44-3.334 3.356 0 1.917 1.429 3.357 3.334 3.357z" fill="#fff"/><path fill-rule="evenodd" clip-rule="evenodd" d="M383.055 17.51V48.78h3.334V17.51h-3.334zM361.166 59.2V45.025c1.667 2.586 4.292 4.17 7.422 4.17 5.716 0 10.008-4.464 10.008-10.839s-4.298-10.839-10.008-10.839c-3.13 0-5.755 1.584-7.422 4.17v-3.754h-3.334v31.265h3.334zm7.045-28.641c4.004 0 7.045 3.13 7.045 7.798 0 4.67-3.041 7.793-7.045 7.799-4.004 0-7.045-3.13-7.045-7.799 0-4.669 3.041-7.798 7.045-7.798zm38.61 14.467c-1.291 2.791-3.711 4.17-6.586 4.17-4.547 0-7.964-2.918-7.964-9.465V27.934h3.334v11.088c0 4.88 2.127 7.256 5.627 7.256 3.462 0 5.589-2.376 5.589-7.256V27.934h3.334V48.78h-3.334v-3.755zm8.17-2.792c0 4.46 3.794 6.963 8.84 6.963 4.796 0 8.175-2.25 8.169-6.17 0-4.726-4.12-5.552-7.759-6.282-2.879-.578-5.456-1.095-5.456-3.433 0-1.961 1.794-3.13 4.42-3.13 2.797 0 4.879 1.668 4.879 3.877h3.462c0-3.71-3.545-6.546-8.341-6.546-4.42 0-7.754 2.254-7.754 5.92 0 4.572 3.944 5.347 7.51 6.048 2.94.577 5.622 1.104 5.622 3.667 0 2.255-1.795 3.379-4.752 3.379-3.041 0-5.379-1.418-5.379-4.293h-3.461z" fill="#00CCBD"/><path d="M282.795 23.015l-1.853-5.187c-7.04 1.62-16.697 2.06-25.335 2.06l.603 4.47V39.18c-1.135 3.38-2.64 6.924-4.03 9.98h5.558c.996-2.408 2.223-5.58 3.15-8.36h20.795V26.698h-20.518V24.52c6.902-.138 15.007-.37 21.63-1.505zm-6.044 8.615v4.099h-15.586V31.63h15.586zM314.221 23.015l-1.853-5.187c-7.04 1.62-16.697 2.06-25.335 2.06l.602 4.47V39.18c-1.134 3.38-2.64 6.924-4.029 9.98h5.558c.996-2.408 2.223-5.58 3.149-8.36h20.796V26.698h-20.518V24.52c6.901-.138 15.007-.37 21.63-1.505zm-6.044 8.615v4.099h-15.586V31.63h15.586zM341.269 18.036c-.671 1.621-1.366 3.22-2.153 4.562h-2.061c-.672-1.459-1.413-3.15-2.177-4.562h-4.84c.718 1.529 1.459 3.103 2.153 4.562h-3.149v4.47h7.109v1.876c0 .37 0 .671-.023 1.019h-7.387v4.562h6.623c-1.065 2.316-3.752 3.288-6.762 3.867l2.431 4.632c2.432-.695 5.118-2.038 6.809-4.354 2.293 1.065 4.909 2.756 6.623 4.585l3.312-4.006c-2.478-1.922-5.327-3.057-8.106-4.053.093-.231.163-.44.232-.671h8.082v-4.562h-7.41c.023-.325.069-.718.069-1.089v-1.806h6.855v-4.47h-3.381c.787-1.366 1.69-2.94 2.408-4.562h-5.257z" fill="#fff"/><path d="M326.17 42.074c.556-1.18 1.135-2.339 1.598-3.543v-4.84h-3.08c.857-2.339 1.83-5.257 2.547-7.804h-9.795v4.608h4.029c-.787 2.34-1.992 5.257-3.149 7.805h4.654v.3c-1.598 3.613-3.798 7.319-5.928 10.584h5.303c.556-.996 1.135-2.015 1.691-3.034 5.002 2.547 9.703 2.872 15.678 2.872 2.176 0 5.534-.14 7.665-.463l1.644-5.304c-3.404.695-7.248.996-11.44.996-4.354.023-8.684-.486-11.417-2.177zM323.16 24.474c1.922 0 3.635-1.459 3.635-3.45 0-1.992-1.713-3.474-3.635-3.474-1.992 0-3.474 1.482-3.474 3.474 0 1.991 1.482 3.45 3.474 3.45z" fill="#fff"/><path fill-rule="evenodd" clip-rule="evenodd" d="M42.557.213l-3.019 28.579-5.15-24.093L18.235 8.11l5.151 24.093L.108 37.128l4.116 19.246 40.941 8.652 9.36-20.914 4.46-42.182L42.556.213zM29.624 41.675c-.848.77-1.96.698-3.146.305-1.185-.388-1.712-1.812-1.263-3.534.332-1.28 1.905-1.468 2.692-1.479.299-.005.593.056.864.177.554.25 1.495.787 1.69 1.601.27 1.174.005 2.16-.837 2.93zm11.853 1.324c-.615 1.058-2.227 1.202-3.811.426-1.069-.52-1.063-1.844-.947-2.653.06-.443.238-.853.515-1.202.382-.482 1.02-1.108 1.756-1.124 1.196-.033 2.226.504 2.808 1.468.581.963.293 2.021-.321 3.085z" fill="#fff"/></svg>