<svg width="81" height="43" viewBox="0 0 81 43" fill="none" xmlns="http://www.w3.org/2000/svg">
<path fill-rule="evenodd" clip-rule="evenodd" d="M44.318 29.3546C44.9284 29.3546 45.4026 28.861 45.4026 28.2028C45.4026 27.5447 44.9284 27.0567 44.3125 27.0567C44.1678 27.0544 44.0242 27.0825 43.8902 27.1394C43.7562 27.1963 43.6347 27.2809 43.5328 27.3879C43.431 27.495 43.3511 27.6223 43.2977 27.7624C43.2444 27.9024 43.2188 28.0522 43.2225 28.2028C43.2225 28.861 43.6912 29.3546 44.3125 29.3546H44.318ZM40.154 37.4H41.8872V27.1872H40.154V37.4ZM69.0072 37.5475C70.9802 37.5475 72.4408 36.0553 72.4408 33.8596C72.4408 31.6695 70.9802 30.1773 69.0072 30.1773C67.0397 30.1773 65.5736 31.6695 65.5736 33.8652C65.5736 36.0553 67.0397 37.5532 69.0072 37.5532V37.5475ZM56.6353 37.5475C57.5946 37.5475 58.5483 37.2752 59.3441 36.7418L58.6791 35.1759C58.0578 35.5268 57.364 35.7157 56.6571 35.7262C55.7415 35.7262 55.1038 35.3574 54.8313 34.6709H59.7147C59.7692 34.4099 59.791 34.1489 59.791 33.8369C59.791 31.6411 58.3412 30.1773 56.3955 30.1773C54.4335 30.1773 53.0001 31.6525 53.0001 33.8652C53.0001 36.1121 54.4226 37.5532 56.6299 37.5532L56.6353 37.5475ZM80.1364 33.8596C80.1364 31.6695 78.6703 30.1773 76.7028 30.1773C74.7299 30.1773 73.2692 31.6695 73.2692 33.8652C73.2692 36.0553 74.7299 37.5532 76.7028 37.5532C78.6703 37.5532 80.1364 36.0553 80.1364 33.8652V33.8596ZM35.8866 37.5305C36.8512 37.5305 37.805 37.2525 38.6007 36.7191L37.9358 35.1589C37.3145 35.5098 36.6207 35.6987 35.9138 35.7092C34.9982 35.7092 34.3605 35.3347 34.0826 34.6539H38.9714C39.0254 34.3776 39.0509 34.0961 39.0477 33.8142C39.0477 31.6241 37.5979 30.1603 35.6522 30.1603C33.6902 30.1603 32.2568 31.6355 32.2568 33.8482C32.2568 36.0894 33.6793 37.5305 35.8866 37.5305ZM43.4405 37.4H45.1791V30.3305H43.4405V37.4ZM47.9205 37.4H50.7165L52.5314 30.3305H50.6347L49.3049 36.0553L47.975 30.3248H46.1056L47.9205 37.4057V37.4ZM56.3955 31.9702C57.2948 31.9702 57.8834 32.4128 58.0687 33.2184H54.7223C54.9185 32.4128 55.5072 31.9702 56.3955 31.9702ZM35.6195 31.9702C36.5242 31.9702 37.1074 32.4128 37.2927 33.2184H33.9518C34.1425 32.4128 34.7311 31.9702 35.6195 31.9702ZM76.7028 35.6468C75.6945 35.6468 74.9479 34.9433 74.9479 33.8652C74.9479 32.7645 75.6945 32.0837 76.7028 32.0837C77.7166 32.0837 78.4469 32.7645 78.4469 33.8652C78.4469 34.9433 77.7166 35.6468 76.7028 35.6468ZM25.8801 33.8652C25.8801 32.7645 26.6213 32.0837 27.6241 32.0837C28.6488 32.0837 29.3791 32.7645 29.3791 33.8652C29.3791 34.9433 28.6488 35.6468 27.6296 35.6468C26.6213 35.6468 25.8801 34.9433 25.8801 33.8652ZM69.0072 35.6468C68.0044 35.6468 67.2632 34.9433 67.2632 33.8652C67.2632 32.7645 68.0044 32.0837 69.0072 32.0837C70.0264 32.0837 70.7567 32.7645 70.7567 33.8652C70.7567 34.9433 70.0264 35.6468 69.0126 35.6468H69.0072ZM63.9168 32.1347C64.271 32.1347 64.598 32.2312 64.8978 32.4525L65.7153 30.5234C65.3392 30.2738 64.8978 30.166 64.4618 30.166C64.0912 30.1579 63.7252 30.2511 63.4 30.4363C63.0749 30.6214 62.802 30.8921 62.6087 31.2213L62.4289 30.3305H60.6412L60.9246 31.7149V37.4H62.6632V32.8894C62.7824 32.6532 62.9634 32.457 63.1852 32.3235C63.4071 32.1899 63.6607 32.1245 63.9168 32.1347ZM29.5862 37.4H31.4065L31.1068 35.9305V27.1929H29.3736V31.1759C29.1171 30.859 28.7965 30.6052 28.4347 30.4325C28.0728 30.2599 27.6788 30.1727 27.2808 30.1773C25.5476 30.1773 24.2014 31.6695 24.2014 33.8652C24.2014 36.0553 25.5476 37.5532 27.2808 37.5532C28.1419 37.5532 28.8886 37.1674 29.4063 36.5092L29.5916 37.4H29.5862ZM14.1295 35.4255C13.9224 35.7886 13.3938 35.834 12.876 35.5674C12.5217 35.3915 12.5217 34.9376 12.5599 34.6596C12.5817 34.5121 12.6416 34.3702 12.7288 34.2454C12.8542 34.0808 13.0667 33.8709 13.3065 33.8596C13.7044 33.8482 14.0423 34.0298 14.2331 34.3645C14.4238 34.6936 14.3257 35.0567 14.1241 35.4255H14.1295ZM10.2218 34.9716C9.94925 35.2326 9.57864 35.2099 9.18623 35.0738C8.79927 34.9376 8.62486 34.4496 8.77201 33.8596C8.88102 33.4227 9.39878 33.3603 9.66039 33.3546C9.75849 33.3546 9.85115 33.3716 9.9438 33.4113C10.1237 33.5021 10.4343 33.6837 10.4997 33.9617C10.5869 34.3645 10.4997 34.6993 10.2272 34.966L10.2218 34.9716ZM14.4838 20.7589L13.4864 30.5518L11.7969 22.2965L6.47205 23.4652L8.1725 31.7262L0.50412 33.4113L1.86121 40.0042L15.3395 42.9716L18.4243 35.8057L19.8903 21.3433L14.4838 20.7589Z" fill="#2E3333"/>
<path d="M12.8648 14.6643L12.685 13.1449L14.6423 12.9133L14.8221 14.4327L12.8648 14.6643ZM9.69087 13.4993L11.5856 13.275L11.7655 14.7944L9.87071 15.0187L9.69087 13.4993ZM11.2863 10.7457L11.4629 12.2383L9.56816 12.4625L9.39151 10.97L11.2863 10.7457ZM14.3429 10.3839L14.5196 11.8765L12.5623 12.1082L12.3856 10.6156L14.3429 10.3839ZM12.2587 9.54306L12.0587 7.85385L10.9594 7.98397L11.1593 9.67318L8.20099 10.0233L8.98802 16.6729L10.0516 16.547L9.99553 16.0733L14.947 15.4873L15.002 15.952L16.1192 15.8198L15.3332 9.17917L12.2587 9.54306Z" fill="#2E3333"/>
<path d="M19.1054 11.7234C19.094 11.2444 19.059 10.7954 19.0135 10.4111L22.9461 9.94568L23.1005 11.2506L19.1054 11.7234ZM18.8972 9.42799L18.8231 8.80236C20.4533 8.41003 22.2306 7.88248 23.5394 7.30162L22.5962 6.60666C21.5849 7.09793 19.9159 7.62173 18.3483 8.00665L17.6189 7.8936L17.9268 10.4944C18.0802 11.7904 18.1813 13.5638 17.2322 14.9631C17.5162 15.0654 17.9786 15.3732 18.167 15.5865C18.7563 14.7464 18.9964 13.712 19.0788 12.7235L23.2169 12.2337L23.2708 12.6895L24.3523 12.5615L23.9112 8.83455L18.8972 9.42799Z" fill="#2E3333"/>
<path d="M28.043 10.6656C28.0316 10.1866 27.9966 9.73761 27.9511 9.35329L31.8837 8.88785L32.0381 10.1927L28.043 10.6656ZM27.8348 8.37016L27.7607 7.74452C29.3909 7.3522 31.1682 6.82464 32.477 6.24378L31.5338 5.54883C30.5225 6.04009 28.8535 6.56389 27.2859 6.94882L26.5566 6.83576L26.8644 9.43661C27.0178 10.7326 27.1189 12.506 26.1698 13.9052C26.4538 14.0075 26.9162 14.3153 27.1046 14.5287C27.6939 13.6886 27.934 12.6542 28.0164 11.6657L32.1545 11.1759L32.2084 11.6317L33.2899 11.5037L32.8488 7.77671L27.8348 8.37016Z" fill="#2E3333"/>
<path d="M42.9218 8.57831L42.8086 7.62198L40.3865 7.90866L40.285 7.05065L42.4121 6.79888L42.3011 5.86043L41.1839 5.99266C41.4028 5.62235 41.6538 5.13951 41.8859 4.64984L40.7564 4.4482C40.6373 4.89731 40.3943 5.52421 40.1817 5.94815L40.6565 6.05507L38.6635 6.29097L39.1128 6.02934C38.9501 5.64984 38.5538 5.13484 38.1745 4.76285L37.3162 5.24508C37.6277 5.57978 37.9329 6.01492 38.1183 6.3555L37.2245 6.46128L37.3356 7.39973L39.2214 7.17653L39.323 8.03454L37.1332 8.29371L37.2464 9.25003L39.32 9.00462C39.1995 9.6714 38.7604 10.4031 37.4612 11.0644C37.7236 11.2146 38.0977 11.5419 38.2582 11.7494C39.3598 11.1025 39.9361 10.3817 40.2143 9.66911C40.7737 10.491 41.5349 11.0263 42.5861 11.2553C42.6963 10.9613 42.9516 10.5142 43.1507 10.2822C42.0543 10.131 41.2695 9.62578 40.7768 8.83219L42.9218 8.57831ZM36.7844 6.49524C36.4308 6.11114 35.7128 5.63423 35.1321 5.32232L34.4218 6.05892C34.9956 6.38976 35.7 6.90454 36.0279 7.30075L36.7844 6.49524ZM36.7874 8.43434L34.7228 8.6787L34.8381 9.6529L35.8659 9.53125L36.0891 11.4171C35.7318 11.7675 35.3199 12.1153 34.962 12.3843L35.6115 13.4312C36.0587 12.9976 36.4107 12.6025 36.7627 12.2074C37.4261 12.8358 38.1886 12.9993 39.2933 12.9139C40.3621 12.8327 42.1565 12.6022 43.2226 12.4216C43.2403 12.1114 43.3398 11.5739 43.4264 11.3099C42.2483 11.54 40.2405 11.8048 39.1895 11.8839C38.2557 11.9582 37.5569 11.7962 37.1195 11.2407L36.7874 8.43434Z" fill="#2E3333"/>
<path d="M50.5328 9.63506L50.3159 7.80285L48.9127 7.96893L48.863 7.54886L48.0586 7.64407L48.1083 8.06413L46.9733 8.19848C47.124 8.0175 47.2716 7.80971 47.4082 7.58511L50.7866 7.18525C51.0144 9.569 51.0433 10.4265 50.9326 10.639C50.8953 10.7069 50.8637 10.7469 50.8133 10.78C50.6827 10.442 50.451 10.0163 50.22 9.67209L50.5328 9.63506ZM49.1899 10.3106L49.1296 9.80114L50.0233 9.69536L49.5151 9.91865C49.5714 10.0117 49.6366 10.1036 49.694 10.2056L49.1899 10.3106ZM48.991 8.63031L49.5719 8.56155L49.6344 9.08887L49.0534 9.15763L48.991 8.63031ZM47.6681 9.3216L47.6057 8.79428L48.1866 8.72552L48.249 9.25284L47.6681 9.3216ZM47.1081 4.82021L47.6712 4.75357L47.7516 5.43283L47.1885 5.49947L47.1081 4.82021ZM48.413 4.66577L48.985 4.59807L49.0654 5.27733L48.4934 5.34503L48.413 4.66577ZM49.7179 4.51132L50.3078 4.44151L50.3882 5.12077L49.7983 5.19058L49.7179 4.51132ZM47.8629 6.67939C47.9264 6.52686 47.9888 6.36541 48.0334 6.20606L51.4297 5.80408L51.1631 3.5518L46.1223 4.14842L46.3889 6.4007L46.9788 6.33088C46.7757 6.83526 46.471 7.32445 46.1101 7.72062C45.974 7.02983 45.7695 6.37432 45.4163 5.76361C45.6894 5.31439 45.9235 4.8426 46.112 4.36716L45.1274 4.01242C45.0251 4.29641 44.9049 4.58252 44.7579 4.87181C44.5095 4.61119 44.2165 4.35587 43.8798 4.11477L43.2136 4.76458C43.6402 5.0766 43.9696 5.40919 44.2375 5.75812C43.9591 6.16265 43.6586 6.53354 43.3407 6.83398C43.5832 6.96841 43.9509 7.24209 44.1372 7.43755C44.3552 7.21236 44.5711 6.9693 44.7749 6.70048C44.8892 6.97696 44.9778 7.26556 45.0495 7.5652C44.7377 8.29995 44.1799 9.10006 43.6444 9.55313C43.909 9.7212 44.2362 10.0359 44.4278 10.2761C44.7157 9.95198 45.0188 9.52641 45.2908 9.06826C45.4004 10.0703 45.4325 10.9547 45.2881 11.1893C45.2272 11.2871 45.152 11.3413 45.038 11.373C44.8792 11.4099 44.6021 11.4427 44.2236 11.4603C44.4383 11.743 44.5632 12.1089 44.6034 12.4485C44.9809 12.4219 45.3284 12.3717 45.6406 12.2532C45.8587 12.1821 46.0316 12.0347 46.1356 11.8412C46.4722 11.2395 46.4046 9.97866 46.2554 8.71846C46.2279 8.48608 46.2004 8.2537 46.155 8.02344C46.3775 8.14211 46.6232 8.30336 46.7631 8.41367L46.9577 10.0582L48.3252 9.89635L48.3929 10.4684C47.7557 10.5981 47.1633 10.7226 46.7017 10.8045L46.9026 11.6598C47.7579 11.4589 48.9129 11.1862 50.0421 10.9257C50.0916 11.0376 50.1321 11.1507 50.1617 11.2469L50.2904 11.1863C50.3673 11.3766 50.4363 11.5769 50.4654 11.7456C50.815 11.7133 51.1278 11.6763 51.337 11.6062C51.5731 11.5329 51.7323 11.4235 51.8814 11.1521C52.0747 10.7939 52.0161 9.68607 51.7211 6.65775C51.7063 6.53263 51.6792 6.22769 51.6792 6.22769L47.8629 6.67939Z" fill="#2E3333"/>
<path d="M53.7082 4.61L59.1512 3.96578L59.2728 4.99361L60.3632 4.86455L60.1273 2.87146L56.8561 3.25863L56.7736 2.5615L55.6832 2.69055L55.7658 3.38769L52.5482 3.76851L52.7841 5.7616L53.8298 5.63783L53.7082 4.61ZM59.5912 5.46344C59.3055 5.8054 58.8751 6.2279 58.4642 6.58468C58.2821 6.27091 58.1157 5.93715 57.9751 5.59128L58.994 5.47069L58.8882 4.57693L54.0887 5.14499L54.1945 6.03875L55.4994 5.8843C54.7604 6.37959 53.8054 6.80982 52.8713 7.1107C53.0654 7.29617 53.3833 7.6845 53.5149 7.87737C54.1987 7.60611 54.9009 7.26018 55.5432 6.86697C55.6321 6.92895 55.712 6.99199 55.792 7.05502C55.1756 7.59018 54.0451 8.22244 53.1678 8.54379C53.3887 8.72608 53.6555 9.06607 53.7992 9.2847C54.6134 8.88926 55.6493 8.22289 56.3487 7.62353C56.4229 7.71444 56.4892 7.81535 56.5555 7.91625C55.7595 8.77174 54.2911 9.68868 53.0422 10.1628C53.2663 10.3719 53.5442 10.7287 53.7011 10.982C54.7728 10.4655 56.0162 9.63858 56.9058 8.80826C56.9976 9.27773 56.9158 9.65898 56.7293 9.84419C56.6053 10.022 56.4387 10.0689 56.2153 10.0953C55.9829 10.1229 55.6948 10.1388 55.352 10.1522C55.5835 10.4239 55.7237 10.8423 55.7764 11.1351C56.0377 11.1223 56.3159 11.0985 56.5382 11.0631C57.003 11.0081 57.2874 10.8838 57.5842 10.5587C58.3929 9.81042 58.192 7.57755 56.3383 6.31065C56.5874 6.11804 56.8175 5.91861 57.0187 5.70447L57.0366 5.70236C57.7925 7.72452 58.872 9.26432 60.5634 9.9251C60.6983 9.61006 60.9882 9.14979 61.1963 8.91672C60.3117 8.64078 59.5752 8.08449 58.9905 7.35616C59.474 6.99986 60.0431 6.52468 60.5071 6.08007L59.5912 5.46344Z" fill="#2E3333"/>
<path d="M63.5934 3.74815L63.2269 3.79152L63.1423 3.07651L63.5088 3.03314L63.5934 3.74815ZM64.6808 6.12078C64.6618 6.11396 64.6419 6.0982 64.6319 6.09032C64.6172 6.11925 64.5993 6.12136 64.5189 6.13088L64.358 6.14993C64.2954 6.15733 64.2854 6.14945 64.2717 6.03326L64.1003 4.58537L64.4935 4.53882L64.6808 6.12078ZM62.8992 8.83298L62.8273 8.22522L64.9008 7.97981L64.9727 8.58756L62.8992 8.83298ZM62.8133 4.7377L62.8958 5.43483C62.9434 5.83702 62.9569 6.33388 62.6538 6.75945L62.42 4.78424L62.8133 4.7377ZM64.6606 6.63975L64.7411 6.63023L64.8141 7.24692L62.7405 7.49234L62.657 6.78627C62.7816 6.84402 62.9805 6.99267 63.0715 7.07253C63.4276 6.55911 63.4477 5.88609 63.3884 5.38559L63.3048 4.67952L63.6087 4.64355L63.7801 6.09144C63.8425 6.61876 63.9725 6.7212 64.3568 6.67571L64.6606 6.63975ZM61.2475 3.30077L62.4541 3.15796L62.5387 3.87297L61.502 3.99568L62.2499 10.3146L63.0632 10.2183L62.9965 9.65524L65.0701 9.40982L65.123 9.85671L65.972 9.75621L65.2379 3.5535L64.2994 3.66458L64.2148 2.94957L65.3142 2.81945L65.2031 1.881L61.1454 2.36126L61.2475 3.30077ZM67.8441 8.57398C67.4955 8.61524 67.4366 8.5769 67.3921 8.20152L67.0737 5.5113L68.5127 5.34098L68.5783 5.89512L69.6061 5.77347L69.1005 1.50128L65.5433 1.9223L65.6649 2.95013L68.1943 2.65076L68.3932 4.33103L65.8996 4.62617L66.3386 8.33528C66.4687 9.43461 66.8175 9.70146 67.8095 9.58404L69.0519 9.437C69.9724 9.32804 70.2045 8.83838 70.133 7.31523C69.8485 7.28545 69.3794 7.15066 69.1269 7.00835C69.2129 8.19446 69.1847 8.41531 68.8451 8.45551L67.8441 8.57398Z" fill="#2E3333"/>
<path d="M78.6723 4.34696L78.5591 3.39064L76.137 3.67731L76.0354 2.8193L78.1626 2.56753L78.0515 1.62909L76.9343 1.76132C77.1533 1.39101 77.4043 0.90816 77.6364 0.418491L76.5068 0.216855C76.3878 0.66596 76.1448 1.29287 75.9321 1.7168L76.407 1.82373L74.4139 2.05963L74.8633 1.79799C74.7005 1.41849 74.3043 0.903499 73.9249 0.531509L73.0666 1.01373C73.3781 1.34844 73.6834 1.78357 73.8687 2.12415L72.975 2.22994L73.086 3.16839L74.9719 2.94518L75.0734 3.80319L72.8837 4.06236L72.9969 5.01869L75.0704 4.77327C74.95 5.44005 74.5109 6.17173 73.2116 6.83302C73.4741 6.98322 73.8482 7.31052 74.0087 7.51809C75.1103 6.87113 75.6866 6.1504 75.9647 5.43776C76.5242 6.2597 77.2854 6.79494 78.3366 7.02397C78.4468 6.72998 78.702 6.28288 78.9011 6.05087C77.8048 5.89969 77.0199 5.39443 76.5272 4.60084L78.6723 4.34696ZM72.5349 2.2639C72.1813 1.87979 71.4633 1.40288 70.8826 1.09097L70.1722 1.82757C70.7461 2.15841 71.4505 2.67319 71.7783 3.0694L72.5349 2.2639ZM72.5378 4.20299L70.4732 4.44735L70.5886 5.42155L71.6164 5.2999L71.8396 7.18574C71.4823 7.53616 71.0703 7.88399 70.7124 8.15292L71.362 9.19983C71.8091 8.76627 72.1611 8.37116 72.5131 7.97605C73.1766 8.60442 73.9391 8.76793 75.0437 8.68251C76.1126 8.60131 77.9069 8.37081 78.9731 8.19024C78.9908 7.88002 79.0903 7.3426 79.1768 7.07859C77.9987 7.30866 75.9909 7.57349 74.9399 7.65256C74.0062 7.72683 73.3073 7.56485 72.87 7.0094L72.5378 4.20299Z" fill="#2E3333"/>
</svg>
