<svg width="84" height="40" viewBox="0 0 59 30" fill="none" xmlns="http://www.w3.org/2000/svg">
<path fill-rule="evenodd" clip-rule="evenodd" d="M32.4052 19.766C32.8515 19.766 33.1982 19.3957 33.1982 18.9021C33.1982 18.4085 32.8515 18.0426 32.4012 18.0426C32.2954 18.0408 32.1903 18.0619 32.0924 18.1046C31.9944 18.1473 31.9055 18.2107 31.8311 18.2909C31.7566 18.3712 31.6982 18.4668 31.6592 18.5718C31.6202 18.6768 31.6014 18.7892 31.6041 18.9021C31.6041 19.3957 31.9469 19.766 32.4012 19.766H32.4052ZM29.3605 25.8H30.6278V18.1404H29.3605V25.8ZM50.4578 25.9106C51.9005 25.9106 52.9685 24.7915 52.9685 23.1447C52.9685 21.5021 51.9005 20.383 50.4578 20.383C49.0192 20.383 47.9472 21.5021 47.9472 23.1489C47.9472 24.7915 49.0192 25.9149 50.4578 25.9149V25.9106ZM41.4116 25.9106C42.113 25.9106 42.8104 25.7064 43.3922 25.3064L42.906 24.1319C42.4517 24.3951 41.9444 24.5368 41.4275 24.5447C40.758 24.5447 40.2918 24.2681 40.0925 23.7532H43.6632C43.703 23.5574 43.719 23.3617 43.719 23.1277C43.719 21.4809 42.6589 20.383 41.2362 20.383C39.8016 20.383 38.7535 21.4894 38.7535 23.1489C38.7535 24.834 39.7936 25.9149 41.4076 25.9149L41.4116 25.9106ZM58.5955 23.1447C58.5955 21.5021 57.5235 20.383 56.0849 20.383C54.6422 20.383 53.5742 21.5021 53.5742 23.1489C53.5742 24.7915 54.6422 25.9149 56.0849 25.9149C57.5235 25.9149 58.5955 24.7915 58.5955 23.1489V23.1447ZM26.2402 25.8979C26.9455 25.8979 27.6429 25.6894 28.2247 25.2894L27.7386 24.1191C27.2842 24.3824 26.7769 24.524 26.2601 24.5319C25.5906 24.5319 25.1243 24.2511 24.9211 23.7404H28.4957C28.5352 23.5332 28.5539 23.3221 28.5515 23.1106C28.5515 21.4681 27.4915 20.3702 26.0688 20.3702C24.6341 20.3702 23.586 21.4766 23.586 23.1362C23.586 24.817 24.6262 25.8979 26.2402 25.8979ZM31.7636 25.8H33.0348V20.4979H31.7636V25.8ZM35.0393 25.8H37.0837L38.4108 20.4979H37.0239L36.0516 24.7915L35.0792 20.4936H33.7123L35.0393 25.8043V25.8ZM41.2362 21.7277C41.8938 21.7277 42.3242 22.0596 42.4597 22.6638H40.0128C40.1563 22.0596 40.5867 21.7277 41.2362 21.7277ZM26.0449 21.7277C26.7064 21.7277 27.1328 22.0596 27.2683 22.6638H24.8254C24.9649 22.0596 25.3953 21.7277 26.0449 21.7277ZM56.0849 24.4851C55.3476 24.4851 54.8016 23.9574 54.8016 23.1489C54.8016 22.3234 55.3476 21.8128 56.0849 21.8128C56.8261 21.8128 57.3601 22.3234 57.3601 23.1489C57.3601 23.9574 56.8261 24.4851 56.0849 24.4851ZM18.9234 23.1489C18.9234 22.3234 19.4654 21.8128 20.1987 21.8128C20.9479 21.8128 21.4819 22.3234 21.4819 23.1489C21.4819 23.9574 20.9479 24.4851 20.2027 24.4851C19.4654 24.4851 18.9234 23.9574 18.9234 23.1489ZM50.4578 24.4851C49.7246 24.4851 49.1826 23.9574 49.1826 23.1489C49.1826 22.3234 49.7246 21.8128 50.4578 21.8128C51.2031 21.8128 51.7371 22.3234 51.7371 23.1489C51.7371 23.9574 51.2031 24.4851 50.4618 24.4851H50.4578ZM46.7357 21.8511C46.9948 21.8511 47.2339 21.9234 47.453 22.0894L48.0508 20.6426C47.7758 20.4553 47.453 20.3745 47.1342 20.3745C46.8633 20.3684 46.5956 20.4383 46.3579 20.5772C46.1201 20.7161 45.9206 20.9191 45.7793 21.166L45.6478 20.4979H44.3407L44.5479 21.5362V25.8H45.8191V22.417C45.9063 22.2399 46.0386 22.0928 46.2008 21.9926C46.363 21.8924 46.5485 21.8434 46.7357 21.8511ZM21.6333 25.8H22.9644L22.7452 24.6979V18.1447H21.4779V21.1319C21.2904 20.8943 21.0559 20.7039 20.7913 20.5744C20.5268 20.4449 20.2386 20.3795 19.9476 20.383C18.6803 20.383 17.696 21.5021 17.696 23.1489C17.696 24.7915 18.6803 25.9149 19.9476 25.9149C20.5773 25.9149 21.1232 25.6255 21.5018 25.1319L21.6373 25.8H21.6333ZM10.3315 24.3191C10.18 24.5915 9.79348 24.6255 9.41489 24.4255C9.15586 24.2936 9.15586 23.9532 9.18375 23.7447C9.19969 23.634 9.24353 23.5277 9.30729 23.434C9.39895 23.3106 9.55437 23.1532 9.72971 23.1447C10.0206 23.1362 10.2677 23.2723 10.4072 23.5234C10.5467 23.7702 10.4749 24.0426 10.3275 24.3191H10.3315ZM7.47413 23.9787C7.27487 24.1745 7.00388 24.1574 6.71695 24.0553C6.434 23.9532 6.30648 23.5872 6.41408 23.1447C6.49378 22.817 6.87237 22.7702 7.06366 22.766C7.13539 22.766 7.20314 22.7787 7.27088 22.8085C7.40239 22.8766 7.62955 23.0128 7.67737 23.2213C7.74113 23.5234 7.67737 23.7745 7.47811 23.9745L7.47413 23.9787ZM10.5905 13.3192L9.86123 20.6638L8.62583 14.4723L4.73235 15.3489L5.97571 21.5447L0.368622 22.8085L1.36092 27.7532L11.2162 29.9787L13.4718 24.6043L14.5438 13.7574L10.5905 13.3192Z" fill="#2E3333"/>
<path d="M2.99398 10.4084L2.41387 5.381L1.46627 5.49604L2.04638 10.5234L2.99398 10.4084Z" fill="#2E3333"/>
<path d="M4.51002 8.34836C4.45201 7.84562 4.6375 7.55801 5.01 7.51279C5.38251 7.46756 5.62833 7.70281 5.68635 8.20555L5.89983 10.0556L6.84743 9.9406L6.60842 7.8693C6.50477 6.97107 5.94321 6.58384 5.26355 6.66635C4.85837 6.71554 4.53444 6.95198 4.3786 7.32435L4.32369 6.84842L3.38916 6.96188L3.7759 10.3135L4.7235 10.1984L4.51002 8.34836Z" fill="#2E3333"/>
<path d="M11.0521 7.41819L12.0193 7.30077C11.8354 6.45308 11.1088 5.95673 10.1873 6.0686C9.22666 6.18522 8.59709 6.98895 8.71544 8.01454C8.83378 9.04013 9.62887 9.6709 10.5895 9.55427C11.5371 9.43923 12.1472 8.75343 12.0885 7.84294L11.1344 7.95877C11.1251 8.39492 10.8492 8.64592 10.4963 8.68876C10.0519 8.74271 9.70453 8.43143 9.64343 7.90188C9.58232 7.37233 9.85579 6.98568 10.2936 6.93252C10.6465 6.88968 10.9623 7.04167 11.0521 7.41819Z" fill="#2E3333"/>
<path d="M14.3555 9.09707C15.3293 8.97886 15.9727 8.18025 15.8536 7.14796C15.7344 6.11566 14.9271 5.49319 13.9533 5.6114C12.9796 5.72962 12.3362 6.52822 12.4553 7.56052C12.5744 8.59281 13.3818 9.21529 14.3555 9.09707ZM14.2557 8.23236C13.8114 8.28631 13.4371 7.9715 13.3767 7.44865C13.3156 6.9191 13.6087 6.53007 14.0531 6.47612C14.504 6.42137 14.871 6.73027 14.9321 7.25983C14.9924 7.78268 14.7067 8.17762 14.2557 8.23236Z" fill="#2E3333"/>
<path d="M17.5832 8.63726L17.0031 3.60985L16.0555 3.72489L16.6356 8.7523L17.5832 8.63726Z" fill="#2E3333"/>
<path d="M19.3127 8.42729L18.7326 3.39988L17.785 3.51492L18.3651 8.54233L19.3127 8.42729Z" fill="#2E3333"/>
<path d="M22.0487 8.09514L22.9636 7.98407L22.6975 5.67817C22.6047 4.87378 21.8829 4.64874 21.1314 4.73998C20.3733 4.83201 19.6808 5.26273 19.7821 6.14085L20.7167 6.0274C20.6788 5.69894 20.8605 5.49336 21.1872 5.45369C21.4813 5.41799 21.7197 5.53178 21.7468 5.76639C21.8226 6.42331 19.6709 6.0388 19.8349 7.45988C19.9115 8.1235 20.4749 8.35417 21.0173 8.28832C21.4682 8.23358 21.8279 8.01998 21.9899 7.5857L22.0487 8.09514ZM20.7732 7.2644C20.7284 6.87561 21.4281 6.85184 21.855 6.5893L21.8751 6.76359C21.9269 7.2127 21.6142 7.48857 21.2221 7.53617C20.9934 7.56394 20.798 7.4789 20.7732 7.2644Z" fill="#2E3333"/>
<path d="M26.9253 5.80384C26.8046 4.75813 26.0903 4.13796 25.208 4.24506C24.8159 4.29267 24.5027 4.50741 24.295 4.83171L24.0552 2.75371L23.1076 2.86875L23.6877 7.89616L24.6222 7.78271L24.5735 7.36041C24.8509 7.6394 25.2116 7.77913 25.6102 7.73073C26.4925 7.62363 27.0452 6.84283 26.9253 5.80384ZM25.1183 5.13279C25.5627 5.07884 25.9362 5.38694 25.9973 5.9165C26.0584 6.44605 25.7653 6.83508 25.3209 6.88903C24.8765 6.94298 24.503 6.63487 24.4419 6.10532C24.3808 5.57577 24.6739 5.18674 25.1183 5.13279Z" fill="#2E3333"/>
<path d="M29.2192 7.2926C30.1929 7.17439 30.8363 6.37579 30.7172 5.34349C30.5981 4.3112 29.7907 3.68872 28.817 3.80693C27.8432 3.92515 27.1998 4.72375 27.3189 5.75605C27.438 6.78834 28.2454 7.41082 29.2192 7.2926ZM29.1194 6.42789C28.675 6.48184 28.3007 6.16703 28.2404 5.64418C28.1793 5.11463 28.4724 4.7256 28.9167 4.67165C29.3677 4.61691 29.7346 4.9258 29.7958 5.45536C29.8561 5.97821 29.5703 6.37315 29.1194 6.42789Z" fill="#2E3333"/>
<path d="M32.2512 5.13688C32.1939 4.64084 32.4694 4.32872 33.0052 4.26366C33.1359 4.24779 33.2559 4.25362 33.3513 4.27603L33.2368 3.28396C33.196 3.27531 33.1307 3.28324 33.0719 3.29038C32.6079 3.34671 32.2624 3.62655 32.0947 4.06833L32.0274 3.48515L31.1125 3.59622L31.4993 6.94783L32.4469 6.83279L32.2512 5.13688Z" fill="#2E3333"/>
<path d="M36.0571 6.3945L36.972 6.28342L36.706 3.97752C36.6131 3.17313 35.8914 2.94809 35.1398 3.03933C34.3817 3.13136 33.6893 3.56208 33.7906 4.4402L34.7251 4.32675C34.6872 3.99829 34.8689 3.79271 35.1957 3.75304C35.4898 3.71734 35.7282 3.83113 35.7553 4.06575C35.8311 4.72266 33.6794 4.33815 33.8434 5.75923C33.92 6.42285 34.4833 6.65353 35.0258 6.58768C35.4767 6.53293 35.8364 6.31934 35.9983 5.88505L36.0571 6.3945ZM34.7817 5.56375C34.7368 5.17497 35.4365 5.1512 35.8635 4.88865L35.8836 5.06294C35.9354 5.51205 35.6227 5.78792 35.2305 5.83552C35.0018 5.86329 34.8065 5.77825 34.7817 5.56375Z" fill="#2E3333"/>
<path d="M40.1536 5.09512L38.3368 5.31568L39.8411 3.53573L39.7274 2.55036L37.146 2.86374L37.2365 3.64802L38.8965 3.4465L37.3856 5.22724L37.5001 6.21932L40.2449 5.8861L40.1536 5.09512Z" fill="#2E3333"/>
<path d="M40.7889 1.83014C41.1157 1.79047 41.3223 1.51389 41.286 1.19884C41.2489 0.877087 40.9857 0.664333 40.659 0.704002C40.3322 0.743671 40.1183 1.01434 40.1554 1.3361C40.1918 1.65115 40.4622 1.86981 40.7889 1.83014ZM41.7135 5.7078L41.3268 2.3562L40.3792 2.47124L40.7659 5.82284L41.7135 5.7078Z" fill="#2E3333"/>
<path d="M44.0062 5.49743C44.98 5.37922 45.6234 4.58061 45.5043 3.54832C45.3852 2.51602 44.5778 1.89355 43.604 2.01176C42.6303 2.12998 41.9869 2.92858 42.106 3.96088C42.2251 4.99317 43.0325 5.61565 44.0062 5.49743ZM43.9065 4.63272C43.4621 4.68667 43.0878 4.37186 43.0274 3.84901C42.9663 3.31946 43.2594 2.93043 43.7038 2.87648C44.1547 2.82173 44.5217 3.13063 44.5828 3.66019C44.6431 4.18304 44.3574 4.57798 43.9065 4.63272Z" fill="#2E3333"/>
<path d="M47.0204 3.18753C46.9624 2.68479 47.1479 2.39718 47.5204 2.35196C47.8929 2.30674 48.1388 2.54198 48.1968 3.04472L48.4102 4.89481L49.3578 4.77977L49.1188 2.70848C49.0152 1.81025 48.4536 1.42301 47.774 1.50553C47.3688 1.55471 47.0449 1.79116 46.889 2.16353L46.8341 1.6876L45.8996 1.80105L46.2863 5.15266L47.2339 5.03762L47.0204 3.18753Z" fill="#2E3333"/>
<path d="M53.0265 2.63511C52.9081 1.60952 52.1327 0.976374 51.172 1.093C50.2113 1.20963 49.6014 2.01097 49.7197 3.03656C49.838 4.06215 50.6135 4.6953 51.5742 4.57867C52.378 4.48109 52.9017 4.02328 53.0192 3.26133L52.0586 3.37795C51.9926 3.61027 51.8089 3.74132 51.5083 3.77782C51.077 3.83018 50.7885 3.6273 50.659 3.19441L53.0444 2.90483C53.0408 2.81689 53.0373 2.72896 53.0265 2.63511ZM51.264 1.89068C51.6627 1.84229 51.9496 2.03176 52.0768 2.44454L50.5998 2.62384C50.6295 2.19202 50.8654 1.93908 51.264 1.89068Z" fill="#2E3333"/>
<path d="M31.0544 10.7074L32.0217 10.59C31.8377 9.74229 31.1111 9.24594 30.1897 9.35781C29.229 9.47443 28.5994 10.2782 28.7178 11.3037C28.8361 12.3293 29.6312 12.9601 30.5919 12.8435C31.5395 12.7284 32.1495 12.0426 32.0908 11.1322L31.1367 11.248C31.1274 11.6841 30.8515 11.9351 30.4986 11.978C30.0542 12.0319 29.7069 11.7206 29.6458 11.1911C29.5847 10.6615 29.8581 10.2749 30.296 10.2217C30.6489 10.1789 30.9646 10.3309 31.0544 10.7074Z" fill="#2E3333"/>
<path d="M34.3579 12.3863C35.3316 12.2681 35.975 11.4695 35.8559 10.4372C35.7368 9.40487 34.9294 8.7824 33.9556 8.90061C32.9819 9.01883 32.3385 9.81743 32.4576 10.8497C32.5767 11.882 33.3841 12.5045 34.3579 12.3863ZM34.2581 11.5216C33.8137 11.5755 33.4394 11.2607 33.3791 10.7379C33.318 10.2083 33.611 9.81928 34.0554 9.76533C34.5064 9.71058 34.8733 10.0195 34.9344 10.549C34.9948 11.0719 34.709 11.4668 34.2581 11.5216Z" fill="#2E3333"/>
<path d="M37.3721 10.0764C37.314 9.57364 37.4995 9.28603 37.872 9.24081C38.2445 9.19559 38.4904 9.43083 38.5484 9.93357L38.7619 11.7837L39.7095 11.6686L39.4705 9.59733C39.3668 8.6991 38.8052 8.31186 38.1256 8.39438C37.7204 8.44356 37.3965 8.68001 37.2406 9.05238L37.1857 8.57645L36.2512 8.6899L36.6379 12.0415L37.5855 11.9265L37.3721 10.0764Z" fill="#2E3333"/>
</svg>
