<svg fill="none" height="40" viewBox="0 0 81 40" width="81" xmlns="http://www.w3.org/2000/svg"><g fill="#2e3333"><path clip-rule="evenodd" d="m44.318 26.3546c.6104 0 1.0846-.4936 1.0846-1.1518 0-.6581-.4742-1.1461-1.09-1.1461-.1447-.0023-.2884.0258-.4224.0827s-.2555.1415-.3573.2485c-.1018.1071-.1818.2344-.2351.3745-.0534.14-.079.2898-.0753.4404 0 .6582.4687 1.1518 1.0901 1.1518zm-4.1639 8.0454h1.7331v-10.2128h-1.7331zm28.8531.1475c1.973 0 3.4336-1.4922 3.4336-3.6879 0-2.1901-1.4606-3.6823-3.4336-3.6823-1.9675 0-3.4336 1.4922-3.4336 3.6879 0 2.1901 1.4661 3.688 3.4336 3.688zm-12.3718 0c.9592 0 1.913-.2723 2.7087-.8057l-.6649-1.5659c-.6214.3509-1.3152.5398-2.022.5503-.9157 0-1.5533-.3688-1.8258-1.0553h4.8833c.0545-.261.0763-.522.0763-.834 0-2.1958-1.4497-3.6596-3.3954-3.6596-1.9621 0-3.3955 1.4752-3.3955 3.6879 0 2.2468 1.4225 3.688 3.6298 3.688zm23.5011-3.6879c0-2.1901-1.4661-3.6823-3.4336-3.6823-1.973 0-3.4336 1.4922-3.4336 3.6879 0 2.1901 1.4606 3.688 3.4336 3.688 1.9675 0 3.4336-1.4979 3.4336-3.688zm-44.2499 3.6709c.9647 0 1.9185-.278 2.7142-.8114l-.6649-1.5602c-.6214.3509-1.3152.5398-2.022.5503-.9157 0-1.5533-.3745-1.8313-1.0553h4.8888c.054-.2763.0796-.5578.0763-.8397 0-2.1901-1.4497-3.6539-3.3955-3.6539-1.962 0-3.3954 1.4752-3.3954 3.6879 0 2.2412 1.4225 3.6823 3.6298 3.6823zm7.5539-.1305h1.7386v-7.0695h-1.7386zm4.4801 0h2.7959l1.8149-7.0695h-1.8967l-1.3298 5.7248-1.3298-5.7305h-1.8694l1.8149 7.0809zm8.475-5.4298c.8992 0 1.4878.4426 1.6732 1.2482h-3.3464c.1962-.8056.7848-1.2482 1.6732-1.2482zm-20.7761 0c.9048 0 1.4879.4426 1.6732 1.2482h-3.3409c.1907-.8056.7794-1.2482 1.6677-1.2482zm41.0834 3.6766c-1.0083 0-1.755-.7035-1.755-1.7816 0-1.1007.7467-1.7815 1.755-1.7815 1.0137 0 1.744.6808 1.744 1.7815 0 1.0781-.7303 1.7816-1.744 1.7816zm-50.8228-1.7816c0-1.1007.7412-1.7815 1.7441-1.7815 1.0246 0 1.7549.6808 1.7549 1.7815 0 1.0781-.7303 1.7816-1.7495 1.7816-1.0083 0-1.7495-.7035-1.7495-1.7816zm43.1271 1.7816c-1.0028 0-1.744-.7035-1.744-1.7816 0-1.1007.7412-1.7815 1.744-1.7815 1.0192 0 1.7495.6808 1.7495 1.7815 0 1.0781-.7303 1.7816-1.744 1.7816zm-5.0904-3.5121c.3542 0 .6813.0965.981.3178l.8175-1.9291c-.376-.2496-.8175-.3574-1.2535-.3574-.3705-.0081-.7366.0851-1.0618.2703-.3251.1851-.5979.4558-.7913.785l-.1798-.8908h-1.7877l.2834 1.3844v5.6851h1.7386v-4.5106c.1192-.2362.3002-.4324.5221-.5659.2218-.1336.4754-.199.7315-.1888zm-34.3306 5.2653h1.8204l-.2998-1.4695v-8.7376h-1.7331v3.983c-.2565-.3169-.5772-.5707-.939-.7434-.3619-.1726-.7559-.2598-1.1539-.2552-1.7332 0-3.0793 1.4922-3.0793 3.6879 0 2.1901 1.3461 3.688 3.0793 3.688.8611 0 1.6078-.3858 2.1256-1.044l.1853.8908zm-15.4566-1.9745c-.2072.3631-.7358.4085-1.2536.1419-.3542-.1759-.3542-.6298-.3161-.9078.0218-.1476.0818-.2894.169-.4142.1253-.1646.3379-.3745.5777-.3858.3978-.0114.7358.1702.9265.5049.1908.3291.0927.6922-.109 1.061zm-3.9078-.4539c-.27252.261-.64313.2383-1.03554.1022-.38696-.1362-.56137-.6242-.41421-1.2142.109-.4369.62676-.4993.88837-.505.09811 0 .19076.017.28341.0567.17987.0908.49047.2724.55587.5504.0872.4028 0 .7376-.2725 1.0043zm4.262-14.2127-.9974 9.7929-1.6895-8.2553-5.32482 1.1687 1.70045 8.261-7.66838 1.6851 1.35709 6.5929 13.47826 2.9674 3.0848-7.1659 1.4661-14.4624z" fill-rule="evenodd"/><path d="m19.113 8.52729 1.2607-.14927-.5058-4.61301-1.2873.15242.2792 2.54638c.0758.69195-.1688 1.08541-.6571 1.14322s-.8207-.26731-.8966-.95926l-.2792-2.54639-1.2873.15242.3126 2.85085c.1355 1.23628.8869 1.77349 1.8013 1.66521.5505-.06517.9739-.38633 1.1877-.89762z"/><path d="m22.4479 5.553c-.0759-.69196.1776-1.08646.6837-1.14638.506-.05991.8385.26521.9143.95716l.2792 2.54639 1.2873-.15242-.3125-2.85084c-.1356-1.23629-.8958-1.77244-1.8192-1.66312-.5504.06517-.9916.38844-1.2053.89973l-.0719-.65505-1.2695.15032.5057 4.61301 1.2874-.15242z"/><path d="m30.6062 4.83004c-.1548-1.41158-1.2041-2.28734-2.5092-2.13282s-2.1379 1.25313-1.9832 2.66471c.1548 1.41158 1.2041 2.28734 2.5092 2.13282 1.092-.12929 1.8057-.75585 1.9697-1.8033l-1.3051.15452c-.0909.31917-.3411.49833-.7495.54668-.5859.06938-.9764-.21149-1.1497-.80779l3.2405-.38368c-.0043-.12099-.0086-.24198-.0227-.37114zm-2.3888-1.03492c.5415-.06413.93.19829 1.1003.76691l-2.0064.23757c.0428-.59386.3645-.94036.9061-1.00448z"/><path d="m26.5126 17.4018-.7587-6.9196-1.2873.1525.7587 6.9195z"/><path d="m27.6292 11.7836c.4439-.0526.726-.4318.6785-.8654-.0486-.4429-.4046-.7371-.8485-.6846-.4439.0526-.736.4236-.6874.8665.0475.4336.4135.736.8574.6835zm1.2329 5.34-.5057-4.613-1.2873.1524.5057 4.613z"/><path d="m33.254 11.9307-1.2874.1524-.4555 3.8016-1.2668-3.5977-1.2873.1525 1.7043 4.4711 1.8999-.225z"/><path d="m35.3948 13.9856c-.0748-.6827.301-1.1104 1.029-1.1966.1775-.021.3404-.0122.4697.0192l-.1497-1.3655c-.0553-.0121-.144-.0016-.2239.0078-.6304.0747-1.101.4575-1.3313 1.0642l-.088-.8027-1.2429.1472.5057 4.613 1.2874-.1524z"/><path d="m40.5553 15.7391 1.243-.1472-.348-3.1737c-.1214-1.1071-1.1001-1.4212-2.1211-1.3003-1.0298.1219-1.9726.7102-1.8401 1.9188l1.2696-.1503c-.0496-.4521.1983-.7338.6422-.7863.3995-.0473.7226.1107.758.4336.0992.9041-2.8202.3619-2.6057 2.3179.1001.9133.8638 1.2341 1.6006 1.1469.6126-.0725 1.1023-.3642 1.3247-.9606zm-1.7269-1.1507c-.0587-.5351.8915-.5635 1.4727-.922l.0263.2399c.0678.6181-.3585.9957-.8912 1.0588-.3107.0367-.5755-.0814-.6078-.3767z"/><path d="m42.8363 9.98304c.4439-.05256.7261-.43176.6786-.86539-.0486-.44285-.4046-.73714-.8485-.68458s-.736.42359-.6874.86644c.0475.43362.4134.73609.8573.68353zm1.233 5.33996-.5057-4.613-1.2874.1524.5058 4.6131z"/><path d="m48.6396 13.3987c-.2094-1.9098-2.7198-.8555-2.8098-1.6766-.0284-.2584.1941-.4436.5404-.4846.3906-.0462.7129.1866.7514.5372l1.2429-.1471c-.0961-.8765-1.0055-1.4604-2.1064-1.3301-1.0209.1209-1.7435.7485-1.6464 1.6342.2083 1.9006 2.6762.786 2.7753 1.6901.0324.2952-.1911.4712-.5818.5175-.435.0515-.7877-.131-.8373-.5831l-1.2429.1471c.1122 1.0241 1.047 1.5116 2.1923 1.376 1.0742-.1272 1.8225-.7672 1.7223-1.6806z"/><path d="m51.6574 14.5181c1.3228-.1567 2.201-1.2513 2.0453-2.6721-.1558-1.4208-1.2485-2.2821-2.5713-2.12547-1.3229.15662-2.2011 1.25127-2.0453 2.67207.1557 1.4208 1.2484 2.2821 2.5713 2.1255zm-.1305-1.1902c-.6037.0715-1.1101-.3639-1.189-1.0835-.0799-.7289.3202-1.2622.924-1.3337.6125-.0725 1.109.3546 1.189 1.0835.0789.7196-.3114 1.2612-.924 1.3337z"/><path d="m55.7634 11.359c-.0759-.6919.1777-1.0865.6837-1.1464.5061-.0599.8385.2652.9144.9572l.2791 2.5464 1.2874-.1524-.3126-2.8509c-.1355-1.23627-.8958-1.77243-1.8191-1.6631-.5505.06517-.9917.38844-1.2054.89972l-.0718-.65504-1.2696.15031.5058 4.61301 1.2873-.1524z"/></g></svg>