<svg fill="none" height="40" viewBox="0 0 80 40" width="80" xmlns="http://www.w3.org/2000/svg"><g fill="#2e3333"><path clip-rule="evenodd" d="m43.7132 27.0484c.6021 0 1.0698-.4686 1.0698-1.0932 0-.6247-.4677-1.0879-1.0752-1.0879-.1427-.0022-.2844.0245-.4166.0785-.1321.054-.252.1343-.3524.2359-.1005.1016-.1793.2225-.232.3554-.0526.1329-.0778.2751-.0742.4181 0 .6246.4624 1.0932 1.0752 1.0932zm-4.1071 7.6363h1.7095v-9.6935h-1.7095zm28.4593.14c1.9461 0 3.3868-1.4163 3.3868-3.5004 0-2.0787-1.4407-3.4951-3.3868-3.4951-1.9406 0-3.3867 1.4164-3.3867 3.5004 0 2.0788 1.4461 3.5005 3.3867 3.5005zm-12.203 0c.9462 0 1.8869-.2585 2.6718-.7647l-.6559-1.4864c-.6128.3332-1.2972.5124-1.9944.5224-.9031 0-1.5321-.35-1.8009-1.0016h4.8167c.0538-.2478.0753-.4955.0753-.7917 0-2.0841-1.43-3.4735-3.3491-3.4735-1.9353 0-3.3491 1.4002-3.3491 3.5004 0 2.1326 1.4031 3.5005 3.5803 3.5005zm23.1804-3.5004c0-2.0787-1.4461-3.4951-3.3868-3.4951-1.946 0-3.3867 1.4164-3.3867 3.5004 0 2.0788 1.4407 3.5005 3.3867 3.5005 1.9407 0 3.3868-1.4217 3.3868-3.5005zm-43.646 3.4842c.9516 0 1.8923-.2639 2.6772-.7701l-.6559-1.4809c-.6128.3331-1.2972.5124-1.9944.5224-.9031 0-1.5321-.3555-1.8062-1.0017h4.822c.0533-.2622.0785-.5294.0753-.797 0-2.0787-1.43-3.4681-3.3491-3.4681-1.9353 0-3.3491 1.4001-3.3491 3.5004 0 2.1272 1.4031 3.495 3.5802 3.495zm7.4509-.1238h1.7148v-6.7101h-1.7148zm4.4189 0h2.7577l1.7902-6.7101h-1.8708l-1.3117 5.4338-1.3117-5.4392h-1.8439l1.7902 6.7209zm8.3593-5.1537c.887 0 1.4676.42 1.6504 1.1847h-3.3008c.1936-.7647.7741-1.1847 1.6504-1.1847zm-20.4925 0c.8924 0 1.4676.42 1.6504 1.1847h-3.2954c.1882-.7647.7688-1.1847 1.645-1.1847zm40.5226 3.4896c-.9945 0-1.731-.6678-1.731-1.691 0-1.0447.7365-1.6909 1.731-1.6909.9999 0 1.7203.6462 1.7203 1.6909 0 1.0232-.7204 1.691-1.7203 1.691zm-50.1291-1.691c0-1.0447.7311-1.6909 1.7203-1.6909 1.0106 0 1.731.6462 1.731 1.6909 0 1.0232-.7204 1.691-1.7257 1.691-.9945 0-1.7256-.6678-1.7256-1.691zm42.5385 1.691c-.9891 0-1.7202-.6678-1.7202-1.691 0-1.0447.7311-1.6909 1.7202-1.6909 1.0053 0 1.7257.6462 1.7257 1.6909 0 1.0232-.7204 1.691-1.7203 1.691zm-5.0209-3.3335c.3494 0 .6719.0916.9676.3016l.8064-1.831c-.371-.2369-.8064-.3392-1.2365-.3392-.3654-.0077-.7265.0808-1.0472.2565-.3207.1758-.5898.4327-.7805.7451l-.1774-.8455h-1.7633l.2796 1.314v5.3961h1.7148v-4.2813c.1176-.2242.2961-.4104.5149-.5371.2188-.1268.469-.1889.7216-.1792zm-33.8621 4.9976h1.7956l-.2957-1.3948v-8.2933h-1.7095v3.7804c-.253-.3007-.5693-.5417-.9262-.7055-.3569-.1639-.7455-.2466-1.1381-.2423-1.7095 0-3.0373 1.4164-3.0373 3.5004 0 2.0788 1.3278 3.5005 3.0373 3.5005.8494 0 1.5859-.3662 2.0965-.9909l.1828.8455zm-15.2456-1.8741c-.2043.3447-.7258.3877-1.2365.1346-.3494-.1669-.3494-.5977-.3118-.8616.0215-.14.0807-.2747.1667-.3931.1236-.1562.3333-.3555.5698-.3662.3924-.0108.7257.1615.9139.4792.1881.3124.0914.6571-.1075 1.0071zm-3.8545-.4308c-.26877.2477-.63432.2262-1.02138.0969-.38168-.1292-.5537-.5924-.40855-1.1524.10751-.4147.61821-.4739.87625-.4793.09676 0 .18815.0161.27954.0538.1774.0862.48384.2585.54834.5224.086.3824 0 .7001-.2688.9532zm4.2039-13.4901-.9838 9.295-1.6665-7.8356-5.25211 1.1094 1.67724 7.8409-7.563716 1.5994 1.338566 6.2577 13.29432 2.8165 3.0427-6.8016 1.446-13.727z" fill-rule="evenodd"/><path d="m6.95522 12.203 1.24348-.1417-.7483-6.56766-1.26975.14467.3093 2.71464c-.36791-.34838-.84045-.52518-1.35711-.46631-1.19094.13569-1.9366 1.14318-1.78095 2.50926.15465 1.3573 1.10883 2.18 2.29977 2.0443.53417-.0608.96259-.3492 1.2397-.7976zm-1.44848-3.21466c.60423-.06884 1.09395.33663 1.17277 1.02846.07882.6918-.30714 1.197-.91137 1.2659-.59547.0678-1.08519-.3377-1.16401-1.0295-.07882-.69177.30714-1.19701.90261-1.26486z"/><path d="m13.1704 9.27722c-.1526-1.33981-1.1876-2.17104-2.4749-2.02437-1.28724.14666-2.10871 1.18941-1.95606 2.52922.15265 1.33983 1.18764 2.17103 2.47486 2.02433 1.0771-.1227 1.7811-.7174 1.9428-1.7116l-1.2872.1467c-.0897.3029-.3364.473-.7393.5189-.5779.0658-.9631-.2008-1.13404-.76674l3.19624-.36417c-.0042-.11484-.0084-.22967-.0224-.35227zm-2.3561-.9823c.5341-.06086.9173.18821 1.0853.72792l-1.97909.22549c.04222-.56366.35959-.89255.89379-.95341z"/><path d="m17.6717 9.66916c-.2065-1.81268-2.6827-.81203-2.7715-1.5914-.0279-.24519.1915-.421.5331-.45991.3853-.0439.7032.17713.7411.50989l1.226-.13968c-.0948-.83191-.9918-1.38613-2.0777-1.26242-1.007.11474-1.7198.71044-1.624 1.55111.2056 1.80395 2.6397.74597 2.7375 1.60414.032.28021-.1885.44731-.5738.49121-.4291.0489-.7771-.1244-.826-.55349l-1.2259.13968c.1107.97201 1.0328 1.43471 2.1624 1.30601 1.0596-.1208 1.7976-.7282 1.6988-1.59514z"/><path d="m21.2425 10.5752 1.226-.1397-.3432-3.01239c-.1198-1.05083-1.0851-1.34889-2.0922-1.23415-1.0158.11574-1.9457.67409-1.815 1.82124l1.2523-.14267c-.0489-.42909.1956-.69646.6335-.74634.394-.0449.7127.10507.7476.41156.0978.85818-2.7817.34355-2.5702 2.20001.0988.86694.852 1.17144 1.5788 1.08864.6043-.0689 1.0872-.3457 1.3066-.91176zm-1.7034-1.09219c-.0578-.5079.8794-.53485 1.4527-.87515l.0259.22768c.0668.58671-.3536.94508-.879 1.00495-.3065.03492-.5677-.07726-.5996-.35748z"/><path d="m24.4561 7.96477c-.0738-.64801.2969-1.05394 1.0149-1.13575.1752-.01996.3358-.01165.4634.01817l-.1477-1.29602c-.0545-.01153-.1421-.00155-.2209.00743-.6218.07084-1.086.4342-1.3131 1.01005l-.0868-.76185-1.226.13968.4989 4.37842 1.2697-.1446z"/><path d="m27.988 7.56236c-.0739-.64801.2968-1.05393 1.0149-1.13575.1751-.01995.3357-.01164.4633.01818l-.1477-1.29602c-.0545-.01153-.1421-.00155-.2209.00742-.6217.07084-1.0859.43421-1.3131 1.01006l-.0868-.76185-1.2259.13968.4988 4.37845 1.2698-.14467z"/><path d="m32.5265 9.37822c1.3048-.14866 2.1711-1.18764 2.0174-2.5362-.1536-1.34856-1.2314-2.16605-2.5362-2.01739s-2.171 1.18764-2.0174 2.53621c.1537 1.34856 1.2315 2.16604 2.5362 2.01738zm-.1287-1.12964c-.5954.06785-1.0949-.34539-1.1727-1.02842-.0789-.6918.3159-1.19804.9113-1.26589.6042-.06884 1.094.33663 1.1728 1.02843.0778.68304-.3071 1.19704-.9114 1.26588z"/><path d="m36.8519 8.7967-.7483-6.56768-1.2697.14467.7483 6.56768z"/><path d="m39.1694 8.53266-.7483-6.56768-1.2697.14467.7483 6.56768z"/><path d="m42.8355 8.11496 1.2259-.13968-.3432-3.01238c-.1197-1.05082-1.0851-1.34888-2.0921-1.23414-1.0158.11573-1.9457.67408-1.815 1.82124l1.2522-.14268c-.0489-.42909.1957-.69645.6335-.74634.3941-.0449.7128.10507.7477.41157.0978.85817-2.7817.34354-2.5702 2.20001.0988.86693.852 1.17142 1.5788 1.08861.6042-.06885 1.0872-.34564 1.3065-.91173zm-1.7034-1.09216c-.0579-.5079.8793-.53484 1.4526-.87515l.026.22768c.0668.58671-.3536.94509-.879 1.00495-.3065.03492-.5677-.07725-.5996-.35748z"/><path d="m48.1229 7.51253 1.2435-.14168-.7483-6.567675-1.2697.14467.3093 2.714645c-.3679-.34839-.8405-.52519-1.3571-.46632-1.191.13569-1.9366 1.14319-1.781 2.50926.1547 1.35732 1.1088 2.18002 2.2998 2.04433.5341-.06086.9626-.34918 1.2397-.79767zm-1.4484-3.21466c.6042-.06884 1.0939.33663 1.1727 1.02843.0789.69179-.3071 1.19704-.9113 1.26588-.5955.06785-1.0852-.33763-1.1641-1.02942-.0788-.6918.3072-1.19704.9027-1.26489z"/><path d="m52.4434 7.10899c1.3047-.14866 2.171-1.18764 2.0173-2.53621-.1536-1.34856-1.2314-2.16605-2.5362-2.01738-1.3047.14866-2.171 1.18764-2.0173 2.5362.1536 1.34856 1.2314 2.16605 2.5362 2.01739zm-.1287-1.12964c-.5955.06784-1.095-.34539-1.1728-1.02843-.0788-.6918.3159-1.19804.9113-1.26588.6043-.06885 1.094.33663 1.1728 1.02842.0778.68304-.3071 1.19704-.9113 1.26589z"/><path d="m35.7342 15.2112c-.5955.0678-1.094-.3367-1.1728-1.0285s.3159-1.198.9114-1.2658c.5954-.0679 1.0939.3366 1.1727 1.0284.0789.6918-.3159 1.198-.9113 1.2659zm.3826 1.1007c1.1822-.1347 1.9269-1.151 1.7722-2.5083-.1556-1.3661-1.1088-2.18-2.291-2.0453-.5342.0608-.9626.3492-1.2407.7889l-.0629-.5517-1.2522.1427.7483 6.5677 1.2697-.1447-.3092-2.7146c.3679.3483.8404.5251 1.3658.4653z"/><path d="m40.9527 15.7609c1.3048-.1487 2.171-1.1876 2.0174-2.5362-.1537-1.3486-1.2315-2.1661-2.5362-2.0174-1.3048.1487-2.1711 1.1876-2.0174 2.5362.1536 1.3486 1.2314 2.1661 2.5362 2.0174zm-.1287-1.1296c-.5955.0678-1.095-.3454-1.1728-1.0285-.0788-.6918.3159-1.198.9114-1.2659.6042-.0688 1.0939.3367 1.1727 1.0285.0779.683-.3071 1.197-.9113 1.2659z"/><path d="m45.0256 12.9639c-.0738-.648.2969-1.054 1.0149-1.1358.1752-.0199.3358-.0116.4634.0182l-.1477-1.296c-.0545-.0115-.1421-.0016-.2209.0074-.6217.0708-1.086.4342-1.3131 1.0101l-.0868-.7619-1.226.1397.4989 4.3784 1.2698-.1446z"/></g></svg>