<svg xmlns="http://www.w3.org/2000/svg" width="88" height="88" fill="none" viewBox="0 0 88 88"><path fill="#067F8A" d="M82 44c0 20.987-17.013 38-38 38S6 64.987 6 44 23.013 6 44 6s38 17.013 38 38z"/><path fill="#D1D7D7" d="M54.04 14H33.966v6.13h20.072V14z"/><path fill="#fff" d="M59 28.127V18l-5-4v14.131H34V14l-5 4v10.131"/><path fill="#fff" d="M68 27H20v49h48V27z"/><path fill="#FF9364" d="M44.583 76H11.417L5 56h46l-6.417 20z"/><path fill="#E5845A" d="M51 56H5l1.283 4h43.434L51 56z"/><path fill="#D1D7D7" d="M47.552 56H8.448c-1.063 0-1.922-0.898-1.922-2 0-1.107 0.863-2 1.922-2h39.104c1.064 0 1.922 0.898 1.922 2 0.005 1.107-0.858 2-1.922 2z"/><path fill="#D1D7D7" d="M50.566 57H5.43C4.64 57 4 56.328 4 55.5S4.64 54 5.43 54h45.14c0.79 0 1.43 0.672 1.43 1.5-0.004 0.828-0.644 1.5-1.434 1.5z"/><path fill="#FB5058" d="M56.002 62.624c-0.025-1.495 0.223-2.938 0.824-4.308 1.366-3.091 4.539-4.756 8.025-4.215 0.402 0.06 0.808 0.125 1.195 0.25 1.308 0.421 2.592 0.373 3.92 0.017 2.674-0.715 5.213-0.44 7.383 1.422 1.763 1.512 2.523 3.565 2.629 5.8 0.203 4.452-0.983 8.538-3.746 12.086-0.549 0.707-1.313 1.293-2.073 1.786-1.036 0.67-2.198 0.7-3.323 0.17-1.865-0.881-3.706-0.877-5.575-0.008-1.653 0.767-3.1 0.274-4.404-0.833-1.284-1.087-2.166-2.469-2.885-3.964-1.251-2.59-1.934-5.322-1.97-8.203z"/><path fill="#00CCBC" d="M68.154 56.322a0.964 0.964 0 0 1-0.967-0.942c-0.11-3.775 1.601-5.676 3.47-7.168a0.973 0.973 0 0 1 1.365 0.15 0.973 0.973 0 0 1-0.15 1.366c-1.751 1.402-2.82 2.828-2.743 5.599a0.971 0.971 0 0 1-0.942 1c-0.013-0.005-0.02-0.005-0.033-0.005zM60.884 48.691c0.325 3.637 2.356 5.108 6.103 4.413-0.456-3.828-2.53-5.22-6.103-4.413z"/></svg>