<svg xmlns="http://www.w3.org/2000/svg" width="88" height="88" fill="none" viewBox="0 0 88 88"><path fill="#00CCBC" fill-rule="evenodd" d="M6 43.95c0 7.382 1.81 13.975 5.435 19.78a2.608 2.608 0 0 0 0.251 0.402c1.51 2.349 3.322 4.599 5.436 6.746C24.538 78.294 33.497 82 44 82c10.468 0 19.427-3.706 26.876-11.122 2.114-2.147 3.926-4.397 5.436-6.746C80.103 58.228 82 51.5 82 43.951c0-10.47-3.708-19.428-11.124-26.878C63.426 9.69 54.468 6 44 6 33.497 6 24.538 9.691 17.122 17.073c-2.248 2.249-4.144 4.631-5.687 7.148C7.81 30.059 6 36.636 6 43.95z" clip-rule="evenodd"/><mask id="a" width="76" height="76" x="6" y="6" maskUnits="userSpaceOnUse" style="mask-type:alpha"><path fill="#00CCBE" fill-rule="evenodd" d="M6 43.95c0 7.382 1.81 13.975 5.435 19.78a2.608 2.608 0 0 0 0.251 0.402c1.51 2.349 3.322 4.599 5.436 6.746C24.538 78.294 33.497 82 44 82c10.468 0 19.427-3.706 26.876-11.122 2.114-2.147 3.926-4.397 5.436-6.746C80.103 58.228 82 51.5 82 43.951c0-10.47-3.708-19.428-11.124-26.878C63.426 9.69 54.468 6 44 6 33.497 6 24.538 9.691 17.122 17.073c-2.248 2.249-4.144 4.631-5.687 7.148C7.81 30.059 6 36.636 6 43.95z" clip-rule="evenodd"/></mask><g mask="url(#a)"><path fill="#232323" fill-opacity=".3" d="M52.533 33.395l6.364 6.364L6.363 92.292l-6.364-6.363z"/><rect width="9" height="74.294" x="52.533" y="28.394" fill="#232323" rx="4.5" transform="rotate(45 52.533 28.394)"/><path fill="#fff" d="M52.928 28l6.364 6.364-13.151 13.15-6.364-6.363L52.927 28z"/></g><path fill="#FBCB33" d="M50 20l13.672-4.328L68 2l4.328 13.672L86 20l-13.672 4.328L68 38l-4.328-13.672L50 20zM22 24l9.115-2.885L34 12l2.885 9.115L46 24l-9.115 2.885L34 36l-2.885-9.115L22 24zM58 52l4.557-1.443L64 46l1.442 4.557L70 52l-4.558 1.443L64 58l-1.443-4.557L58 52z"/></svg>