<svg xmlns="http://www.w3.org/2000/svg" width="88" height="88" fill="none" viewBox="0 0 88 88"><path fill="#067F8A" fill-rule="evenodd" d="M82 44c0-10.469-3.708-19.429-11.123-26.877a74.819 74.819 0 0 0-2.97-2.718C61.096 8.801 53.126 6 44 6c-5.838 0-11.208 1.157-16.106 3.472-3.926 1.846-7.516 4.396-10.77 7.651C9.706 24.571 6 33.531 6 44c0 10.335 3.574 19.143 10.72 26.424a2.26 2.26 0 0 0 0.403 0.401C24.54 78.276 33.497 82 44 82c4.195 0 8.154-0.605 11.878-1.813 5.537-1.778 10.537-4.898 14.999-9.361C78.292 63.478 82 54.536 82 44z" clip-rule="evenodd"/><path fill="#F96" fill-rule="evenodd" d="M33.594 39.337l-6.229 6.305C25.121 48.025 24 50.54 24 53.186l3.365 17.773-1.105 4.814L36.557 79 46 38.345l-5.425-1.241c-2.611-0.398-4.94 0.347-6.981 2.233z" clip-rule="evenodd"/><path fill="#CC7A51" fill-rule="evenodd" d="M42.472 46.499h-0.048a2.994 2.994 0 0 0-1.342 1.888 2.857 2.857 0 0 0 0.431 2.326l4.841 7.843c0.448 0.711 1.087 1.162 1.917 1.357 0.799 0.194 1.566 0.064 2.3-0.388a2.988 2.988 0 0 0 1.343-1.889c0.191-0.839 0.064-1.613-0.384-2.323l-4.888-7.894c-0.448-0.71-1.086-1.162-1.917-1.355-0.799-0.162-1.55-0.017-2.253 0.435z" clip-rule="evenodd"/><path fill="#CC7A51" fill-rule="evenodd" d="M42.497 45.462c-0.746 0.44-1.222 1.054-1.426 1.84-0.17 0.818-0.035 1.572 0.407 2.265 0.475 0.691 1.155 1.132 2.038 1.32l9.525 2.028a3.188 3.188 0 0 0 2.395-0.378c0.78-0.44 1.273-1.069 1.477-1.886 0.203-0.786 0.05-1.541-0.459-2.264-0.44-0.692-1.103-1.133-1.986-1.321l-9.526-1.98c-0.883-0.19-1.698-0.065-2.445 0.376z" clip-rule="evenodd"/><path fill="#000" fill-opacity=".2" fill-rule="evenodd" d="M44.697 42.454L34 42l4.811 16.254L47 63l-2.303-20.546z" clip-rule="evenodd"/><path fill="#B0CBCB" fill-rule="evenodd" d="M73.5 26.5L74 25l-59-3v0.152L43.997 40 73.5 26.5z" clip-rule="evenodd"/><path fill="#fff" fill-rule="evenodd" d="M74 25L45 7 15 22l59 3z" clip-rule="evenodd"/><path fill="#00CCBE" fill-rule="evenodd" d="M19.772 7.99l-1.773 29.182 51.767 3.562 1.229-29.694-51.223-3.05z" clip-rule="evenodd"/><path fill="#fff" fill-rule="evenodd" d="M44.4 39.39L15 22v27.98L72.907 52 74 25 44.4 39.39z" clip-rule="evenodd"/><path fill="#F96" fill-rule="evenodd" d="M47.44 35.084h-0.05c-0.874-0.196-1.697-0.05-2.47 0.444-0.773 0.46-1.26 1.135-1.461 2.02L36 59.586 46.785 62l3.124-23.022c0.202-0.886 0.068-1.708-0.403-2.464-0.504-0.756-1.192-1.233-2.066-1.43z" clip-rule="evenodd"/><path fill="#F96" fill-rule="evenodd" d="M42.612 71.93c1.947-1.778 3.272-4.148 3.977-7.11 0.671-2.963 0.52-5.662-0.453-8.098-0.973-2.436-2.668-2.288-5.084 0.445-2.417 2.765-4.514 4.115-6.293 4.048-1.778-0.066-2.935 0.692-3.473 2.272-0.537 1.612-0.318 3.62 0.654 6.023 0.974 2.437 2.5 3.884 4.581 4.345 2.081 0.462 4.112-0.18 6.091-1.925z" clip-rule="evenodd"/><path fill="#F96" fill-rule="evenodd" d="M42 69.393L36.178 68 34 78l6.627-2.288L42 69.393z" clip-rule="evenodd"/><path fill="#00C7BB" fill-rule="evenodd" d="M46 75.566L25.262 71 24 76.45C29.92 80.15 36.648 82 44.184 82h0.504L46 75.566z" clip-rule="evenodd"/><path fill="#FCB" fill-rule="evenodd" d="M49.356 38.4c0.075-0.644-0.112-1.228-0.559-1.753-0.448-0.525-1.051-0.828-1.81-0.907-0.754-0.047-1.413 0.133-1.978 0.542-0.6 0.413-0.953 0.959-1.06 1.637l-0.307 2.178a2.144 2.144 0 0 0 0.511 1.806c0.444 0.494 1.047 0.78 1.805 0.86 0.758 0.078 1.42-0.086 1.983-0.495 0.6-0.413 0.953-0.959 1.06-1.638l0.355-2.23z" clip-rule="evenodd"/><path fill="#fff" d="M48.232 14.202l-1.814 8.455-0.811-7.374-5.018 0.508 0.81 7.373-7.233 0.732 0.647 5.89 12.178 3.893 3.503-5.96 2.677-12.48-4.94-1.037zm-5.234 11.994c-0.28 0.203-0.618 0.146-0.966-0.009-0.347-0.154-0.462-0.597-0.272-1.097 0.142-0.371 0.625-0.378 0.864-0.357a0.625 0.625 0 0 1 0.258 0.08c0.16 0.093 0.43 0.282 0.462 0.532 0.047 0.36-0.064 0.647-0.345 0.85zm3.563 0.774c-0.22 0.298-0.714 0.288-1.171 0.007-0.309-0.19-0.264-0.586-0.204-0.823a0.746 0.746 0 0 1 0.195-0.345c0.131-0.131 0.344-0.298 0.569-0.28 0.364 0.028 0.66 0.22 0.807 0.528 0.148 0.307 0.026 0.615-0.195 0.913h-0.001z"/></svg>