<svg xmlns="http://www.w3.org/2000/svg" width="88" height="88" fill="none" viewBox="0 0 88 88"><path fill="#067F8A" fill-rule="evenodd" d="M27.894 9.473c-3.926 1.845-7.515 4.395-10.77 7.65C9.707 24.573 6 33.53 6 44c0 10.334 3.574 19.142 10.72 26.424a2.26 2.26 0 0 0 0.403 0.401C24.54 78.276 33.498 82 44 82c4.195 0 8.154-0.605 11.878-1.812 5.537-1.78 10.537-4.9 14.999-9.362C78.293 63.477 82 54.536 82 44c0-10.47-3.707-19.428-11.123-26.877a75.62 75.62 0 0 0-2.97-2.719C61.096 8.801 53.127 6 44 6c-5.838 0-11.207 1.157-16.106 3.473z" clip-rule="evenodd"/><path fill="#000" fill-opacity=".2" fill-rule="evenodd" d="M78.103 61.055a32.61 32.61 0 0 0 0.799-2.543L80 35.877 25.982 28l-1.947 36.046h-7.489L14 66.738a47.542 47.542 0 0 0 3.245 3.69 2.285 2.285 0 0 0 0.4 0.398c2.23 2.26 4.625 4.171 7.189 5.734A36.024 36.024 0 0 0 32.172 80l0.8-0.698-3.695-3.49 2.945-2.842h23.365a3.717 3.717 0 0 0 2.147-0.648 2.312 2.312 0 0 1 0.45-0.349l11.631-11.218 8.288 0.3z" clip-rule="evenodd"/><path fill="#DF8153" fill-rule="evenodd" d="M60.174 52.822c-0.612-0.72-1.377-1.114-2.295-1.182-0.918-0.104-1.751 0.153-2.499 0.772l-1.275 1.13a3.204 3.204 0 0 0-0.713-1.286c-0.612-0.754-1.377-1.166-2.295-1.235-0.918-0.103-1.751 0.172-2.499 0.825l-7.445 6.329L41 59.359c3.264 4.358 8.33 4.804 15.196 1.337l3.62-3.036c0.715-0.616 1.105-1.388 1.174-2.316 0.068-0.96-0.204-1.801-0.816-2.522z" clip-rule="evenodd"/><path fill="#C46E44" fill-rule="evenodd" d="M61 55.736l-20.147-1.718c-1.143-0.099-2.166 0.213-3.073 0.933-0.873 0.753-1.36 1.686-1.46 2.799l-0.303 3.486c-0.1 1.113 0.235 2.112 1.008 2.996 0.705 0.852 1.645 1.326 2.82 1.424L55.006 66 61 55.736z" clip-rule="evenodd"/><path fill="#B0CBCB" fill-rule="evenodd" d="M77 28.875v-0.198L17 21h-0.5l27.973 21L77 28.875z" clip-rule="evenodd"/><path fill="#fff" fill-rule="evenodd" d="M77 29v-0.2L49.5 7.5 16.5 21 77 29z" clip-rule="evenodd"/><path fill="#00CCBE" fill-rule="evenodd" d="M21.75 13L21 42.226 71.8 44 72 14.281 21.75 13z" clip-rule="evenodd"/><path fill="#fff" fill-rule="evenodd" d="M73.32 58L77 28.8 44.677 42.05 16.5 21 13 50.601 73.32 58z" clip-rule="evenodd"/><path fill="#F96" fill-rule="evenodd" d="M66.99 54.351c0.065-0.934-0.183-1.75-0.747-2.45-0.597-0.7-1.343-1.083-2.239-1.151-0.93-0.099-1.741 0.151-2.438 0.75L50.62 60.75l-12.837-5.049 3.384 0.75 7.86 0.65a3.1 3.1 0 0 0 2.39-0.7c0.696-0.601 1.094-1.367 1.193-2.3a3.507 3.507 0 0 0-0.796-2.4c-0.597-0.701-1.36-1.1-2.288-1.201L32.41 49c-5.242 0.034-9.686 1.8-13.335 5.3L14 58.55 24 71l6.32-5.349 21.146 1.8c0.73 0.066 1.393-0.083 1.99-0.451a8.245 8.245 0 0 1 0.448-0.25l11.941-10.149c0.697-0.601 1.079-1.351 1.145-2.25z" clip-rule="evenodd"/><path fill="#00C7BB" fill-rule="evenodd" d="M30 71.763L16.396 56 10 61.222c1.659 3.12 3.858 6.026 6.599 8.719a2.286 2.286 0 0 0 0.406 0.394c2.268 2.233 4.704 4.121 7.31 5.665L30 71.763z" clip-rule="evenodd"/><path fill="#fff" d="M50.348 18.193l-1.52 8.513-1.066-7.341-4.997 0.68 1.065 7.341-7.204 0.98 0.85 5.865 12.306 3.47 3.294-6.077 2.245-12.566-4.973-0.865zM45.532 30.36c-0.273 0.213-0.612 0.168-0.965 0.025-0.352-0.142-0.483-0.58-0.31-1.087 0.128-0.375 0.611-0.4 0.851-0.387a0.626 0.626 0 0 1 0.26 0.072c0.164 0.087 0.44 0.267 0.481 0.515 0.06 0.359-0.042 0.649-0.316 0.862zm3.588 0.651c-0.21 0.305-0.703 0.313-1.17 0.048-0.315-0.18-0.285-0.576-0.232-0.816a0.746 0.746 0 0 1 0.183-0.35c0.126-0.137 0.333-0.311 0.558-0.301 0.366 0.016 0.668 0.198 0.825 0.5 0.158 0.301 0.047 0.614-0.163 0.92H49.12z"/></svg>