<svg xmlns="http://www.w3.org/2000/svg" width="88" height="88" fill="none" viewBox="0 0 88 88"><circle cx="44" cy="44" r="38" fill="#00CCBC"/><path fill="#000" fill-opacity=".3" d="M17.106 70.852a38.429 38.429 0 0 0 5.43 4.504h42.922c1.877-1.303 3.576-2.616 5.469-4.546 2.07-2.02 3.424-4.097 4.908-6.181H12.066c1.397 1.997 2.835 3.993 4.735 5.906 0.094 0.094 0.218 0.23 0.305 0.317z"/><path fill="#CCC" d="M43.972 15.86l-18.986 2.475v52.59l19.03-2.431-0.044-52.635z"/><path fill="#90A6A6" d="M43.973 15.86l0.043 52.634L62.96 71.36V18.682L43.973 15.86z"/><path fill="#CCC" d="M81.989 15.946l-19.03 2.736V71.36l18.986-2.736 0.044-52.678z"/><path fill="#90A6A6" d="M6 15.512V68.06l18.986 2.866V18.335L6 15.512z"/><path fill="#00CCBC" d="M62.959 39.831v8.643l18.986-6.775v-8.773l-18.986 6.905zM24.986 27.325v9.554l7.77 7.166-7.77 3.43V55.9h0.131l18.855-8.078V39.05l-4.233 1.824-14.753-13.55z"/><path fill="#007E8A" d="M24.986 55.9v-8.425L6 51.253v8.425L24.986 55.9zM10.19 16.12l14.796 20.758v-9.554l-5.5-9.814-9.296-1.39zm33.782 22.93v8.772l18.987 0.695v-8.686L43.972 39.05z"/></svg>