<svg xmlns="http://www.w3.org/2000/svg" width="88" height="88" fill="none" viewBox="0 0 88 88"><circle cx="44" cy="44" r="38" fill="#000"/><path fill="#FF5F00" d="M51.032 31.422h-14.06V56.58h14.06V31.422z"/><path fill="#EB001B" d="M37.861 44a15.914 15.914 0 0 1 1.613-6.994 15.985 15.985 0 0 1 4.525-5.585 16.13 16.13 0 0 0-16.953-1.812 16.046 16.046 0 0 0-6.598 5.902 15.95 15.95 0 0 0 0 16.977 16.046 16.046 0 0 0 6.598 5.903 16.13 16.13 0 0 0 16.953-1.812 15.986 15.986 0 0 1-4.525-5.585A15.916 15.916 0 0 1 37.86 44z"/><path fill="#F79E1B" d="M70 44c0 3.002-0.848 5.944-2.448 8.488a16.045 16.045 0 0 1-6.598 5.903 16.129 16.129 0 0 1-16.952-1.812 16.015 16.015 0 0 0 4.522-5.587 15.946 15.946 0 0 0 0-13.985 16.015 16.015 0 0 0-4.522-5.586 16.128 16.128 0 0 1 16.953-1.812 16.045 16.045 0 0 1 6.597 5.902A15.95 15.95 0 0 1 70 44zM68.467 53.914v-0.515h0.209v-0.105h-0.532v0.105h0.21v0.515h0.113zm1.032 0v-0.621h-0.163l-0.188 0.427-0.187-0.427h-0.163v0.62h0.115v-0.468l0.176 0.404h0.119l0.176-0.405v0.47h0.115z"/></svg>