<svg xmlns="http://www.w3.org/2000/svg" width="88" height="88" fill="none" viewBox="0 0 88 88"><path fill="#00CCBC" d="M44 82c20.987 0 38-17.013 38-38S64.987 6 44 6 6 23.013 6 44s17.013 38 38 38z"/><path fill="#D1D7D7" d="M34.933 72.982l30.849-9.36a2.538 2.538 0 0 0 1.696-3.164L54.203 16.707a2.538 2.538 0 0 0-3.168-1.689l-30.849 9.36a2.538 2.538 0 0 0-1.696 3.164l13.275 43.751a2.538 2.538 0 0 0 3.168 1.689z"/><path fill="#BAC3C3" d="M48.596 62.739l0.003-0.001a0.92 0.92 0 0 0 0.614-1.146L38.316 25.674a0.92 0.92 0 0 0-1.148-0.611h-0.002a0.92 0.92 0 0 0-0.615 1.147L47.45 62.127a0.92 0.92 0 0 0 1.148 0.612z"/><path fill="#F9FAFA" d="M54.48 50.846a5.133 5.133 0 0 0-3.428 6.399 5.133 5.133 0 0 0 6.406 3.414 5.133 5.133 0 0 0 3.43-6.399 5.133 5.133 0 0 0-6.407-3.414zM56.545 39.991a5.133 5.133 0 0 0-6.398-3.43 5.133 5.133 0 0 0-3.414 6.407 5.133 5.133 0 0 0 6.398 3.43 5.133 5.133 0 0 0 3.414-6.407zM45.813 22.278a5.133 5.133 0 0 0-3.429 6.399 5.133 5.133 0 0 0 6.407 3.414 5.133 5.133 0 0 0 3.429-6.399 5.133 5.133 0 0 0-6.407-3.414z"/><path fill="#fff" d="M37.376 56.036a5.133 5.133 0 0 0-3.429 6.399 5.133 5.133 0 0 0 6.406 3.414 5.133 5.133 0 0 0 3.43-6.399 5.133 5.133 0 0 0-6.407-3.414zM39.44 45.181a5.133 5.133 0 0 0-6.398-3.43 5.133 5.133 0 0 0-3.414 6.407 5.133 5.133 0 0 0 6.398 3.43 5.133 5.133 0 0 0 3.415-6.407zM28.708 27.468a5.133 5.133 0 0 0-3.429 6.399 5.133 5.133 0 0 0 6.407 3.414 5.133 5.133 0 0 0 3.429-6.398 5.133 5.133 0 0 0-6.407-3.415z"/></svg>