<svg xmlns="http://www.w3.org/2000/svg" width="88" height="88" fill="none" viewBox="0 0 88 88"><path fill="#017C88" fill-rule="evenodd" d="M27.894 9.47c-3.926 1.845-7.515 4.394-10.77 7.646C9.707 24.56 6 33.513 6 43.975 6 54.302 9.574 63.12 16.72 70.432a2.295 2.295 0 0 0 0.403 0.402C24.54 78.278 33.498 82 44 82c4.195 0 8.154-0.603 11.878-1.81 5.537-1.778 10.537-4.896 14.999-9.356C78.293 63.457 82 54.504 82 43.974c0-10.461-3.707-19.414-11.123-26.858a75.616 75.616 0 0 0-2.97-2.716C61.096 8.8 53.127 6 44 6c-5.838 0-11.207 1.157-16.106 3.47" clip-rule="evenodd"/><path fill="#FFAD93" fill-rule="evenodd" d="M25.525 33.868c0.58-2.374 2.95-3.825 5.283-3.24l24.995 6.16a4.326 4.326 0 0 1 2.93 2.448L63.4 49.484c1.008 2.223 0.037 4.842-2.147 5.859-2.202 1.017-4.797 0.038-5.805-2.167l-3.77-8.307-22.923-5.651a4.42 4.42 0 0 1-3.23-5.35z" clip-rule="evenodd"/><path fill="#FFAD93" d="M63.854 76.472a11.157 11.157 0 0 0 0.909-2.724l3.266-16.634c1.176-5.99-2.669-11.793-8.605-12.98-5.917-1.187-11.685 2.694-12.861 8.685l-3.267 16.634c-1.006 5.124 1.662 10.11 6.17 12.188a36.65 36.65 0 0 0 6.412-1.452 35.243 35.243 0 0 0 7.976-3.717z"/><path fill="#FFAD93" d="M64.749 75.892a4.49 4.49 0 0 0 0.238-0.826L70.1 47.412a4.502 4.502 0 0 0-0.392-2.788l-7.97-16.05c-0.616-1.224-1.736-2.09-3.043-2.355l-26.133-5.387c-2.371-0.49-4.686 1.055-5.171 3.447a4.44 4.44 0 0 0 3.416 5.218l24.043 4.955 6.365 12.81-4.835 26.203c-0.429 2.392 1.139 4.69 3.51 5.143l0.023 0.004a35.9 35.9 0 0 0 4.835-2.72z"/><path fill="#FFAD93" fill-rule="evenodd" d="M23.547 43.89c0.56-2.374 2.912-3.843 5.264-3.278l20.85 4.992c2.352 0.565 3.808 2.938 3.248 5.312-0.56 2.374-2.912 3.843-5.264 3.278l-20.85-4.992c-2.352-0.565-3.808-2.939-3.248-5.313zM22.035 53.327c0.56-2.373 2.912-3.843 5.264-3.296l20.459 4.841c2.351 0.565 3.807 2.939 3.266 5.312-0.56 2.374-2.912 3.843-5.264 3.297L25.302 58.64a4.41 4.41 0 0 1-3.267-5.313z" clip-rule="evenodd"/><path fill="#450064" fill-rule="evenodd" d="M64.725 11.714c0.542-2.713-0.522-4.427-3.304-4.992l-21.41-4.257c-2.688-0.547-4.387 0.527-4.947 3.334l-8.941 45.588c-0.542 2.713 0.522 4.427 3.304 4.992l21.392 4.276c2.688 0.547 4.386-0.527 4.946-3.334l8.96-45.607z" clip-rule="evenodd"/><path fill="#00CCBE" fill-rule="evenodd" d="M30.061 46.866l23.465 4.69 4.983-25.43-23.464-4.692-4.984 25.432z" clip-rule="evenodd"/><path fill="#00CCBE" fill-rule="evenodd" d="M34.934 22.113l23.464 4.69 3.21-16.445-23.464-4.691-3.21 16.446z" clip-rule="evenodd"/><path fill="#FFAD93" d="M68.285 73.222L62.71 64.82c-3.435-5.2-10.398-6.575-15.531-3.109-5.133 3.466-6.515 10.493-3.08 15.673l2.989 4.505a37.288 37.288 0 0 0 8.79-1.699c4.489-1.44 8.625-3.763 12.407-6.967z"/><path fill="#000" fill-opacity=".1" fill-rule="evenodd" d="M52.667 67.249c-3.043 1.073-6.403-0.566-7.467-3.636l-6.104-17.69c-1.064-3.07 0.56-6.46 3.603-7.534 3.042-1.074 6.402 0.565 7.466 3.636l6.104 17.688c1.083 3.071-0.541 6.462-3.602 7.536z" clip-rule="evenodd"/><path fill="#FFAD93" fill-rule="evenodd" d="M48.97 77.91c-3.191 0.49-6.196-1.732-6.682-4.953L37.808 43.4c-0.485-3.222 1.718-6.255 4.91-6.744 3.192-0.49 6.197 1.733 6.682 4.954l4.48 29.557c0.486 3.221-1.736 6.254-4.91 6.744z" clip-rule="evenodd"/><path fill="#FFD9CD" fill-rule="evenodd" d="M43.203 38.935c-1.046 0.15-1.979 0.584-2.688 1.413-0.635 0.848-0.896 1.865-0.822 2.9 0.15 1.056 0.598 1.922 1.42 2.638 0.895 0.735 1.828 0.98 2.93 0.923 1.026-0.075 1.904-0.602 2.632-1.507 0.71-0.829 1.027-1.752 0.877-2.807-0.075-1.036-0.578-1.996-1.474-2.731-0.915-0.66-1.83-0.98-2.875-0.829z" clip-rule="evenodd"/><path fill="#FFAD93" fill-rule="evenodd" d="M46.712 66.702c-1.045-3.09 0.616-6.461 3.659-7.516l6.832-2.355c3.061-1.055 6.402 0.622 7.448 3.692 1.045 3.09-0.616 6.462-3.659 7.517l-6.832 2.354c-3.061 1.055-6.403-0.602-7.448-3.692z" clip-rule="evenodd"/></svg>