<svg xmlns="http://www.w3.org/2000/svg" width="88" height="88" fill="none" viewBox="0 0 88 88"><path fill="#FABE00" fill-rule="evenodd" d="M70.772 71.1C76.12 65.84 79.53 59.806 81 53H7c1.504 6.806 4.93 12.84 10.278 18.1a20.868 20.868 0 0 0 2.005 1.825C26.235 78.975 34.474 82 44 82c9.526 0 17.782-3.025 24.767-9.075a33.605 33.605 0 0 0 2.005-1.825z" clip-rule="evenodd"/><path fill="#00CCBE" fill-rule="evenodd" d="M81.144 53a27.091 27.091 0 0 0 0.353-1.746A42.158 42.158 0 0 0 82 44.668v-0.35c-0.067-10.244-3.775-19.008-11.123-26.292C63.46 10.675 54.502 7 44 7c-10.469 0-19.41 3.675-26.826 11.026C9.825 25.31 6.1 34.074 6 44.319v0.35c0 2.261 0.184 4.456 0.554 6.585A14.742 14.742 0 0 0 6.856 53h74.288z" clip-rule="evenodd"/><path fill="#007E8A" fill-rule="evenodd" d="M30.383 36.097v4.05c0 2.308 0.819 4.277 2.456 5.908 1.638 1.631 3.615 2.447 5.93 2.447h0.847V65h8.852V42.3h0.763c2.315 0 4.292-0.816 5.93-2.448 1.638-1.66 2.456-3.643 2.456-5.949v-3.165c0-0.9-0.31-1.645-0.932-2.236-0.649-0.618-1.398-0.928-2.245-0.928a3.26 3.26 0 0 0-2.33 0.928c-0.592 0.59-0.889 1.336-0.889 2.236v3.165c0 0.535-0.197 0.998-0.593 1.392a1.914 1.914 0 0 1-1.397 0.591h-0.763v-6.498c0-1.181-0.438-2.207-1.313-3.08C46.28 25.436 45.235 25 44.021 25c-1.243 0-2.287 0.436-3.134 1.308-0.847 0.873-1.27 1.899-1.27 3.08v12.7h-0.848c-0.565 0-1.03-0.196-1.398-0.59a1.768 1.768 0 0 1-0.593-1.35v-4.051c0-0.9-0.31-1.659-0.931-2.278s-1.384-0.929-2.288-0.929a3.067 3.067 0 0 0-2.244 0.929c-0.621 0.619-0.932 1.378-0.932 2.278z" clip-rule="evenodd"/></svg>