<svg xmlns="http://www.w3.org/2000/svg" width="88" height="88" fill="none" viewBox="0 0 88 88"><path fill="#067F8A" d="M82 44c0 20.987-17.013 38-38 38S6 64.987 6 44 23.013 6 44 6s38 17.013 38 38z"/><path fill="#00CCBD" d="M14 19.907c14.393-4.848 26.635 2.85 27.045 19.24-11.62 1.583-19.053-2.005-22.5-10.694-0.834-2.1-1.787-5.666-4.545-8.546z"/><path fill="#01A199" d="M19.372 22.087a34.651 34.651 0 0 1 5.187 1.335 29.062 29.062 0 0 1 4.92 2.246c3.149 1.814 5.93 4.285 8.28 7.086a45.278 45.278 0 0 1 3.248 4.422c0.24 0.39 0.497 0.765 0.723 1.17a27.494 27.494 0 0 1 0.654 1.252 19.45 19.45 0 0 1 1.063 2.674c0.57 1.837 0.853 3.68 1.075 5.494a93.25 93.25 0 0 1 0.437 5.41 1.56 1.56 0 0 1-1.473 1.649 1.56 1.56 0 0 1-1.65-1.473v-0.039a93.8 93.8 0 0 0-0.305-5.23c-0.169-1.717-0.402-3.408-0.85-4.98a16.083 16.083 0 0 0-0.853-2.296c-0.344-0.746-0.761-1.5-1.136-2.284a43.327 43.327 0 0 0-2.636-4.469c-1.944-2.854-4.316-5.444-7.154-7.483a27.923 27.923 0 0 0-4.538-2.651 34.192 34.192 0 0 0-4.992-1.833z"/><path fill="#00CCBD" d="M74 19.907c-14.393-4.848-26.636 2.85-27.045 19.24 11.619 1.583 19.053-2.005 22.5-10.694 0.834-2.1 1.79-5.666 4.545-8.546z"/><path fill="#01A199" d="M68.632 22.087a34.224 34.224 0 0 0-4.985 1.837 27.922 27.922 0 0 0-4.537 2.65c-2.835 2.044-5.207 4.63-7.154 7.484a42.508 42.508 0 0 0-2.636 4.469c-0.379 0.784-0.792 1.538-1.136 2.284a16.071 16.071 0 0 0-0.854 2.295c-0.451 1.573-0.68 3.264-0.849 4.981-0.16 1.722-0.245 3.474-0.306 5.23v0.004a1.562 1.562 0 0 1-1.618 1.508 1.562 1.562 0 0 1-1.508-1.619v-0.034c0.104-1.795 0.23-3.593 0.437-5.41 0.218-1.813 0.505-3.657 1.075-5.494a18.8 18.8 0 0 1 1.063-2.674 24.132 24.132 0 0 1 0.654-1.251c0.226-0.406 0.482-0.78 0.723-1.17a45.278 45.278 0 0 1 3.248-4.423c2.353-2.8 5.13-5.272 8.28-7.086a28.768 28.768 0 0 1 4.92-2.245 34.03 34.03 0 0 1 5.183-1.336z"/><path fill="#FABE00" d="M72.96 44.514c0 8.761-5.494 16.294-13.203 19.34v3.611a2.068 2.068 0 0 1-2.063 2.062H30.198a2.068 2.068 0 0 1-2.062-2.062v-3.611c-7.709-3.046-13.202-10.579-13.202-19.34H72.96z"/></svg>