<svg xmlns="http://www.w3.org/2000/svg" width="88" height="88" fill="none" viewBox="0 0 88 88"><path fill="#00CCBC" fill-rule="evenodd" d="M82 43.648c-0.066-10.335-3.775-19.177-11.123-26.525C63.46 9.707 54.503 6 44 6 33.531 6 24.59 9.707 17.174 17.123 9.825 24.471 6.1 33.313 6 43.648V44c0 10.502 3.725 19.462 11.174 26.877a20.97 20.97 0 0 0 2.013 1.862C26.166 78.913 34.437 82 44 82c9.563 0 17.85-3.087 24.864-9.26a33.642 33.642 0 0 0 2.013-1.863C78.293 63.462 82 54.502 82 44v-0.352z" clip-rule="evenodd"/><path fill="#fff" d="M26 18h9v16h-9z"/><path fill="#fff" d="M26 18h9v16h-9z"/><path fill="#fff" d="M26 18h9v16h-9zM53 18h9v16h-9z"/><path fill="#440063" d="M59.645 60L69 45.925S68.977 38.762 69 35c0.01-1.603-1.318-3.009-3-3H22c-1.682 0.01-2.99 1.397-3 3 0 3.845 0.025 8.335 0.007 11.195L28.485 60h31.16z"/><circle cx="44" cy="49" r="5" fill="#FABE00"/><path fill="#fff" d="M48.5 81.762V68h-9v13.762A41.813 41.813 0 0 0 44 82c1.533 0 3.033-0.08 4.5-0.238z"/><path fill="#440063" d="M28.559 63H59.44v6a2 2 0 0 1-2 2H30.56a2 2 0 0 1-2-2v-6z"/></svg>