<svg xmlns="http://www.w3.org/2000/svg" width="88" height="88" fill="none" viewBox="0 0 88 88"><circle cx="44" cy="44" r="38" fill="#440063"/><path fill="#E08557" d="M42.47 49.36a2.203 2.203 0 0 1 1.7 0.299c0.51 0.341 0.85 0.81 0.978 1.408 0.127 0.597 0.042 1.194-0.298 1.706l-2.55 5.632 6.248-8.192c0.425-0.469 0.935-0.725 1.573-0.725 0.595-0.043 1.148 0.17 1.615 0.597 0.468 0.427 0.723 0.939 0.723 1.536 0.042 0.64-0.17 1.152-0.553 1.622L42.81 65.53c-0.425 0.469-2.593 0.298-3.188 0.341-0.638 0.043-1.148-0.17-1.615-0.597a1.628 1.628 0 0 1-0.51-0.726l-0.17 0.256c-0.34 0.512-0.808 0.854-1.403 0.982a2.203 2.203 0 0 1-1.7-0.299c-0.51-0.341-0.85-0.81-0.978-1.408-0.127-0.597 0.553-0.256 0.85-0.768l7.014-13.013c0.255-0.47 0.722-0.811 1.36-0.939z"/><path fill="#F96" d="M38.73 58.405h7.863l9.946-8.661a1.645 1.645 0 0 1 1.19-0.341 1.684 1.684 0 0 1 1.105 0.512 1.246 1.246 0 0 1 0.383 1.066c-0.043 0.384-0.128 1.195-0.468 1.45l-8.288 7.681-12.582 9.301c-0.255 0.171-1.615-1.109-1.955-1.066-0.34 0.042-0.638-0.043-0.935-0.171-0.298-0.128-0.51-0.341-0.68-0.597-2.55-4.267-2.593-7.424 0.382-9.899 0.043-0.043-0.042 0.043 0 0-0.255-2.304-0.808-4.352-2.423-5.461a1.208 1.208 0 0 1-0.637-0.939c-0.085-0.384 0.042-0.768 0.297-1.067 0.255-0.341 0.595-0.512 1.063-0.597a1.605 1.605 0 0 1 1.233 0.256c2.38 1.45 3.74 3.755 4.165 6.912"/><path fill="#450064" d="M26.7 68.005l2.466-2.432 2.38 2.475-2.465 2.39-2.38-2.433z"/><path fill="#F96" d="M37.879 69.413l3.783-2.773-0.978-8.235-31.836 0.043a31.716 31.716 0 0 0 2.677 5.205c0.085 0.086 0.085 0.299 0.213 0.384a40.83 40.83 0 0 0 5.356 6.656l15.09-0.042c2.592 0.17 3.867 0.128 5.695-1.238z"/><path fill="#fff" d="M33.119 57H8.38c0.808 2.176 1.828 4.648 3.103 6.653 0.085 0.086 0.085 0.299 0.213 0.384 1.53 2.304 3.315 4.651 5.44 6.742 0.383 0.384 0.808 0.768 1.19 1.152h14.835V57H33.12z"/><path fill="#00CCBD" d="M25.595 57H8.277a35.481 35.481 0 0 0 3.16 6.695c0.094 0.153 0.194 0.35 0.223 0.395 1.53 2.304 3.277 4.628 5.402 6.719 1.82 1.884 4.154 3.745 6.438 5.191h2.095V57z"/><path fill="#000" fill-opacity=".298" d="M75.327 53.03c1.147 0 2.125-0.427 2.933-1.238 0.807-0.81 1.19-1.792 1.19-2.944H72.69l0.17-24.875v-0.17h-2.55l2.678 0.042v-0.17l-3.06-2.134-1.276-6.869c-2.465-2.09-5.058-3.84-7.82-5.205l-6.802 1.11-7.056-4.822c-0.34-0.043-0.637-0.043-0.977-0.086l-11.944 8.15-12.157 2.005 0.935 5.675-2.635 1.792v0.085l2.933 0.043v0.085l-3.103-0.043v0.128l0.127 25.302h-6.63c0 1.152 0.425 2.133 1.232 2.944 0.808 0.81 1.785 1.237 2.933 1.237h57.638V53.03z"/><path fill="#8C9C9C" d="M70.65 20.56v-0.17l-52.791-0.3v0.086l26.438 15.019L70.651 20.56z"/><path fill="#8C9C9C" d="M70.608 20.39L44.212 2 17.86 20.09l52.75 0.3z"/><path fill="#DBDDDD" d="M19.262 11.045l4.675 28.416 46.119-7.082-5.27-28.758-45.524 7.424z"/><path fill="#000" fill-opacity=".298" d="M20.792 20.261l0.468 2.859L44.5 37.627l23.728-15.275-0.34-1.877L44.5 32.89 20.792 20.26z"/><path fill="#440063" d="M45.342 8.818l-0.094 6.029-1.555-4.934-3.362 1.027 1.553 4.934-4.848 1.48 1.24 3.94 8.858 1.013 1.587-4.551 0.14-8.899-3.519-0.04zm-1.953 8.912c-0.165 0.177-0.403 0.184-0.662 0.125-0.259-0.058-0.397-0.345-0.335-0.713 0.046-0.273 0.376-0.344 0.543-0.362a0.436 0.436 0 0 1 0.186 0.02c0.123 0.042 0.333 0.135 0.389 0.301 0.08 0.24 0.043 0.451-0.121 0.629zm2.541 0.047c-0.11 0.233-0.449 0.293-0.8 0.163-0.237-0.088-0.26-0.365-0.25-0.536a0.52 0.52 0 0 1 0.086-0.261c0.072-0.108 0.195-0.251 0.35-0.27a0.66 0.66 0 0 1 0.625 0.253c0.142 0.19 0.1 0.417-0.01 0.65H45.93z"/><path fill="#fff" d="M70.48 45.733l0.17-25.344L44.5 35.11 17.9 20.091l0.128 25.642H70.48z"/><path fill="#8FA0A3" d="M76.049 48.336c-0.808 0.81-1.785 1.237-2.933 1.237H15.478c-1.147 0-2.125-0.426-2.932-1.237-0.808-0.81-1.233-1.792-1.233-2.944h65.926c0 1.195-0.382 2.133-1.19 2.944z"/><path fill="#000" fill-opacity=".298" d="M70.609 20.39L44.5 34.991v10.443l25.981 0.298 0.128-25.344z" opacity=".2"/></svg>