<svg xmlns="http://www.w3.org/2000/svg" width="88" height="88" fill="none" viewBox="0 0 88 88"><path fill="#00CCBE" fill-rule="evenodd" d="M27.894 9.47c-3.926 1.845-7.515 4.394-10.77 7.646C9.707 24.56 6 33.513 6 43.975 6 54.302 9.574 63.12 16.72 70.43a2.3 2.3 0 0 0 0.403 0.403C24.54 78.278 33.498 82 44 82c4.195 0 8.154-0.604 11.878-1.81 5.537-1.778 10.537-4.897 14.999-9.356C78.293 63.457 82 54.504 82 43.974c0-10.461-3.707-19.414-11.123-26.858a75.695 75.695 0 0 0-2.97-2.716C61.096 8.8 53.127 6 44 6c-5.838 0-11.207 1.157-16.106 3.47z" clip-rule="evenodd"/><rect width="10" height="9" x="21" y="15" fill="#E5E5E5" rx="1"/><rect width="22" height="8" x="17" y="9" fill="#450064" rx="1"/><path fill="#E5E5E5" d="M36 59h18V49H36z"/><rect width="56" height="15" x="17" y="57" fill="#450064" rx="2"/><rect width="20" height="2" x="35" y="66" fill="#E5E5E5" rx="1"/><circle cx="45" cy="62" r="2" fill="#E5E5E5"/><path fill="#450064" fill-rule="evenodd" d="M19.45 21C17.815 21 17 21.67 17 23.011V49.99C17 51.329 17.816 52 19.45 52h51.046C72.166 52 73 51.33 73 49.989V23.01C73 21.671 72.165 21 70.496 21H19.45z" clip-rule="evenodd"/><path fill="#fff" fill-rule="evenodd" d="M70 24H20v25h50V24z" clip-rule="evenodd"/><path fill="#00B8A9" fill-rule="evenodd" d="M31 35h-7v-3h7v3zm35 0H36v-3h30v3zm-30 5h21v-3H36v3zm-5 0h-7v-3h7v3zm5 5h14v-3H36v3zm-5 0h-7v-3h7v3z" clip-rule="evenodd"/><path fill="#FABE00" fill-rule="evenodd" d="M24 30h22v-3H24v3z" clip-rule="evenodd"/><path fill="#FFAD93" d="M79 65.105c0-0.61-0.175-1.179-0.524-1.707a2.884 2.884 0 0 0-1.31-1.095l-10.915-4.817-0.392-10.552c-0.035-0.82-0.355-1.52-0.96-2.102-0.579-0.556-1.278-0.833-2.096-0.832a3.061 3.061 0 0 0-2.14 0.832 3.097 3.097 0 0 0-0.917 2.102L59.31 58.756a2.229 2.229 0 0 0 0 0.394l-0.393 9.24-3.318-4.949c-0.472-0.699-1.127-1.137-1.965-1.313-0.811-0.15-1.568 0.01-2.27 0.481a3.017 3.017 0 0 0-1.31 1.927 3.074 3.074 0 0 0 0.48 2.32l8.383 12.48a3.257 3.257 0 0 0 0.524 0.7l0.524 0.395a1.98 1.98 0 0 0 0.61 0.306 1.067 1.067 0 0 0 0.175 0.088l0.568 0.087a1.432 1.432 0 0 0 0.262 0.044 2 2 0 0 0 0.087 0L73.412 81c0.843 0.006 1.556-0.286 2.139-0.876l2.489-2.496a2.503 2.503 0 0 0 0.698-1.007A2.69 2.69 0 0 0 79 75.44V65.105z"/></svg>