<svg xmlns="http://www.w3.org/2000/svg" width="88" height="88" fill="none" viewBox="0 0 88 88"><circle cx="44" cy="44" r="38" fill="#00CCBC"/><path fill="#000" fill-opacity=".2" d="M81.583 38.352c-3.955 6.764-10.915 14.985-20.797 22.366a2.348 2.348 0 0 1-0.386 0.296c-0.408 0.295-0.815 0.58-1.223 0.866a86.255 86.255 0 0 0-1.222 0.866 0.898 0.898 0 0 1-0.257 0.169 0.895 0.895 0 0 0-0.129 0.084c-0.043 0.032-0.086 0.064-0.129 0.085-0.407 0.274-0.825 0.549-1.243 0.824a122.646 122.646 0 0 0-1.244 0.823c0 0.043-0.043 0.043-0.043 0.043 0.472 1.31 0.858 4.055-2.744 7.14l-10.593 9.758-0.386-0.55-0.043-0.084-0.386-0.549 8.105-9.717s0.086-0.126 0.215-0.295c0.128-0.254 0.3-0.634 0.086-0.93a15.576 15.576 0 0 0-0.73-1.056 36.433 36.433 0 0 1-1.8 0.93l-5.662-8.027-1.114 0.76 5.489 7.774a197.973 197.973 0 0 1-3.26 1.436l-1.157-1.605c-7.591 1.69-13.38 5.872-13.424 5.914 0.78-1.31 1.657-2.5 2.539-3.698 0.284-0.384 0.568-0.77 0.85-1.16-1.116 0.084-3.088 0.338-4.46 1.225-2.016 1.267-3.217 3.38-3.217 3.38s1.115-6.464 3.517-9.295a2.875 2.875 0 0 0-0.386 0.085 146.118 146.118 0 0 0-0.303 0.07c-1.591 0.363-3.322 0.76-5.015 0.521 0.729-0.042 1.286-0.507 1.758-1.056 0.371-0.406 0.74-0.815 1.11-1.224 1.932-2.139 3.862-4.275 6.095-6.084 0.3-0.254 0.61-0.497 0.922-0.74a31.152 31.152 0 0 0 0.922-0.739l-0.9-1.267c0.541-0.562 1.102-1.105 1.669-1.654a141.756 141.756 0 0 0 0.86-0.839l5.49 7.773 1.115-0.76-5.661-8.027a22.681 22.681 0 0 1 1.501-1.352c-0.199-0.251-0.435-0.596-0.66-0.922-0.114-0.167-0.225-0.329-0.326-0.472-0.215-0.295-0.6-0.295-0.901-0.253-0.214 0.042-0.343 0.084-0.343 0.084l-12.094 4.098-0.386-0.549-0.043-0.084-0.386-0.55 12.995-6.337c4.674-2.534 7.247-0.591 8.062 0.254a49.21 49.21 0 0 1 2.402-1.732 0.897 0.897 0 0 1 0.257-0.17 0.893 0.893 0 0 0 0.129-0.084 0.886 0.886 0 0 1 0.128-0.084c0.408-0.275 0.826-0.55 1.244-0.824 0.418-0.275 0.836-0.55 1.244-0.824l0.386-0.253c12.005-7.563 23.718-11.158 31.814-11.885a37.735 37.735 0 0 1 2.149 8.107z"/><path fill="#FB5058" d="M42.56 66.506l-9.778-13.857c-0.214 0.211-0.386 0.38-0.471 0.422-1.073 0.845-2.145 1.648-3.174 2.535-2.659 2.197-4.846 4.858-7.162 7.393-0.472 0.55-1.03 1.014-1.758 1.056 1.801 0.254 3.645-0.21 5.318-0.591 0 0 0.128-0.042 0.386-0.085-2.402 2.83-3.517 9.295-3.517 9.295s1.2-2.113 3.216-3.38c1.373-0.887 3.345-1.14 4.46-1.225-1.157 1.605-2.358 3.126-3.387 4.858 0.042-0.085 6.647-4.816 15.052-6.252 0.258-0.085 0.558-0.127 0.815-0.17z"/><path fill="#fff" d="M41.702 44.2s-0.129-0.211-0.429-0.507l0.043-0.042s-2.53-3.76-8.363-0.634L19.96 49.354l0.386 0.549 0.043 0.084 0.386 0.55 12.093-4.098s0.13-0.042 0.344-0.085c0.3-0.042 0.686-0.042 0.9 0.254 0.515 0.718 1.287 1.816 1.287 1.816a23.097 23.097 0 0 1 0.386 0.55l0.815-0.55c0.128 0.17 0.171 0.254 0.171 0.254a6.35 6.35 0 0 0 0.386 0.55l4.546-5.028zM53.238 60.549s0.128 0.211 0.3 0.55l0.086-0.043s2.701 3.633-2.316 7.942l-10.593 9.759-0.386-0.55-0.043-0.084-0.386-0.549 8.106-9.716s0.086-0.085 0.214-0.296c0.172-0.254 0.3-0.634 0.086-0.93-0.515-0.718-1.287-1.816-1.287-1.816-0.214-0.296-0.386-0.55-0.386-0.55l0.815-0.549c-0.128-0.169-0.171-0.253-0.171-0.253a6.37 6.37 0 0 0-0.386-0.55l6.347-2.365z"/><path fill="#FABE00" d="M40.974 43.313a2.34 2.34 0 0 0-0.386 0.295c-2.53 1.86-4.846 3.803-6.99 5.746l12.18 17.278a88.665 88.665 0 0 0 7.89-4.478l0.386-0.253c0.815-0.55 1.673-1.099 2.487-1.648 0.086-0.042 0.172-0.127 0.258-0.169 0.086-0.042 0.171-0.084 0.257-0.169 0.815-0.591 1.63-1.14 2.445-1.732 0.128-0.084 0.257-0.169 0.386-0.295C74.338 47.199 82.53 34.694 84.287 27.47c-7.505-0.929-22.257 2.282-37.482 11.872l-0.386 0.253c-0.814 0.55-1.672 1.098-2.487 1.648-0.086 0.042-0.172 0.126-0.257 0.169a0.899 0.899 0 0 0-0.258 0.169 35.577 35.577 0 0 0-2.444 1.732zM41.23 68.576c1.073-0.465 2.145-0.93 3.26-1.437L32.653 50.326c-0.857 0.844-1.715 1.647-2.53 2.492L41.23 68.576z"/><path fill="#fff" d="M47.9 53.193l-0.855-1.214-17.016 11.635 0.855 1.214 17.017-11.635z"/><path fill="#000" fill-opacity=".2" d="M68.163 28.569l-4.76 1.014-0.13-1.225-11.707-4.31 0.129-0.084 4.589-3.126-4.975-0.718 0.943-1.901 3.002 0.591 1.416-3.042v-0.084l-7.291-1.479-1.33-5.323 8.02 1.352c-0.214-1.943-1.072-3.506-2.53-4.647-1.544-1.183-3.388-1.605-5.404-1.225-2.101 0.38-3.816 1.436-5.146 3.168-1.33 1.732-1.887 3.634-1.758 5.661 0.128 1.225 0.429 2.24 0.986 3.084l2.616 0.507-0.686 2.282-3.173-0.465-0.043-2.324-18.656 1.014 0.558 20.025 18.14-1.521 0.043 4.267 0.043 0.633 2.402-0.464a848.27 848.27 0 0 1 0.257 0.38c0.558 0.803 1.33 1.225 2.23 1.31l6.819 0.718 0.343 9.885 0.257-0.042 0.343 3.549 7.934-1.183c0.129-1.563-0.643-2.577-2.401-3.084l-0.086-0.042 0.986-0.127-0.429-12.59c-0.085-0.802-0.3-1.52-0.814-2.07-0.515-0.549-1.115-0.971-1.844-1.056l-4.846-0.549-0.6-5.407 12.35 4.055-0.172-1.69 2.316-0.76 1.03 2.408 2.873-0.718-1.844-4.647z"/><path fill="#000" fill-opacity=".2" d="M49.464 14.205l7.29 1.437-0.514-5.408-0.086 0.042-7.976-1.351 1.286 5.28z"/><path fill="#000" fill-opacity=".2" d="M38.443 64.647l2.745 3.929a197.146 197.146 0 0 0 3.26-1.437l-2.96-4.182c-0.986 0.55-2.015 1.14-3.045 1.69zM42.688 62.239l3.044 4.351a88.687 88.687 0 0 0 7.891-4.478l0.386-0.253c0.815-0.55 1.673-1.099 2.488-1.648 0.085-0.042 0.171-0.127 0.257-0.169a0.896 0.896 0 0 0 0.257-0.169c0.815-0.591 1.63-1.14 2.445-1.732a2.35 2.35 0 0 0 0.386-0.296c14.452-10.688 22.643-23.193 24.401-30.417a112.068 112.068 0 0 0-1.543-0.127c-4.375 5.704-18.227 22.137-40.013 34.938z" opacity=".5"/><path fill="#F96" d="M67.305 30.005l1.03 2.408 2.873-0.718-1.758-4.69-5.532 1.226-0.215-0.127 0.6 2.957 3.002-1.056z"/><path fill="#90A6A6" d="M45.648 19.824l1.244 6.59 18.312 6.041-0.557-5.66-18.999-6.971z"/><path fill="#00CCBC" d="M58.257 49.396l-3.689 0.676 0.43 4.436 7.933-1.183c0.129-1.563-0.643-2.577-2.402-3.084l-2.273-0.845z"/><path fill="#440063" d="M52.381 18.979l1.415-2.788-7.633-1.14-0.772 2.534 6.99 1.394z"/><path fill="#007E8A" d="M52.723 33.723h-0.086L48.563 33.3c-0.944-0.084-1.801 0.17-2.702 0.803-0.815 0.634-1.33 1.479-1.372 2.408-0.215 1.014-0.086 1.817 0.471 2.535 0.558 0.803 1.33 1.225 2.23 1.31l6.82 0.718 0.342 9.885 6.99-0.93-0.428-12.589c-0.086-0.802-0.3-1.52-0.815-2.07-0.515-0.549-1.115-0.971-1.844-1.056l-5.532-0.591z"/><path fill="#00CCBC" d="M42.302 38.497l0.043 0.633 11.408-2.239-0.987-9.336-10.464 10.942zM53.024 22.4l4.588-3.126-15.524-2.281 0.129 0.59 10.464 5.07 0.343-0.253z"/><path fill="#91A7A7" d="M52.767 27.555l0.085-5.112-10.721-5.027 0.171 21.08 10.465-10.941z"/><path fill="#440063" d="M23.52 15.684l0.557 20.024 18.183-1.52-0.128-19.476-18.612 0.972z"/><path fill="#FB5058" d="M49.464 2.799c-2.102 0.38-3.817 1.436-5.147 3.168C42.987 7.7 42.43 9.6 42.56 11.628c0.129 1.225 0.429 2.24 0.986 3.084l13.08 2.535 1.416-3.126-7.29-1.479-1.33-5.323 8.02 1.352c-0.215-1.943-1.073-3.506-2.53-4.647-1.63-1.183-3.432-1.605-5.447-1.225z"/><path fill="#DBDDDD" d="M50.708 12.642l7.29 1.479-0.6-5.492-8.02-1.352 1.33 5.365z"/></svg>