<svg xmlns="http://www.w3.org/2000/svg" width="88" height="88" fill="none" viewBox="0 0 88 88"><path fill="#00CCBE" fill-rule="evenodd" d="M11.436 24.143C7.81 29.99 6 36.541 6 43.9c0 7.358 1.81 14.01 5.436 19.857 0.1 0.1 0.201 0.302 0.201 0.403 1.51 2.318 3.322 4.637 5.436 6.752C24.522 78.372 33.48 82 43.95 82c10.468 0 19.427-3.728 26.876-11.088 2.114-2.115 3.925-4.434 5.435-6.752C80.087 58.213 82 51.56 82 44c0-10.482-3.725-19.453-11.174-26.912C63.378 9.729 54.418 6 43.95 6 33.48 6 24.522 9.73 17.073 17.088a34.003 34.003 0 0 0-5.637 7.055z" clip-rule="evenodd"/><path fill="#A3A3A3" fill-rule="evenodd" d="M60.9 64.854c11.279-1.245 17.097-8.413 17.456-21.503h-39.35c-1.38 12.405-6.525 19.241-15.438 20.51L60.9 64.853z" clip-rule="evenodd"/><path fill="#fff" fill-rule="evenodd" d="M29 23.65c-2.77 0.034-5.135 1.605-7.097 4.715-1.984 3.132-2.977 6.915-2.977 11.35 0 1.29 0.085 2.525 0.252 3.704 0.404 2.873 1.313 5.428 2.725 7.661 1.984 3.132 4.379 4.699 7.18 4.699a8.08 8.08 0 0 0 0.506-0.018H68.45V23.65H28.999z" clip-rule="evenodd"/><path fill="#000" fill-opacity=".1" fill-rule="evenodd" d="M68.451 55.762V43.419H19.18c0.403 2.873 1.312 5.427 2.724 7.662 1.984 3.132 4.378 4.698 7.18 4.698a8.01 8.01 0 0 0 0.505-0.017h38.863z" clip-rule="evenodd"/><path fill="#CCC" fill-rule="evenodd" d="M75.396 28.365c-1.984-3.143-4.377-4.715-7.18-4.715-2.804 0-5.197 1.572-7.181 4.715-1.985 3.132-2.976 6.915-2.976 11.35 0 4.433 0.991 8.222 2.976 11.365 1.984 3.132 4.377 4.698 7.18 4.698 2.804 0 5.197-1.566 7.18-4.698 1.985-3.143 2.978-6.932 2.978-11.366 0-4.434-0.993-8.217-2.977-11.35z" clip-rule="evenodd"/><path fill="#440063" fill-rule="evenodd" d="M71.074 35.184c-0.785-1.245-1.737-1.868-2.858-1.868-1.122 0-2.074 0.622-2.86 1.868-0.795 1.257-1.192 2.767-1.192 4.53 0 1.774 0.397 3.284 1.193 4.53 0.785 1.246 1.737 1.869 2.859 1.869 1.12 0 2.073-0.623 2.858-1.869 0.796-1.246 1.195-2.756 1.195-4.53 0-1.763-0.399-3.273-1.195-4.53z" clip-rule="evenodd"/><path fill="#fff" fill-rule="evenodd" d="M62.413 64.585c-7.263-0.887-11.91-5.691-13.94-14.414L9.627 49.683c1.77 9.138 7.248 13.942 16.43 14.414l36.356 0.488z" clip-rule="evenodd"/></svg>