<svg xmlns="http://www.w3.org/2000/svg" width="88" height="88" fill="none" viewBox="0 0 88 88"><circle cx="44" cy="44" r="38" fill="#EAEAEA"/><path fill="#007E8A" fill-rule="evenodd" d="M60.29 11.784l-19.2-2.526-0.8 6.842 19.502 1.158 0.498-5.474z" clip-rule="evenodd"/><path fill="#00CCBD" fill-rule="evenodd" d="M41.09 9.258l-5.6 4.298-1 6.995L23.19 18l-8.9 52.462 50.3 8.795 8.7-50.663-11.95-2.548 2.05-9.743-3.65-4.798-3.35 13.542-16.5-3.448 1.2-12.342z" clip-rule="evenodd"/><path fill="#fff" d="M54.479 64.33l6.173-5.21-3.348-8.283-3.962 1.584 2.226 5.44-2.313 1.94-3.907-0.688 0.665-3.773-6.917 4.844 4.844 6.918 0.67-3.807 5.869 1.035z"/><path fill="#fff" fill-rule="evenodd" d="M36.804 53.108l0.399-9.29-8.526 1.204 2.474 2.463-5.008 5.55 4.02 7.007 8.674 1.53 0.738-4.182-6.714-1.184-1.51-2.615 2.839-3.118 2.614 2.635z" clip-rule="evenodd"/><path fill="#fff" d="M54.554 41.584l-3.072-8.049-7.824-1.38-6.496 6.086 2.926 3.108 4.902-4.612 3.381 0.596 2.153 5.577-3.553 1.185 7.484 3.794 3.806-7.538-3.707 1.233z"/></svg>