<svg xmlns="http://www.w3.org/2000/svg" width="88" height="88" fill="none" viewBox="0 0 88 88"><circle r="38" fill="#440063" transform="matrix(-1 0 0 1 40.758 44)"/><path fill="#000" fill-opacity=".3" fill-rule="evenodd" d="M72.51 23.116L37.537 28.36c-1.738 0.26-2.479 1.269-2.22 3.024l1.685 11.47-1.488 0.111a3.342 3.342 0 0 0-1.465 0.447 3.53 3.53 0 0 0-1.164 1.047L19.993 62.627 8.75 63.97a37.942 37.942 0 0 0 1.406 2.56A38.185 38.185 0 0 0 22.47 77.319c8.581-1.168 14.358-5.177 17.331-12.026l9.012 1.2a3.329 3.329 0 0 0 2.615-0.708 3.501 3.501 0 0 0 1.369-2.376c0.133-0.986-0.1-1.87-0.697-2.654-0.598-0.792-1.382-1.256-2.353-1.39l-6.945-0.928 9.116 0.047c0.98 0 1.816-0.355 2.506-1.065a3.507 3.507 0 0 0 1.06-2.566 3.752 3.752 0 0 0-0.18-1.209l22.95-3.442A38.272 38.272 0 0 0 78.758 44a37.823 37.823 0 0 0-6.248-20.884zM36.955 51.11l1.261 0.006-0.155-1.056-0.38 0.028-0.726 1.022zM17.995 70.23l-1.767 0.209 1.969-0.012a5.988 5.988 0 0 1-0.202-0.197zm5.74-0.713l-0.185 0.257c5.057-1.237 8.465-4.126 10.226-8.665l-7.05 5.675a3.7 3.7 0 0 1-0.673 1.373c-0.59 0.778-1.363 1.232-2.319 1.36z" clip-rule="evenodd"/><path fill="#D87E50" fill-rule="evenodd" d="M18.167 74.559c9.858-0.733 16.403-4.822 19.634-12.267l9.012 1.2a3.328 3.328 0 0 0 2.615-0.707 3.502 3.502 0 0 0 1.369-2.377c0.133-0.986-0.1-1.87-0.697-2.654-0.598-0.792-1.382-1.256-2.353-1.39l-6.945-0.928 9.116 0.047c0.98 0 1.816-0.355 2.506-1.065a3.507 3.507 0 0 0 1.06-2.566c0.008-1.01-0.333-1.87-1.023-2.58-0.69-0.726-1.525-1.09-2.505-1.09l-15-0.072 0.724-1.022 13.836-1.034c0.985-0.077 1.799-0.493 2.442-1.25 0.642-0.758 0.926-1.635 0.851-2.63-0.067-1.005-0.471-1.835-1.215-2.49a3.375 3.375 0 0 0-2.592-0.868l-15.488 1.15a3.342 3.342 0 0 0-1.465 0.446 3.53 3.53 0 0 0-1.164 1.047L17.993 59.627 6.75 60.97A38.166 38.166 0 0 0 18.167 74.56zm-2.172-7.328l-1.767 0.209 1.969-0.012a5.895 5.895 0 0 1-0.202-0.197zm5.74-0.713l-0.185 0.257c5.057-1.237 8.465-4.126 10.226-8.665l-7.05 5.675a3.7 3.7 0 0 1-0.673 1.373c-0.59 0.778-1.363 1.232-2.319 1.36z" clip-rule="evenodd"/><path fill="#00CCBD" fill-rule="evenodd" d="M36.426 25.515c-1.737 0.271-2.466 1.284-2.186 3.036l3.568 22.018c0.123 0.78 0.392 1.36 0.808 1.741 0.515 0.473 1.196 0.65 2.16 0.498l38.45-6.012c1.737-0.272 2.465-1.284 2.186-3.036l-3.511-22.036c-0.28-1.753-1.288-2.493-3.025-2.221l-38.45 6.012z" clip-rule="evenodd"/><path fill="#fff" fill-rule="evenodd" d="M38.38 52.058c0.898 1.068 2.017 0.803 2.681 0.708a5533.89 5533.89 0 0 0 9.21-1.442l15.342-30.546-11.915 1.846L38.38 52.058z" clip-rule="evenodd" opacity=".2"/><path fill="#F9FAFA" d="M47.572 33.5a3.89 3.89 0 0 1 2.083 0.235 3.937 3.937 0 0 1 1.657 1.218 4.012 4.012 0 0 1 0.866 1.933 3.99 3.99 0 0 1-0.217 2.103 3.895 3.895 0 0 1-1.193 1.665 3.87 3.87 0 0 1-1.907 0.86 3.892 3.892 0 0 1-2.083-0.234 3.938 3.938 0 0 1-1.656-1.218 4.012 4.012 0 0 1-0.866-1.932 3.99 3.99 0 0 1 0.217-2.103 3.895 3.895 0 0 1 1.193-1.665 3.869 3.869 0 0 1 1.907-0.861zm-1.014 3.805l-0.698 0.987 1.898 1.386 2.688-3.752-0.972-0.714-1.988 2.775-0.928-0.682zM57.07 32.01a3.891 3.891 0 0 1 2.084 0.234 3.938 3.938 0 0 1 1.656 1.217 4.011 4.011 0 0 1 0.866 1.933 3.99 3.99 0 0 1-0.217 2.103 3.896 3.896 0 0 1-1.193 1.665 3.87 3.87 0 0 1-1.907 0.861 3.892 3.892 0 0 1-2.082-0.234 3.938 3.938 0 0 1-1.657-1.218 4.012 4.012 0 0 1-0.866-1.933 3.99 3.99 0 0 1 0.217-2.103 3.895 3.895 0 0 1 1.193-1.665 3.87 3.87 0 0 1 1.907-0.86zm-1.014 3.804L55.358 36.8l1.898 1.387 2.688-3.752-0.972-0.715-1.988 2.776-0.928-0.682zM66.57 30.518a3.89 3.89 0 0 1 2.082 0.234 3.936 3.936 0 0 1 1.656 1.218 4.012 4.012 0 0 1 0.866 1.933 3.99 3.99 0 0 1-0.217 2.103 3.895 3.895 0 0 1-1.193 1.665 3.869 3.869 0 0 1-1.906 0.86 3.89 3.89 0 0 1-2.083-0.234 3.937 3.937 0 0 1-1.657-1.217 4.011 4.011 0 0 1-0.865-1.933 3.99 3.99 0 0 1 0.217-2.103 3.896 3.896 0 0 1 1.193-1.665 3.87 3.87 0 0 1 1.906-0.861zm-1.015 3.804l-0.699 0.987 1.898 1.386 2.688-3.752-0.971-0.714-1.989 2.775-0.927-0.682z"/><path fill="#F9FAFA" d="M51.825 36.394l2.11-0.332 0.172 1.068-2.11 0.331-0.172-1.067zM61.323 34.902l2.11-0.331 0.172 1.068-2.11 0.331-0.172-1.068z"/><path fill="#F9FAFA" d="M47.572 33.5a3.89 3.89 0 0 1 2.083 0.235 3.937 3.937 0 0 1 1.657 1.218 4.012 4.012 0 0 1 0.866 1.933 3.99 3.99 0 0 1-0.217 2.103 3.895 3.895 0 0 1-1.193 1.665 3.87 3.87 0 0 1-1.907 0.86 3.892 3.892 0 0 1-2.083-0.234 3.938 3.938 0 0 1-1.656-1.218 4.012 4.012 0 0 1-0.866-1.932 3.99 3.99 0 0 1 0.217-2.103 3.895 3.895 0 0 1 1.193-1.665 3.869 3.869 0 0 1 1.907-0.861zm-1.014 3.805l-0.698 0.987 1.898 1.386 2.688-3.752-0.972-0.714-1.988 2.775-0.928-0.682zM57.07 32.01a3.891 3.891 0 0 1 2.084 0.234 3.938 3.938 0 0 1 1.656 1.217 4.011 4.011 0 0 1 0.866 1.933 3.99 3.99 0 0 1-0.217 2.103 3.896 3.896 0 0 1-1.193 1.665 3.87 3.87 0 0 1-1.907 0.861 3.892 3.892 0 0 1-2.082-0.234 3.938 3.938 0 0 1-1.657-1.218 4.012 4.012 0 0 1-0.866-1.933 3.99 3.99 0 0 1 0.217-2.103 3.895 3.895 0 0 1 1.193-1.665 3.87 3.87 0 0 1 1.907-0.86zm-1.014 3.804L55.358 36.8l1.898 1.387 2.688-3.752-0.972-0.715-1.988 2.776-0.928-0.682zM66.57 30.518a3.89 3.89 0 0 1 2.082 0.234 3.936 3.936 0 0 1 1.656 1.218 4.012 4.012 0 0 1 0.866 1.933 3.99 3.99 0 0 1-0.217 2.103 3.895 3.895 0 0 1-1.193 1.665 3.869 3.869 0 0 1-1.906 0.86 3.89 3.89 0 0 1-2.083-0.234 3.937 3.937 0 0 1-1.657-1.217 4.011 4.011 0 0 1-0.865-1.933 3.99 3.99 0 0 1 0.217-2.103 3.896 3.896 0 0 1 1.193-1.665 3.87 3.87 0 0 1 1.906-0.861zm-1.015 3.804l-0.699 0.987 1.898 1.386 2.688-3.752-0.971-0.714-1.989 2.775-0.927-0.682z"/><path fill="#F9FAFA" d="M51.825 36.394l2.11-0.332 0.172 1.068-2.11 0.331-0.172-1.067zM61.323 34.902l2.11-0.331 0.172 1.068-2.11 0.331-0.172-1.068z"/><path fill="#F9FAFA" d="M47.572 33.5a3.89 3.89 0 0 1 2.083 0.235 3.937 3.937 0 0 1 1.657 1.218 4.012 4.012 0 0 1 0.866 1.933 3.99 3.99 0 0 1-0.217 2.103 3.895 3.895 0 0 1-1.193 1.665 3.87 3.87 0 0 1-1.907 0.86 3.892 3.892 0 0 1-2.083-0.234 3.938 3.938 0 0 1-1.656-1.218 4.012 4.012 0 0 1-0.866-1.932 3.99 3.99 0 0 1 0.217-2.103 3.895 3.895 0 0 1 1.193-1.665 3.869 3.869 0 0 1 1.907-0.861zm-1.014 3.805l-0.698 0.987 1.898 1.386 2.688-3.752-0.972-0.714-1.988 2.775-0.928-0.682zM57.07 32.01a3.891 3.891 0 0 1 2.084 0.234 3.938 3.938 0 0 1 1.656 1.217 4.011 4.011 0 0 1 0.866 1.933 3.99 3.99 0 0 1-0.217 2.103 3.896 3.896 0 0 1-1.193 1.665 3.87 3.87 0 0 1-1.907 0.861 3.892 3.892 0 0 1-2.082-0.234 3.938 3.938 0 0 1-1.657-1.218 4.012 4.012 0 0 1-0.866-1.933 3.99 3.99 0 0 1 0.217-2.103 3.895 3.895 0 0 1 1.193-1.665 3.87 3.87 0 0 1 1.907-0.86zm-1.014 3.804L55.358 36.8l1.898 1.387 2.688-3.752-0.972-0.715-1.988 2.776-0.928-0.682zM66.57 30.518a3.89 3.89 0 0 1 2.082 0.234 3.936 3.936 0 0 1 1.656 1.218 4.012 4.012 0 0 1 0.866 1.933 3.99 3.99 0 0 1-0.217 2.103 3.895 3.895 0 0 1-1.193 1.665 3.869 3.869 0 0 1-1.906 0.86 3.89 3.89 0 0 1-2.083-0.234 3.937 3.937 0 0 1-1.657-1.217 4.011 4.011 0 0 1-0.865-1.933 3.99 3.99 0 0 1 0.217-2.103 3.896 3.896 0 0 1 1.193-1.665 3.87 3.87 0 0 1 1.906-0.861zm-1.015 3.804l-0.699 0.987 1.898 1.386 2.688-3.752-0.971-0.714-1.989 2.775-0.927-0.682z"/><path fill="#F9FAFA" d="M51.825 36.394l2.11-0.332 0.172 1.068-2.11 0.331-0.172-1.067zM61.323 34.902l2.11-0.331 0.172 1.068-2.11 0.331-0.172-1.068z"/><path fill="#fff" fill-rule="evenodd" d="M53.656 19.047l3.14 1.876 3.142-1.876-1.876 3.156 1.876 3.127-3.141-1.876-3.141 1.89 1.875-3.155-1.875-3.142zM66.034 45.408l3.006 1.816 3.037-1.816-1.816 3.037 1.816 3.005-3.021-1.8-3.022 1.816 1.8-3.037-1.8-3.021z" clip-rule="evenodd"/><path fill="#F96" d="M14.383 71.356h5.739a7.883 7.883 0 0 0 0.462-0.038c8.134-0.83 13.401-6.848 15.801-18.055l6.35-7.878a3.527 3.527 0 0 0 0.788-2.656c-0.1-0.99-0.53-1.8-1.288-2.426-0.758-0.644-1.625-0.915-2.6-0.814-0.975 0.102-1.775 0.538-2.4 1.309l-6.85 8.5-3.29 3.57 5.911-12.331 11.72-2.62a3.43 3.43 0 0 0 2.236-1.586c0.525-0.84 0.68-1.738 0.463-2.696a3.407 3.407 0 0 0-1.562-2.241 3.378 3.378 0 0 0-2.674-0.466l-13.407 2.997a3.526 3.526 0 0 0-1.437 0.693 3.43 3.43 0 0 0-0.987 1.247L19.786 51.67 8.191 58.294H5.538a38.062 38.062 0 0 0 8.845 13.063z"/><path fill="#FF5863" d="M4.11 54.084a37.883 37.883 0 0 0 6.963 13.642V54.084H4.11z"/></svg>