<svg xmlns="http://www.w3.org/2000/svg" width="88" height="88" fill="none" viewBox="0 0 88 88"><rect width="71" height="71" x="8.5" y="8.5" fill="#7D0057" stroke="#9C006D" stroke-width="5" rx="35.5"/><path fill="#fff" fill-rule="evenodd" d="M74.486 13.917l-5.743 3.43L63 13.917l3.43 5.77L63 25.406l5.743-3.43 5.743 3.457-3.43-5.771 3.43-5.744zM25.55 66.167l-4.998 3.02-5.052-3.02 3.02 5.05-3.02 4.999 5.025-2.994 5.025 3.02-2.993-5.05 2.993-5.025z" clip-rule="evenodd"/><path fill="#fff" d="M44 29.222c2.18 0 4.191 0.544 6.035 1.63 1.82 1.04 3.258 2.446 4.311 4.218a11.657 11.657 0 0 1 1.617 5.989c0 1.464-0.263 2.87-0.79 4.217a11.31 11.31 0 0 1-2.192 3.58v9.922l-8.98-4.43-8.982 4.43v-9.923a11.866 11.866 0 0 1-2.227-3.58 11.956 11.956 0 0 1-0.755-4.216c0-2.15 0.539-4.147 1.617-5.99 1.053-1.771 2.49-3.177 4.31-4.217 1.845-1.086 3.857-1.63 6.036-1.63zm8.981 11.837a8.4 8.4 0 0 0-1.221-4.43 8.515 8.515 0 0 0-3.27-3.225c-1.364-0.803-2.861-1.205-4.49-1.205a8.886 8.886 0 0 0-4.526 1.205 8.858 8.858 0 0 0-3.27 3.225c-0.79 1.346-1.185 2.823-1.185 4.43a8.717 8.717 0 0 0 1.185 4.43 9.23 9.23 0 0 0 3.27 3.224A8.886 8.886 0 0 0 44 49.918c1.629 0 3.126-0.401 4.49-1.205 1.39-0.803 2.48-1.878 3.27-3.225a8.521 8.521 0 0 0 1.221-4.43zM39.653 46.94l1.222-4.288-3.162-3.083h4.347L44 34.538l1.94 5.032h4.347l-3.126 3.083 1.186 4.288L44 44.425l-4.347 2.516z"/></svg>