<svg xmlns="http://www.w3.org/2000/svg" width="88" height="88" fill="none" viewBox="0 0 88 88"><path fill="#00CCBE" fill-rule="evenodd" d="M82 43.975c0-10.462-3.708-19.416-11.123-26.86a74.92 74.92 0 0 0-2.97-2.715C61.096 8.8 53.126 6 44 6c-5.838 0-11.207 1.156-16.106 3.47-3.926 1.845-7.516 4.393-10.77 7.646C9.707 24.559 6 33.513 6 43.975 6 54.303 9.574 63.12 16.72 70.43a2.225 2.225 0 0 0 0.403 0.402C24.54 78.278 33.497 82 44 82c4.195 0 8.154-0.605 11.878-1.81 5.537-1.78 10.537-4.897 14.999-9.357C78.292 63.456 82 54.504 82 43.975" clip-rule="evenodd"/><path fill="#FB5058" fill-rule="evenodd" d="M4.05 63.254L4 62.756V41l20.602 2.987-5.578 4.93C27.834 60.697 46.492 68.647 75 72.763c-21.004 5.575-42.811 0.73-65.423-14.538l-5.527 5.03z" clip-rule="evenodd"/><path fill="#9C006D" fill-rule="evenodd" d="M43.837 34.539c0.29-0.469 0.693-0.722 1.209-0.758l5.268-0.92c0.484-0.035 0.935 0.109 1.354 0.435 0.418 0.323 0.676 0.774 0.773 1.352a2.528 2.528 0 0 1-0.387 1.513c-0.322 0.47-0.708 0.74-1.16 0.812l-5.316 0.865c-0.516 0.073-0.984-0.072-1.402-0.432a1.854 1.854 0 0 1-0.725-1.299 2.629 2.629 0 0 1 0.386-1.568" clip-rule="evenodd"/><path fill="#450064" fill-rule="evenodd" d="M71.446 50.177l-1.982 2.536-20.018 0.143 4.261-10 17.739 7.321zM65.573 61.414c-0.613-0.47-1.306-0.643-2.08-0.518-0.87 0.094-1.612 0.487-2.225 1.178-0.548 0.722-0.822 1.507-0.822 2.355 0.032 0.785 0.322 1.413 0.87 1.884 0.613 0.44 1.306 0.613 2.08 0.518 0.87-0.125 1.613-0.533 2.225-1.225 0.58-0.69 0.855-1.46 0.822-2.308 0-0.816-0.306-1.444-0.919-1.884h0.049zm-8.126 3.568c-0.032-1.443 0.438-2.773 1.41-3.991 1.039-1.187 2.287-1.877 3.746-2.07 1.557-0.223 2.903 0.129 4.037 1.059 1.136 0.93 1.735 2.164 1.8 3.703 0.065 1.476-0.421 2.806-1.46 3.992-1.004 1.219-2.253 1.924-3.745 2.116-1.524 0.224-2.853-0.128-3.988-1.058-1.167-0.962-1.767-2.211-1.8-3.751z" clip-rule="evenodd"/><path fill="#017C88" fill-rule="evenodd" d="M64.446 64.656l-2.195 2.2-13.805-7.111 12.195-3.889 3.805 8.8z" clip-rule="evenodd"/><path fill="#450064" fill-rule="evenodd" d="M26.189 53.714c0.514 0.69 1.183 1.07 2.006 1.14 0.788 0.034 1.49-0.225 2.108-0.777a4.166 4.166 0 0 0 1.131-2.485c0.07-1-0.17-1.862-0.72-2.587v-0.052c-0.548-0.655-1.216-1.017-2.005-1.085-0.788-0.07-1.492 0.188-2.109 0.776-0.686 0.654-1.062 1.482-1.131 2.483-0.103 0.966 0.138 1.828 0.72 2.587zm-0.851-7.372c1.211-1.11 2.573-1.598 4.087-1.464 1.548 0.101 2.81 0.825 3.785 2.171V47c0.941 1.212 1.345 2.642 1.21 4.291-0.134 1.616-0.773 2.962-1.917 4.04-1.144 1.11-2.472 1.615-3.986 1.514-1.547-0.135-2.826-0.841-3.835-2.12-0.942-1.246-1.345-2.693-1.211-4.343 0.134-1.615 0.757-2.961 1.867-4.039z" clip-rule="evenodd"/><path fill="#017C88" fill-rule="evenodd" d="M38.938 41.856l1.508 1.87-11.492 9.13-1.508-1.867 11.492-9.133z" clip-rule="evenodd"/><path fill="#fff" fill-rule="evenodd" d="M62.446 50.482l9.297-0.626 0.703 3.808-1 0.192-9-3.374z" clip-rule="evenodd"/><path fill="#450064" fill-rule="evenodd" d="M34.446 41.126l11-3.27-6.841 14.897-0.055 0.103-0.164-0.052-3.94-11.678z" clip-rule="evenodd"/><path fill="#FABE00" fill-rule="evenodd" d="M44.99 38.706l-9.978 3.15 3.574 11.25 0.15 0.05 0.049-0.099 24.173-2.65 8.488 3.5-24.57 6.95-10.573-4.35-5.857-17.35 17.72-7.3-3.177 6.85z" clip-rule="evenodd"/><path fill="#450064" fill-rule="evenodd" d="M44.949 29.856l3.497 1.204-1.677 3.796-6.323-2.5 4.503-2.5z" clip-rule="evenodd"/><path fill="#017C88" fill-rule="evenodd" d="M46.433 51.856l3.013 1.304-1.507 3.696-6.493-2.5c0.277-1.34 1.247-2.066 2.909-2.174l2.078-0.326z" clip-rule="evenodd"/><path fill="#440063" fill-rule="evenodd" d="M65.392 27.386l0.054 2.47-6.573-0.058-0.427-2.942 6.946 0.53z" clip-rule="evenodd"/><path fill="#9C006D" fill-rule="evenodd" d="M61.407 43.992c-0.065 0.814-0.41 1.474-1.033 1.982-0.656 0.509-1.376 0.712-2.163 0.612l-5.654-0.663-2.703 7.933-5.408-2.034 3.392-9.967a3.009 3.009 0 0 1 1.18-1.525c0.557-0.373 1.146-0.525 1.77-0.458l4.67 0.357h0.098l3.393 0.458a2.613 2.613 0 0 1 1.868 1.118c0.525 0.61 0.72 1.339 0.59 2.187" clip-rule="evenodd"/><path fill="#017C88" fill-rule="evenodd" d="M63.446 46.26l-0.198 0.596-8.802-3.816 3.115-7.184 5.885 10.405zm5-16.292L68.34 30.19 57.8 33.856l0.21-0.444-3.565-4.556 14 1.112z" clip-rule="evenodd"/><path fill="#91A7A7" fill-rule="evenodd" d="M68.446 29.856l-5.208 17-5.792-10.72 1.217-2.91 9.783-3.37z" clip-rule="evenodd"/><path fill="#90A6A6" fill-rule="evenodd" d="M65.482 30.856l0.964 4.755L48.8 37.856l-0.355-5.066 17.036-1.934z" clip-rule="evenodd"/><path fill="#017C88" fill-rule="evenodd" d="M79.05 47.856l-14.604-4.454 5.05-15.546 14.95 4-5.396 16z" clip-rule="evenodd"/><path fill="#440063" fill-rule="evenodd" d="M65.446 19.856l-2.8 6-7.2-1 2-4.5 8-0.5z" clip-rule="evenodd"/><path fill="#FB5058" fill-rule="evenodd" d="M65.503 17.358c1.618 0.67 2.763 1.791 3.437 3.367 0.674 1.606 0.674 3.23 0 4.871a5.79 5.79 0 0 1-1.617 2.26l-11.473-0.3-0.404-2.713 0.05-0.05 6.368 0.151 2.477-4.018-7.076-0.353c0.708-1.507 1.837-2.578 3.386-3.215 1.584-0.669 3.202-0.669 4.852 0" clip-rule="evenodd"/></svg>