<svg xmlns="http://www.w3.org/2000/svg" width="88" height="88" fill="none" viewBox="0 0 88 88"><path fill="#017C88" fill-rule="evenodd" d="M69.272 75.248C62.102 81.083 53.677 84 44 84c-4.415 0-8.583-0.618-12.503-1.853-4.628-1.442-8.884-3.741-12.769-6.9h50.544z" clip-rule="evenodd"/><path fill="#EAEAEA" fill-rule="evenodd" d="M44 6.21c6.146 0 11.797 1.184 16.954 3.552 4.132 1.888 7.912 4.496 11.337 7.826C80.096 25.207 84 34.37 84 45.079c0 10.572-3.762 19.598-11.285 27.08a2.353 2.353 0 0 1-0.424 0.412 43.195 43.195 0 0 1-3.02 2.677H18.729a43.195 43.195 0 0 1-3.02-2.677C7.905 65.021 4 55.857 4 45.079c0-10.708 3.904-19.872 11.709-27.491a78.832 78.832 0 0 1 3.125-2.78C26.004 9.075 34.394 6.21 44 6.21" clip-rule="evenodd"/><path fill="#fff" fill-rule="evenodd" d="M56.694 68.55a8.895 8.895 0 0 1 3.194 0.577c0.614-1.712 1.607-3.233 2.978-4.561C65.321 62.188 68.28 61 71.746 61c2.562 0 4.98 0.769 7.254 2.307-2.455 4.51-5.756 8.39-9.908 11.64L28.054 75A5.444 5.444 0 0 1 28 74.213c0-1.258 0.47-2.341 1.408-3.25 0.903-0.91 2.021-1.364 3.356-1.364 1.083 0 2.003 0.297 2.761 0.892a8.41 8.41 0 0 1 1.733-2.203c1.66-1.643 3.681-2.464 6.064-2.464 2.382 0 4.42 0.821 6.117 2.464a8.966 8.966 0 0 1 1.679 2.203c1.588-1.293 3.447-1.94 5.576-1.94" clip-rule="evenodd"/><path fill="#00CBBD" d="M28 63.014C28 58.5 22.074 52.82 15.844 52.82c-3.082 0-5.893 1.093-8.021 2.89v-8.444c0-5.02 7.912-12.79 10.947-15.77a94.69 94.69 0 0 0 0.72-0.71 98.946 98.946 0 0 0 0.703-0.718c3.03-3.112 11.342-11.648 19.349-14.664 4.664-1.757 22.968-2.34 28.802 1.099C74.177 19.942 76 38.11 76 42.139v13.893c-2.167-1.988-5.125-3.212-8.385-3.212-6.23 0-10.386 4.68-11.386 10.194H28z"/><path fill="#440063" d="M37.07 36.206c6.738-0.733 15.138-2.004 20.782-4.029 5.644-2.024 4.01-9.888 2.013-11.719-1.998-1.83-6.388-1.83-11.128-1.83s-14.218 1.098-20.416 9.887c-4.959 7.032 2.012 8.423 8.75 7.69z"/><path fill="#fff" d="M39.129 35.97c3.731-0.446 7.807-1.052 11.566-1.847l-13.161-13.22a22.178 22.178 0 0 0-7.722 5.71l9.317 9.358z"/><path fill="#440063" fill-rule="evenodd" d="M20.193 61.864c-0.923-1.368-2.07-2.23-3.438-2.583-1.35-0.305-2.555-0.04-3.62 0.798-1.158 0.935-1.814 2.264-1.966 3.987-0.132 1.77 0.31 3.42 1.326 4.948 0.889 1.35 2.052 2.222 3.49 2.61l-0.051-0.027c1.314 0.288 2.488 0.041 3.521-0.739 1.224-0.975 1.887-2.318 1.99-4.03 0.166-1.752-0.25-3.405-1.252-4.964zm-9.88-4.652c2.016-1.551 4.316-1.996 6.9-1.334 2.545 0.568 4.639 2.076 6.282 4.523 1.496 2.222 2.142 4.623 1.939 7.202-0.22 2.608-1.255 4.619-3.11 6.033-1.983 1.57-4.272 2.037-6.872 1.404-2.564-0.614-4.65-2.137-6.259-4.566-1.53-2.24-2.193-4.65-1.99-7.23 0.253-2.589 1.29-4.6 3.11-6.032zM68.785 59.13c-1.422-0.058-2.636 0.438-3.64 1.486-1.136 1.145-1.743 2.55-1.818 4.213l0.01 0.05c-0.07 1.696 0.451 3.2 1.56 4.514C65.9 70.553 67.1 71.2 68.5 71.331c1.422 0.057 2.635-0.439 3.64-1.487 1.135-1.146 1.741-2.549 1.818-4.212 0.099-1.739-0.406-3.263-1.516-4.576-1.002-1.16-2.221-1.802-3.657-1.927zm0.345-3.594c2.546 0.14 4.678 1.243 6.401 3.306 1.65 1.902 2.42 4.16 2.313 6.777-0.095 2.682-1.049 4.894-2.863 6.635-1.925 1.94-4.183 2.825-6.772 2.659-2.545-0.14-4.697-1.239-6.455-3.294l0.01 0.05c-1.658-1.936-2.414-4.216-2.269-6.839 0.102-2.649 1.056-4.861 2.864-6.635 1.889-1.932 4.145-2.819 6.771-2.659z" clip-rule="evenodd"/><path fill="#fff" fill-rule="evenodd" d="M8.47 43.445l9.103-0.914-9.75 7.42v-3.685c0-0.871 0.238-1.824 0.647-2.821z" clip-rule="evenodd"/></svg>