<svg xmlns="http://www.w3.org/2000/svg" width="88" height="88" fill="none" viewBox="0 0 88 88"><path fill="#EAEAEA" fill-rule="evenodd" d="M69.023 17.116C76.341 24.56 80 33.513 80 43.975c0 10.328-3.526 19.146-10.58 26.456a2.186 2.186 0 0 1-0.397 0.403C61.706 78.278 52.863 82 42.501 82c-4.14 0-8.048-0.604-11.723-1.81-5.464-1.777-10.398-4.897-14.801-9.356C8.657 63.457 5 54.504 5 43.974 5 33.514 8.658 24.56 15.977 17.117a74.335 74.335 0 0 1 2.93-2.716C25.63 8.8 33.492 6 42.502 6c5.761 0 11.059 1.158 15.894 3.47 3.873 1.845 7.417 4.394 10.628 7.646" clip-rule="evenodd"/><path fill="#450064" fill-rule="evenodd" d="M67 47.557l-0.732 4.857L40.708 64 39 47l28 0.557zM66.348 68.182c-1.11-0.34-2.167-0.204-3.172 0.409-1.074 0.647-1.766 1.617-2.079 2.912-0.24 1.362-0.034 2.674 0.625 3.935 0.693 1.191 1.662 1.974 2.91 2.349H64.58c1.178 0.375 2.269 0.255 3.274-0.358 1.04-0.68 1.716-1.668 2.027-2.963 0.277-1.362 0.07-2.656-0.623-3.882-0.693-1.227-1.664-2.027-2.91-2.402zm-7.165 8.445c-1.114-2.013-1.441-4.125-0.982-6.334v-0.05c0.556-2.273 1.752-3.978 3.585-5.116 1.933-1.17 3.98-1.429 6.141-0.778 2.13 0.615 3.766 1.964 4.913 4.043 1.114 2.014 1.426 4.125 0.934 6.335v-0.049c-0.49 2.307-1.687 4.046-3.587 5.214-1.898 1.17-3.946 1.413-6.14 0.731-2.097-0.617-3.718-1.95-4.864-3.996z" clip-rule="evenodd"/><path fill="#017C88" fill-rule="evenodd" d="M69 70.81L67.49 75 44 73.416 57.883 61 69 70.81z" clip-rule="evenodd"/><path fill="#450064" fill-rule="evenodd" d="M8.229 70.244c-0.375 1.225-0.29 2.517 0.256 3.877 0.58 1.462 1.534 2.55 2.864 3.265h-0.051c1.193 0.647 2.335 0.782 3.427 0.408 0.989-0.305 1.67-0.986 2.046-2.04 0.375-1.258 0.29-2.551-0.256-3.876-0.58-1.463-1.534-2.55-2.865-3.266H13.6c-1.126-0.612-2.217-0.765-3.274-0.459-1.023 0.34-1.722 1.038-2.097 2.091zm-2.8-1.587h0.048c0.745-2.206 2.154-3.632 4.227-4.28 2.009-0.682 4.065-0.439 6.17 0.73h-0.047c2.007 1.069 3.465 2.69 4.372 4.864 0.939 2.205 1.053 4.329 0.34 6.372-0.778 2.173-2.219 3.6-4.325 4.28-1.975 0.682-4.016 0.438-6.121-0.729h-0.049c-1.943-1.07-3.352-2.692-4.227-4.865-0.94-2.205-1.069-4.328-0.388-6.372z" clip-rule="evenodd"/><path fill="#017C88" fill-rule="evenodd" d="M19.69 55L23 56.704 14.259 75 11 73.296 19.69 55z" clip-rule="evenodd"/><path fill="#450064" fill-rule="evenodd" d="M13 57.198L25.039 47l1.906 22.816L27 71h-0.272L13 57.198z" clip-rule="evenodd"/><path fill="#FB5058" d="M24.812 47.053L24.115 36 6 55.776 25.708 76h16.87L70 52.952H56.513l-29.86 17-0.298 0.198-12.542-13.282 10.999-9.815z"/><path fill="#fff" fill-rule="evenodd" d="M67.39 47L71 52.31 70.219 53H57l10.39-6z" clip-rule="evenodd"/><path fill="#450064" fill-rule="evenodd" d="M24.323 35L25 42H14l4.432-6.629L24.323 35z" clip-rule="evenodd"/><path fill="#017C88" fill-rule="evenodd" d="M36.834 64h4.664L42 69.638 32.17 70c-0.537-1.93 0.2-3.414 2.206-4.448L36.834 64z" clip-rule="evenodd"/><path fill="#440063" fill-rule="evenodd" d="M37.223 25L35 22l8.55-3 1.95 3.5-8.277 2.5z" clip-rule="evenodd"/><path fill="#00CCBE" fill-rule="evenodd" d="M45.027 42.153c1.14-0.295 2.263-0.163 3.37 0.394 1.105 0.591 1.86 1.445 2.263 2.56 0.47 1.15 0.453 2.216-0.05 3.201-0.503 1.05-1.308 1.723-2.415 2.02l-8.048 2.362 1.811 11.917-8.6 0.393-2.313-15.164c-0.134-0.985 0.033-1.856 0.503-2.611a3.382 3.382 0 0 1 2.06-1.625l6.44-2.068a0.386 0.386 0 0 1 0.15-0.048l4.83-1.33z" clip-rule="evenodd"/><path fill="#017C88" fill-rule="evenodd" d="M53.902 47.071L54 48l-14.109-0.273L39 35l14.902 12.071zm-16.72-17.22L31 27.083 49.5 21l0.5 0.5-12 9-0.819-0.648z" clip-rule="evenodd"/><path fill="#91A7A7" fill-rule="evenodd" d="M39.227 35.821L38 29.801 49.484 21 54 47 39.227 35.821z" clip-rule="evenodd"/><path fill="#440063" fill-rule="evenodd" d="M37.575 17.35L28.5 20.5 28 13.703h0.053L38 10l-0.425 7.35z" clip-rule="evenodd"/><path fill="#90A6A6" fill-rule="evenodd" d="M45 33.427L24.642 45 24 37.843 45 25v8.427z" clip-rule="evenodd"/><path fill="#00CCBE" fill-rule="evenodd" d="M71.208 15L75 39.733 52.89 42 49 18.022 71.208 15zM30.126 7.672C31.792 5.89 33.917 5 36.5 5c2.618 0 4.948 0.89 6.988 2.672 2.04 1.781 3.196 3.941 3.468 6.482 0.136 1.451-0.05 2.77-0.56 3.958L31.043 24l-2.397-3.365-0.051-0.148 8.568-3.315 0.408-6.68-9.537 3.365c-0.204-2.409 0.493-4.47 2.09-6.185" clip-rule="evenodd"/><path fill="#000" fill-opacity=".2" fill-rule="evenodd" d="M77 25.025c0 4.432-1.555 8.203-4.664 11.31C69.194 39.445 65.423 41 61.024 41c-4.398 0-8.168-1.555-11.31-4.665C46.57 33.228 45 29.457 45 25.025c0-4.433 1.57-8.203 4.713-11.312C52.856 10.571 56.626 9 61.023 9c4.4 0 8.171 1.57 11.313 4.713C75.446 16.822 77 20.593 77 25.025" clip-rule="evenodd"/><path fill="#fff" fill-rule="evenodd" d="M66.024 4c4.4 0 8.154 1.57 11.263 4.713C80.429 11.822 82 15.593 82 20.025c0 4.432-1.57 8.203-4.713 11.311C74.177 34.446 70.424 36 66.024 36c-4.432 0-8.219-1.554-11.361-4.664C51.553 28.228 50 24.457 50 20.025s1.554-8.203 4.663-11.312C57.805 5.571 61.592 4 66.024 4" clip-rule="evenodd"/><path fill="#FB5058" fill-rule="evenodd" d="M70.45 9L76 14.951 59.75 32 54 25.998 70.45 9z" clip-rule="evenodd"/><path fill="#FB5058" fill-rule="evenodd" d="M76 25.688L69.886 31 54 14.361 60.114 9 76 25.688z" clip-rule="evenodd"/></svg>