<svg xmlns="http://www.w3.org/2000/svg" width="88" height="88" fill="none" viewBox="0 0 88 88"><path fill="#02C9BA" d="M6 43.974c0-10.493 3.712-19.436 11.136-26.83C24.525 9.714 33.48 6 44 6c10.485 0 19.44 3.715 26.864 11.144C78.288 24.538 82 33.48 82 43.974c0 10.527-3.712 19.488-11.136 26.882C63.44 78.286 54.485 82 44 82c-10.52 0-19.475-3.715-26.864-11.144C9.712 63.462 6 54.501 6 43.974z"/><path fill="#450063" d="M54.54 54.661c-3.094 3.107-4.64 6.854-4.637 11.242-0.003 4.387 1.543 8.117 4.638 11.189 3.067 3.099 6.791 4.647 11.173 4.644 4.419 0 8.178-1.547 11.279-4.644 3.06-3.072 4.588-6.802 4.585-11.19 0.003-4.387-1.525-8.134-4.585-11.241-3.1-3.062-6.86-4.593-11.279-4.592-4.382-0.003-8.106 1.528-11.173 4.592zm19.449 3.008c2.246 2.277 3.37 5.021 3.373 8.234-0.003 3.212-1.127 5.939-3.373 8.18-2.276 2.286-5.034 3.43-8.275 3.43-3.208-0.002-5.93-1.146-8.17-3.43-2.28-2.241-3.422-4.968-3.425-8.18 0.003-3.213 1.145-5.957 3.426-8.234 2.238-2.249 4.961-3.375 8.169-3.377 3.241 0 6 1.126 8.275 3.377z"/><path fill="#fff" d="M51.01 47.008a1.966 1.966 0 0 1-0.317-1.583 2.142 2.142 0 0 1 0.896-1.372 2.074 2.074 0 0 1 1.581-0.264 2.15 2.15 0 0 1 1.37 0.897l13.704 20.53a2.167 2.167 0 0 1 0.316 1.426 2.226 2.226 0 0 1-0.685 1.319 2.163 2.163 0 0 1-1.423 0.528H43.63a1.921 1.921 0 0 1-1.476-0.633 1.926 1.926 0 0 1-0.632-1.478c-0.004-0.587 0.207-1.097 0.632-1.53 0.398-0.392 0.89-0.585 1.476-0.581h18.868l-11.49-17.259z"/><path fill="#450063" d="M10.796 54.661c-3.095 3.107-4.64 6.854-4.638 11.242-0.003 4.387 1.543 8.117 4.638 11.189 3.067 3.099 6.792 4.647 11.173 4.644 4.42 0 8.179-1.547 11.28-4.644 3.059-3.072 4.587-6.802 4.584-11.19 0.003-4.387-1.525-8.134-4.585-11.241-3.1-3.062-6.86-4.593-11.279-4.592-4.381-0.003-8.106 1.528-11.173 4.592zm19.448 3.008c2.246 2.277 3.37 5.021 3.373 8.234-0.003 3.212-1.127 5.939-3.373 8.18-2.275 2.286-5.034 3.43-8.275 3.43-3.207-0.002-5.93-1.146-8.169-3.43-2.28-2.241-3.423-4.968-3.426-8.18 0.003-3.213 1.145-5.957 3.426-8.234 2.239-2.249 4.962-3.375 8.17-3.377 3.24 0 5.999 1.126 8.274 3.377z"/><path fill="#007E8A" d="M41.734 68.12l6.272-1.32 1.212 4.539-11.332 2.744c-0.948-2.78 0.334-4.767 3.848-5.963z"/><path fill="#F96" d="M33.828 20.62c-1.09-1.127-1.634-2.499-1.634-4.117 0-1.548 0.545-2.903 1.634-4.064 1.16-1.09 2.512-1.636 4.058-1.636 1.616 0 2.987 0.545 4.111 1.636 1.09 1.161 1.634 2.516 1.634 4.064 0 1.618-0.545 2.99-1.634 4.116-1.124 1.091-2.495 1.637-4.11 1.637-1.547 0-2.9-0.546-4.06-1.637z"/><path fill="#017D88" d="M46.688 44.792L40.1 25.264l0.053 0.475-7.537-3.167L48.69 14.34v6.228l14.23 16.941-16.233 7.284z"/><path fill="#fff" d="M28.188 42.258l-2.055-0.633a1.984 1.984 0 0 1-1.265-1.003 2.02 2.02 0 0 1-0.158-1.636c0.152-0.534 0.485-0.939 1.001-1.214a2.06 2.06 0 0 1 1.581-0.211l4.27 1.32a2.666 2.666 0 0 1 1 0.633 2.657 2.657 0 0 1 0.528 1.055 2.275 2.275 0 0 1-0.106 1.109l-9.276 23.855c-0.235 0.559-0.621 0.946-1.159 1.161-0.533 0.25-1.06 0.268-1.581 0.053-0.557-0.209-0.944-0.578-1.16-1.108a1.947 1.947 0 0 1-0.052-1.636l8.432-21.745z"/><path fill="#450063" d="M36.252 50.914a0.18 0.18 0 0 1 0-0.106c-0.197-0.797-0.127-1.607 0.211-2.428 0.42-1.062 1.175-1.836 2.266-2.322l16.655-7.178c1.05-0.446 2.122-0.464 3.215-0.052 1.063 0.454 1.836 1.21 2.319 2.27 0.447 1.086 0.465 2.159 0.053 3.219-0.455 1.097-1.21 1.872-2.267 2.322l-13.492 5.805 3.057 14.514-8.275 1.69-3.742-17.734z"/><path fill="#F96" d="M26.396 39.567l0.317 1.108a2.04 2.04 0 0 1-0.106 1.583c-0.279 0.522-0.683 0.874-1.212 1.056a2.013 2.013 0 0 1-1.634-0.158 1.98 1.98 0 0 1-1.054-1.214l-0.896-2.956c-0.171-0.511-0.136-1.021 0.106-1.53 0.215-0.485 0.584-0.837 1.106-1.056l15.917-6.808a1.946 1.946 0 0 1 1.581 0 2.072 2.072 0 0 1 1.16 1.108 2.077 2.077 0 0 1 0 1.636 2.085 2.085 0 0 1-1.107 1.161l-14.177 6.07z"/><path fill="#007E8A" d="M29.664 38.828a2.904 2.904 0 0 1-2.424 0 2.882 2.882 0 0 1-1.687-1.689 2.914 2.914 0 0 1 0-2.428 3.076 3.076 0 0 1 1.687-1.741l19.606-8.181a3.197 3.197 0 0 1 2.424 0 3.274 3.274 0 0 1 1.74 1.742 3.21 3.21 0 0 1 0 2.428c-0.356 0.808-0.936 1.37-1.74 1.688l-19.606 8.18z"/><path fill="#450063" d="M48.585 20.461L67.348 6 82 24.789 63.237 39.356 48.585 20.46zM36.147 6.105h2.951c1.651 0 3.022 0.581 4.111 1.742 1.195 1.126 1.792 2.516 1.792 4.17v2.375H30.296v-2.375c0-1.654 0.563-3.044 1.687-4.17 1.124-1.161 2.512-1.742 4.164-1.742z"/></svg>