<svg xmlns="http://www.w3.org/2000/svg" width="88" height="88" fill="none" viewBox="0 0 88 88"><path fill="#017C88" fill-rule="evenodd" d="M69.271 75.23C62.101 81.077 53.678 84 43.999 84c-4.415 0-8.582-0.62-12.503-1.857-4.627-1.445-8.883-3.75-12.768-6.913H69.27z" clip-rule="evenodd"/><path fill="#EAEAEA" fill-rule="evenodd" d="M44 6.048c6.146 0 11.797 1.186 16.954 3.56 4.132 1.89 7.912 4.505 11.337 7.841C80.096 25.084 84 34.267 84 44.998c0 10.593-3.762 19.638-11.285 27.136a2.357 2.357 0 0 1-0.424 0.413 43.246 43.246 0 0 1-3.02 2.683H18.729a42.997 42.997 0 0 1-3.02-2.683C7.904 64.98 4 55.797 4 44.997c0-10.73 3.903-19.913 11.709-27.548a78.999 78.999 0 0 1 3.125-2.786C26.004 8.92 34.393 6.048 44 6.048" clip-rule="evenodd"/><path fill="#450064" fill-rule="evenodd" d="M64.927 54.387c-1.978-0.172-3.69 0.465-5.139 1.91-0.035 0-0.053 0.017-0.053 0.05-1.483 1.618-2.207 3.63-2.172 6.037 0 2.51 0.811 4.712 2.437 6.603v0.052c1.553 1.788 3.39 2.786 5.51 2.992 2.013 0.172 3.725-0.482 5.139-1.96 1.518-1.582 2.26-3.578 2.225-5.985v-0.051c-0.035-2.51-0.866-4.73-2.49-6.655-1.518-1.789-3.338-2.786-5.457-2.993zm-8.424-1.083c2.401-2.476 5.333-3.56 8.795-3.25 3.32 0.24 6.18 1.754 8.583 4.54 2.295 2.716 3.461 5.863 3.496 9.44 0.035 3.646-1.112 6.656-3.443 9.029-2.402 2.51-5.333 3.629-8.795 3.353-3.356-0.275-6.217-1.823-8.583-4.643-2.296-2.683-3.462-5.795-3.496-9.338v-0.051c-0.035-3.646 1.112-6.655 3.443-9.029v-0.051zM50.093 72.186l-9.272 0.206c-0.706-2.889 2.138-4.248 8.53-4.076l0.742 3.87z" clip-rule="evenodd"/><path fill="#999" fill-rule="evenodd" d="M43.364 72.495l2.225-9.853 3.18 0.619-1.855 9.286-3.55-0.052z" clip-rule="evenodd"/><path fill="#450064" fill-rule="evenodd" d="M21.271 54.387c-2.013-0.172-3.726 0.482-5.139 1.96-1.518 1.582-2.26 3.594-2.225 6.037 0.035 2.51 0.866 4.712 2.49 6.603v0.052c1.519 1.788 3.356 2.786 5.51 2.992 2.014 0.172 3.727-0.482 5.14-1.96 1.518-1.582 2.26-3.578 2.224-5.985v-0.051c-0.034-2.51-0.865-4.73-2.49-6.655-1.518-1.788-3.355-2.786-5.51-2.993zm-8.37-1.031c2.402-2.51 5.316-3.63 8.741-3.354h0.053c3.32 0.276 6.164 1.806 8.53 4.592h0.053c2.296 2.716 3.462 5.863 3.497 9.44 0.035 3.646-1.113 6.656-3.444 9.029-2.437 2.51-5.386 3.629-8.848 3.353-3.32-0.275-6.163-1.823-8.53-4.643h-0.052c-2.26-2.683-3.426-5.795-3.497-9.338-0.035-3.68 1.13-6.706 3.497-9.08z" clip-rule="evenodd"/><path fill="#067F8A" fill-rule="evenodd" d="M51.152 52.066l-2.225 9.337h11.02l-8.795-9.337zm-16.741-3.302l10.437 10.421 2.278-9.647-12.715-0.774zm-11.497-8.77l0.583-4.334 7.311 0.929a2.472 2.472 0 0 1 1.113 0.464 2.381 2.381 0 0 1 0.688 0.98 1.962 1.962 0 0 1 0.053 1.187l-1.112 5.004 16.636 0.98 1.324-5.675 4.345 0.98-1.484 6.346 14.358 15.22c0.424 0.446 0.617 0.962 0.582 1.547 0 0.585-0.23 1.083-0.688 1.496a2.123 2.123 0 0 1-1.537 0.62H46.278a0.684 0.684 0 0 1-0.37 0h-0.266l-0.37-0.156-0.318-0.103a0.839 0.839 0 0 0-0.212-0.155l-0.212-0.206h-0.053L29.907 50.57l-3.072 11.35a2.308 2.308 0 0 1-0.795 1.186l-4.027 3.044-2.755-3.457 3.444-2.58 3.815-14.29c0.035-0.034 0.053-0.085 0.053-0.154v-0.052l1.165-5.004-4.82-0.62z" clip-rule="evenodd"/><path fill="#999" fill-rule="evenodd" d="M46.596 57.173l3.655-0.103-1.483 6.19-3.232-0.618 1.06-5.469z" clip-rule="evenodd"/><path fill="#F96" fill-rule="evenodd" d="M30.808 16.727l-0.053-6.604 11.603 0.465 0.37 7.996 0.371 0.155-0.106-0.413 0.16 0.413-0.266 0.464-2.013 0.67 1.59-1.237-6.888 2.992c-3.108-0.344-4.697-1.978-4.768-4.901zm12.503 2.321L43.258 19.1l-0.106 0.052 0.106-0.104h0.053z" clip-rule="evenodd"/><path fill="#067F8A" fill-rule="evenodd" d="M42.357 10.588l0.371 7.325-8.265-7.635 7.894 0.31z" clip-rule="evenodd"/><path fill="#007E8A" fill-rule="evenodd" d="M34.993 21.37l1.802-10.937 3.285 0.516-1.749 10.937-3.338-0.516z" clip-rule="evenodd"/><path fill="#000" fill-opacity=".2" fill-rule="evenodd" d="M30.755 13.58v-3.457l11.603 0.465 0.212 4.746-11.815-1.754z" clip-rule="evenodd"/><path fill="#00CCBE" fill-rule="evenodd" d="M37.96 4.139c2.12 0.378 3.78 1.427 4.98 3.147 1.237 1.72 1.643 3.611 1.219 5.675a9.822 9.822 0 0 1-0.265 1.083l-15.152-2.786a12.305 12.305 0 0 1 0.158-1.135c0.39-2.03 1.484-3.628 3.285-4.798 1.767-1.169 3.69-1.565 5.775-1.186M41.033 39.426l-2.172-5.262 14.463-4.643 4.08 8.048-16.371 1.857z" clip-rule="evenodd"/><path fill="#999" fill-rule="evenodd" d="M45.748 16.624l7.577 12.897-14.464 4.643-3.815-8.564-6.728-3.611 17.43-5.365z" clip-rule="evenodd"/><path fill="#424242" fill-opacity=".2" fill-rule="evenodd" d="M36.53 29.057l3.761-5.056 3.974 1.496-4.292 11.092-3.444-7.532z" clip-rule="evenodd"/><path fill="#F96" fill-rule="evenodd" d="M30.808 35.506l-0.583 1.547-6.729-0.877-0.423 2.838-3.71-0.67 0.955-5.212 6.728 0.207 2.543-2.012 1.219 4.179z" clip-rule="evenodd"/><path fill="#999" fill-rule="evenodd" d="M33.086 27.922l7.47-5.985 4.186 3.921-7.47 5.933-4.186-3.87z" clip-rule="evenodd"/><path fill="#00CCBE" fill-rule="evenodd" d="M30.49 37.26l-4.185-3.921 6.781-5.417 4.186 3.869-6.782 5.468z" clip-rule="evenodd"/><path fill="#fff" fill-rule="evenodd" d="M44.689 65.634c-0.601-0.584-0.901-1.324-0.901-2.219 0-0.859 0.3-1.599 0.9-2.218 0.636-0.585 1.396-0.877 2.279-0.877 0.918 0 1.677 0.292 2.278 0.877 0.636 0.62 0.954 1.359 0.954 2.218 0 0.895-0.318 1.635-0.954 2.219-0.601 0.619-1.36 0.928-2.278 0.928a3.152 3.152 0 0 1-2.278-0.928" clip-rule="evenodd"/><path fill="#999" fill-rule="evenodd" d="M34.304 37.724c0.707-0.756 1.572-1.153 2.596-1.187l16.848-0.774c1.025-0.035 1.925 0.292 2.702 0.98 0.742 0.689 1.147 1.53 1.218 2.529 0.035 0.997-0.3 1.857-1.006 2.579-0.706 0.756-1.572 1.153-2.596 1.187l-9.113 0.412 8.318 9.286-5.669 4.798-13.35-14.96c-0.566-0.62-0.865-1.36-0.902-2.22-0.07-0.997 0.247-1.874 0.954-2.63" clip-rule="evenodd"/><path fill="#450064" fill-rule="evenodd" d="M53.854 57.018l-9.748 0.103c-0.742-2.682 2.278-4.024 9.06-4.024l0.688 3.921z" clip-rule="evenodd"/><path fill="#00CCBE" fill-rule="evenodd" d="M54.49 35.97L44.9 15.282 66.888 5.79l9.643 20.79-22.04 9.39z" clip-rule="evenodd"/><path fill="#fff" fill-rule="evenodd" d="M60.27 21.247c0.14 0.137 0.193 0.275 0.158 0.412a0.488 0.488 0 0 1-0.159 0.36c-0.142 0.137-0.282 0.189-0.423 0.155-0.212 0-0.353-0.07-0.424-0.206a0.35 0.35 0 0 1-0.106-0.36 0.62 0.62 0 0 1 0.106-0.361 0.512 0.512 0 0 1 0.477-0.155 0.516 0.516 0 0 1 0.37 0.155zm1.589 0.824c0-0.137 0.07-0.258 0.212-0.36 0.106-0.104 0.247-0.139 0.424-0.104a0.72 0.72 0 0 1 0.424 0.155c0.105 0.103 0.14 0.24 0.105 0.412a0.549 0.549 0 0 1-0.159 0.411 0.72 0.72 0 0 1-0.423 0.155 0.81 0.81 0 0 1-0.424-0.206 0.738 0.738 0 0 1-0.16-0.463zm5.457-8.186l-3.55-0.72-1.06 6.177-0.847-5.2-3.709 0.515 0.795 5.251L53.7 20.68l0.742 4.274 8.9 2.522 2.437-4.427 1.537-9.164z" clip-rule="evenodd"/></svg>