<svg xmlns="http://www.w3.org/2000/svg" width="88" height="88" fill="none" viewBox="0 0 88 88"><path fill="#CCC" fill-rule="evenodd" d="M6 44h76c0 10.755-3.725 19.631-11 27-0.81 0.643-1.482 1.259-2 2-7.167 5.941-15.437 9-25 9s-17.85-3.059-25-9c-0.535-0.741-1.205-1.357-2-2C9.707 63.631 6 54.755 6 44" clip-rule="evenodd"/><path fill="#EAEAEA" fill-rule="evenodd" d="M17 17.297C24.539 9.742 33.498 6 44 6c10.469 0 19.41 3.742 27 11.297C78.175 24.644 81.9 33.568 82 44H6c0.067-10.432 3.775-19.356 11-26.703" clip-rule="evenodd"/><path fill="#FB5058" fill-rule="evenodd" d="M41.03 24.5l-4.208 4.345L44 34.74l-1.98 8.018L28.01 47 24 24.138l9.307-4.448L38.9 17l2.129 7.5z" clip-rule="evenodd"/><path fill="#007E8A" fill-rule="evenodd" d="M22.23 13.185L17 12.2l0.395-2.074 5.28 0.881L23.314 8l5.971 0.26L32 15l-9.77-1.815z" clip-rule="evenodd"/><path fill="#FFAD93" fill-rule="evenodd" d="M32.2 14.833l1.8 4.662L24.6 24c-2.966-0.035-4.1-1.886-3.4-5.552L22.3 13l9.9 1.833z" clip-rule="evenodd"/><path fill="#9B006C" fill-rule="evenodd" d="M65 63.656L58.669 76l-0.105-0.05c-1.465-2.208-1.9-4.567-1.308-7.075 0.523-2.174 1.779-4.466 3.767-6.875L65 63.656zM14.595 78L7 66.641c2.06-0.934 3.963-0.848 5.71 0.26 1.954 1.175 3.719 3.526 5.29 7.053L14.595 78z" clip-rule="evenodd"/><path fill="#007E8A" fill-rule="evenodd" d="M28.233 46.106L42.41 42l5.761 13.72L62 62.13l-3.908 7.612-17.034-7.21-4.91-9.615L17.361 75 12 66.637l16.233-20.53z" clip-rule="evenodd"/><path fill="#000" fill-opacity=".2" fill-rule="evenodd" d="M35.903 23L43 46.813 35.148 51 28 26.43 35.903 23z" clip-rule="evenodd"/><path fill="#00CCBE" fill-rule="evenodd" d="M43.45 67L33 51.45 48.55 41 59 56.55 43.45 67z" clip-rule="evenodd"/><path fill="#FFAD93" fill-rule="evenodd" d="M38.52 35.51l6.084 11.03c0.396 0.739 0.495 1.494 0.297 2.266-0.231 0.805-0.693 1.41-1.385 1.813-0.693 0.402-1.435 0.486-2.226 0.251a2.734 2.734 0 0 1-1.78-1.36l-6.135-11.028c-0.395-0.738-0.479-1.494-0.247-2.266a2.736 2.736 0 0 1 1.385-1.813c0.693-0.403 1.434-0.504 2.226-0.302 0.791 0.234 1.385 0.705 1.78 1.41" clip-rule="evenodd"/><path fill="#007E8A" fill-rule="evenodd" d="M81 71.613L73.41 78c-0.68-2.35-0.194-4.99 1.46-7.92L72 66.606 75.551 64 81 71.613z" clip-rule="evenodd"/><path fill="#9B006C" fill-rule="evenodd" d="M76 64.496L66.079 71 51 50.947 60.43 44 76 64.496z" clip-rule="evenodd"/><path fill="#00CCBE" fill-rule="evenodd" d="M82 56.55L66.805 67 56 50.693 71.787 41 82 56.55z" clip-rule="evenodd"/><path fill="#C66" fill-rule="evenodd" d="M56.375 38.476c-0.396-0.737-0.478-1.491-0.248-2.263 0.231-0.805 0.693-1.408 1.386-1.81 0.725-0.403 1.467-0.504 2.226-0.302 0.759 0.234 1.352 0.704 1.78 1.408l6.085 11.015C68 47.26 68.1 48.015 67.901 48.787c-0.23 0.805-0.692 1.408-1.385 1.81C65.79 51 65.049 51.102 64.29 50.9c-0.792-0.234-1.385-0.704-1.781-1.408l-6.134-11.015z" clip-rule="evenodd"/><path fill="#007E8A" fill-rule="evenodd" d="M33.298 75L25 69.39c2.002-1.3 4.65-1.544 7.942-0.731L35.436 65 39 67.683 33.298 75z" clip-rule="evenodd"/><path fill="#FB5058" fill-rule="evenodd" d="M47.325 38l8.188 0.41L59 44.66 39.559 69 31 62.749 47.325 38z" clip-rule="evenodd"/><path fill="#450064" fill-rule="evenodd" d="M55.323 22.85l-3.8-0.05-3.698-10.4H45V8h10.477L62 23l-6.677-0.15z" clip-rule="evenodd"/><path fill="#007E8A" fill-rule="evenodd" d="M49.38 22l1.606 0.051h0.602l3.715 0.051L67 44.023 59.57 48l-1.305-2.447-3.313-6.22-7.781-0.407L42 32.4 49.38 22z" clip-rule="evenodd"/><path fill="#C66" fill-rule="evenodd" d="M51.433 22a17.572 17.572 0 0 1-1.37-0.24c-2.425-0.514-3.78-1.731-4.063-3.654V12h2.598L52 22h-0.567z" clip-rule="evenodd"/><path fill="#000" fill-opacity=".2" fill-rule="evenodd" d="M55.61 50L51 32l8 14.5-3.39 3.5z" clip-rule="evenodd"/><path fill="#FB5058" fill-rule="evenodd" d="M35.04 23L44 42.867 35.756 47 27 26.386 35.04 23z" clip-rule="evenodd"/></svg>