<svg xmlns="http://www.w3.org/2000/svg" width="88" height="88" fill="none" viewBox="0 0 88 88"><path fill="#9C006D" fill-rule="evenodd" d="M31.496 82.147c-4.627-1.441-8.883-3.74-12.768-6.898H69.27C62.101 81.084 53.678 84 43.999 84c-4.415 0-8.582-0.618-12.503-1.853" clip-rule="evenodd"/><path fill="#EAEAEA" fill-rule="evenodd" d="M44 6.223c6.146 0 11.797 1.184 16.954 3.551 4.132 1.888 7.912 4.496 11.337 7.825C80.096 25.217 84 34.379 84 45.085c0 10.57-3.762 19.594-11.285 27.075a2.356 2.356 0 0 1-0.424 0.412 42.93 42.93 0 0 1-3.02 2.676H18.729a42.684 42.684 0 0 1-3.02-2.676C7.904 65.023 4 55.86 4 45.086c0-10.707 3.903-19.87 11.709-27.487a78.9 78.9 0 0 1 3.125-2.78C26.004 9.088 34.393 6.223 44 6.223" clip-rule="evenodd"/><path fill="#450064" fill-rule="evenodd" d="M44 58.83l-1.695-15.803 27.761 0.514-0.688 4.53L44 58.83z" clip-rule="evenodd"/><path fill="#FF5863" fill-rule="evenodd" d="M53.854 27.584L28.053 42.41l-1.378-7.36 22.94-12.92 4.239 5.455z" clip-rule="evenodd"/><path fill="#450064" fill-rule="evenodd" d="M65.245 69.639c0.635 1.098 1.52 1.836 2.649 2.213 1.06 0.309 2.066 0.188 3.02-0.36V71.44c0.988-0.617 1.607-1.51 1.854-2.676a4.935 4.935 0 0 0-0.53-3.603c-0.636-1.099-1.536-1.836-2.702-2.214-1.06-0.309-2.066-0.19-3.02 0.36v0.052c-0.953 0.584-1.571 1.475-1.854 2.676-0.282 1.236-0.088 2.437 0.583 3.604zm-0.69-9.317c1.873-1.202 3.886-1.475 6.04-0.824h0.054c2.084 0.652 3.69 1.973 4.82 3.964 1.097 1.922 1.396 3.946 0.902 6.074-0.495 2.197-1.66 3.843-3.497 4.941H72.82c-1.873 1.133-3.886 1.39-6.04 0.772-2.084-0.617-3.674-1.922-4.768-3.912-1.13-1.922-1.449-3.947-0.954-6.074v-0.051c0.495-2.197 1.66-3.827 3.497-4.89z" clip-rule="evenodd"/><path fill="#450064" fill-rule="evenodd" d="M71.02 65.624l-1.483 3.86-22.517-1.492 13.298-11.376 10.702 9.008zM21.112 66.344c-0.564-1.338-1.448-2.333-2.649-2.985H18.41c-1.094-0.583-2.154-0.72-3.178-0.412-0.954 0.309-1.59 0.944-1.908 1.905-0.353 1.167-0.265 2.367 0.265 3.603 0.53 1.304 1.413 2.282 2.65 2.934 1.094 0.618 2.171 0.772 3.231 0.463 0.919-0.343 1.536-0.978 1.854-1.904h0.053c0.39-1.167 0.3-2.368-0.265-3.604zm-0.9-6.074V60.22c1.978 1.063 3.408 2.625 4.291 4.684 0.954 2.162 1.06 4.221 0.318 6.177-0.742 2.093-2.154 3.484-4.239 4.17-1.978 0.617-4.026 0.377-6.145-0.721-1.942-1.03-3.356-2.591-4.239-4.684-0.918-2.128-1.041-4.17-0.37-6.126v-0.051c0.776-2.093 2.19-3.465 4.238-4.118 2.013-0.687 4.061-0.446 6.146 0.72z" clip-rule="evenodd"/><path fill="#9C006D" fill-rule="evenodd" d="M23.814 50.697l3.073 1.595-8.053 17.141-3.073-1.596 8.053-17.14z" clip-rule="evenodd"/><path fill="#fff" fill-rule="evenodd" d="M59.682 48.792l10.33-5.353 3.55 4.735-0.741 0.618H59.68z" clip-rule="evenodd"/><path fill="#450064" fill-rule="evenodd" d="M18.251 52.498l10.702-9.317 1.643 20.899 0.052 1.03h-0.212L18.252 52.497z" clip-rule="evenodd"/><path fill="#FF5863" fill-rule="evenodd" d="M28.265 32.732l0.689 10.45-10.702 9.316 12.185 12.611h0.212l-0.053-1.03 0.106 0.824 28.98-16.111h13.14l-26.65 21.825h-16.37L10.621 51.52l17.643-18.788z" clip-rule="evenodd"/><path fill="#450064" fill-rule="evenodd" d="M28.689 38.188l-10.014-0.36 4.133-5.868 5.404-0.31 0.477 6.538zM40.45 59.19l4.503 0.051 0.477 5.096-9.483 0.31c-0.46-1.751 0.265-3.09 2.172-4.016l2.331-1.441z" clip-rule="evenodd"/><path fill="#440063" fill-rule="evenodd" d="M40.715 23.21l-2.225-2.883 8.583-2.934 1.377 2.676-7.735 3.14z" clip-rule="evenodd"/><path fill="#9C006D" fill-rule="evenodd" d="M43.417 40.093a0.42 0.42 0 0 0 0.159-0.052l4.662-1.235c1.094-0.275 2.154-0.137 3.179 0.412 1.094 0.55 1.837 1.372 2.225 2.47 0.424 1.03 0.407 2.043-0.053 3.037-0.495 0.962-1.29 1.596-2.384 1.905l-7.682 2.265 1.695 11.375-8.265 0.412-2.172-14.567a3.548 3.548 0 0 1 0.477-2.47c0.424-0.755 1.077-1.27 1.96-1.545l6.199-2.007z" clip-rule="evenodd"/><path fill="#FF5863" fill-rule="evenodd" d="M52.158 18.885l4.663 25.326-13.987-3.398-1.113-12.765-7.046-3.398 17.483-5.765z" clip-rule="evenodd"/><path fill="#9C006D" fill-rule="evenodd" d="M55.761 38.858l-4.185-22.7 21.775-2.832 3.761 23.112-21.35 2.42z" clip-rule="evenodd"/><path fill="#440063" fill-rule="evenodd" d="M32.715 19.4l-0.318-6.383 9.377-3.757-0.688 6.485-8.371 3.655z" clip-rule="evenodd"/><path fill="#FF5863" fill-rule="evenodd" d="M41.033 4.01c2.508-0.103 4.715 0.635 6.622 2.213 1.836 1.681 2.844 3.723 3.02 6.125 0.07 1.407-0.159 2.677-0.689 3.81l-15.1 6.537-2.118-3.14-0.053-0.155 8.37-3.654 0.69-6.486-9.378 3.757c0-2.298 0.776-4.323 2.33-6.074 1.696-1.819 3.798-2.797 6.306-2.934" clip-rule="evenodd"/></svg>