<svg xmlns="http://www.w3.org/2000/svg" width="88" height="88" fill="none" viewBox="0 0 88 88"><g clip-path="url(#clip0_12489_1056)"><path fill="#017C88" fill-opacity=".977" d="M43.947 88c-4.45 0-8.583-0.622-12.503-1.867-4.663-1.451-8.901-3.732-12.822-6.947h50.543C62.066 84.993 53.59 88 43.947 88z"/><path fill="#EAEAEA" d="M4 48.804C4 38.02 7.92 28.792 15.656 21.12l3.178-2.8c7.206-5.807 15.577-8.606 25.219-8.606 6.146 0 11.762 1.14 16.954 3.525 4.132 1.867 7.947 4.563 11.337 7.88C80.185 28.793 84 38.02 84 48.805c0 10.68-3.815 19.702-11.338 27.271-0.106 0.208-0.318 0.311-0.424 0.415a37.68 37.68 0 0 1-3.072 2.696H18.623c-1.06-0.83-2.014-1.763-2.967-2.696C7.815 68.817 4 59.588 4 48.804z"/><path fill="#067F8A" d="M44.16 39.057c0.423-1.348 1.27-2.384 2.542-3.007 1.272-0.725 2.65-0.933 4.027-0.518 1.377 0.415 2.437 1.244 3.178 2.489v0.103c0.53 0.311 0.954 0.622 1.272 1.14 0.636 0.934 1.06 1.867 1.06 2.904l4.768 8.503 13.987-0.518 0.317 10.369-17.165 0.622H58.04c-0.53 0-1.06-0.104-1.59-0.207-1.377-0.415-2.437-1.245-3.178-2.49l-4.768-8.398-5.51 3.525 6.357 15.45-9.748 3.94-8.053-19.286v-0.104c-0.424-0.933-0.53-1.97-0.212-3.11 0.318-1.348 1.06-2.489 2.331-3.215l10.384-6.636c-0.106-0.519-0.106-1.037 0.106-1.556z"/><path fill="#450064" d="M50.199 73.38l-11.974 0.103c-0.848-3.318 2.861-4.977 11.126-4.977l0.848 4.873zM74.676 50.775l4.98-0.83 0.106 11.717c-3.391 0.934-5.086-2.696-5.086-10.887z"/><path fill="#00CCBE" d="M23.179 50.982l3.496 0.622-3.178 18.56L20 69.648l3.179-18.665z"/><path fill="#440063" d="M23.179 50.982l1.166-6.533-4.239-0.83 0.636-3.421 7.63 1.452-1.696 9.954-3.497-0.622z"/><path fill="#00CCBE" d="M22.86 71.513c-1.059-0.933-2.33-1.452-3.708-1.452-1.483 0-2.649 0.415-3.709 1.452-0.423 0.415-0.741 0.933-1.06 1.452l-3.178-1.66c0.424-0.725 1.06-1.451 1.695-2.177 1.696-1.66 3.71-2.489 6.146-2.489 2.331 0 4.45 0.83 6.252 2.489 1.271 1.244 2.013 2.696 2.331 4.251h29.775v3.526H26.04a1.774 1.774 0 0 1-1.272-0.519 1.7 1.7 0 0 1-0.53-1.244c0.212-1.451-0.318-2.592-1.377-3.63z"/><path fill="#450064" d="M22.013 77.942c-0.848 0.83-1.801 1.244-2.967 1.244-1.165 0-2.119-0.415-2.967-1.244-0.847-0.83-1.271-1.763-1.271-2.903 0-1.141 0.424-2.074 1.271-2.904 0.848-0.83 1.802-1.244 2.967-1.244 1.166 0 2.12 0.415 2.967 1.244 0.848 0.83 1.272 1.763 1.272 2.903 0 1.141-0.424 2.074-1.272 2.904zM54.543 77.942c-0.847-0.83-1.271-1.763-1.271-2.903 0-1.141 0.424-2.074 1.271-2.904 0.848-0.83 1.802-1.244 2.967-1.244 1.166 0 2.12 0.415 2.967 1.244 0.848 0.83 1.272 1.763 1.272 2.903 0 1.141-0.424 2.074-1.272 2.904-0.848 0.83-1.801 1.244-2.967 1.244a5.082 5.082 0 0 1-2.967-1.244z"/><path fill="#F96" fill-rule="evenodd" d="M30.172 14.068v6.636c0.106 3.007 1.696 4.562 4.769 4.977l6.887-3.007-1.59 1.244 2.014-0.726 0.212-0.414-0.318-0.104-0.424-8.088-11.55-0.518z" clip-rule="evenodd"/><path fill="#067F8A" d="M42.145 21.948l-8.264-7.673 7.84 0.311 0.425 7.362z"/><path fill="#007E8A" d="M34.41 25.37l1.802-10.991 3.285 0.518-1.802 10.992-3.285-0.519z"/><path fill="#000" fill-opacity=".2" d="M30.172 14.068l11.55 0.518 0.212 4.77-11.762-1.763v-3.525z"/><path fill="#00CCBE" d="M31.55 9.298c1.801-1.14 3.708-1.556 5.827-1.14 2.12 0.414 3.815 1.45 4.98 3.11 1.272 1.763 1.59 3.63 1.166 5.703-0.106 0.415-0.212 0.726-0.212 1.037l-15.152-2.8c0-0.415 0.106-0.726 0.212-1.14 0.318-1.97 1.377-3.63 3.179-4.77zM40.45 43.516l-2.119-5.288 14.516-4.666 4.027 8.088-16.424 1.866z"/><path fill="#999" d="M27.735 25.992L45.218 20.6l7.63 12.962-14.517 4.666-3.815-8.607-6.78-3.629z"/><path fill="#424242" fill-opacity=".2" d="M43.63 29.518l-4.345 11.199-3.39-7.57 3.814-5.081 3.92 1.452z"/><path fill="#F96" d="M19.258 42.168l1.272-5.6 5.934 1.349 3.39-1.66 1.272 3.63-3.073 2.074-4.556-0.933-1.166 2.177-3.073-1.037z"/><path fill="#999" d="M34.199 32.836l6.252-9.229 4.132 3.63-6.781 9.85-3.603-4.251z"/><path fill="#00CCBE" d="M37.907 37.191l-7.947 4.148-4.238-3.94 8.477-4.563 3.708 4.355zM53.165 38.746l-9.642-20.738 22.04-9.54 9.642 20.946-22.04 9.332z"/><path fill="#fff" fill-rule="evenodd" d="M60.053 25.77c0-0.137 0.07-0.258 0.212-0.36 0.14-0.104 0.3-0.138 0.477-0.104a0.668 0.668 0 0 1 0.37 0.258 0.439 0.439 0 0 1 0.054 0.464c0 0.173-0.071 0.292-0.212 0.361a0.956 0.956 0 0 1-0.424 0.104 0.68 0.68 0 0 1-0.424-0.258 0.686 0.686 0 0 1-0.053-0.465zm-2.437-0.412c-0.106-0.139-0.142-0.276-0.106-0.413 0-0.172 0.07-0.292 0.212-0.361a0.417 0.417 0 0 1 0.477-0.104 0.79 0.79 0 0 1 0.37 0.207 0.548 0.548 0 0 1 0.106 0.464c-0.034 0.171-0.105 0.292-0.211 0.361-0.177 0.104-0.336 0.137-0.477 0.104a0.497 0.497 0 0 1-0.371-0.258zm3.602-2.27l-0.158-5.366-3.762 0.103 0.053 5.417L52 23.346l0.212 4.385 8.583 3.61 3.072-4.126 2.756-9.08L63.126 17l-1.907 6.088z" clip-rule="evenodd"/></g></svg>