<svg xmlns="http://www.w3.org/2000/svg" width="88" height="88" fill="none" viewBox="0 0 88 88"><path fill="#017C88" fill-rule="evenodd" d="M31.496 82.143c-4.627-1.444-8.883-3.747-12.768-6.91H69.27C62.101 81.078 53.678 84 43.999 84c-4.415 0-8.582-0.619-12.503-1.857" clip-rule="evenodd"/><path fill="#EAEAEA" fill-rule="evenodd" d="M44 6.073c6.146 0 11.797 1.186 16.954 3.558 4.132 1.89 7.912 4.503 11.337 7.84C80.096 25.102 84 34.282 84 45.01c0 10.59-3.762 19.631-11.285 27.127a2.36 2.36 0 0 1-0.424 0.413 43.255 43.255 0 0 1-3.02 2.682H18.729a43.006 43.006 0 0 1-3.02-2.682C7.904 64.987 4 55.807 4 45.01c0-10.728 3.903-19.908 11.709-27.54a78.896 78.896 0 0 1 3.125-2.786C26.004 8.943 34.393 6.073 44 6.073" clip-rule="evenodd"/><path fill="#450064" fill-rule="evenodd" d="M44 58.78l-1.695-15.833 27.761 0.516-0.688 4.539L44 58.78z" clip-rule="evenodd"/><path fill="#90A6A6" fill-rule="evenodd" d="M26.675 34.902l22.94-12.945 4.239 5.467L29.006 41.76l-2.33-6.86z" clip-rule="evenodd"/><path fill="#450064" fill-rule="evenodd" d="M66.516 63.319c-0.953 0.584-1.571 1.478-1.854 2.682-0.283 1.238-0.088 2.441 0.583 3.61 0.636 1.1 1.518 1.84 2.649 2.218 1.06 0.31 2.066 0.188 3.02-0.361v-0.052c0.988-0.619 1.607-1.513 1.854-2.682a4.952 4.952 0 0 0-0.53-3.61c-0.636-1.1-1.536-1.839-2.702-2.217-1.06-0.31-2.066-0.19-3.02 0.36v0.052zm-1.96-3.043c1.873-1.204 3.885-1.478 6.04-0.825h0.053c2.084 0.653 3.69 1.977 4.821 3.971 1.095 1.926 1.396 3.954 0.9 6.086-0.494 2.2-1.66 3.85-3.496 4.95h-0.053c-1.872 1.136-3.885 1.393-6.04 0.775-2.084-0.62-3.673-1.926-4.768-3.92-1.13-1.926-1.448-3.954-0.953-6.086v-0.051c0.493-2.2 1.66-3.834 3.496-4.9z" clip-rule="evenodd"/><path fill="#450064" fill-rule="evenodd" d="M71.02 65.588l-1.483 3.868L47.02 67.96l13.298-11.397 10.702 9.025zM15.232 62.907c-0.954 0.31-1.59 0.946-1.908 1.908-0.353 1.169-0.265 2.372 0.265 3.61 0.53 1.307 1.414 2.286 2.65 2.94 1.094 0.619 2.171 0.773 3.23 0.464 0.92-0.345 1.537-0.98 1.855-1.908h0.053c0.389-1.169 0.3-2.373-0.265-3.61-0.564-1.341-1.447-2.339-2.649-2.992H18.41c-1.094-0.585-2.154-0.722-3.178-0.412zM14.437 74.51c-1.942-1.032-3.356-2.596-4.239-4.694-0.917-2.131-1.041-4.177-0.37-6.137V63.63c0.777-2.097 2.19-3.473 4.238-4.126 2.013-0.688 4.061-0.447 6.146 0.722v-0.052c1.978 1.066 3.408 2.63 4.291 4.694 0.954 2.165 1.06 4.228 0.318 6.188-0.742 2.097-2.154 3.49-4.239 4.178-1.977 0.619-4.026 0.377-6.145-0.722z" clip-rule="evenodd"/><path fill="#017C88" fill-rule="evenodd" d="M23.814 50.632l3.073 1.599-8.053 17.173-3.073-1.598 8.053-17.174z" clip-rule="evenodd"/><path fill="#fff" fill-rule="evenodd" d="M59.682 48.724l10.33-5.364 3.55 4.745-0.741 0.619H59.68z" clip-rule="evenodd"/><path fill="#450064" fill-rule="evenodd" d="M18.251 52.437l10.65-9.283 1.695 20.887 0.052 1.031h-0.212L18.252 52.437z" clip-rule="evenodd"/><path fill="#00CCBE" fill-rule="evenodd" d="M28.265 32.633l0.636 10.52-10.65 9.284 12.186 12.636h0.212l-0.053-1.032 0.106 0.825 28.98-16.142h13.14L46.171 70.59h-16.37l-19.18-19.134 17.643-18.824z" clip-rule="evenodd"/><path fill="#450064" fill-rule="evenodd" d="M28.582 38.1L18.57 37.737l4.133-5.879 5.404-0.31 0.476 6.55zM40.45 59.141l4.503 0.052 0.477 5.106-9.483 0.31c-0.46-1.754 0.265-3.095 2.172-4.024l2.331-1.444z" clip-rule="evenodd"/><path fill="#440063" fill-rule="evenodd" d="M40.715 23.092l-2.225-2.888 8.583-2.94 1.377 2.682-7.735 3.146z" clip-rule="evenodd"/><path fill="#017C88" fill-rule="evenodd" d="M43.417 40.008a0.42 0.42 0 0 0 0.159-0.052l4.662-1.238c1.094-0.275 2.154-0.137 3.179 0.413 1.094 0.55 1.837 1.375 2.225 2.475 0.424 1.032 0.407 2.046-0.053 3.043-0.495 0.963-1.29 1.6-2.384 1.909l-7.682 2.269 1.695 11.398-8.265 0.412-2.172-14.595c-0.141-0.894 0.018-1.72 0.477-2.476 0.424-0.756 1.077-1.272 1.96-1.547l6.199-2.011z" clip-rule="evenodd"/><path fill="#00CCBE" fill-rule="evenodd" d="M52.159 18.76l0.053 0.309-10.438 9.49-0.053-0.62-7.046-3.403 17.484-5.777zm4.662 25.374L42.834 40.73l-0.689-7.84 14.57 10.418 0.106 0.826z" clip-rule="evenodd"/><path fill="#91A7A7" fill-rule="evenodd" d="M41.775 28.558l10.437-9.49 4.503 24.24-14.57-10.418-0.37-4.332z" clip-rule="evenodd"/><path fill="#00CCBE" fill-rule="evenodd" d="M55.761 38.77l-4.185-22.744L73.35 13.19l3.761 23.156-21.35 2.424z" clip-rule="evenodd"/><path fill="#90A6A6" fill-rule="evenodd" d="M31.55 32.22l18.066-10.263 4.239 5.467L31.55 40.266V32.22z" clip-rule="evenodd"/><path fill="#440063" fill-rule="evenodd" d="M32.291 19.43l-0.318-6.395 9.378-3.765-0.69 6.498-8.37 3.662z" clip-rule="evenodd"/><path fill="#00CCBE" fill-rule="evenodd" d="M40.61 4.01c2.507-0.104 4.714 0.636 6.622 2.217 1.836 1.685 2.844 3.731 3.02 6.137 0.07 1.41-0.16 2.682-0.69 3.817l-15.098 6.55-2.12-3.146-0.053-0.155 8.371-3.662 0.689-6.498-9.377 3.765c0-2.303 0.776-4.332 2.33-6.086C36 5.127 38.102 4.147 40.61 4.01" clip-rule="evenodd"/><path fill="#fff" fill-rule="evenodd" d="M63.275 28.197a0.675 0.675 0 0 1-0.16-0.412 0.488 0.488 0 0 1 0.213-0.413 0.514 0.514 0 0 1 0.477-0.154c0.14 0 0.265 0.069 0.37 0.206a0.549 0.549 0 0 1 0.16 0.412 0.549 0.549 0 0 1-0.16 0.413 0.719 0.719 0 0 1-0.423 0.155c-0.212 0-0.371-0.07-0.477-0.207zm2.702-0.309a0.581 0.581 0 0 1 0.424-0.155c0.14 0 0.282 0.07 0.424 0.206 0.105 0.138 0.14 0.276 0.105 0.413 0 0.206-0.053 0.344-0.159 0.413a0.716 0.716 0 0 1-0.423 0.154 0.509 0.509 0 0 1-0.424-0.206c-0.106-0.103-0.16-0.258-0.16-0.464 0-0.137 0.072-0.258 0.213-0.361zm-0.212-7.685l-3.762 0.568 0.795 5.312-5.298 0.774 0.742 4.332 9.006 2.527 2.49-4.487 1.59-9.335-3.656-0.67-1.06 6.24-0.847-5.26z" clip-rule="evenodd"/></svg>