<svg xmlns="http://www.w3.org/2000/svg" width="88" height="88" fill="none" viewBox="0 0 88 88"><path fill="#017C88" fill-rule="evenodd" d="M69.272 75.248C62.102 81.083 53.677 84 44 84c-4.415 0-8.583-0.618-12.503-1.853-4.628-1.442-8.884-3.741-12.769-6.9h50.544z" clip-rule="evenodd"/><path fill="#EAEAEA" fill-rule="evenodd" d="M44 6.21c6.146 0 11.797 1.184 16.954 3.552 4.132 1.888 7.912 4.496 11.337 7.826C80.096 25.207 84 34.37 84 45.079c0 10.572-3.762 19.598-11.285 27.08a2.353 2.353 0 0 1-0.424 0.412 43.195 43.195 0 0 1-3.02 2.677H18.729a43.195 43.195 0 0 1-3.02-2.677C7.905 65.021 4 55.857 4 45.079c0-10.708 3.904-19.872 11.709-27.491a78.832 78.832 0 0 1 3.125-2.78C26.004 9.075 34.394 6.21 44 6.21" clip-rule="evenodd"/><path fill="#440063" fill-rule="evenodd" d="M21.748 60.318c-1.306-0.824-2.579-1.064-3.815-0.72-1.2 0.377-2.048 1.217-2.543 2.522-0.53 1.441-0.494 3.003 0.106 4.685 0.636 1.716 1.679 3.037 3.126 3.964 1.272 0.824 2.561 1.065 3.868 0.72h-0.053c1.165-0.377 1.995-1.183 2.49-2.419 0.565-1.51 0.53-3.089-0.106-4.736-0.6-1.717-1.624-3.054-3.073-4.016zm-9.801 0.515c0.954-2.437 2.596-3.982 4.927-4.634 2.26-0.72 4.556-0.343 6.887 1.133 2.12 1.339 3.638 3.26 4.557 5.766 0.917 2.54 0.935 4.925 0.053 7.156-0.919 2.437-2.543 3.998-4.874 4.685-2.297 0.687-4.593 0.292-6.888-1.184-2.154-1.339-3.69-3.26-4.61-5.766-0.882-2.54-0.9-4.925-0.052-7.156z" clip-rule="evenodd"/><path fill="#017C88" fill-rule="evenodd" d="M23.232 37.563l3.125 0.463-4.503 29.345-3.073-0.463 4.45-29.345z" clip-rule="evenodd"/><path fill="#00CBBD" fill-rule="evenodd" d="M55.39 46.675l-6.357-3.861 22.888-7.465 1.642 2.317-21.51 14.106-5.086 3.707 8.424-8.804zm-5.297 11.738l2.755-4.376 0.53 1.236 12.82-8.752L52.53 70.305 37.695 67.32l12.398-9.678v0.772zM25.457 40.394l3.92-2.06 9.484-2.78 10.172 7.26-16 3.089-7.576-5.509zm-7.523 1.184l-1.113 2.42-3.602-2.06 5.721-11.686-1.006 11.326zm-0.53 9.113l5.298 0.463 20.715 1.905-11.073 13.23-0.53-7.825-14.41-7.773z" clip-rule="evenodd"/><path fill="#91A7A7" fill-rule="evenodd" d="M16.821 43.998l1.113-2.42 7.046 3.81-9.43 1.339 1.271-2.73z" clip-rule="evenodd"/><path fill="#fff" fill-rule="evenodd" d="M11.205 47.293l2.013-5.354 3.603 2.059-1.272 2.729-4.344 0.566z" clip-rule="evenodd"/><path fill="#007E8A" fill-rule="evenodd" d="M49.033 42.814l6.358 3.861-8.424 8.804 5.086-3.707 0.795 2.265-2.755 4.376v-0.772L37.695 67.32l-5.35-1.03 11.072-13.231-20.715-1.905-11.497-3.861 4.345-0.566 9.43-1.339 0.477-4.994 7.576 5.509 16-3.09z" clip-rule="evenodd"/><path fill="#fff" fill-rule="evenodd" d="M55.708 68.761a8.677 8.677 0 0 1 3.126 0.567c0.6-1.682 1.573-3.175 2.914-4.48 2.402-2.334 5.298-3.5 8.689-3.5 2.508 0 4.874 0.755 7.1 2.265-2.403 4.427-5.634 8.237-9.696 11.43l-40.16 0.05a5.368 5.368 0 0 1-0.052-0.772c0-1.235 0.46-2.299 1.377-3.192 0.884-0.892 1.979-1.338 3.285-1.338 1.06 0 1.96 0.291 2.702 0.875a8.252 8.252 0 0 1 1.695-2.162c1.625-1.614 3.603-2.42 5.934-2.42s4.327 0.806 5.987 2.42a8.801 8.801 0 0 1 1.642 2.162c1.555-1.27 3.374-1.905 5.457-1.905" clip-rule="evenodd"/><path fill="#440063" fill-rule="evenodd" d="M67.258 59.598c-1.306-0.343-2.526-0.103-3.655 0.72-1.272 0.892-2.102 2.145-2.49 3.759v0.051c-0.39 1.647-0.194 3.226 0.583 4.737 0.706 1.338 1.695 2.213 2.966 2.625 1.307 0.343 2.525 0.103 3.656-0.72 1.272-0.893 2.101-2.145 2.49-3.759 0.424-1.682 0.247-3.277-0.53-4.788-0.706-1.338-1.713-2.213-3.02-2.625zm1.007-3.45c2.331 0.652 4.097 2.163 5.298 4.53 1.166 2.197 1.448 4.565 0.848 7.105-0.6 2.608-1.907 4.582-3.92 5.92-2.155 1.511-4.416 1.922-6.782 1.236-2.331-0.651-4.115-2.162-5.351-4.53v0.051c-1.166-2.23-1.43-4.616-0.795-7.156 0.601-2.574 1.907-4.548 3.92-5.92 2.12-1.51 4.38-1.922 6.782-1.236zM22.967 35.298h1.59c0.847 0 1.553 0.291 2.118 0.875 0.636 0.549 0.954 1.252 0.954 2.11v1.545c0 0.79-0.318 1.476-0.954 2.06-0.565 0.617-1.271 0.926-2.119 0.926h-1.59c-0.847 0-1.57-0.309-2.172-0.927-0.6-0.583-0.9-1.27-0.9-2.059v-1.544c0-0.86 0.3-1.562 0.9-2.111a3.003 3.003 0 0 1 2.173-0.875" clip-rule="evenodd"/><path fill="#90A6A6" fill-rule="evenodd" d="M23.444 35.349l16.689-16.011 5.827 5.817-16.688 15.908-5.828-5.714z" clip-rule="evenodd"/><path fill="#017C88" fill-rule="evenodd" d="M66.199 67.68l-13.033-5.92 2.543-4.788 11.337 8.031L66.2 67.68z" clip-rule="evenodd"/><path fill="#440063" fill-rule="evenodd" d="M49.404 35.71c1.2-0.927 2.525-1.305 3.973-1.133 1.484 0.137 2.684 0.79 3.603 1.956 0.954 1.099 1.343 2.35 1.166 3.758-0.141 1.476-0.777 2.66-1.908 3.553l-6.251 4.89 11.178 7.054-6.675 11.068-1.854-6.229-14.517-8.237a5.725 5.725 0 0 1-1.536-2.523 4.888 4.888 0 0 1 0.053-2.934 5.595 5.595 0 0 1 1.695-2.471l6.676-5.303c0.07 0 0.123-0.018 0.159-0.052v-0.051l4.238-3.346zM42.94 14.705l1.43 1.904-7.576 6.333-0.211-6.899 6.357-1.338z" clip-rule="evenodd"/><path fill="#007E8A" fill-rule="evenodd" d="M58.092 38.386l-14.516 2.678-4.345-9.473 18.543 6.23 0.318 0.566z" clip-rule="evenodd"/><path fill="#90A6A6" fill-rule="evenodd" d="M51.894 24.332l5.88 13.488-18.542-6.229-2.013-4.376-0.69-4.376 7.524-6.28c3.143-0.413 5.757 2.178 7.841 7.773" clip-rule="evenodd"/><path fill="#440063" fill-rule="evenodd" d="M35.894 15.786l-7.576 5.096-1.484-6.23L35.311 9.3l0.583 6.487z" clip-rule="evenodd"/><path fill="#00CCBE" fill-rule="evenodd" d="M33.616 4.254c2.437-0.55 4.732-0.206 6.888 1.03 2.119 1.304 3.496 3.14 4.132 5.508 0.318 1.339 0.335 2.626 0.053 3.861l-13.616 9.061-2.702-2.677-0.053-0.154 7.576-5.097-0.582-6.487-8.477 5.354c-0.46-2.265-0.088-4.393 1.112-6.384 1.343-2.093 3.232-3.432 5.67-4.015" clip-rule="evenodd"/><path fill="#00CBBD" fill-rule="evenodd" d="M57.087 36.533L46.014 15.116 68.424 4.15l10.967 22.498-22.305 9.885z" clip-rule="evenodd"/><path fill="#fff" fill-rule="evenodd" d="M62.07 21.397c0.14 0.137 0.193 0.275 0.158 0.412a0.488 0.488 0 0 1-0.159 0.36c-0.142 0.137-0.282 0.189-0.423 0.155-0.212 0-0.353-0.07-0.424-0.206a0.35 0.35 0 0 1-0.106-0.36 0.62 0.62 0 0 1 0.106-0.36 0.512 0.512 0 0 1 0.477-0.155 0.516 0.516 0 0 1 0.37 0.154zm1.589 0.824c0-0.137 0.07-0.258 0.212-0.36 0.106-0.103 0.247-0.138 0.424-0.103a0.719 0.719 0 0 1 0.424 0.154c0.106 0.103 0.14 0.24 0.106 0.412a0.55 0.55 0 0 1-0.16 0.412 0.72 0.72 0 0 1-0.423 0.154 0.81 0.81 0 0 1-0.424-0.206 0.738 0.738 0 0 1-0.16-0.463zm5.457-8.186l-3.55-0.72-1.06 6.177-0.847-5.2-3.709 0.515 0.795 5.252L55.5 20.83l0.742 4.273 8.9 2.523 2.438-4.428 1.536-9.164z" clip-rule="evenodd"/></svg>