<svg xmlns="http://www.w3.org/2000/svg" width="88" height="88" fill="none" viewBox="0 0 88 88"><path fill="#CCC" fill-rule="evenodd" d="M82 43c0 11.038-3.675 20.148-11 27.71-0.655 0.66-1.318 1.292-2 2.053C62.1 78.861 53.937 82 45 82c-9.937 0-18.116-3.14-25-9.237-0.699-0.76-1.36-1.392-2-2.053C10.66 63.148 7 54.038 7 43h75z" clip-rule="evenodd"/><path fill="#EAEAEA" fill-rule="evenodd" d="M71 17.297C78.225 24.644 81.9 33.568 82 44H7c0.067-10.432 3.725-19.356 11-26.703C25.295 9.742 34.136 6 45 6c9.831 0 18.656 3.742 26 11.297" clip-rule="evenodd"/><path fill="#F96" fill-rule="evenodd" d="M33 33.697c0 0.929-0.324 1.703-0.974 2.322C31.376 36.673 30.607 37 29.718 37h-1.436c-0.888 0-1.657-0.327-2.308-0.98C25.325 35.4 25 34.625 25 33.696v-1.445c0-0.895 0.325-1.67 0.974-2.323A3.234 3.234 0 0 1 28.282 29h1.436a3.23 3.23 0 0 1 2.308 0.929C32.676 30.583 33 31.357 33 32.252v1.445z" clip-rule="evenodd"/><path fill="#007E8A" fill-rule="evenodd" d="M20 43.34L22.17 37 49 46.71 46.78 53 20 43.34z" clip-rule="evenodd"/><path fill="#9B006C" fill-rule="evenodd" d="M38.893 37.59l9.669 4.16c1.818 0.788 3.107 2.123 3.867 4.005 0.761 1.883 0.761 3.766 0 5.649-0.76 1.882-2.05 3.217-3.867 4.005-1.818 0.788-3.637 0.788-5.455 0l-9.669-4.108c-1.818-0.788-3.107-2.123-3.868-4.005-0.76-1.917-0.76-3.817 0-5.7 0.761-1.883 2.05-3.217 3.868-4.005 1.818-0.788 3.637-0.788 5.455 0" clip-rule="evenodd"/><path fill="#00CCBE" fill-rule="evenodd" d="M43 32.988L56.7 32 58 52l-13.7-2.617L43 32.988z" clip-rule="evenodd"/><path fill="#999" fill-rule="evenodd" d="M36 24.855L49.261 19 58 31.625l-0.559 0.357L43.52 33l-2.388-4.53L36 24.854z" clip-rule="evenodd"/><path fill="#007E8A" fill-rule="evenodd" d="M59 53.796L40 54v-7.857L58.238 39 59 53.796z" clip-rule="evenodd"/><path fill="#999" fill-rule="evenodd" d="M65.223 41.271c0.829 1.492 0.995 3.067 0.498 4.725C63.6 53.324 58.877 59.325 51.553 64c-1.425 0.928-2.982 1.21-4.672 0.846-1.69-0.365-3-1.277-3.927-2.736-0.895-1.425-1.16-2.984-0.796-4.675 0.365-1.658 1.26-2.951 2.685-3.88 4.54-2.917 7.522-6.631 8.947-11.14 0.497-1.624 1.508-2.852 3.033-3.68 1.49-0.796 3.065-0.945 4.722-0.448 1.656 0.465 2.883 1.46 3.678 2.984" clip-rule="evenodd"/><path fill="#00CCBE" fill-rule="evenodd" d="M58.52 43.875C59.162 43.292 59.94 43 60.854 43a3.195 3.195 0 0 1 2.233 0.972C63.696 44.62 64 45.365 64 46.208c-0.033 0.843-0.372 1.572-1.015 2.187L54.36 56.17c-0.642 0.584-1.42 0.859-2.334 0.827h-0.152L40 56.123l0.457-6.221 10.503 0.777 7.56-6.804z" clip-rule="evenodd"/><path fill="#007E8A" fill-rule="evenodd" d="M28.972 32.113a1.506 1.506 0 0 1 0.903 0.896 1.49 1.49 0 0 1 0 1.195L19.086 60.98a1.72 1.72 0 0 1-0.853 0.895c-0.434 0.167-0.853 0.167-1.254 0a1.523 1.523 0 0 1-0.853-0.846c-0.168-0.43-0.168-0.846 0-1.244l10.788-26.776a1.523 1.523 0 0 1 0.853-0.846 1.395 1.395 0 0 1 1.205-0.05" clip-rule="evenodd"/><path fill="#450064" fill-rule="evenodd" d="M17.5 54c-2.067 0-3.833 0.736-5.3 2.207-1.467 1.438-2.2 3.194-2.2 5.268s0.733 3.846 2.2 5.318C13.667 68.264 15.433 69 17.5 69c2.066 0 3.833-0.736 5.3-2.207 1.467-1.472 2.2-3.244 2.2-5.318 0-2.074-0.733-3.83-2.2-5.268C21.333 54.736 19.566 54 17.5 54zM9.535 69.465C7.178 67.14 6 64.319 6 61c0-3.32 1.178-6.141 3.535-8.465C11.86 50.178 14.681 49 18 49c3.32 0 6.141 1.178 8.465 3.535C28.82 54.86 30 57.681 30 61c0 3.32-1.18 6.141-3.535 8.465C24.14 71.822 21.319 73 18 73c-3.32 0-6.141-1.178-8.465-3.535z" clip-rule="evenodd"/><path fill="#9B006C" fill-rule="evenodd" d="M7.136 51.242C9.848 48.414 13.136 47 17 47c3.864 0 7.152 1.414 9.864 4.242A15.797 15.797 0 0 1 29 54H5a15.748 15.748 0 0 1 2.136-2.758" clip-rule="evenodd"/><path fill="#CCC" fill-rule="evenodd" d="M36.476 40c0.998 0 1.834 0.336 2.51 1.007C39.662 41.71 40 42.54 40 43.5c0 0.959-0.338 1.774-1.014 2.445C38.31 46.648 37.474 47 36.476 47c-0.966 0-1.786-0.352-2.462-1.055C33.338 45.274 33 44.46 33 43.5c0-0.959 0.338-1.79 1.014-2.493C34.69 40.336 35.51 40 36.476 40" clip-rule="evenodd"/><path fill="#FB5058" fill-rule="evenodd" d="M72.957 44v0.05c2.885 0.229 5.372 1.373 7.462 3.435C82.805 49.84 84 52.655 84 55.926c0 3.305-1.194 6.119-3.582 8.442a10.818 10.818 0 0 1-2.586 2.061c-1.492 0.82-3.117 1.293-4.875 1.424v0.049L37.89 68l-2.786-0.442c-2.09-0.49-3.947-1.554-5.571-3.19C27.177 62.045 26 59.231 26 55.926c0-3.271 1.177-6.086 3.532-8.441 1.624-1.603 3.482-2.65 5.57-3.141l1.94-0.295h5.124c0.431 2.356 1.542 4.434 3.333 6.233 2.355 2.356 5.223 3.534 8.606 3.534 3.35 0 6.2-1.178 8.555-3.534 1.824-1.8 2.952-3.893 3.383-6.282h6.914z" clip-rule="evenodd"/><path fill="#fff" fill-rule="evenodd" d="M24.58 67.612c1.04 0 1.945 0.285 2.717 0.856a8.852 8.852 0 0 1 1.61-2.166c1.611-1.646 3.574-2.468 5.889-2.468 2.315 0 4.295 0.822 5.938 2.468a8.523 8.523 0 0 1 1.61 2.216c1.51-1.31 3.305-1.964 5.386-1.964 1.107 0 2.13 0.184 3.07 0.554 0.57-1.68 1.543-3.207 2.919-4.583 2.348-2.35 5.2-3.525 8.555-3.525 3.355 0 6.206 1.175 8.555 3.525a13.243 13.243 0 0 1 1.661 2.015A11.673 11.673 0 0 1 74 68.065L66.803 73H20.05A6.382 6.382 0 0 1 20 72.194c0-1.276 0.453-2.367 1.359-3.273 0.872-0.873 1.945-1.31 3.22-1.31" clip-rule="evenodd"/><path fill="#450064" fill-rule="evenodd" d="M60 61.475c0 2.073 0.736 3.846 2.207 5.318C63.645 68.264 65.401 69 67.475 69s3.846-0.736 5.318-2.207C74.264 65.32 75 63.548 75 61.475c0-2.074-0.736-3.83-2.207-5.268C71.32 54.736 69.549 54 67.475 54c-2.074 0-3.83 0.736-5.268 2.207C60.736 57.645 60 59.401 60 61.475zm-0.465 7.99C57.18 67.14 56 64.319 56 61c0-3.32 1.18-6.141 3.535-8.465C61.86 50.178 64.681 49 68 49c3.32 0 6.141 1.178 8.465 3.535C78.822 54.86 80 57.681 80 61c0 3.32-1.178 6.141-3.535 8.465C74.14 71.822 71.319 73 68 73c-3.32 0-6.141-1.178-8.465-3.535z" clip-rule="evenodd"/><path fill="#450064" fill-rule="evenodd" d="M67.976 64a2.8 2.8 0 0 1-2.112-0.912C65.288 62.512 65 61.808 65 60.976c0-0.832 0.288-1.536 0.864-2.112C66.44 58.288 67.144 58 67.976 58c0.832 0 1.536 0.288 2.112 0.864A2.798 2.798 0 0 1 71 60.976a2.798 2.798 0 0 1-0.912 2.112A2.798 2.798 0 0 1 67.976 64" clip-rule="evenodd"/><path fill="#9B006C" fill-rule="evenodd" d="M54.05 60.638c0.103-3.685 1.46-6.853 4.074-9.505C60.839 48.377 64.13 47 68 47c3.87 0 7.16 1.377 9.876 4.133 2.613 2.652 3.988 5.82 4.124 9.505V61H54a1.143 1.143 0 0 1 0.05-0.362" clip-rule="evenodd"/><path fill="#450064" fill-rule="evenodd" d="M15.912 63.136C15.304 62.528 15 61.808 15 60.976a2.798 2.798 0 0 1 0.912-2.112C16.488 58.288 17.192 58 18.024 58c0.831 0 1.536 0.288 2.112 0.864C20.712 59.44 21 60.144 21 60.976a3.034 3.034 0 0 1-0.864 2.16C19.56 63.712 18.856 64 18.024 64c-0.832 0-1.536-0.288-2.112-0.864" clip-rule="evenodd"/><path fill="#9B006C" fill-rule="evenodd" d="M23.493 44.384C22.49 45.46 21.29 46 19.896 46A4.863 4.863 0 0 1 18 45.635v-10.27A4.883 4.883 0 0 1 19.896 35c1.393 0 2.593 0.54 3.597 1.616 1.004 1.077 1.507 2.38 1.507 3.91 0 1.53-0.503 2.815-1.507 3.858" clip-rule="evenodd"/><path fill="#00CCBE" fill-rule="evenodd" d="M32.543 31h5.966L40 38H39.537L31 37.3l1.543-6.3z" clip-rule="evenodd"/><path fill="#999" fill-rule="evenodd" d="M51.14 23.975c0.605 0.615 0.892 1.36 0.857 2.235-0.033 0.843-0.37 1.572-1.007 2.187l-8.514 7.728c-0.605 0.518-1.276 0.81-2.015 0.875L39 30.682h0.05l7.507-6.805c0.672-0.615 1.444-0.907 2.317-0.874 0.907 0.032 1.662 0.356 2.267 0.972" clip-rule="evenodd"/><path fill="#440063" fill-rule="evenodd" d="M42 13l-0.989 6.684L33 23l0.05-6.631L42 13z" clip-rule="evenodd"/><path fill="#FB5058" fill-rule="evenodd" d="M35.562 10.521C37.205 8.84 39.192 8 41.525 8c2.365 0 4.368 0.84 6.011 2.521C49.178 12.235 50 14.285 50 16.672c0 1.345-0.263 2.589-0.788 3.731L34.872 26 33 22.773v-0.151l7.983-3.126 0.985-6.303-8.919 3.177c0.066-2.286 0.903-4.236 2.513-5.849" clip-rule="evenodd"/><path fill="#440063" fill-rule="evenodd" d="M58 31l-0.945 6.702L49 41l0.05-6.596L58 31z" clip-rule="evenodd"/><path fill="#FB5058" fill-rule="evenodd" d="M63.536 28.521C65.18 30.235 66 32.285 66 34.672c0 1.379-0.263 2.622-0.788 3.731L50.823 44 49 40.773v-0.1l7.983-3.127 0.936-6.353-8.87 3.227v-0.05c0.066-2.252 0.887-4.202 2.464-5.849C53.155 26.84 55.159 26 57.525 26c2.332 0 4.336 0.84 6.011 2.521" clip-rule="evenodd"/></svg>