<svg xmlns="http://www.w3.org/2000/svg" width="88" height="88" fill="none" viewBox="0 0 88 88"><path fill="#9C006D" fill-rule="evenodd" d="M69.272 75.248C62.102 81.083 53.678 84 44 84c-4.415 0-8.583-0.618-12.503-1.853-4.628-1.442-8.883-3.741-12.769-6.9h50.544z" clip-rule="evenodd"/><path fill="#EAEAEA" fill-rule="evenodd" d="M44 6.21c6.146 0 11.798 1.184 16.954 3.552 4.132 1.887 7.912 4.496 11.337 7.825C80.097 25.207 84 34.371 84 45.08c0 10.572-3.762 19.598-11.285 27.08a2.353 2.353 0 0 1-0.424 0.412 42.72 42.72 0 0 1-3.02 2.677H18.729a42.966 42.966 0 0 1-3.02-2.677C7.905 65.02 4 55.856 4 45.079c0-10.708 3.904-19.872 11.709-27.492a78.835 78.835 0 0 1 3.125-2.78C26.004 9.075 34.394 6.21 44 6.21" clip-rule="evenodd"/><path fill="#440063" fill-rule="evenodd" d="M17.934 59.597c-1.2 0.378-2.05 1.218-2.543 2.523-0.53 1.441-0.495 3.003 0.106 4.685 0.636 1.716 1.677 3.037 3.126 3.964 1.271 0.824 2.56 1.064 3.867 0.72h-0.053c1.166-0.377 1.996-1.183 2.49-2.419 0.565-1.51 0.53-3.089-0.106-4.736-0.6-1.717-1.625-3.055-3.072-4.016-1.307-0.824-2.578-1.064-3.815-0.72zm-1.06-3.398c2.26-0.72 4.557-0.343 6.888 1.133 2.12 1.339 3.638 3.261 4.556 5.766 0.919 2.54 0.936 4.925 0.053 7.156-0.918 2.436-2.543 3.998-4.874 4.685-2.296 0.687-4.591 0.292-6.887-1.184-2.156-1.338-3.69-3.26-4.61-5.766-0.883-2.54-0.9-4.925-0.053-7.156 0.954-2.437 2.596-3.982 4.928-4.634z" clip-rule="evenodd"/><path fill="#9C006D" fill-rule="evenodd" d="M23.232 37.563l3.126 0.463-4.503 29.345-3.073-0.463 4.45-29.345z" clip-rule="evenodd"/><path fill="#FF5863" fill-rule="evenodd" d="M55.39 46.675l-6.357-3.861 22.888-7.465 1.642 2.316-21.51 14.107-5.086 3.706 8.424-8.803zm-5.297 11.738l2.755-4.376 0.53 1.236 12.82-8.753L52.53 70.306 37.695 67.32l12.398-9.68v0.773zM25.457 40.394l3.92-2.06 9.484-2.78 10.172 7.26-16 3.089-7.576-5.509zm6.358 18.07l-14.411-7.773 5.298 0.463 20.715 1.905-11.073 13.23-0.53-7.825z" clip-rule="evenodd"/><path fill="#91A7A7" fill-rule="evenodd" d="M16.821 43.998l1.113-2.42 7.046 3.81-9.43 1.339 1.271-2.729z" clip-rule="evenodd"/><path fill="#9C006D" fill-rule="evenodd" d="M49.033 42.814l6.358 3.861-8.424 8.804 5.086-3.707 0.795 2.265-2.755 4.376v-0.772L37.695 67.32l-5.35-1.03 11.072-13.231-20.715-1.905-11.497-3.861 4.345-0.566 9.43-1.34 0.477-4.993 7.576 5.509 16-3.09zm-31.1-1.236l-1.112 2.42-3.602-2.06 5.721-11.686-1.006 11.326z" clip-rule="evenodd"/><path fill="#fff" fill-rule="evenodd" d="M11.206 47.293l2.013-5.355 3.603 2.06-1.272 2.728-4.344 0.567zM43.322 65.824c2.382 0 4.42 0.822 6.117 2.464a9.012 9.012 0 0 1 1.679 2.203c1.588-1.293 3.446-1.94 5.576-1.94a8.921 8.921 0 0 1 3.194 0.576c0.614-1.712 1.606-3.233 2.978-4.561C65.321 62.188 68.28 61 71.746 61c2.562 0 4.98 0.769 7.254 2.307-2.454 4.51-5.757 8.39-9.908 11.64L28.054 75A5.444 5.444 0 0 1 28 74.213c0-1.258 0.469-2.341 1.408-3.25 0.902-0.909 2.021-1.364 3.356-1.364 1.083 0 2.003 0.297 2.761 0.892a8.403 8.403 0 0 1 1.733-2.203c1.661-1.642 3.681-2.464 6.064-2.464" clip-rule="evenodd"/><path fill="#440063" fill-rule="evenodd" d="M67.258 59.597c-1.306-0.343-2.524-0.103-3.655 0.721-1.272 0.892-2.101 2.145-2.49 3.758v0.052c-0.39 1.647-0.194 3.226 0.583 4.736 0.706 1.339 1.695 2.214 2.966 2.626 1.307 0.343 2.527 0.103 3.656-0.72 1.272-0.894 2.101-2.146 2.49-3.76 0.424-1.682 0.247-3.277-0.53-4.787-0.705-1.339-1.713-2.214-3.02-2.626zm-5.774-2.214c2.119-1.51 4.38-1.922 6.781-1.235 2.331 0.652 4.098 2.162 5.298 4.53 1.166 2.197 1.449 4.565 0.848 7.105-0.6 2.608-1.907 4.582-3.92 5.92-2.155 1.511-4.416 1.923-6.782 1.236-2.331-0.652-4.115-2.162-5.351-4.53v0.051c-1.166-2.231-1.43-4.617-0.795-7.156 0.601-2.574 1.907-4.548 3.92-5.92zM20.795 36.173a3.003 3.003 0 0 1 2.172-0.876h1.59c0.847 0 1.554 0.292 2.119 0.876 0.636 0.548 0.953 1.253 0.953 2.11v1.545c0 0.789-0.318 1.475-0.953 2.06-0.565 0.617-1.272 0.926-2.12 0.926h-1.589c-0.848 0-1.571-0.309-2.172-0.927-0.6-0.584-0.9-1.27-0.9-2.06v-1.544c0-0.857 0.3-1.562 0.9-2.11" clip-rule="evenodd"/><path fill="#FF5863" fill-rule="evenodd" d="M36.53 34.165l-6.146-5.458 9.749-9.37 5.827 5.818-9.43 9.01z" clip-rule="evenodd"/><path fill="#9C006D" fill-rule="evenodd" d="M30.385 28.708l6.145 5.457-7.258 6.898-5.828-5.714 6.94-6.641zM53.166 61.76l2.543-4.788 11.338 8.031-0.848 2.677-13.033-5.92z" clip-rule="evenodd"/><path fill="#440063" fill-rule="evenodd" d="M53.377 34.577c1.484 0.137 2.685 0.79 3.603 1.956 0.954 1.099 1.343 2.352 1.166 3.758-0.141 1.476-0.777 2.66-1.908 3.552l-6.251 4.891 11.178 7.053-6.675 11.07-1.854-6.23-14.517-8.237a5.72 5.72 0 0 1-1.536-2.523 4.888 4.888 0 0 1 0.053-2.935 5.618 5.618 0 0 1 1.695-2.47l6.676-5.304c0.07 0 0.124-0.016 0.159-0.051v-0.051l4.238-3.347c1.2-0.927 2.525-1.305 3.973-1.133M42.94 14.704l1.43 1.905-7.576 6.332-0.211-6.898 6.357-1.339z" clip-rule="evenodd"/><path fill="#FF5863" fill-rule="evenodd" d="M51.894 24.332l5.775 13.23-18.596-6.383-1.854-3.964-0.69-4.377 7.524-6.28c3.144-0.412 5.757 2.178 7.841 7.774" clip-rule="evenodd"/><path fill="#9C006D" fill-rule="evenodd" d="M58.093 38.386l-14.516 2.677-4.504-9.884 18.596 6.384 0.424 0.823z" clip-rule="evenodd"/><path fill="#440063" fill-rule="evenodd" d="M28.318 20.882l-1.484-6.23 8.477-5.354 0.583 6.487-7.576 5.097z" clip-rule="evenodd"/><path fill="#FF5863" fill-rule="evenodd" d="M44.636 10.792c0.317 1.338 0.335 2.625 0.053 3.86l-13.616 9.062-2.702-2.677-0.053-0.155 7.576-5.097L35.31 9.3l-8.477 5.354c-0.459-2.265-0.088-4.394 1.113-6.384 1.342-2.093 3.232-3.433 5.669-4.016 2.437-0.549 4.733-0.206 6.887 1.03 2.12 1.305 3.497 3.14 4.133 5.509" clip-rule="evenodd"/><path fill="#9C006D" fill-rule="evenodd" d="M57.087 36.533L46.014 15.116 68.424 4.15l10.967 22.498-22.305 9.885z" clip-rule="evenodd"/></svg>