<svg xmlns="http://www.w3.org/2000/svg" width="88" height="88" fill="none" viewBox="0 0 88 88"><path fill="#007E8A" fill-rule="evenodd" d="M69.505 73.438a36.162 36.162 0 0 1-5.104 3.6C58.82 80.346 52.528 82 45.525 82c-7.003 0-13.328-1.654-18.976-4.962a37.762 37.762 0 0 1-5.054-3.6 5.27 5.27 0 0 0-0.446-0.39C21.017 73.049 21 73.033 21 73h49c0 0.032-0.017 0.049-0.05 0.049a5.431 5.431 0 0 0-0.445 0.389" clip-rule="evenodd"/><path fill="#CCC" fill-rule="evenodd" d="M7 44h76c0 10.84-3.725 19.785-11 27-0.778 0.827-1.432 1.431-2 2H20c-0.585-0.569-1.24-1.173-2-2-7.293-7.215-11-16.16-11-27" clip-rule="evenodd"/><path fill="#EAEAEA" fill-rule="evenodd" d="M7 44c0.066-10.432 3.775-19.356 11-26.703C25.539 9.742 34.497 6 45 6c10.469 0 19.41 3.742 27 11.297C79.175 24.644 82.9 33.568 83 44H7z" clip-rule="evenodd"/><path fill="#450064" fill-rule="evenodd" d="M61 63l-1.321 5.9-8.662 0.1c-0.163-2.447 0.849-3.834 3.034-4.165l1.909-0.248L56.596 63H61z" clip-rule="evenodd"/><path fill="#007E8A" fill-rule="evenodd" d="M62.5 35l7.5 1.888L62.5 66 55 64.112 62.5 35z" clip-rule="evenodd"/><path fill="#450064" fill-rule="evenodd" d="M76.7 54.767v-0.05c-1.396-1.602-3.065-2.503-5.006-2.7-1.84-0.13-3.39 0.46-4.65 1.768-1.396 1.44-2.076 3.257-2.043 5.45 0 2.29 0.75 4.287 2.248 5.989 1.397 1.636 3.066 2.553 5.007 2.75 1.84 0.163 3.406-0.426 4.7-1.768 1.362-1.44 2.044-3.257 2.044-5.45-0.035-2.258-0.801-4.254-2.3-5.989zM64.166 68.629c-2.077-2.55-3.132-5.502-3.164-8.859-0.034-3.456 1.005-6.325 3.114-8.608 2.208-2.348 4.86-3.39 7.96-3.12 3.031 0.268 5.618 1.71 7.76 4.328 2.077 2.585 3.13 5.555 3.164 8.91 0.033 3.423-1.005 6.275-3.114 8.558-2.175 2.35-4.829 3.39-7.96 3.12-3.031-0.234-5.618-1.678-7.76-4.329zM41 64.381l-1.075 4.476L29.022 69c-0.205-2.826 1.024-4.318 3.686-4.476L34.498 64 41 64.381z" clip-rule="evenodd"/><path fill="#007E8A" fill-rule="evenodd" d="M37.525 40L45 41.474 40.475 65 33 63.526 37.525 40z" clip-rule="evenodd"/><path fill="#450064" fill-rule="evenodd" d="M12.045 53.785c-1.397 1.44-2.078 3.257-2.044 5.45 0 2.258 0.75 4.254 2.248 5.989 1.397 1.636 3.066 2.553 5.007 2.75 1.84 0.163 3.406-0.426 4.7-1.768 1.363-1.44 2.044-3.24 2.044-5.4v-0.05c-0.034-2.258-0.8-4.27-2.3-6.038-1.416-1.606-3.086-2.506-5.006-2.7-1.84-0.13-3.39 0.458-4.65 1.767zM6 59.77c-0.033-3.49 1.005-6.36 3.114-8.608 2.175-2.348 4.828-3.39 7.96-3.12h0.049c2.998 0.268 5.569 1.71 7.711 4.328 2.077 2.585 3.132 5.538 3.164 8.86v0.05c0.033 3.423-1.005 6.26-3.114 8.507v0.05c-2.175 2.35-4.828 3.39-7.96 3.122-2.998-0.235-5.585-1.679-7.76-4.33C7.088 66.045 6.033 63.092 6 59.77zM30.56 15.956l-2.982 0.399L24 14.076v-2.563l9.633 0.512L34 20.513 31.982 19.6l-1.422-3.645z" clip-rule="evenodd"/><path fill="#F96" fill-rule="evenodd" d="M34.85 20.05l0.1-0.05H35l-0.15 0.05zm-7.037-4.157l3.178-0.33 1.516 3.029 2.15 0.757 0.294 0.142-0.098-0.379 0.147 0.38-0.244 0.378L28.253 22c-2.737-0.284-4.139-1.72-4.204-4.308L24 14l3.813 1.893z" clip-rule="evenodd"/><path fill="#007E8A" fill-rule="evenodd" d="M27 22.437L28.618 12 32 12.563 30.382 23 27 22.437z" clip-rule="evenodd"/><path fill="#FB5058" fill-rule="evenodd" d="M34.79 8.978c1.059 1.51 1.423 3.196 1.092 5.058L35.584 15 22 12.495a12.632 12.632 0 0 1 0.149-1.012c0.364-1.83 1.338-3.276 2.925-4.336 1.586-1.027 3.321-1.364 5.205-1.012 1.917 0.321 3.421 1.27 4.512 2.843" clip-rule="evenodd"/><path fill="#007E8A" fill-rule="evenodd" d="M32.965 41L32 38.524 43.832 34 45 37.048 32.965 41z" clip-rule="evenodd"/><path fill="#999" fill-rule="evenodd" d="M25 23.08L34.525 19c4.753 3.392 7.912 8.463 9.475 15.214L32.38 39l-2.942-12.796L25 23.081z" clip-rule="evenodd"/><path fill="#007E8A" fill-rule="evenodd" d="M36.163 40.933c-0.258-0.766-0.21-1.534 0.145-2.3 0.321-0.767 0.852-1.29 1.592-1.568l2.366-0.889c0.707-0.279 1.416-0.227 2.123 0.157 0.708 0.348 1.19 0.923 1.448 1.725a3.135 3.135 0 0 1-0.145 2.352 2.729 2.729 0 0 1-1.592 1.516l-2.366 0.889c-0.707 0.278-1.416 0.243-2.123-0.105-0.708-0.384-1.19-0.975-1.448-1.777" clip-rule="evenodd"/><path fill="#FB5058" fill-rule="evenodd" d="M61.64 52L60 59h8l-6.36-7zm-23.398 6L40 50.052 29 50l9.242 8zM42 59h13.88L58 50.048 44.12 50 42 59zM22.689 39.626l-4.423-0.59 0.503-3.79 6.633 0.886a1.74 1.74 0 0 1 1.005 0.443 1.641 1.641 0 0 1 0.603 0.886 2.179 2.179 0 0 1 0.05 1.033l-1.96 7.283 15.78 0.098 2.16-9.251a1.93 1.93 0 0 1 0.704-1.083c0.335-0.262 0.737-0.393 1.206-0.393h6.282v3.789h-4.724l-1.658 6.938 13.819 0.05L61.232 35l3.819 0.886-2.714 11.416 11.156 12.155a1.777 1.777 0 0 1 0.503 1.378c0 0.492-0.184 0.918-0.553 1.28-0.402 0.36-0.854 0.54-1.357 0.54H39.372a1.865 1.865 0 0 1-1.357-0.54l-0.2-0.198-13.92-11.465-2.161 8.71a1.935 1.935 0 0 1-0.704 1.082L17.412 63 15 59.998l3.116-2.362 2.563-10.285a0.923 0.923 0 0 1 0.05-0.295l1.96-7.43z" clip-rule="evenodd"/><path fill="#CCC" fill-rule="evenodd" d="M40 61.5c0 0.976-0.345 1.81-1.037 2.507C38.306 64.67 37.493 65 36.526 65c-0.968 0-1.797-0.331-2.489-0.993C33.345 63.311 33 62.476 33 61.5c0-0.975 0.345-1.81 1.037-2.508 0.692-0.66 1.521-0.992 2.489-0.992 0.967 0 1.78 0.331 2.437 0.992C39.655 59.69 40 60.526 40 61.5" clip-rule="evenodd"/><path fill="#F96" fill-rule="evenodd" d="M22.09 39L19 38.734 19.869 33l5.89 0.212L26 33v3.504l-3.38-0.477L22.09 39z" clip-rule="evenodd"/><path fill="#00C7BB" fill-rule="evenodd" d="M22 33.14L32.855 20 38 23.078 25.344 37 22 33.14z" clip-rule="evenodd"/><path fill="#450064" fill-rule="evenodd" d="M49 14.5V11l10.596 0.513L60 20l-2.17-0.911-1.614-3.646-3.28 0.399L49 14.5z" clip-rule="evenodd"/><path fill="#F96" fill-rule="evenodd" d="M49.049 17.692L49 14l3.813 1.893 3.178-0.33 1.565 3.029 2.102 0.757L60 19.491l-0.244 0.379L53.302 22c-2.77-0.284-4.188-1.72-4.253-4.308" clip-rule="evenodd"/><path fill="#007E8A" fill-rule="evenodd" d="M52 22.437L53.584 12 57 12.563 55.416 23 52 22.437z" clip-rule="evenodd"/><path fill="#FB5058" fill-rule="evenodd" d="M59.791 8.978c1.058 1.51 1.421 3.196 1.091 5.058A5.436 5.436 0 0 1 60.585 15L47 12.495a12.195 12.195 0 0 1 0.149-1.012c0.364-1.83 1.338-3.276 2.925-4.336 1.586-1.027 3.322-1.364 5.206-1.012 1.916 0.321 3.42 1.27 4.511 2.843" clip-rule="evenodd"/><path fill="#007E8A" fill-rule="evenodd" d="M70 37.456L57.55 40 57 38.512 69.5 34l0.5 3.456z" clip-rule="evenodd"/><path fill="#999" fill-rule="evenodd" d="M49 22.273L59.148 19c5.254 4.949 9.039 10.343 10.352 15L57 38.5l-3.566-13.2L49 22.274z" clip-rule="evenodd"/><path fill="#F96" fill-rule="evenodd" d="M44 38.29L44.94 33 50 33.218v3.218l-2.087-0.272L47.548 39 44 38.29z" clip-rule="evenodd"/><path fill="#CCC" fill-rule="evenodd" d="M55.037 64.007C54.345 63.311 54 62.476 54 61.5c0-0.975 0.345-1.81 1.037-2.508 0.692-0.66 1.504-0.992 2.437-0.992 0.968 0 1.797 0.331 2.489 0.992C60.655 59.69 61 60.526 61 61.5c0 0.976-0.345 1.81-1.037 2.507C59.271 64.67 58.442 65 57.474 65c-0.933 0-1.745-0.331-2.437-0.993" clip-rule="evenodd"/><path fill="#00C7BB" fill-rule="evenodd" d="M50.639 37L47 32.513 58.414 20 63 22.543 50.639 37z" clip-rule="evenodd"/><path fill="#007E8A" fill-rule="evenodd" d="M27.224 44.09a2.937 2.937 0 0 1 0-2.25 2.944 2.944 0 0 1 1.542-1.635l9.154-3.936c0.73-0.34 1.46-0.358 2.19-0.051 0.763 0.306 1.293 0.851 1.592 1.635a2.937 2.937 0 0 1 0 2.25 2.95 2.95 0 0 1-1.543 1.635l-5.323 2.3L42 51.963 37.771 56l-9.9-10.939c-0.266-0.24-0.481-0.562-0.647-0.971" clip-rule="evenodd"/><path fill="#450064" fill-rule="evenodd" d="M42 52.015v4.887L31.137 57c-0.91-3.519 2.711-5.18 10.863-4.985" clip-rule="evenodd"/><path fill="#007E8A" fill-rule="evenodd" d="M64.491 36.07c0.781-0.168 1.497-0.033 2.148 0.404 0.683 0.404 1.106 1.009 1.269 1.816 0.195 0.774 0.08 1.514-0.342 2.22-0.39 0.673-0.976 1.11-1.757 1.312l-9.712 2.422 6.637 7.87L58.488 56l-9.663-11.453a2.895 2.895 0 0 1-0.733-1.363c-0.195-0.807-0.08-1.547 0.342-2.22 0.39-0.706 0.976-1.143 1.757-1.311l14.3-3.583z" clip-rule="evenodd"/><path fill="#450064" fill-rule="evenodd" d="M64 56.905L53.146 57c-0.908-3.426 2.417-5.091 9.978-4.996l0.876 4.9z" clip-rule="evenodd"/></svg>