<svg xmlns="http://www.w3.org/2000/svg" width="88" height="88" fill="none" viewBox="0 0 88 88"><circle cx="44" cy="44" r="38" fill="#00CCBE"/><path fill="#FB5058" d="M34.21 62.88L21.988 48.56c-0.22 0.252-0.396 0.454-0.488 0.508-1.12 1.031-2.245 2.016-3.313 3.089-2.77 2.668-4.968 5.802-7.322 8.81-0.477 0.648-1.057 1.212-1.868 1.328 2.037 0.108 4.056-0.577 5.892-1.153 0 0 0.14-0.059 0.423-0.13-2.422 3.34-3.069 10.557-3.069 10.557s1.147-2.437 3.283-4.022c1.452-1.105 3.635-1.57 4.874-1.769-1.146 1.876-2.347 3.662-3.337 5.665 0.04-0.097 6.985-5.926 16.252-8.3 0.28-0.117 0.611-0.192 0.895-0.263z"/><path fill="#fff" d="M31.26 38.58s-0.161-0.203-0.52-0.476l0.045-0.047s-3.128-3.592-9.322 0.137L7.61 45.864l0.475 0.523 0.055 0.082 0.475 0.524 13.049-5.306s0.139-0.054 0.372-0.118c0.33-0.07 0.757-0.107 1.02 0.174a317.346 317.346 0 0 1 1.582 1.73c0.263 0.281 0.475 0.523 0.475 0.523l0.856-0.636a1.97 1.97 0 0 1 0.212 0.243 6.565 6.565 0 0 0 0.474 0.523l4.605-5.545zM44.933 55.609s0.162 0.215 0.384 0.564l0.091-0.054s3.334 3.664-1.851 8.78L32.671 76.417l-0.48-0.556-0.055-0.087-0.479-0.556 8.125-11.237s0.088-0.1 0.212-0.34c0.167-0.289 0.276-0.71 0.01-1.01-0.637-0.725-1.595-1.837-1.595-1.837a25.107 25.107 0 0 1-0.479-0.556l0.856-0.669c-0.159-0.17-0.214-0.257-0.214-0.257a6.889 6.889 0 0 0-0.479-0.556l6.84-3.146z"/><path fill="#693382" d="M30.293 37.549a2.577 2.577 0 0 0-0.394 0.358c-2.59 2.258-4.939 4.589-7.1 6.903L37.68 62.512a97.175 97.175 0 0 0 8.2-5.606 606.739 606.739 0 0 0 0.399-0.312c0.838-0.673 1.724-1.35 2.563-2.024 0.09-0.054 0.175-0.154 0.265-0.208a0.983 0.983 0 0 0 0.265-0.208c0.835-0.719 1.674-1.392 2.509-2.112a2.577 2.577 0 0 0 0.394-0.358c14.79-12.976 22.58-27.355 23.835-35.387-8.277-0.32-24.083 4.537-39.817 16.388l-0.398 0.312c-0.839 0.673-1.725 1.35-2.563 2.024-0.09 0.054-0.176 0.154-0.266 0.208a0.984 0.984 0 0 0-0.265 0.208 39.003 39.003 0 0 0-2.509 2.112zM32.57 65.64a220.903 220.903 0 0 0 3.508-1.923l-14.83-17.791c-0.878 1.03-1.761 2.014-2.592 3.041L32.571 65.64z"/><path fill="#fff" d="M38.587 47.769l-1.05-1.253-17.58 14.333 1.05 1.252 17.58-14.332z"/><path fill="#000" fill-opacity=".298" d="M29.6 61.492l3.224 4.126a200.566 200.566 0 0 0 3.256-1.883l-3.471-4.39c-0.975 0.698-1.99 1.446-3.01 2.147zM33.803 58.062l3.735 4.462a97.571 97.571 0 0 0 8.23-5.612l0.4-0.312c0.84-0.674 1.73-1.352 2.572-2.026 0.09-0.054 0.176-0.154 0.266-0.208a0.987 0.987 0 0 0 0.266-0.208c0.838-0.72 1.68-1.394 2.517-2.114 0.134-0.104 0.267-0.208 0.396-0.358 14.843-12.99 22.662-27.38 23.923-35.418-0.52-0.002-1.088 0-1.702 0.005-4.266 6.622-17.923 25.819-40.603 41.789z" opacity=".5"/></svg>