<svg width="193" height="146" viewBox="0 0 193 146" xmlns="http://www.w3.org/2000/svg"><g fill="none" fill-rule="evenodd"><path d="M87.417 133.03c3.6 0-75.39 4.908-75.39 4.908l-11.69 4.287 40.276 2.97H94.14l98.34-3.736-18.085-7.52s-90.578-.91-86.978-.91z" fill="#D8D8D8"/><path d="M181.526 79.307l-72.844 12.78 55.936-29.864-19.934-37.64-55.937 29.86L60.014.184 15.334 24.04l7.712 107.69 58.394 8.392 107.52-18.863-7.434-41.953zm-111.76-2.682c-2.502-1.55-3.122-4.372-2.994-7.583.124-3.213 3.268-5.526 7.84-5.634 3.396-.08 4.985 3.683 5.578 5.623.225.737.286 1.507.176 2.268-.223 1.556-.88 4.27-2.76 5.32-2.71 1.514-5.335 1.557-7.84.007zm5.15 30.34c-3.058-.77-4.55-4.665-3.77-9.14.53-3.02 3.81-3.945 5.89-4.23 1.134-.154 2.285-.01 3.347.43 1.462.607 3.463 1.742 4.035 3.55.927 2.946.34 5.877-1.635 8.002-1.97 2.13-4.802 2.16-7.866 1.39z" fill="#FFE500"/></g></svg>