<svg xmlns="http://www.w3.org/2000/svg" width="88" height="88" fill="none" viewBox="0 0 88 88"><path fill="#00CCBC" d="M82 44c0 20.987-17.013 38-38 38S6 64.987 6 44 23.013 6 44 6s38 17.013 38 38z"/><path fill="#440063" fill-rule="evenodd" d="M50.96 11.758l1.755 35.488-6.066 0.3-1.754-35.488 6.066-0.3z" clip-rule="evenodd"/><path fill="#FB5058" d="M65.46 42l-51.643 3.272 5.635 31.035 43.463-2.75L65.459 42z"/><path fill="#9C006D" d="M74.933 41.386l-9.474 0.591-2.544 31.58 9.292-0.59 2.726-31.58z"/><path fill="#9C006D" d="M78 41.205l-0.454-9.11-12.102 0.84v9.06L78 41.204z"/><path fill="#FB5058" d="M10 36.365l0.454 9.111L65.45 42.02v-9.085L10 36.365z"/><path fill="#000" fill-opacity=".2" d="M13.816 45.272l0.727 3.953 59.64 1.022 0.75-8.86-61.117 3.885z"/><path fill="#9C006D" fill-rule="evenodd" d="M23.542 68.595l-0.908-19.834 3.092-0.166 0.908 19.834-3.092 0.166zM31.812 68.073l-0.908-19.834 3.092-0.166 0.908 19.833-3.092 0.167zM40.06 67.55L39.15 47.716l3.092-0.166 0.908 19.834-3.092 0.166zM48.33 67.028l-0.908-19.834 3.092-0.166 0.908 19.833-3.092 0.166zM56.622 66.482l-0.908-19.834 3.092-0.166 0.908 19.834-3.092 0.166zM51.303 17.754l-11.38 0.73 1.115 22.49-6.066 0.302-1.412-28.47 17.354-1.113 0.39 6.061z" clip-rule="evenodd"/><path fill="#000" fill-opacity=".2" fill-rule="evenodd" d="M54.664 14.713C51.554 17.823 50 21.593 50 26.025c0 4.432 1.555 8.203 4.664 11.311C57.806 40.446 61.577 42 65.975 42c4.399 0 8.17-1.554 11.312-4.664C80.429 34.228 82 30.457 82 26.025s-1.57-8.202-4.713-11.312C74.144 11.571 70.374 10 65.975 10c-4.398 0-8.169 1.57-11.311 4.713z" clip-rule="evenodd"/><path fill="#fff" fill-rule="evenodd" d="M79.336 12.713C76.194 9.571 72.408 8 67.976 8c-4.4 0-8.153 1.57-11.263 4.713C53.572 15.822 52 19.593 52 24.025c0 4.432 1.572 8.203 4.713 11.311C59.823 38.446 63.577 40 67.975 40c4.433 0 8.219-1.554 11.361-4.664C82.446 32.228 84 28.457 84 24.025s-1.555-8.203-4.664-11.312z" clip-rule="evenodd"/><path fill="#FB5058" d="M68.003 34.905c3.86 0 6.21-2.241 6.21-6.75v-7.56c0-4.509-2.35-6.75-6.21-6.75-3.861 0-6.21 2.241-6.21 6.75v7.56c0 4.509 2.349 6.75 6.21 6.75zm0-4.05c-1.107 0-1.755-0.648-1.755-2.565v-7.83c0-1.944 0.675-2.565 1.755-2.565 1.08 0 1.755 0.621 1.755 2.565v7.83c0 1.917-0.648 2.565-1.755 2.565z"/></svg>