<svg xmlns="http://www.w3.org/2000/svg" width="88" height="88" fill="none" viewBox="0 0 88 88"><circle cx="44" cy="44" r="38" fill="#00CCBD"/><path fill="#FB5058" fill-rule="evenodd" d="M63 23.907L56.654 20 52 27.754 58.104 31 63 23.907z" clip-rule="evenodd"/><path fill="#fff" fill-rule="evenodd" d="M39.904 19L33 20.882 35.096 28 42 26.118 39.904 19z" clip-rule="evenodd"/><path fill="#FB5058" fill-rule="evenodd" d="M23.754 42L27 35.34 19.907 30 16 36.923 23.754 42z" clip-rule="evenodd"/><path fill="#450064" fill-rule="evenodd" d="M67.115 42.757C65.39 36.679 61.733 32.08 56.147 28.96c-5.462-3.08-11.254-3.757-17.375-2.032-6.08 1.724-10.701 5.316-13.863 10.777-3.04 5.584-3.697 11.415-1.972 17.491 1.685 6.117 5.278 10.696 10.783 13.735 5.545 3.16 11.358 3.88 17.437 2.155 6.12-1.724 10.72-5.358 13.801-10.9 3.122-5.503 3.841-11.313 2.157-17.43z" clip-rule="evenodd"/><path fill="#fff" fill-rule="evenodd" d="M61.527 58.277c2.553-4.568 3.129-9.384 1.73-14.446-1.4-5.021-4.407-8.807-9.019-11.359-4.529-2.552-9.306-3.128-14.33-1.728-5.065 1.44-8.895 4.424-11.489 8.951-2.511 4.61-3.067 9.424-1.668 14.446 1.4 5.062 4.386 8.847 8.957 11.359 4.57 2.592 9.389 3.169 14.453 1.728 5.025-1.399 8.812-4.383 11.366-8.951z" clip-rule="evenodd"/><path fill="#FB5058" fill-rule="evenodd" d="M53.591 33.026a2.211 2.211 0 0 0-1.238 0.865l-9.055 13.276a1.813 1.813 0 0 0-0.26 1.359 1.925 1.925 0 0 0 0.911 1.173 1.802 1.802 0 0 0 1.434 0.247c0.55-0.097 0.962-0.365 1.237-0.803l9.056-13.276a1.605 1.605 0 0 0 0.26-1.42c-0.101-0.471-0.384-0.842-0.846-1.112a2.143 2.143 0 0 0-1.499-0.309z" clip-rule="evenodd"/><path fill="#450064" fill-rule="evenodd" d="M44.598 37.379c-0.46-0.3-1.006-0.421-1.642-0.366a2.525 2.525 0 0 0-1.493 0.671c-0.364 0.415-0.514 0.863-0.448 1.343l1.493 10.314c0.079 0.52 0.352 0.926 0.82 1.22a2.477 2.477 0 0 0 1.643 0.428c0.636-0.065 1.133-0.31 1.493-0.732 0.415-0.375 0.59-0.823 0.522-1.343L45.493 38.6c-0.079-0.48-0.377-0.887-0.895-1.221z" clip-rule="evenodd"/><path fill="#450064" fill-rule="evenodd" d="M48.457 50.95c0.569-0.981 0.69-2.003 0.365-3.066-0.283-1.063-0.913-1.86-1.887-2.39-0.935-0.532-1.929-0.635-2.985-0.307-1.054 0.286-1.867 0.899-2.436 1.84-0.527 0.938-0.649 1.94-0.365 3.003 0.325 1.063 0.955 1.88 1.888 2.452 0.974 0.531 1.99 0.654 3.045 0.368 1.056-0.327 1.848-0.96 2.375-1.9zM43 19.41L41.258 13 29 16.59 30.742 23 43 19.41z" clip-rule="evenodd"/></svg>