<svg xmlns="http://www.w3.org/2000/svg" width="88" height="88" fill="none" viewBox="0 0 88 88"><path fill="#00CCBC" fill-rule="evenodd" d="M8.768 58.56c1.779 4.327 4.43 8.282 7.953 11.872a2.26 2.26 0 0 0 0.402 0.401 40.93 40.93 0 0 0 5.436 4.577C28.8 79.803 35.947 82 44 82c4.195 0 8.154-0.605 11.878-1.812 3.39-1.072 6.576-2.664 9.563-4.778a36.392 36.392 0 0 0 5.436-4.577c3.724-3.689 6.51-7.779 8.355-12.273C81.077 54.102 82 49.239 82 43.974c0-10.46-3.708-19.414-11.123-26.857a74.086 74.086 0 0 0-2.97-2.716C61.096 8.8 53.126 6 44 6c-5.838 0-11.207 1.157-16.106 3.47-3.926 1.844-7.516 4.393-10.77 7.647C9.706 24.56 6 33.513 6 43.974c0 5.264 0.923 10.127 2.768 14.587z" clip-rule="evenodd"/><path fill="#440063" d="M71 28H17v50h54V28z"/><path fill="#E8EBEB" d="M69 28H19v48h50V28z"/><path fill="#000" fill-opacity=".2" d="M70 28H19v12l51-8v-4z"/><path fill="#fff" d="M70 42.706L42.973 53.658v-8.282L70 33.315v9.392z" opacity=".2"/><path fill="#00CCBD" d="M60.934 37.002L49 38.255l1.897 17.9L62.831 54.9l-1.897-17.9z"/><path fill="#fff" d="M57.344 41.65l2.449-0.004-0.01 6.215-1.064 3.201-6.195-0.628-0.904-2.74 3.374-1.079-1.132-3.428 2.334-0.752 1.132 3.428 0.016-4.213zm-1.285 6.253c0.115-0.125 0.14-0.272 0.074-0.442-0.026-0.094-0.118-0.165-0.276-0.213a0.322 0.322 0 0 0-0.122-0.011c-0.23 0.032-0.357 0.118-0.383 0.257a0.598 0.598 0 0 0 0.035 0.335 0.286 0.286 0 0 0 0.21 0.159c0.214 0.05 0.368 0.021 0.462-0.085zm1.774 0.006c0.084-0.194 0.084-0.346 0-0.458-0.102-0.134-0.25-0.191-0.44-0.171-0.088 0.01-0.165 0.074-0.233 0.193a0.292 0.292 0 0 0-0.065 0.188c-0.01 0.202 0.046 0.325 0.171 0.368a0.735 0.735 0 0 0 0.354 0.035 0.316 0.316 0 0 0 0.213-0.155z"/><path fill="#440063" d="M42.023 46.195h-4v12h4v-12z"/><path fill="#440063" d="M43 32h-2v45h2V32z"/><path fill="#00717C" d="M71.113 20H16.887L9 32h70l-7.887-12z"/><path fill="#440063" d="M71 10H17v10h54V10zM70 61H43v15h27V61z"/><path fill="#007E8A" d="M41 61H19v15h22V61z"/></svg>