<svg xmlns="http://www.w3.org/2000/svg" width="88" height="88" fill="none" viewBox="0 0 88 88"><path fill="#00CCBC" fill-rule="evenodd" d="M6 43.95c0 7.382 1.81 13.975 5.435 19.78a2.603 2.603 0 0 0 0.251 0.402c1.51 2.349 3.322 4.599 5.436 6.746C24.538 78.294 33.497 82 44 82c10.468 0 19.427-3.706 26.876-11.122 2.114-2.147 3.926-4.397 5.436-6.746C80.103 58.228 82 51.5 82 43.951c0-10.47-3.708-19.428-11.124-26.878C63.426 9.69 54.468 6 44 6 33.497 6 24.538 9.691 17.122 17.073c-2.248 2.249-4.144 4.631-5.687 7.148C7.81 30.059 6 36.636 6 43.95z" clip-rule="evenodd"/><path fill="#91A7A7" d="M47.848 28.586V19H23a1 1 0 0 0-1 1v50h41V33.407H52.71c-2.674 0-4.862-2.169-4.862-4.82z"/><path fill="#fff" d="M52.264 23.838V14H27a1 1 0 0 0-1 1v51.34h41.659V28.787H57.203c-2.716 0-4.94-2.226-4.94-4.948z"/><path fill="#450064" d="M57.602 28.79c-4.273 0-5.34-1.438-5.34-4.642V14L67.66 28.79H57.602z"/><path fill="#450064" fill-rule="evenodd" d="M31 38h33v-4H31v4z" clip-rule="evenodd"/><path fill="#BAC3C3" fill-rule="evenodd" d="M31 46h33v-4H31v4zM31 54h33v-4H31v4zM31 62h14v-4H31v4z" clip-rule="evenodd"/><circle cx="36.5" cy="24.5" r="5.5" fill="#BAC3C3"/><path fill="#FB5058" d="M63.889 83h-5.626a1.684 1.684 0 0 1-1.688-1.688V71h-6.168c-1.251 0-1.877-1.607-0.991-2.493l10.696-11.111a1.363 1.363 0 0 1 1.92 0l10.71 11.111C73.63 69.393 73.004 71 71.753 71H65.57v10.312A1.678 1.678 0 0 1 63.889 83z"/></svg>