<svg xmlns="http://www.w3.org/2000/svg" width="88" height="88" fill="none" viewBox="0 0 88 88"><path fill="#77BF2A" fill-rule="evenodd" d="M70.891 17.101C63.486 9.7 54.521 6 44 6 33.51 6 24.565 9.7 17.159 17.101 9.719 24.535 6 33.493 6 43.975s3.72 19.44 11.159 26.874C24.565 78.283 33.51 82 44 82c10.521 0 19.486-3.717 26.891-11.151C78.297 63.414 82 54.457 82 43.975S78.297 24.535 70.891 17.1z" clip-rule="evenodd"/><path fill="#fff" d="M26.288 42.872L22 47.928 36.784 60.6 66.48 31.8 61.808 27 36.464 51.576l-10.176-8.704z"/></svg>