<svg xmlns="http://www.w3.org/2000/svg" width="88" height="88" fill="none" viewBox="0 0 88 88"><path fill="#00C7BB" fill-rule="evenodd" d="M27.894 9.47c-3.926 1.845-7.515 4.394-10.77 7.646C9.707 24.56 6 33.513 6 43.975 6 54.302 9.574 63.12 16.72 70.43a2.3 2.3 0 0 0 0.403 0.403C24.54 78.278 33.498 82 44 82c4.195 0 8.154-0.604 11.878-1.81 5.537-1.778 10.537-4.897 14.999-9.356C78.293 63.457 82 54.504 82 43.974c0-10.461-3.707-19.414-11.123-26.858a75.695 75.695 0 0 0-2.97-2.716C61.096 8.8 53.127 6 44 6c-5.838 0-11.207 1.157-16.106 3.47z" clip-rule="evenodd"/><path fill="#017C88" d="M29.429 25.33l-5.92-5.92 0.91-0.91h7.286l4.554 4.554v6.83L58.116 51.74h6.83l4.554 4.554v7.74l-0.91 0.456-5.92-5.92h-2.277l-1.822 1.822v2.277l5.92 5.92-0.455 0.91h-7.741l-4.554-4.554v-6.83L30.34 36.26h-7.285L18.5 31.705V24.42l0.91-0.911 5.92 5.92h2.277l1.822-1.822V25.33z"/><path fill="#fff" d="M56.379 23.498l-0.14 3.75-20.37 20.37 4.513 4.514 20.37-20.37 3.76-0.13 4.95-9.546-3.535-3.535-9.548 4.947z"/><path fill="#450064" fill-rule="evenodd" d="M20.312 59.203a6 6 0 0 0 8.485 8.485L42.94 53.546l-8.486-8.485-14.142 14.142z" clip-rule="evenodd"/><path fill="#FB5058" d="M39.403 57.082l-8.485-8.486 3.536-3.535 8.485 8.485z"/></svg>