<svg xmlns="http://www.w3.org/2000/svg" width="88" height="88" fill="none" viewBox="0 0 88 88"><path fill="#00CCBC" fill-rule="evenodd" d="M7 43.95c0 7.382 1.81 13.975 5.435 19.78a2.603 2.603 0 0 0 0.251 0.402c1.51 2.349 3.322 4.599 5.436 6.746C25.538 78.294 34.497 82 45 82c10.468 0 19.427-3.706 26.876-11.122 2.114-2.147 3.926-4.397 5.436-6.746C81.103 58.228 83 51.5 83 43.951c0-10.47-3.708-19.428-11.124-26.878C64.426 9.69 55.468 6 45 6 34.497 6 25.538 9.691 18.122 17.073c-2.248 2.249-4.144 4.631-5.687 7.148C8.81 30.059 7 36.636 7 43.95z" clip-rule="evenodd"/><path fill="#FB5058" d="M24.362 73l-4.893-7.572h18.93L32.75 73h-8.387zM55.913 73l-4.892-7.572h18.93L64.301 73h-8.388z"/><path fill="#fff" d="M13.965 16.99c0-2.203 1.853-3.99 4.138-3.99H70.86C73.147 13 75 14.787 75 16.99v47.882c0 2.204-1.852 3.99-4.138 3.99H18.103c-2.286 0-4.138-1.786-4.138-3.99V16.99z"/><path fill="#440063" fill-rule="evenodd" d="M70.861 16.491H18.103a0.508 0.508 0 0 0-0.518 0.5v47.88a0.508 0.508 0 0 0 0.518 0.5H70.86a0.508 0.508 0 0 0 0.518-0.5v-47.88a0.508 0.508 0 0 0-0.518-0.5zM18.103 13c-2.286 0-4.138 1.787-4.138 3.99v47.882c0 2.204 1.853 3.99 4.138 3.99H70.86c2.286 0 4.138-1.786 4.138-3.99V16.99c0-2.204-1.852-3.99-4.138-3.99H18.103z" clip-rule="evenodd"/><path fill="#440063" fill-rule="evenodd" d="M31.636 28.637a18.143 18.143 0 0 0-2.062 2.468l3.51 2.122a1.145 1.145 0 0 1 0.49 0.696 1.196 1.196 0 0 1-0.113 0.859 1.104 1.104 0 0 1-0.653 0.53 1.051 1.051 0 0 1-0.822-0.1l-3.585-2.17a18.034 18.034 0 0 0-2.022 7.255h4.306a1.073 1.073 0 0 1 0.776 0.337 1.178 1.178 0 0 1 0.321 0.813 1.178 1.178 0 0 1-0.321 0.813 1.073 1.073 0 0 1-0.776 0.337h-4.306a18.034 18.034 0 0 0 2.021 7.257l3.584-2.17a1.051 1.051 0 0 1 0.822-0.1 1.104 1.104 0 0 1 0.654 0.531 1.196 1.196 0 0 1 0.113 0.858 1.145 1.145 0 0 1-0.491 0.697l-3.51 2.122a18.143 18.143 0 0 0 2.062 2.468 18.166 18.166 0 0 0 3.138 2.517l1.863-3.394a1.107 1.107 0 0 1 0.667-0.537 1.056 1.056 0 0 1 0.835 0.114 1.146 1.146 0 0 1 0.513 0.699 1.2 1.2 0 0 1-0.11 0.874l-1.819 3.302a18.062 18.062 0 0 0 6.669 1.707v-3.638a1.178 1.178 0 0 1 0.321-0.813 1.073 1.073 0 0 1 0.776-0.336 1.073 1.073 0 0 1 0.776 0.336 1.178 1.178 0 0 1 0.322 0.813v3.648a18.061 18.061 0 0 0 6.668-1.707l-1.82-3.302a1.197 1.197 0 0 1-0.094-0.86 1.142 1.142 0 0 1 0.506-0.685 1.052 1.052 0 0 1 0.82-0.12 1.1 1.1 0 0 1 0.664 0.515l1.864 3.394a18.169 18.169 0 0 0 3.132-2.527 18.143 18.143 0 0 0 2.062-2.468l-3.51-2.122a1.145 1.145 0 0 1-0.491-0.697 1.196 1.196 0 0 1 0.113-0.858 1.104 1.104 0 0 1 0.654-0.53 1.051 1.051 0 0 1 0.822 0.099l3.59 2.17a18.035 18.035 0 0 0 2.02-7.257h-4.307a1.073 1.073 0 0 1-0.776-0.337 1.178 1.178 0 0 1-0.322-0.813 1.178 1.178 0 0 1 0.322-0.813 1.073 1.073 0 0 1 0.776-0.337h4.306a18.037 18.037 0 0 0-2.02-7.254l-3.582 2.17a1.051 1.051 0 0 1-0.821 0.1 1.104 1.104 0 0 1-0.654-0.531 1.196 1.196 0 0 1-0.113-0.859 1.145 1.145 0 0 1 0.49-0.697l3.51-2.121a18.132 18.132 0 0 0-2.069-2.468 18.166 18.166 0 0 0-3.138-2.517l-1.863 3.393a1.101 1.101 0 0 1-0.665 0.515 1.052 1.052 0 0 1-0.82-0.119 1.142 1.142 0 0 1-0.506-0.685 1.197 1.197 0 0 1 0.095-0.86l1.82-3.302a18.062 18.062 0 0 0-6.67-1.707v3.63a1.179 1.179 0 0 1-0.32 0.812 1.073 1.073 0 0 1-0.777 0.337 1.073 1.073 0 0 1-0.776-0.337 1.179 1.179 0 0 1-0.321-0.813v-3.64a18.062 18.062 0 0 0-6.669 1.708l1.82 3.302a1.2 1.2 0 0 1 0.109 0.874 1.146 1.146 0 0 1-0.513 0.699 1.056 1.056 0 0 1-0.834 0.114 1.107 1.107 0 0 1-0.667-0.538l-1.864-3.393a18.165 18.165 0 0 0-3.138 2.517l0.008 0.01zm12.85 1.9c2.842-0.01 5.579 1.13 7.638 3.183a10.61 10.61 0 0 1 2.362 3.517 11.03 11.03 0 0 1 0.833 4.211 11.03 11.03 0 0 1-0.833 4.212 10.61 10.61 0 0 1-2.362 3.517c-2.066 2.043-4.799 3.182-7.64 3.182-2.84 0-5.574-1.139-7.64-3.182a10.61 10.61 0 0 1-2.361-3.517 11.03 11.03 0 0 1-0.834-4.212 11.03 11.03 0 0 1 0.834-4.211 10.61 10.61 0 0 1 2.362-3.517c2.06-2.053 4.797-3.194 7.64-3.182z" clip-rule="evenodd"/><circle cx="44.633" cy="41.599" r="7.191" fill="#FB5058"/></svg>