<svg xmlns="http://www.w3.org/2000/svg" width="88" height="88" fill="none" viewBox="0 0 88 88"><path fill="#00CCBC" fill-rule="evenodd" d="M7 43.95c0 7.382 1.81 13.975 5.435 19.78a2.603 2.603 0 0 0 0.251 0.402c1.51 2.349 3.322 4.599 5.436 6.746C25.538 78.294 34.497 82 45 82c10.468 0 19.427-3.706 26.876-11.122 2.114-2.147 3.926-4.397 5.436-6.746C81.103 58.228 83 51.5 83 43.951c0-10.47-3.708-19.428-11.124-26.878C64.426 9.69 55.468 6 45 6 34.497 6 25.538 9.691 18.122 17.073c-2.248 2.249-4.144 4.631-5.687 7.148C8.81 30.059 7 36.636 7 43.95z" clip-rule="evenodd"/><path fill="#fff" d="M59.583 66.917c-4.25 0-8.358-1.984-11.05-5.242l4.392-3.542c1.558 1.984 4.108 3.259 6.658 3.259 4.675 0 8.5-3.825 8.5-8.5s-3.825-8.5-8.5-8.5c-1.417 0-2.834 0.425-4.108 0.991L53.066 46.8 43.008 28.667l4.958-2.692 7.508 13.317c1.417-0.425 2.834-0.709 4.25-0.709 7.792 0 14.167 6.375 14.167 14.167s-6.517 14.167-14.308 14.167z"/><path fill="#FB5058" d="M59.584 58.417c-3.117 0-5.667-2.55-5.667-5.667s2.55-5.667 5.667-5.667c3.116 0 5.666 2.55 5.666 5.667s-2.55 5.667-5.666 5.667z"/><path fill="#FB5058" d="M29.834 66.917c-7.792 0-14.167-6.375-14.167-14.167 0-6.517 4.392-12.042 10.625-13.742l1.417 5.525c-3.684 0.992-6.375 4.392-6.375 8.217 0 4.675 3.825 8.5 8.5 8.5s8.5-3.825 8.5-8.5v-2.833h21.25v5.666H43.717c-1.275 6.517-7.083 11.334-13.883 11.334z"/><path fill="#450064" d="M29.834 58.417c-3.117 0-5.667-2.55-5.667-5.667s2.55-5.667 5.667-5.667c3.116 0 5.666 2.55 5.666 5.667s-2.55 5.667-5.666 5.667z"/><path fill="#fff" d="M45.417 32.917c-3.117 0-5.667-2.55-5.667-5.667s2.55-5.667 5.667-5.667c3.116 0 5.666 2.55 5.666 5.667s-2.55 5.667-5.666 5.667z"/><path fill="#450064" d="M32.242 54.167l-4.817-2.834 8.358-13.741C32.95 34.9 31.25 31.217 31.25 27.25c0-7.792 6.375-14.167 14.166-14.167 7.792 0 14.167 6.375 14.167 14.167a14.27 14.27 0 0 1-0.425 3.542l-5.525-1.417c0.142-0.708 0.283-1.417 0.283-2.125 0-4.675-3.824-8.5-8.5-8.5-4.674 0-8.5 3.825-8.5 8.5 0 2.975 1.559 5.667 4.109 7.225l2.408 1.417-11.191 18.275z"/></svg>