<svg xmlns="http://www.w3.org/2000/svg" width="88" height="88" fill="none" viewBox="0 0 88 88"><path fill="#00CCBC" fill-rule="evenodd" d="M27.894 9.47c-3.926 1.845-7.515 4.394-10.77 7.646C9.707 24.56 6 33.513 6 43.975 6 54.302 9.574 63.12 16.72 70.43a2.3 2.3 0 0 0 0.403 0.403C24.54 78.278 33.498 82 44 82c4.195 0 8.154-0.604 11.878-1.81 5.537-1.778 10.537-4.897 14.999-9.356C78.293 63.457 82 54.504 82 43.974c0-10.461-3.707-19.414-11.123-26.858a75.695 75.695 0 0 0-2.97-2.716C61.096 8.8 53.127 6 44 6c-5.838 0-11.207 1.157-16.106 3.47" clip-rule="evenodd"/><path fill="#fff" fill-rule="evenodd" d="M10.045 26L10 68.45c0 1.7 0.917 2.55 2.752 2.55h62.435C77.062 71 78 70.15 78 68.45l-0.041-42.446L10.045 26z" clip-rule="evenodd"/><path fill="#FB5058" fill-rule="evenodd" d="M12.752 17C10.917 17 10 18.05 10 20.147V26h68v-5.853C78 18.05 77.062 17 75.187 17H12.752z" clip-rule="evenodd"/><circle cx="13.5" cy="21.5" r="1.5" fill="#fff"/><circle cx="18.5" cy="21.5" r="1.5" fill="#fff"/><circle cx="23.5" cy="21.5" r="1.5" fill="#fff"/><path fill="#BAC3C3" d="M14 30h27v15H14z"/><path fill="#693382" d="M14 50h60v5H14zM14 59h27v5H14z"/><path fill="#BAC3C3" d="M46 59h28v5H46z"/><path fill="#693382" d="M46 40h28v5H46z"/><path fill="#BAC3C3" d="M46 30h14v5H46z"/></svg>